<svg xmlns="http://www.w3.org/2000/svg" width="400.511" height="135.324" viewBox="0 0 400.511 135.324">
  <g id="Asset_18" data-name="Asset 18" transform="translate(19 -2)">
    <g id="Layer_1" data-name="Layer 1" transform="translate(-19 2)">
      <rect id="Rectangle_71" data-name="Rectangle 71" width="141.952" height="135.285" transform="translate(122.147)" fill="none"/>
      <path id="Path_134" data-name="Path 134" d="M220.586,93.38H171.06a.84.84,0,0,0-.83.83v42.257h51.186V94.21A.83.83,0,0,0,220.586,93.38Z" transform="translate(-2.082 -1.142)" fill="#e9fdb4"/>
      <path id="Path_135" data-name="Path 135" d="M237.125,20.9,194.631,0,152.157,20.9l-28.5,30.542v83.881h41.229V93.068a.84.84,0,0,0-.83-.83h-5.383a.84.84,0,0,1-.83-.83V81.985a.84.84,0,0,1,.83-.83h71.91a.84.84,0,0,1,.83.83v9.433a.84.84,0,0,1-.83.83h-4.139a.84.84,0,0,0-.83.83v42.247H265.6V51.443Zm-32.211,33.89a.612.612,0,0,1,0,.879l-2.094,2.094a.612.612,0,0,1-.879,0l-7.29-7.29-7.319,7.319a.612.612,0,0,1-.879,0L184.3,55.641a.612.612,0,0,1,0-.879l7.319-7.349-7.29-7.29a.612.612,0,0,1,0-.879l2.094-2.094a.612.612,0,0,1,.879,0l7.29,7.3,7.339-7.339a.612.612,0,0,1,.879,0l2.183,2.173a.612.612,0,0,1,0,.879L197.654,47.5Z" transform="translate(-1.513)" fill="#e9fdb4"/>
      <path id="Path_136" data-name="Path 136" d="M6.984,35.267H19.508V29.41H0v30.9H6.984V48.286h10.7V42.429H6.984Z" transform="translate(0 -0.36)" fill="#e9fdb4"/>
      <path id="Path_137" data-name="Path 137" d="M28.98,29.41l-9.7,30.9h7.142l1.906-7.359h9.443l1.906,7.359h7.389l-9.72-30.9Zm.761,18.106.741-2.855c.859-3.092,1.679-6.707,2.43-9.967H33.1c.83,3.22,1.65,6.914,2.509,9.967l.741,2.855Z" transform="translate(-0.236 -0.36)" fill="#e9fdb4"/>
      <path id="Path_138" data-name="Path 138" d="M73.455,39.031c0-7.349-5.373-9.621-11.922-9.621H50.4v30.9h6.984V49.185h3.842l5.927,11.122h7.813L67.953,47.95C71.252,46.459,73.455,43.575,73.455,39.031Zm-16.071-4.1h3.576c3.674,0,5.65.988,5.65,4.079s-1.976,4.613-5.65,4.613H57.384Z" transform="translate(-0.616 -0.36)" fill="#e9fdb4"/>
      <path id="Path_139" data-name="Path 139" d="M96.187,43.14c-.612,1.818-1.136,3.8-1.758,5.7h-.188c-.622-1.9-1.166-3.882-1.778-5.7L87.446,29.41H79.82v30.9h6.272V48.968c0-3.013-.563-7.507-.9-10.5h.2L87.9,45.8,92.276,57.65h3.882L100.524,45.8l2.539-7.319h.188c-.326,2.963-.889,7.487-.889,10.5v11.33h6.282V29.41h-7.626Z" transform="translate(-0.976 -0.36)" fill="#e9fdb4"/>
      <path id="Path_140" data-name="Path 140" d="M301.1,29.41H277.11v5.857h8.5v25.04H292.6V35.267h8.5Z" transform="translate(-3.389 -0.36)" fill="#e9fdb4"/>
      <path id="Path_141" data-name="Path 141" d="M310.07,29.41l-9.71,30.9H307.5l1.916-7.359h9.423l1.906,7.359h7.4l-9.71-30.9Zm.8,18.106.741-2.855c.859-3.092,1.689-6.707,2.44-9.967h.188c.82,3.22,1.65,6.914,2.509,9.967l.741,2.855Z" transform="translate(-3.674 -0.36)" fill="#e9fdb4"/>
      <path id="Path_142" data-name="Path 142" d="M349.388,43.93v-.188c2.519-.988,4.07-3.951,4.07-6.667,0-5.927-4.939-7.665-11.4-7.665H331.49v30.9h11.458c6.717,0,12.031-2.815,12.031-9.1a7.043,7.043,0,0,0-5.591-7.28Zm-10.915-9.137h3.319c3.25,0,4.84.929,4.84,3.309s-1.5,3.684-4.889,3.684h-3.269Zm3.9,20.131h-3.9V46.943h3.9c3.842,0,5.778,1.106,5.778,3.813S346.188,54.924,342.375,54.924Z" transform="translate(-4.055 -0.36)" fill="#e9fdb4"/>
      <path id="Path_143" data-name="Path 143" d="M367.513,29.41H360.52v30.9h19.192V54.45h-12.2Z" transform="translate(-4.41 -0.36)" fill="#e9fdb4"/>
      <path id="Path_144" data-name="Path 144" d="M392.373,54.45V47.328h10.539V41.471H392.373v-6.2H404.75V29.41H385.39v30.9h19.834V54.45Z" transform="translate(-4.714 -0.36)" fill="#e9fdb4"/>
    </g>
  </g>
</svg>
