<svg id="harvest" xmlns="http://www.w3.org/2000/svg" width="81.461" height="81.457" viewBox="0 0 81.461 81.457">
  <path id="Path_1945" data-name="Path 1945" d="M44.944,21.618h4.072A7.033,7.033,0,0,0,55.9,16H51.825A7.036,7.036,0,0,0,44.944,21.618Z" transform="translate(13.966 2.258)" fill="#b2dc8f"/>
  <path id="Path_1946" data-name="Path 1946" d="M22.4,14.236c.139,0,.274.017.413.021L23.8,4.4A1.3,1.3,0,0,0,22.538,3h-.265A1.273,1.273,0,0,0,21,4.271l.993,9.986C22.131,14.252,22.265,14.236,22.4,14.236Z" transform="translate(4.281 -3)" fill="#b2dc8f"/>
  <path id="Path_1947" data-name="Path 1947" d="M14.809,32.4a8.422,8.422,0,0,1,.126-1.4H12v.962a9.877,9.877,0,0,1,2.809,2Z" transform="translate(0.64 8.325)" fill="#b2dc8f"/>
  <path id="Path_1948" data-name="Path 1948" d="M13.269,8.3l4.8,7.073q.565-.364,1.166-.674L16.35,6.754a1.351,1.351,0,0,0-.069-.159A1.54,1.54,0,0,0,14.2,5.88l-.351.176a1.54,1.54,0,0,0-.688,2.066C13.193,8.178,13.229,8.241,13.269,8.3Z" transform="translate(1.045 -1.901)" fill="#b2dc8f"/>
  <path id="Path_1949" data-name="Path 1949" d="M18.75,35.471H34.393l1.843-8.842A11.246,11.246,0,1,0,14,24.236a11.592,11.592,0,0,0,.236,2.393l1.624,7.789a8.407,8.407,0,0,1,6.567-3.16v2.809A5.57,5.57,0,0,0,18.75,35.471Zm10.7-16.853h2.809v2.809H29.449Zm0,5.618h2.809v2.809H29.449Zm0,5.618h2.809v2.809H29.449Z" transform="translate(1.449 1.044)" fill="#b2dc8f"/>
  <path id="Path_1950" data-name="Path 1950" d="M12.982,38.618h4.072A7.034,7.034,0,0,0,10.173,33H6.1A7.033,7.033,0,0,0,12.982,38.618Z" transform="translate(-1.746 9.133)" fill="#b2dc8f"/>
  <path id="Path_1951" data-name="Path 1951" d="M32.531,8.3a1.755,1.755,0,0,0,.105-.181,1.539,1.539,0,0,0-.691-2.06l-.351-.176a1.539,1.539,0,0,0-2.066.688,1.717,1.717,0,0,0-.081.184L26.558,14.7q.6.31,1.167.674Z" transform="translate(6.529 -1.902)" fill="#b2dc8f"/>
  <path id="Path_1952" data-name="Path 1952" d="M29.523,51.427H68.871V43H27.652A19.584,19.584,0,0,1,29.523,51.427Zm33.73-5.618h2.809v2.809H63.253Z" transform="translate(6.972 13.178)" fill="#b2dc8f"/>
  <path id="Path_1953" data-name="Path 1953" d="M26.463,59.427H65.139a4.219,4.219,0,0,0,4.213-4.213V51H29.824A19.522,19.522,0,0,1,26.463,59.427Zm37.271-5.618h2.809v2.809H63.734Z" transform="translate(6.491 16.413)" fill="#b2dc8f"/>
  <path id="Path_1954" data-name="Path 1954" d="M16.2,31a5.532,5.532,0,0,0-.2,1.4v1.4H79.2V31Z" transform="translate(2.258 8.325)" fill="#b2dc8f"/>
  <path id="Path_1955" data-name="Path 1955" d="M16,39.027a5.166,5.166,0,0,0,.822-.251,10.908,10.908,0,0,1,12.4,2.744,19.663,19.663,0,0,1,1.493,1.906H73.584V35H16Zm51.966-1.218h2.809v2.809H67.966Z" transform="translate(2.258 9.942)" fill="#b2dc8f"/>
  <path id="Path_1956" data-name="Path 1956" d="M32.389,41.813a8.2,8.2,0,0,0-9.2-2.041,8.259,8.259,0,0,1-1.927.542v2.645a10.335,10.335,0,0,0,3.222-2.114l1.985,1.989c-.329.33-3.315,3.22-6.611,3.22s-6.282-2.89-6.611-3.22l1.985-1.989a10.386,10.386,0,0,0,3.222,2.114V39.032H14.236a9.762,9.762,0,0,1-1.4-.111,8.607,8.607,0,0,0-5.584,2.963,16.856,16.856,0,1,0,25.135-.072ZM19.854,67.121A14.061,14.061,0,0,1,5.809,53.076H8.618A11.249,11.249,0,0,0,19.854,64.312Z" transform="translate(-3 11.528)" fill="#b2dc8f"/>
  <path id="Path_1957" data-name="Path 1957" d="M61.485,37.089a16.765,16.765,0,0,0-3.777-7.05A8.2,8.2,0,0,0,48.5,28c-.239.1-.489.188-.742.268V16.022a4.219,4.219,0,0,1,4.213-4.213h1.4V9h-1.4a7.03,7.03,0,0,0-7.023,7.022V28.266c-.253-.08-.5-.166-.742-.268a8.2,8.2,0,0,0-9.205,2.041,16.757,16.757,0,0,0-3.777,7.05H61.485ZM40.046,30.261a13.707,13.707,0,0,0,6.31,1.211,13.707,13.707,0,0,0,6.31-1.211L54.1,32.675c-.108.066-2.732,1.605-7.744,1.605s-7.636-1.539-7.746-1.605Z" transform="translate(8.418 -0.573)" fill="#b2dc8f"/>
</svg>
