<svg width="1397" height="819" viewBox="0 0 1397 819" fill="none" xmlns="http://www.w3.org/2000/svg">
<rect x="511" width="333" height="171" fill="#FF934F"/>
<path d="M604.379 67.516V85H600.803V74.944C600.803 74.712 600.807 74.46 600.815 74.188C600.831 73.916 600.855 73.64 600.887 73.36L596.243 82.348C596.099 82.628 595.903 82.84 595.655 82.984C595.415 83.128 595.139 83.2 594.827 83.2H594.275C593.963 83.2 593.683 83.128 593.435 82.984C593.195 82.84 593.003 82.628 592.859 82.348L588.215 73.336C588.239 73.624 588.259 73.908 588.275 74.188C588.291 74.46 588.299 74.712 588.299 74.944V85H584.723V67.516H587.819C587.995 67.516 588.147 67.52 588.275 67.528C588.411 67.536 588.531 67.56 588.635 67.6C588.739 67.64 588.831 67.704 588.911 67.792C588.999 67.872 589.083 67.988 589.163 68.14L593.663 77.008C593.823 77.312 593.975 77.628 594.119 77.956C594.271 78.284 594.415 78.62 594.551 78.964C594.687 78.612 594.827 78.268 594.971 77.932C595.123 77.596 595.283 77.276 595.451 76.972L599.939 68.14C600.019 67.988 600.099 67.872 600.179 67.792C600.267 67.704 600.363 67.64 600.467 67.6C600.571 67.56 600.687 67.536 600.815 67.528C600.951 67.52 601.107 67.516 601.283 67.516H604.379ZM617.002 78.316L615.382 73.528C615.262 73.224 615.134 72.868 614.998 72.46C614.862 72.044 614.726 71.596 614.59 71.116C614.47 71.604 614.342 72.056 614.206 72.472C614.07 72.888 613.942 73.248 613.822 73.552L612.214 78.316H617.002ZM623.446 85H620.302C619.95 85 619.666 84.92 619.45 84.76C619.234 84.592 619.07 84.38 618.958 84.124L617.926 81.076H611.278L610.246 84.124C610.158 84.348 609.998 84.552 609.766 84.736C609.542 84.912 609.262 85 608.926 85H605.758L612.526 67.516H616.678L623.446 85ZM628.905 85H624.825V67.516H628.905V85ZM647.542 67.516V85H645.43C645.118 85 644.854 84.952 644.638 84.856C644.43 84.752 644.222 84.576 644.014 84.328L635.77 73.9C635.802 74.212 635.822 74.516 635.83 74.812C635.846 75.1 635.854 75.372 635.854 75.628V85H632.278V67.516H634.414C634.59 67.516 634.738 67.524 634.858 67.54C634.978 67.556 635.086 67.588 635.182 67.636C635.278 67.676 635.37 67.736 635.458 67.816C635.546 67.896 635.646 68.004 635.758 68.14L644.074 78.64C644.034 78.304 644.006 77.98 643.99 77.668C643.974 77.348 643.966 77.048 643.966 76.768V67.516H647.542ZM663.498 70.732H658.578V85H654.522V70.732H649.602V67.516H663.498V70.732ZM669.639 70.636V74.716H675.135V77.716H669.639V81.88H676.815V85H665.559V67.516H676.815V70.636H669.639ZM694.581 67.516V85H692.469C692.157 85 691.893 84.952 691.677 84.856C691.469 84.752 691.261 84.576 691.053 84.328L682.809 73.9C682.841 74.212 682.861 74.516 682.869 74.812C682.885 75.1 682.893 75.372 682.893 75.628V85H679.317V67.516H681.453C681.629 67.516 681.777 67.524 681.897 67.54C682.017 67.556 682.125 67.588 682.221 67.636C682.317 67.676 682.409 67.736 682.497 67.816C682.585 67.896 682.685 68.004 682.797 68.14L691.113 78.64C691.073 78.304 691.045 77.98 691.029 77.668C691.013 77.348 691.005 77.048 691.005 76.768V67.516H694.581ZM707.213 78.316L705.593 73.528C705.473 73.224 705.345 72.868 705.209 72.46C705.073 72.044 704.937 71.596 704.801 71.116C704.681 71.604 704.553 72.056 704.417 72.472C704.281 72.888 704.153 73.248 704.033 73.552L702.425 78.316H707.213ZM713.657 85H710.513C710.161 85 709.877 84.92 709.661 84.76C709.445 84.592 709.281 84.38 709.169 84.124L708.137 81.076H701.489L700.457 84.124C700.369 84.348 700.209 84.552 699.977 84.736C699.753 84.912 699.473 85 699.137 85H695.969L702.737 67.516H706.889L713.657 85ZM730.3 67.516V85H728.188C727.876 85 727.612 84.952 727.396 84.856C727.188 84.752 726.98 84.576 726.772 84.328L718.528 73.9C718.56 74.212 718.58 74.516 718.588 74.812C718.604 75.1 718.612 75.372 718.612 75.628V85H715.036V67.516H717.172C717.348 67.516 717.496 67.524 717.616 67.54C717.736 67.556 717.844 67.588 717.94 67.636C718.036 67.676 718.128 67.736 718.216 67.816C718.304 67.896 718.404 68.004 718.516 68.14L726.832 78.64C726.792 78.304 726.764 77.98 726.748 77.668C726.732 77.348 726.724 77.048 726.724 76.768V67.516H730.3ZM745.476 80.476C745.572 80.476 745.668 80.496 745.764 80.536C745.86 80.568 745.952 80.628 746.04 80.716L747.648 82.408C746.944 83.328 746.06 84.024 744.996 84.496C743.94 84.96 742.688 85.192 741.24 85.192C739.912 85.192 738.72 84.968 737.664 84.52C736.616 84.064 735.724 83.44 734.988 82.648C734.26 81.848 733.7 80.904 733.308 79.816C732.916 78.72 732.72 77.532 732.72 76.252C732.72 74.948 732.932 73.752 733.356 72.664C733.78 71.568 734.376 70.624 735.144 69.832C735.912 69.04 736.832 68.424 737.904 67.984C738.976 67.544 740.156 67.324 741.444 67.324C742.1 67.324 742.716 67.384 743.292 67.504C743.876 67.616 744.42 67.776 744.924 67.984C745.428 68.184 745.892 68.428 746.316 68.716C746.74 69.004 747.116 69.316 747.444 69.652L746.076 71.488C745.988 71.6 745.884 71.704 745.764 71.8C745.644 71.888 745.476 71.932 745.26 71.932C745.116 71.932 744.98 71.9 744.852 71.836C744.724 71.772 744.588 71.696 744.444 71.608C744.3 71.512 744.14 71.412 743.964 71.308C743.796 71.196 743.592 71.096 743.352 71.008C743.12 70.912 742.844 70.832 742.524 70.768C742.212 70.704 741.844 70.672 741.42 70.672C740.748 70.672 740.132 70.796 739.572 71.044C739.02 71.292 738.54 71.656 738.132 72.136C737.732 72.608 737.42 73.192 737.196 73.888C736.98 74.576 736.872 75.364 736.872 76.252C736.872 77.148 736.992 77.944 737.232 78.64C737.48 79.336 737.812 79.924 738.228 80.404C738.652 80.876 739.144 81.236 739.704 81.484C740.264 81.732 740.864 81.856 741.504 81.856C741.872 81.856 742.208 81.84 742.512 81.808C742.816 81.768 743.1 81.708 743.364 81.628C743.628 81.54 743.876 81.428 744.108 81.292C744.34 81.148 744.576 80.968 744.816 80.752C744.912 80.672 745.016 80.608 745.128 80.56C745.24 80.504 745.356 80.476 745.476 80.476ZM753.499 70.636V74.716H758.995V77.716H753.499V81.88H760.675V85H749.419V67.516H760.675V70.636H753.499ZM765.624 84.856C765.536 85.072 765.42 85.264 765.276 85.432C765.14 85.6 764.984 85.74 764.808 85.852C764.64 85.964 764.456 86.048 764.256 86.104C764.064 86.16 763.872 86.188 763.68 86.188H762.096L768.912 68.296C769.072 67.888 769.316 67.576 769.644 67.36C769.972 67.144 770.352 67.036 770.784 67.036H772.368L765.624 84.856ZM632.223 104.096C633.279 104.096 634.039 103.844 634.503 103.34C634.967 102.836 635.199 102.132 635.199 101.228C635.199 100.828 635.139 100.464 635.019 100.136C634.899 99.808 634.715 99.528 634.467 99.296C634.227 99.056 633.919 98.872 633.543 98.744C633.175 98.616 632.735 98.552 632.223 98.552H630.111V104.096H632.223ZM632.223 95.516C633.455 95.516 634.511 95.664 635.391 95.96C636.279 96.248 637.007 96.648 637.575 97.16C638.151 97.672 638.575 98.276 638.847 98.972C639.119 99.668 639.255 100.42 639.255 101.228C639.255 102.1 639.115 102.9 638.835 103.628C638.555 104.356 638.127 104.98 637.551 105.5C636.975 106.02 636.243 106.428 635.355 106.724C634.475 107.012 633.431 107.156 632.223 107.156H630.111V113H626.055V95.516H632.223ZM649.334 106.316L647.714 101.528C647.594 101.224 647.466 100.868 647.33 100.46C647.194 100.044 647.058 99.596 646.922 99.116C646.802 99.604 646.674 100.056 646.538 100.472C646.402 100.888 646.274 101.248 646.154 101.552L644.546 106.316H649.334ZM655.778 113H652.634C652.282 113 651.998 112.92 651.782 112.76C651.566 112.592 651.402 112.38 651.29 112.124L650.258 109.076H643.61L642.578 112.124C642.49 112.348 642.33 112.552 642.098 112.736C641.874 112.912 641.594 113 641.258 113H638.09L644.858 95.516H649.01L655.778 113ZM662.845 103.736C663.397 103.736 663.865 103.668 664.249 103.532C664.641 103.388 664.961 103.192 665.209 102.944C665.457 102.696 665.637 102.408 665.749 102.08C665.861 101.744 665.917 101.384 665.917 101C665.917 100.232 665.665 99.632 665.161 99.2C664.665 98.768 663.893 98.552 662.845 98.552H661.213V103.736H662.845ZM671.461 113H667.789C667.109 113 666.621 112.744 666.325 112.232L663.421 107.156C663.285 106.94 663.133 106.784 662.965 106.688C662.797 106.584 662.557 106.532 662.245 106.532H661.213V113H657.157V95.516H662.845C664.109 95.516 665.185 95.648 666.073 95.912C666.969 96.168 667.697 96.528 668.257 96.992C668.825 97.456 669.237 98.004 669.493 98.636C669.749 99.268 669.877 99.956 669.877 100.7C669.877 101.268 669.801 101.804 669.649 102.308C669.497 102.812 669.273 103.28 668.977 103.712C668.681 104.136 668.313 104.516 667.873 104.852C667.441 105.188 666.941 105.464 666.373 105.68C666.637 105.816 666.885 105.988 667.117 106.196C667.349 106.396 667.557 106.636 667.741 106.916L671.461 113ZM676.986 102.596H677.634C678.234 102.596 678.666 102.408 678.93 102.032L682.866 96.32C683.098 96.016 683.346 95.808 683.61 95.696C683.882 95.576 684.218 95.516 684.618 95.516H688.146L682.962 102.584C682.594 103.072 682.198 103.424 681.774 103.64C682.078 103.752 682.354 103.908 682.602 104.108C682.85 104.308 683.082 104.568 683.298 104.888L688.578 113H684.954C684.722 113 684.522 112.984 684.354 112.952C684.194 112.92 684.054 112.872 683.934 112.808C683.814 112.744 683.71 112.668 683.622 112.58C683.534 112.484 683.45 112.376 683.37 112.256L679.41 106.172C679.266 105.948 679.082 105.792 678.858 105.704C678.642 105.608 678.346 105.56 677.97 105.56H676.986V113H672.93V95.516H676.986V102.596ZM693.956 113H689.876V95.516H693.956V113ZM712.593 95.516V113H710.481C710.169 113 709.905 112.952 709.689 112.856C709.481 112.752 709.273 112.576 709.065 112.328L700.821 101.9C700.853 102.212 700.873 102.516 700.881 102.812C700.897 103.1 700.905 103.372 700.905 103.628V113H697.329V95.516H699.465C699.641 95.516 699.789 95.524 699.909 95.54C700.029 95.556 700.137 95.588 700.233 95.636C700.329 95.676 700.421 95.736 700.509 95.816C700.597 95.896 700.697 96.004 700.809 96.14L709.125 106.64C709.085 106.304 709.057 105.98 709.041 105.668C709.025 105.348 709.017 105.048 709.017 104.768V95.516H712.593ZM724.385 103.94H730.601V111.32C729.705 111.976 728.749 112.452 727.733 112.748C726.725 113.044 725.669 113.192 724.565 113.192C723.125 113.192 721.813 112.968 720.629 112.52C719.453 112.064 718.445 111.44 717.605 110.648C716.765 109.848 716.117 108.904 715.661 107.816C715.205 106.72 714.977 105.532 714.977 104.252C714.977 102.948 715.193 101.752 715.625 100.664C716.057 99.568 716.673 98.624 717.473 97.832C718.281 97.04 719.253 96.424 720.389 95.984C721.533 95.544 722.809 95.324 724.217 95.324C724.945 95.324 725.629 95.384 726.269 95.504C726.909 95.624 727.497 95.788 728.033 95.996C728.577 96.204 729.073 96.452 729.521 96.74C729.969 97.028 730.369 97.34 730.721 97.676L729.545 99.464C729.361 99.744 729.121 99.916 728.825 99.98C728.537 100.044 728.225 99.972 727.889 99.764C727.569 99.572 727.265 99.408 726.977 99.272C726.697 99.128 726.409 99.012 726.113 98.924C725.817 98.836 725.505 98.772 725.177 98.732C724.849 98.692 724.481 98.672 724.073 98.672C723.313 98.672 722.629 98.808 722.021 99.08C721.413 99.344 720.893 99.72 720.461 100.208C720.037 100.696 719.709 101.284 719.477 101.972C719.245 102.652 719.129 103.412 719.129 104.252C719.129 105.18 719.257 106.004 719.513 106.724C719.769 107.444 720.129 108.052 720.593 108.548C721.065 109.044 721.625 109.424 722.273 109.688C722.929 109.944 723.653 110.072 724.445 110.072C724.933 110.072 725.373 110.024 725.765 109.928C726.165 109.832 726.553 109.704 726.929 109.544V106.892H725.201C724.945 106.892 724.745 106.824 724.601 106.688C724.457 106.552 724.385 106.38 724.385 106.172V103.94Z" fill="white"/>
<path d="M1019 632.887V723H1162V632.887L1091.41 584L1019 632.887Z" fill="#619B8A"/>
<path d="M1066.34 661.516V679H1062.26V671.608H1055.16V679H1051.08V661.516H1055.16V668.824H1062.26V661.516H1066.34ZM1086.89 670.252C1086.89 671.516 1086.67 672.692 1086.23 673.78C1085.8 674.868 1085.19 675.816 1084.4 676.624C1083.61 677.424 1082.65 678.052 1081.53 678.508C1080.42 678.964 1079.18 679.192 1077.82 679.192C1076.46 679.192 1075.22 678.964 1074.1 678.508C1072.98 678.052 1072.02 677.424 1071.22 676.624C1070.43 675.816 1069.81 674.868 1069.37 673.78C1068.94 672.692 1068.73 671.516 1068.73 670.252C1068.73 668.988 1068.94 667.812 1069.37 666.724C1069.81 665.636 1070.43 664.692 1071.22 663.892C1072.02 663.092 1072.98 662.464 1074.1 662.008C1075.22 661.552 1076.46 661.324 1077.82 661.324C1079.18 661.324 1080.42 661.556 1081.53 662.02C1082.65 662.476 1083.61 663.104 1084.4 663.904C1085.19 664.704 1085.8 665.648 1086.23 666.736C1086.67 667.824 1086.89 668.996 1086.89 670.252ZM1082.74 670.252C1082.74 669.388 1082.63 668.612 1082.41 667.924C1082.18 667.228 1081.86 666.64 1081.43 666.16C1081.02 665.68 1080.51 665.312 1079.9 665.056C1079.29 664.8 1078.6 664.672 1077.82 664.672C1077.04 664.672 1076.34 664.8 1075.72 665.056C1075.11 665.312 1074.6 665.68 1074.17 666.16C1073.76 666.64 1073.44 667.228 1073.21 667.924C1072.99 668.612 1072.88 669.388 1072.88 670.252C1072.88 671.124 1072.99 671.908 1073.21 672.604C1073.44 673.292 1073.76 673.876 1074.17 674.356C1074.6 674.836 1075.11 675.204 1075.72 675.46C1076.34 675.708 1077.04 675.832 1077.82 675.832C1078.6 675.832 1079.29 675.708 1079.9 675.46C1080.51 675.204 1081.02 674.836 1081.43 674.356C1081.86 673.876 1082.18 673.292 1082.41 672.604C1082.63 671.908 1082.74 671.124 1082.74 670.252ZM1096.58 675.796C1097.12 675.796 1097.61 675.708 1098.03 675.532C1098.46 675.348 1098.83 675.088 1099.12 674.752C1099.42 674.416 1099.64 674.008 1099.79 673.528C1099.95 673.04 1100.03 672.488 1100.03 671.872V661.516H1104.09V671.872C1104.09 672.944 1103.91 673.928 1103.56 674.824C1103.22 675.72 1102.72 676.492 1102.07 677.14C1101.43 677.788 1100.64 678.292 1099.71 678.652C1098.78 679.012 1097.74 679.192 1096.58 679.192C1095.41 679.192 1094.36 679.012 1093.43 678.652C1092.51 678.292 1091.72 677.788 1091.07 677.14C1090.42 676.492 1089.93 675.72 1089.58 674.824C1089.24 673.928 1089.07 672.944 1089.07 671.872V661.516H1093.12V671.86C1093.12 672.476 1093.2 673.028 1093.35 673.516C1093.51 673.996 1093.74 674.408 1094.03 674.752C1094.33 675.088 1094.69 675.348 1095.11 675.532C1095.55 675.708 1096.03 675.796 1096.58 675.796ZM1116.92 665.068C1116.8 665.26 1116.67 665.404 1116.53 665.5C1116.41 665.596 1116.24 665.644 1116.03 665.644C1115.85 665.644 1115.65 665.588 1115.43 665.476C1115.22 665.356 1114.98 665.224 1114.71 665.08C1114.45 664.936 1114.14 664.808 1113.8 664.696C1113.45 664.576 1113.06 664.516 1112.62 664.516C1111.86 664.516 1111.29 664.68 1110.92 665.008C1110.55 665.328 1110.37 665.764 1110.37 666.316C1110.37 666.668 1110.48 666.96 1110.7 667.192C1110.93 667.424 1111.22 667.624 1111.58 667.792C1111.95 667.96 1112.36 668.116 1112.83 668.26C1113.3 668.396 1113.78 668.552 1114.27 668.728C1114.75 668.896 1115.23 669.096 1115.69 669.328C1116.17 669.56 1116.58 669.856 1116.94 670.216C1117.31 670.576 1117.61 671.016 1117.83 671.536C1118.05 672.048 1118.17 672.668 1118.17 673.396C1118.17 674.204 1118.03 674.96 1117.75 675.664C1117.47 676.368 1117.06 676.984 1116.52 677.512C1115.99 678.032 1115.34 678.444 1114.55 678.748C1113.78 679.044 1112.89 679.192 1111.9 679.192C1111.36 679.192 1110.8 679.136 1110.23 679.024C1109.67 678.912 1109.13 678.756 1108.6 678.556C1108.07 678.348 1107.58 678.104 1107.11 677.824C1106.65 677.544 1106.25 677.232 1105.9 676.888L1107.1 674.992C1107.2 674.856 1107.32 674.744 1107.47 674.656C1107.63 674.56 1107.81 674.512 1107.99 674.512C1108.23 674.512 1108.47 674.588 1108.71 674.74C1108.96 674.892 1109.23 675.06 1109.54 675.244C1109.85 675.428 1110.21 675.596 1110.61 675.748C1111.01 675.9 1111.48 675.976 1112.02 675.976C1112.76 675.976 1113.33 675.816 1113.74 675.496C1114.15 675.168 1114.35 674.652 1114.35 673.948C1114.35 673.54 1114.24 673.208 1114.01 672.952C1113.79 672.696 1113.49 672.484 1113.13 672.316C1112.77 672.148 1112.35 672 1111.89 671.872C1111.43 671.744 1110.95 671.604 1110.46 671.452C1109.97 671.292 1109.5 671.1 1109.03 670.876C1108.57 670.644 1108.15 670.344 1107.79 669.976C1107.43 669.6 1107.13 669.136 1106.91 668.584C1106.69 668.024 1106.57 667.336 1106.57 666.52C1106.57 665.864 1106.71 665.224 1106.97 664.6C1107.23 663.976 1107.62 663.42 1108.13 662.932C1108.65 662.444 1109.27 662.056 1110.02 661.768C1110.76 661.472 1111.61 661.324 1112.57 661.324C1113.11 661.324 1113.63 661.368 1114.13 661.456C1114.65 661.536 1115.13 661.66 1115.59 661.828C1116.04 661.988 1116.47 662.184 1116.86 662.416C1117.26 662.64 1117.61 662.896 1117.93 663.184L1116.92 665.068ZM1124.63 664.636V668.716H1130.12V671.716H1124.63V675.88H1131.8V679H1120.55V661.516H1131.8V664.636H1124.63Z" fill="white"/>
<path d="M717 627.887V718H860V627.887L789.414 579L717 627.887Z" fill="#619B8A"/>
<path d="M764.343 656.516V674H760.263V666.608H753.159V674H749.079V656.516H753.159V663.824H760.263V656.516H764.343ZM784.895 665.252C784.895 666.516 784.675 667.692 784.235 668.78C783.803 669.868 783.191 670.816 782.399 671.624C781.607 672.424 780.651 673.052 779.531 673.508C778.419 673.964 777.183 674.192 775.823 674.192C774.463 674.192 773.223 673.964 772.103 673.508C770.983 673.052 770.023 672.424 769.223 671.624C768.431 670.816 767.815 669.868 767.375 668.78C766.943 667.692 766.727 666.516 766.727 665.252C766.727 663.988 766.943 662.812 767.375 661.724C767.815 660.636 768.431 659.692 769.223 658.892C770.023 658.092 770.983 657.464 772.103 657.008C773.223 656.552 774.463 656.324 775.823 656.324C777.183 656.324 778.419 656.556 779.531 657.02C780.651 657.476 781.607 658.104 782.399 658.904C783.191 659.704 783.803 660.648 784.235 661.736C784.675 662.824 784.895 663.996 784.895 665.252ZM780.743 665.252C780.743 664.388 780.631 663.612 780.407 662.924C780.183 662.228 779.859 661.64 779.435 661.16C779.019 660.68 778.507 660.312 777.899 660.056C777.291 659.8 776.599 659.672 775.823 659.672C775.039 659.672 774.339 659.8 773.723 660.056C773.115 660.312 772.599 660.68 772.175 661.16C771.759 661.64 771.439 662.228 771.215 662.924C770.991 663.612 770.879 664.388 770.879 665.252C770.879 666.124 770.991 666.908 771.215 667.604C771.439 668.292 771.759 668.876 772.175 669.356C772.599 669.836 773.115 670.204 773.723 670.46C774.339 670.708 775.039 670.832 775.823 670.832C776.599 670.832 777.291 670.708 777.899 670.46C778.507 670.204 779.019 669.836 779.435 669.356C779.859 668.876 780.183 668.292 780.407 667.604C780.631 666.908 780.743 666.124 780.743 665.252ZM794.578 670.796C795.122 670.796 795.606 670.708 796.03 670.532C796.462 670.348 796.826 670.088 797.122 669.752C797.418 669.416 797.642 669.008 797.794 668.528C797.954 668.04 798.034 667.488 798.034 666.872V656.516H802.09V666.872C802.09 667.944 801.914 668.928 801.562 669.824C801.218 670.72 800.722 671.492 800.074 672.14C799.426 672.788 798.638 673.292 797.71 673.652C796.782 674.012 795.738 674.192 794.578 674.192C793.41 674.192 792.362 674.012 791.434 673.652C790.506 673.292 789.718 672.788 789.07 672.14C788.422 671.492 787.926 670.72 787.582 669.824C787.238 668.928 787.066 667.944 787.066 666.872V656.516H791.122V666.86C791.122 667.476 791.198 668.028 791.35 668.516C791.51 668.996 791.738 669.408 792.034 669.752C792.33 670.088 792.69 670.348 793.114 670.532C793.546 670.708 794.034 670.796 794.578 670.796ZM814.918 660.068C814.798 660.26 814.67 660.404 814.534 660.5C814.406 660.596 814.238 660.644 814.03 660.644C813.846 660.644 813.646 660.588 813.43 660.476C813.222 660.356 812.982 660.224 812.71 660.08C812.446 659.936 812.142 659.808 811.798 659.696C811.454 659.576 811.062 659.516 810.622 659.516C809.862 659.516 809.294 659.68 808.918 660.008C808.55 660.328 808.366 660.764 808.366 661.316C808.366 661.668 808.478 661.96 808.702 662.192C808.926 662.424 809.218 662.624 809.578 662.792C809.946 662.96 810.362 663.116 810.826 663.26C811.298 663.396 811.778 663.552 812.266 663.728C812.754 663.896 813.23 664.096 813.694 664.328C814.166 664.56 814.582 664.856 814.942 665.216C815.31 665.576 815.606 666.016 815.83 666.536C816.054 667.048 816.166 667.668 816.166 668.396C816.166 669.204 816.026 669.96 815.746 670.664C815.466 671.368 815.058 671.984 814.522 672.512C813.994 673.032 813.338 673.444 812.554 673.748C811.778 674.044 810.894 674.192 809.902 674.192C809.358 674.192 808.802 674.136 808.234 674.024C807.674 673.912 807.13 673.756 806.602 673.556C806.074 673.348 805.578 673.104 805.114 672.824C804.65 672.544 804.246 672.232 803.902 671.888L805.102 669.992C805.198 669.856 805.322 669.744 805.474 669.656C805.634 669.56 805.806 669.512 805.99 669.512C806.23 669.512 806.47 669.588 806.71 669.74C806.958 669.892 807.234 670.06 807.538 670.244C807.85 670.428 808.206 670.596 808.606 670.748C809.006 670.9 809.478 670.976 810.022 670.976C810.758 670.976 811.33 670.816 811.738 670.496C812.146 670.168 812.35 669.652 812.35 668.948C812.35 668.54 812.238 668.208 812.014 667.952C811.79 667.696 811.494 667.484 811.126 667.316C810.766 667.148 810.354 667 809.89 666.872C809.426 666.744 808.95 666.604 808.462 666.452C807.974 666.292 807.498 666.1 807.034 665.876C806.57 665.644 806.154 665.344 805.786 664.976C805.426 664.6 805.134 664.136 804.91 663.584C804.686 663.024 804.574 662.336 804.574 661.52C804.574 660.864 804.706 660.224 804.97 659.6C805.234 658.976 805.622 658.42 806.134 657.932C806.646 657.444 807.274 657.056 808.018 656.768C808.762 656.472 809.614 656.324 810.574 656.324C811.11 656.324 811.63 656.368 812.134 656.456C812.646 656.536 813.13 656.66 813.586 656.828C814.042 656.988 814.466 657.184 814.858 657.416C815.258 657.64 815.614 657.896 815.926 658.184L814.918 660.068ZM822.627 659.636V663.716H828.123V666.716H822.627V670.88H829.803V674H818.547V656.516H829.803V659.636H822.627Z" fill="white"/>
<path d="M846 402.887V493H989V402.887L918.414 354L846 402.887Z" fill="#619B8A"/>
<path d="M893.343 431.516V449H889.263V441.608H882.159V449H878.079V431.516H882.159V438.824H889.263V431.516H893.343ZM913.895 440.252C913.895 441.516 913.675 442.692 913.235 443.78C912.803 444.868 912.191 445.816 911.399 446.624C910.607 447.424 909.651 448.052 908.531 448.508C907.419 448.964 906.183 449.192 904.823 449.192C903.463 449.192 902.223 448.964 901.103 448.508C899.983 448.052 899.023 447.424 898.223 446.624C897.431 445.816 896.815 444.868 896.375 443.78C895.943 442.692 895.727 441.516 895.727 440.252C895.727 438.988 895.943 437.812 896.375 436.724C896.815 435.636 897.431 434.692 898.223 433.892C899.023 433.092 899.983 432.464 901.103 432.008C902.223 431.552 903.463 431.324 904.823 431.324C906.183 431.324 907.419 431.556 908.531 432.02C909.651 432.476 910.607 433.104 911.399 433.904C912.191 434.704 912.803 435.648 913.235 436.736C913.675 437.824 913.895 438.996 913.895 440.252ZM909.743 440.252C909.743 439.388 909.631 438.612 909.407 437.924C909.183 437.228 908.859 436.64 908.435 436.16C908.019 435.68 907.507 435.312 906.899 435.056C906.291 434.8 905.599 434.672 904.823 434.672C904.039 434.672 903.339 434.8 902.723 435.056C902.115 435.312 901.599 435.68 901.175 436.16C900.759 436.64 900.439 437.228 900.215 437.924C899.991 438.612 899.879 439.388 899.879 440.252C899.879 441.124 899.991 441.908 900.215 442.604C900.439 443.292 900.759 443.876 901.175 444.356C901.599 444.836 902.115 445.204 902.723 445.46C903.339 445.708 904.039 445.832 904.823 445.832C905.599 445.832 906.291 445.708 906.899 445.46C907.507 445.204 908.019 444.836 908.435 444.356C908.859 443.876 909.183 443.292 909.407 442.604C909.631 441.908 909.743 441.124 909.743 440.252ZM923.578 445.796C924.122 445.796 924.606 445.708 925.03 445.532C925.462 445.348 925.826 445.088 926.122 444.752C926.418 444.416 926.642 444.008 926.794 443.528C926.954 443.04 927.034 442.488 927.034 441.872V431.516H931.09V441.872C931.09 442.944 930.914 443.928 930.562 444.824C930.218 445.72 929.722 446.492 929.074 447.14C928.426 447.788 927.638 448.292 926.71 448.652C925.782 449.012 924.738 449.192 923.578 449.192C922.41 449.192 921.362 449.012 920.434 448.652C919.506 448.292 918.718 447.788 918.07 447.14C917.422 446.492 916.926 445.72 916.582 444.824C916.238 443.928 916.066 442.944 916.066 441.872V431.516H920.122V441.86C920.122 442.476 920.198 443.028 920.35 443.516C920.51 443.996 920.738 444.408 921.034 444.752C921.33 445.088 921.69 445.348 922.114 445.532C922.546 445.708 923.034 445.796 923.578 445.796ZM943.918 435.068C943.798 435.26 943.67 435.404 943.534 435.5C943.406 435.596 943.238 435.644 943.03 435.644C942.846 435.644 942.646 435.588 942.43 435.476C942.222 435.356 941.982 435.224 941.71 435.08C941.446 434.936 941.142 434.808 940.798 434.696C940.454 434.576 940.062 434.516 939.622 434.516C938.862 434.516 938.294 434.68 937.918 435.008C937.55 435.328 937.366 435.764 937.366 436.316C937.366 436.668 937.478 436.96 937.702 437.192C937.926 437.424 938.218 437.624 938.578 437.792C938.946 437.96 939.362 438.116 939.826 438.26C940.298 438.396 940.778 438.552 941.266 438.728C941.754 438.896 942.23 439.096 942.694 439.328C943.166 439.56 943.582 439.856 943.942 440.216C944.31 440.576 944.606 441.016 944.83 441.536C945.054 442.048 945.166 442.668 945.166 443.396C945.166 444.204 945.026 444.96 944.746 445.664C944.466 446.368 944.058 446.984 943.522 447.512C942.994 448.032 942.338 448.444 941.554 448.748C940.778 449.044 939.894 449.192 938.902 449.192C938.358 449.192 937.802 449.136 937.234 449.024C936.674 448.912 936.13 448.756 935.602 448.556C935.074 448.348 934.578 448.104 934.114 447.824C933.65 447.544 933.246 447.232 932.902 446.888L934.102 444.992C934.198 444.856 934.322 444.744 934.474 444.656C934.634 444.56 934.806 444.512 934.99 444.512C935.23 444.512 935.47 444.588 935.71 444.74C935.958 444.892 936.234 445.06 936.538 445.244C936.85 445.428 937.206 445.596 937.606 445.748C938.006 445.9 938.478 445.976 939.022 445.976C939.758 445.976 940.33 445.816 940.738 445.496C941.146 445.168 941.35 444.652 941.35 443.948C941.35 443.54 941.238 443.208 941.014 442.952C940.79 442.696 940.494 442.484 940.126 442.316C939.766 442.148 939.354 442 938.89 441.872C938.426 441.744 937.95 441.604 937.462 441.452C936.974 441.292 936.498 441.1 936.034 440.876C935.57 440.644 935.154 440.344 934.786 439.976C934.426 439.6 934.134 439.136 933.91 438.584C933.686 438.024 933.574 437.336 933.574 436.52C933.574 435.864 933.706 435.224 933.97 434.6C934.234 433.976 934.622 433.42 935.134 432.932C935.646 432.444 936.274 432.056 937.018 431.768C937.762 431.472 938.614 431.324 939.574 431.324C940.11 431.324 940.63 431.368 941.134 431.456C941.646 431.536 942.13 431.66 942.586 431.828C943.042 431.988 943.466 432.184 943.858 432.416C944.258 432.64 944.614 432.896 944.926 433.184L943.918 435.068ZM951.627 434.636V438.716H957.123V441.716H951.627V445.88H958.803V449H947.547V431.516H958.803V434.636H951.627Z" fill="white"/>
<path d="M1041 217.887V308H1184V217.887L1113.41 169L1041 217.887Z" fill="#619B8A"/>
<path d="M1088.34 246.516V264H1084.26V256.608H1077.16V264H1073.08V246.516H1077.16V253.824H1084.26V246.516H1088.34ZM1108.89 255.252C1108.89 256.516 1108.67 257.692 1108.23 258.78C1107.8 259.868 1107.19 260.816 1106.4 261.624C1105.61 262.424 1104.65 263.052 1103.53 263.508C1102.42 263.964 1101.18 264.192 1099.82 264.192C1098.46 264.192 1097.22 263.964 1096.1 263.508C1094.98 263.052 1094.02 262.424 1093.22 261.624C1092.43 260.816 1091.81 259.868 1091.37 258.78C1090.94 257.692 1090.73 256.516 1090.73 255.252C1090.73 253.988 1090.94 252.812 1091.37 251.724C1091.81 250.636 1092.43 249.692 1093.22 248.892C1094.02 248.092 1094.98 247.464 1096.1 247.008C1097.22 246.552 1098.46 246.324 1099.82 246.324C1101.18 246.324 1102.42 246.556 1103.53 247.02C1104.65 247.476 1105.61 248.104 1106.4 248.904C1107.19 249.704 1107.8 250.648 1108.23 251.736C1108.67 252.824 1108.89 253.996 1108.89 255.252ZM1104.74 255.252C1104.74 254.388 1104.63 253.612 1104.41 252.924C1104.18 252.228 1103.86 251.64 1103.43 251.16C1103.02 250.68 1102.51 250.312 1101.9 250.056C1101.29 249.8 1100.6 249.672 1099.82 249.672C1099.04 249.672 1098.34 249.8 1097.72 250.056C1097.11 250.312 1096.6 250.68 1096.17 251.16C1095.76 251.64 1095.44 252.228 1095.21 252.924C1094.99 253.612 1094.88 254.388 1094.88 255.252C1094.88 256.124 1094.99 256.908 1095.21 257.604C1095.44 258.292 1095.76 258.876 1096.17 259.356C1096.6 259.836 1097.11 260.204 1097.72 260.46C1098.34 260.708 1099.04 260.832 1099.82 260.832C1100.6 260.832 1101.29 260.708 1101.9 260.46C1102.51 260.204 1103.02 259.836 1103.43 259.356C1103.86 258.876 1104.18 258.292 1104.41 257.604C1104.63 256.908 1104.74 256.124 1104.74 255.252ZM1118.58 260.796C1119.12 260.796 1119.61 260.708 1120.03 260.532C1120.46 260.348 1120.83 260.088 1121.12 259.752C1121.42 259.416 1121.64 259.008 1121.79 258.528C1121.95 258.04 1122.03 257.488 1122.03 256.872V246.516H1126.09V256.872C1126.09 257.944 1125.91 258.928 1125.56 259.824C1125.22 260.72 1124.72 261.492 1124.07 262.14C1123.43 262.788 1122.64 263.292 1121.71 263.652C1120.78 264.012 1119.74 264.192 1118.58 264.192C1117.41 264.192 1116.36 264.012 1115.43 263.652C1114.51 263.292 1113.72 262.788 1113.07 262.14C1112.42 261.492 1111.93 260.72 1111.58 259.824C1111.24 258.928 1111.07 257.944 1111.07 256.872V246.516H1115.12V256.86C1115.12 257.476 1115.2 258.028 1115.35 258.516C1115.51 258.996 1115.74 259.408 1116.03 259.752C1116.33 260.088 1116.69 260.348 1117.11 260.532C1117.55 260.708 1118.03 260.796 1118.58 260.796ZM1138.92 250.068C1138.8 250.26 1138.67 250.404 1138.53 250.5C1138.41 250.596 1138.24 250.644 1138.03 250.644C1137.85 250.644 1137.65 250.588 1137.43 250.476C1137.22 250.356 1136.98 250.224 1136.71 250.08C1136.45 249.936 1136.14 249.808 1135.8 249.696C1135.45 249.576 1135.06 249.516 1134.62 249.516C1133.86 249.516 1133.29 249.68 1132.92 250.008C1132.55 250.328 1132.37 250.764 1132.37 251.316C1132.37 251.668 1132.48 251.96 1132.7 252.192C1132.93 252.424 1133.22 252.624 1133.58 252.792C1133.95 252.96 1134.36 253.116 1134.83 253.26C1135.3 253.396 1135.78 253.552 1136.27 253.728C1136.75 253.896 1137.23 254.096 1137.69 254.328C1138.17 254.56 1138.58 254.856 1138.94 255.216C1139.31 255.576 1139.61 256.016 1139.83 256.536C1140.05 257.048 1140.17 257.668 1140.17 258.396C1140.17 259.204 1140.03 259.96 1139.75 260.664C1139.47 261.368 1139.06 261.984 1138.52 262.512C1137.99 263.032 1137.34 263.444 1136.55 263.748C1135.78 264.044 1134.89 264.192 1133.9 264.192C1133.36 264.192 1132.8 264.136 1132.23 264.024C1131.67 263.912 1131.13 263.756 1130.6 263.556C1130.07 263.348 1129.58 263.104 1129.11 262.824C1128.65 262.544 1128.25 262.232 1127.9 261.888L1129.1 259.992C1129.2 259.856 1129.32 259.744 1129.47 259.656C1129.63 259.56 1129.81 259.512 1129.99 259.512C1130.23 259.512 1130.47 259.588 1130.71 259.74C1130.96 259.892 1131.23 260.06 1131.54 260.244C1131.85 260.428 1132.21 260.596 1132.61 260.748C1133.01 260.9 1133.48 260.976 1134.02 260.976C1134.76 260.976 1135.33 260.816 1135.74 260.496C1136.15 260.168 1136.35 259.652 1136.35 258.948C1136.35 258.54 1136.24 258.208 1136.01 257.952C1135.79 257.696 1135.49 257.484 1135.13 257.316C1134.77 257.148 1134.35 257 1133.89 256.872C1133.43 256.744 1132.95 256.604 1132.46 256.452C1131.97 256.292 1131.5 256.1 1131.03 255.876C1130.57 255.644 1130.15 255.344 1129.79 254.976C1129.43 254.6 1129.13 254.136 1128.91 253.584C1128.69 253.024 1128.57 252.336 1128.57 251.52C1128.57 250.864 1128.71 250.224 1128.97 249.6C1129.23 248.976 1129.62 248.42 1130.13 247.932C1130.65 247.444 1131.27 247.056 1132.02 246.768C1132.76 246.472 1133.61 246.324 1134.57 246.324C1135.11 246.324 1135.63 246.368 1136.13 246.456C1136.65 246.536 1137.13 246.66 1137.59 246.828C1138.04 246.988 1138.47 247.184 1138.86 247.416C1139.26 247.64 1139.61 247.896 1139.93 248.184L1138.92 250.068ZM1146.63 249.636V253.716H1152.12V256.716H1146.63V260.88H1153.8V264H1142.55V246.516H1153.8V249.636H1146.63Z" fill="white"/>
<path d="M1254 150.887V241H1397V150.887L1326.41 102L1254 150.887Z" fill="#619B8A"/>
<path d="M1301.34 179.516V197H1297.26V189.608H1290.16V197H1286.08V179.516H1290.16V186.824H1297.26V179.516H1301.34ZM1321.89 188.252C1321.89 189.516 1321.67 190.692 1321.23 191.78C1320.8 192.868 1320.19 193.816 1319.4 194.624C1318.61 195.424 1317.65 196.052 1316.53 196.508C1315.42 196.964 1314.18 197.192 1312.82 197.192C1311.46 197.192 1310.22 196.964 1309.1 196.508C1307.98 196.052 1307.02 195.424 1306.22 194.624C1305.43 193.816 1304.81 192.868 1304.37 191.78C1303.94 190.692 1303.73 189.516 1303.73 188.252C1303.73 186.988 1303.94 185.812 1304.37 184.724C1304.81 183.636 1305.43 182.692 1306.22 181.892C1307.02 181.092 1307.98 180.464 1309.1 180.008C1310.22 179.552 1311.46 179.324 1312.82 179.324C1314.18 179.324 1315.42 179.556 1316.53 180.02C1317.65 180.476 1318.61 181.104 1319.4 181.904C1320.19 182.704 1320.8 183.648 1321.23 184.736C1321.67 185.824 1321.89 186.996 1321.89 188.252ZM1317.74 188.252C1317.74 187.388 1317.63 186.612 1317.41 185.924C1317.18 185.228 1316.86 184.64 1316.43 184.16C1316.02 183.68 1315.51 183.312 1314.9 183.056C1314.29 182.8 1313.6 182.672 1312.82 182.672C1312.04 182.672 1311.34 182.8 1310.72 183.056C1310.11 183.312 1309.6 183.68 1309.17 184.16C1308.76 184.64 1308.44 185.228 1308.21 185.924C1307.99 186.612 1307.88 187.388 1307.88 188.252C1307.88 189.124 1307.99 189.908 1308.21 190.604C1308.44 191.292 1308.76 191.876 1309.17 192.356C1309.6 192.836 1310.11 193.204 1310.72 193.46C1311.34 193.708 1312.04 193.832 1312.82 193.832C1313.6 193.832 1314.29 193.708 1314.9 193.46C1315.51 193.204 1316.02 192.836 1316.43 192.356C1316.86 191.876 1317.18 191.292 1317.41 190.604C1317.63 189.908 1317.74 189.124 1317.74 188.252ZM1331.58 193.796C1332.12 193.796 1332.61 193.708 1333.03 193.532C1333.46 193.348 1333.83 193.088 1334.12 192.752C1334.42 192.416 1334.64 192.008 1334.79 191.528C1334.95 191.04 1335.03 190.488 1335.03 189.872V179.516H1339.09V189.872C1339.09 190.944 1338.91 191.928 1338.56 192.824C1338.22 193.72 1337.72 194.492 1337.07 195.14C1336.43 195.788 1335.64 196.292 1334.71 196.652C1333.78 197.012 1332.74 197.192 1331.58 197.192C1330.41 197.192 1329.36 197.012 1328.43 196.652C1327.51 196.292 1326.72 195.788 1326.07 195.14C1325.42 194.492 1324.93 193.72 1324.58 192.824C1324.24 191.928 1324.07 190.944 1324.07 189.872V179.516H1328.12V189.86C1328.12 190.476 1328.2 191.028 1328.35 191.516C1328.51 191.996 1328.74 192.408 1329.03 192.752C1329.33 193.088 1329.69 193.348 1330.11 193.532C1330.55 193.708 1331.03 193.796 1331.58 193.796ZM1351.92 183.068C1351.8 183.26 1351.67 183.404 1351.53 183.5C1351.41 183.596 1351.24 183.644 1351.03 183.644C1350.85 183.644 1350.65 183.588 1350.43 183.476C1350.22 183.356 1349.98 183.224 1349.71 183.08C1349.45 182.936 1349.14 182.808 1348.8 182.696C1348.45 182.576 1348.06 182.516 1347.62 182.516C1346.86 182.516 1346.29 182.68 1345.92 183.008C1345.55 183.328 1345.37 183.764 1345.37 184.316C1345.37 184.668 1345.48 184.96 1345.7 185.192C1345.93 185.424 1346.22 185.624 1346.58 185.792C1346.95 185.96 1347.36 186.116 1347.83 186.26C1348.3 186.396 1348.78 186.552 1349.27 186.728C1349.75 186.896 1350.23 187.096 1350.69 187.328C1351.17 187.56 1351.58 187.856 1351.94 188.216C1352.31 188.576 1352.61 189.016 1352.83 189.536C1353.05 190.048 1353.17 190.668 1353.17 191.396C1353.17 192.204 1353.03 192.96 1352.75 193.664C1352.47 194.368 1352.06 194.984 1351.52 195.512C1350.99 196.032 1350.34 196.444 1349.55 196.748C1348.78 197.044 1347.89 197.192 1346.9 197.192C1346.36 197.192 1345.8 197.136 1345.23 197.024C1344.67 196.912 1344.13 196.756 1343.6 196.556C1343.07 196.348 1342.58 196.104 1342.11 195.824C1341.65 195.544 1341.25 195.232 1340.9 194.888L1342.1 192.992C1342.2 192.856 1342.32 192.744 1342.47 192.656C1342.63 192.56 1342.81 192.512 1342.99 192.512C1343.23 192.512 1343.47 192.588 1343.71 192.74C1343.96 192.892 1344.23 193.06 1344.54 193.244C1344.85 193.428 1345.21 193.596 1345.61 193.748C1346.01 193.9 1346.48 193.976 1347.02 193.976C1347.76 193.976 1348.33 193.816 1348.74 193.496C1349.15 193.168 1349.35 192.652 1349.35 191.948C1349.35 191.54 1349.24 191.208 1349.01 190.952C1348.79 190.696 1348.49 190.484 1348.13 190.316C1347.77 190.148 1347.35 190 1346.89 189.872C1346.43 189.744 1345.95 189.604 1345.46 189.452C1344.97 189.292 1344.5 189.1 1344.03 188.876C1343.57 188.644 1343.15 188.344 1342.79 187.976C1342.43 187.6 1342.13 187.136 1341.91 186.584C1341.69 186.024 1341.57 185.336 1341.57 184.52C1341.57 183.864 1341.71 183.224 1341.97 182.6C1342.23 181.976 1342.62 181.42 1343.13 180.932C1343.65 180.444 1344.27 180.056 1345.02 179.768C1345.76 179.472 1346.61 179.324 1347.57 179.324C1348.11 179.324 1348.63 179.368 1349.13 179.456C1349.65 179.536 1350.13 179.66 1350.59 179.828C1351.04 179.988 1351.47 180.184 1351.86 180.416C1352.26 180.64 1352.61 180.896 1352.93 181.184L1351.92 183.068ZM1359.63 182.636V186.716H1365.12V189.716H1359.63V193.88H1366.8V197H1355.55V179.516H1366.8V182.636H1359.63Z" fill="white"/>
<path d="M1241 432.887V523H1384V432.887L1313.41 384L1241 432.887Z" fill="#619B8A"/>
<path d="M1288.34 461.516V479H1284.26V471.608H1277.16V479H1273.08V461.516H1277.16V468.824H1284.26V461.516H1288.34ZM1308.89 470.252C1308.89 471.516 1308.67 472.692 1308.23 473.78C1307.8 474.868 1307.19 475.816 1306.4 476.624C1305.61 477.424 1304.65 478.052 1303.53 478.508C1302.42 478.964 1301.18 479.192 1299.82 479.192C1298.46 479.192 1297.22 478.964 1296.1 478.508C1294.98 478.052 1294.02 477.424 1293.22 476.624C1292.43 475.816 1291.81 474.868 1291.37 473.78C1290.94 472.692 1290.73 471.516 1290.73 470.252C1290.73 468.988 1290.94 467.812 1291.37 466.724C1291.81 465.636 1292.43 464.692 1293.22 463.892C1294.02 463.092 1294.98 462.464 1296.1 462.008C1297.22 461.552 1298.46 461.324 1299.82 461.324C1301.18 461.324 1302.42 461.556 1303.53 462.02C1304.65 462.476 1305.61 463.104 1306.4 463.904C1307.19 464.704 1307.8 465.648 1308.23 466.736C1308.67 467.824 1308.89 468.996 1308.89 470.252ZM1304.74 470.252C1304.74 469.388 1304.63 468.612 1304.41 467.924C1304.18 467.228 1303.86 466.64 1303.43 466.16C1303.02 465.68 1302.51 465.312 1301.9 465.056C1301.29 464.8 1300.6 464.672 1299.82 464.672C1299.04 464.672 1298.34 464.8 1297.72 465.056C1297.11 465.312 1296.6 465.68 1296.17 466.16C1295.76 466.64 1295.44 467.228 1295.21 467.924C1294.99 468.612 1294.88 469.388 1294.88 470.252C1294.88 471.124 1294.99 471.908 1295.21 472.604C1295.44 473.292 1295.76 473.876 1296.17 474.356C1296.6 474.836 1297.11 475.204 1297.72 475.46C1298.34 475.708 1299.04 475.832 1299.82 475.832C1300.6 475.832 1301.29 475.708 1301.9 475.46C1302.51 475.204 1303.02 474.836 1303.43 474.356C1303.86 473.876 1304.18 473.292 1304.41 472.604C1304.63 471.908 1304.74 471.124 1304.74 470.252ZM1318.58 475.796C1319.12 475.796 1319.61 475.708 1320.03 475.532C1320.46 475.348 1320.83 475.088 1321.12 474.752C1321.42 474.416 1321.64 474.008 1321.79 473.528C1321.95 473.04 1322.03 472.488 1322.03 471.872V461.516H1326.09V471.872C1326.09 472.944 1325.91 473.928 1325.56 474.824C1325.22 475.72 1324.72 476.492 1324.07 477.14C1323.43 477.788 1322.64 478.292 1321.71 478.652C1320.78 479.012 1319.74 479.192 1318.58 479.192C1317.41 479.192 1316.36 479.012 1315.43 478.652C1314.51 478.292 1313.72 477.788 1313.07 477.14C1312.42 476.492 1311.93 475.72 1311.58 474.824C1311.24 473.928 1311.07 472.944 1311.07 471.872V461.516H1315.12V471.86C1315.12 472.476 1315.2 473.028 1315.35 473.516C1315.51 473.996 1315.74 474.408 1316.03 474.752C1316.33 475.088 1316.69 475.348 1317.11 475.532C1317.55 475.708 1318.03 475.796 1318.58 475.796ZM1338.92 465.068C1338.8 465.26 1338.67 465.404 1338.53 465.5C1338.41 465.596 1338.24 465.644 1338.03 465.644C1337.85 465.644 1337.65 465.588 1337.43 465.476C1337.22 465.356 1336.98 465.224 1336.71 465.08C1336.45 464.936 1336.14 464.808 1335.8 464.696C1335.45 464.576 1335.06 464.516 1334.62 464.516C1333.86 464.516 1333.29 464.68 1332.92 465.008C1332.55 465.328 1332.37 465.764 1332.37 466.316C1332.37 466.668 1332.48 466.96 1332.7 467.192C1332.93 467.424 1333.22 467.624 1333.58 467.792C1333.95 467.96 1334.36 468.116 1334.83 468.26C1335.3 468.396 1335.78 468.552 1336.27 468.728C1336.75 468.896 1337.23 469.096 1337.69 469.328C1338.17 469.56 1338.58 469.856 1338.94 470.216C1339.31 470.576 1339.61 471.016 1339.83 471.536C1340.05 472.048 1340.17 472.668 1340.17 473.396C1340.17 474.204 1340.03 474.96 1339.75 475.664C1339.47 476.368 1339.06 476.984 1338.52 477.512C1337.99 478.032 1337.34 478.444 1336.55 478.748C1335.78 479.044 1334.89 479.192 1333.9 479.192C1333.36 479.192 1332.8 479.136 1332.23 479.024C1331.67 478.912 1331.13 478.756 1330.6 478.556C1330.07 478.348 1329.58 478.104 1329.11 477.824C1328.65 477.544 1328.25 477.232 1327.9 476.888L1329.1 474.992C1329.2 474.856 1329.32 474.744 1329.47 474.656C1329.63 474.56 1329.81 474.512 1329.99 474.512C1330.23 474.512 1330.47 474.588 1330.71 474.74C1330.96 474.892 1331.23 475.06 1331.54 475.244C1331.85 475.428 1332.21 475.596 1332.61 475.748C1333.01 475.9 1333.48 475.976 1334.02 475.976C1334.76 475.976 1335.33 475.816 1335.74 475.496C1336.15 475.168 1336.35 474.652 1336.35 473.948C1336.35 473.54 1336.24 473.208 1336.01 472.952C1335.79 472.696 1335.49 472.484 1335.13 472.316C1334.77 472.148 1334.35 472 1333.89 471.872C1333.43 471.744 1332.95 471.604 1332.46 471.452C1331.97 471.292 1331.5 471.1 1331.03 470.876C1330.57 470.644 1330.15 470.344 1329.79 469.976C1329.43 469.6 1329.13 469.136 1328.91 468.584C1328.69 468.024 1328.57 467.336 1328.57 466.52C1328.57 465.864 1328.71 465.224 1328.97 464.6C1329.23 463.976 1329.62 463.42 1330.13 462.932C1330.65 462.444 1331.27 462.056 1332.02 461.768C1332.76 461.472 1333.61 461.324 1334.57 461.324C1335.11 461.324 1335.63 461.368 1336.13 461.456C1336.65 461.536 1337.13 461.66 1337.59 461.828C1338.04 461.988 1338.47 462.184 1338.86 462.416C1339.26 462.64 1339.61 462.896 1339.93 463.184L1338.92 465.068ZM1346.63 464.636V468.716H1352.12V471.716H1346.63V475.88H1353.8V479H1342.55V461.516H1353.8V464.636H1346.63Z" fill="white"/>
<path d="M484 83H202.5C154.727 83 116 121.727 116 169.5V169.5M684.5 196V434C684.5 488.4 728.6 532.5 783 532.5V532.5" stroke="#9B9B9B" stroke-width="5" stroke-linejoin="round"/>
<path d="M468 367.778L481.146 369.184L480.159 356" stroke="#9B9B9B" stroke-width="4" stroke-linejoin="round"/>
<path d="M467 540.928L477.157 532.464L467 524" stroke="#9B9B9B" stroke-width="4" stroke-linejoin="round"/>
<path d="M102 621L110.464 631.157L118.928 621" stroke="#9B9B9B" stroke-width="4" stroke-linejoin="round"/>
<path d="M472.392 677.719L476.146 665.042L463 663.635" stroke="#9B9B9B" stroke-width="4" stroke-linejoin="round"/>
<line x1="110.5" y1="354" x2="110.5" y2="406" stroke="#9B9B9B" stroke-width="5"/>
<line x1="110.5" y1="579" x2="110.5" y2="631" stroke="#9B9B9B" stroke-width="5"/>
<path d="M239 726H355.352C381.715 726 407.344 717.318 428.28 701.296L617.22 556.704C638.156 540.682 663.785 532 690.148 532H786" stroke="#9B9B9B" stroke-width="5"/>
<path d="M789 532H683.439C649.92 532 617.928 517.981 595.209 493.335L411.141 293.665C388.422 269.019 356.431 255 322.911 255H238" stroke="#9B9B9B" stroke-width="5"/>
<path d="M785.5 532.5H458.553C441.748 532.5 425.503 526.454 412.787 515.466L400.713 505.034C387.997 494.046 371.752 488 354.947 488H235.5" stroke="#9B9B9B" stroke-width="5"/>
<path d="M872.5 87H1103C1169.27 87 1223 140.726 1223 207V412C1223 478.274 1169.27 532 1103 532H791" stroke="#9B9B9B" stroke-width="5"/>
<circle cx="786" cy="532" r="8.5" fill="white" stroke="#9B9B9B" stroke-width="5"/>
<circle cx="918" cy="532" r="8.5" fill="white" stroke="#9B9B9B" stroke-width="5"/>
<circle cx="1091" cy="532" r="8.5" fill="white" stroke="#9B9B9B" stroke-width="5"/>
<circle cx="1201" cy="480" r="8.5" fill="white" stroke="#9B9B9B" stroke-width="5"/>
<circle cx="1223" cy="264" r="8.5" fill="white" stroke="#9B9B9B" stroke-width="5"/>
<circle cx="1223" cy="197" r="8.5" fill="white" stroke="#9B9B9B" stroke-width="5"/>
<path d="M102 397L110.464 407.157L118.928 397" stroke="#9B9B9B" stroke-width="4" stroke-linejoin="round"/>
<path d="M107 162L115.464 172.157L123.928 162" stroke="#9B9B9B" stroke-width="4" stroke-linejoin="round"/>
<path d="M881.157 79L871 87.4641L881.157 95.9282" stroke="#9B9B9B" stroke-width="4" stroke-linejoin="round"/>
<path d="M676 259L684.464 269.157L692.928 259" stroke="#9B9B9B" stroke-width="4" stroke-linejoin="round"/>
<rect y="656" width="220" height="163" rx="50" fill="#9BD16E"/>
<path d="M72.0259 732.636V737.064H78.0019V740.196H72.0259V747H67.9459V729.516H79.2019V732.636H72.0259ZM89.3265 740.316L87.7065 735.528C87.5865 735.224 87.4585 734.868 87.3225 734.46C87.1865 734.044 87.0505 733.596 86.9145 733.116C86.7945 733.604 86.6665 734.056 86.5305 734.472C86.3945 734.888 86.2665 735.248 86.1465 735.552L84.5385 740.316H89.3265ZM95.7705 747H92.6265C92.2745 747 91.9905 746.92 91.7745 746.76C91.5585 746.592 91.3945 746.38 91.2825 746.124L90.2505 743.076H83.6025L82.5705 746.124C82.4825 746.348 82.3225 746.552 82.0905 746.736C81.8665 746.912 81.5865 747 81.2505 747H78.0825L84.8505 729.516H89.0025L95.7705 747ZM102.837 737.736C103.389 737.736 103.857 737.668 104.241 737.532C104.633 737.388 104.953 737.192 105.201 736.944C105.449 736.696 105.629 736.408 105.741 736.08C105.853 735.744 105.909 735.384 105.909 735C105.909 734.232 105.657 733.632 105.153 733.2C104.657 732.768 103.885 732.552 102.837 732.552H101.205V737.736H102.837ZM111.453 747H107.781C107.101 747 106.613 746.744 106.317 746.232L103.413 741.156C103.277 740.94 103.125 740.784 102.957 740.688C102.789 740.584 102.549 740.532 102.237 740.532H101.205V747H97.149V729.516H102.837C104.101 729.516 105.177 729.648 106.065 729.912C106.961 730.168 107.689 730.528 108.249 730.992C108.817 731.456 109.229 732.004 109.485 732.636C109.741 733.268 109.869 733.956 109.869 734.7C109.869 735.268 109.793 735.804 109.641 736.308C109.489 736.812 109.265 737.28 108.969 737.712C108.673 738.136 108.305 738.516 107.865 738.852C107.433 739.188 106.933 739.464 106.365 739.68C106.629 739.816 106.877 739.988 107.109 740.196C107.341 740.396 107.549 740.636 107.733 740.916L111.453 747ZM132.578 729.516V747H129.002V736.944C129.002 736.712 129.006 736.46 129.014 736.188C129.03 735.916 129.054 735.64 129.086 735.36L124.442 744.348C124.298 744.628 124.102 744.84 123.854 744.984C123.614 745.128 123.338 745.2 123.026 745.2H122.474C122.162 745.2 121.882 745.128 121.634 744.984C121.394 744.84 121.202 744.628 121.058 744.348L116.414 735.336C116.438 735.624 116.458 735.908 116.474 736.188C116.49 736.46 116.498 736.712 116.498 736.944V747H112.922V729.516H116.018C116.194 729.516 116.346 729.52 116.474 729.528C116.61 729.536 116.73 729.56 116.834 729.6C116.938 729.64 117.03 729.704 117.11 729.792C117.198 729.872 117.282 729.988 117.362 730.14L121.862 739.008C122.022 739.312 122.174 739.628 122.318 739.956C122.47 740.284 122.614 740.62 122.75 740.964C122.886 740.612 123.026 740.268 123.17 739.932C123.322 739.596 123.482 739.276 123.65 738.972L128.138 730.14C128.218 729.988 128.298 729.872 128.378 729.792C128.466 729.704 128.562 729.64 128.666 729.6C128.77 729.56 128.886 729.536 129.014 729.528C129.15 729.52 129.306 729.516 129.482 729.516H132.578ZM140.88 734.508C141.008 733.636 141.252 732.876 141.612 732.228C141.98 731.58 142.432 731.04 142.968 730.608C143.512 730.176 144.132 729.856 144.828 729.648C145.524 729.432 146.272 729.324 147.072 729.324C147.936 729.324 148.704 729.448 149.376 729.696C150.048 729.936 150.616 730.264 151.08 730.68C151.544 731.096 151.896 731.58 152.136 732.132C152.376 732.676 152.496 733.252 152.496 733.86C152.496 734.412 152.44 734.9 152.328 735.324C152.216 735.74 152.048 736.104 151.824 736.416C151.608 736.72 151.336 736.98 151.008 737.196C150.688 737.404 150.32 737.58 149.904 737.724C151.84 738.404 152.808 739.724 152.808 741.684C152.808 742.612 152.64 743.42 152.304 744.108C151.968 744.796 151.516 745.368 150.948 745.824C150.388 746.28 149.736 746.624 148.992 746.856C148.248 747.08 147.472 747.192 146.664 747.192C145.832 747.192 145.092 747.104 144.444 746.928C143.796 746.744 143.22 746.464 142.716 746.088C142.212 745.704 141.768 745.216 141.384 744.624C141.008 744.032 140.68 743.328 140.4 742.512L142.056 741.84C142.488 741.672 142.888 741.628 143.256 741.708C143.624 741.788 143.888 741.972 144.048 742.26C144.408 742.924 144.788 743.408 145.188 743.712C145.596 744.008 146.072 744.156 146.616 744.156C147.032 744.156 147.392 744.088 147.696 743.952C148.008 743.808 148.264 743.628 148.464 743.412C148.672 743.188 148.828 742.936 148.932 742.656C149.036 742.376 149.088 742.092 149.088 741.804C149.088 741.428 149.06 741.092 149.004 740.796C148.956 740.492 148.812 740.232 148.572 740.016C148.332 739.8 147.968 739.636 147.48 739.524C147 739.404 146.328 739.344 145.464 739.344V736.776C146.192 736.776 146.78 736.72 147.228 736.608C147.676 736.496 148.02 736.344 148.26 736.152C148.508 735.952 148.672 735.712 148.752 735.432C148.832 735.152 148.872 734.844 148.872 734.508C148.872 733.82 148.704 733.292 148.368 732.924C148.04 732.548 147.536 732.36 146.856 732.36C146.304 732.36 145.836 732.508 145.452 732.804C145.076 733.092 144.816 733.452 144.672 733.884C144.504 734.324 144.284 734.616 144.012 734.76C143.74 734.904 143.352 734.936 142.848 734.856L140.88 734.508Z" fill="white"/>
<rect y="412" width="220" height="163" rx="50" fill="#9BD16E"/>
<path d="M72.0259 488.636V493.064H78.0019V496.196H72.0259V503H67.9459V485.516H79.2019V488.636H72.0259ZM89.3265 496.316L87.7065 491.528C87.5865 491.224 87.4585 490.868 87.3225 490.46C87.1865 490.044 87.0505 489.596 86.9145 489.116C86.7945 489.604 86.6665 490.056 86.5305 490.472C86.3945 490.888 86.2665 491.248 86.1465 491.552L84.5385 496.316H89.3265ZM95.7705 503H92.6265C92.2745 503 91.9905 502.92 91.7745 502.76C91.5585 502.592 91.3945 502.38 91.2825 502.124L90.2505 499.076H83.6025L82.5705 502.124C82.4825 502.348 82.3225 502.552 82.0905 502.736C81.8665 502.912 81.5865 503 81.2505 503H78.0825L84.8505 485.516H89.0025L95.7705 503ZM102.837 493.736C103.389 493.736 103.857 493.668 104.241 493.532C104.633 493.388 104.953 493.192 105.201 492.944C105.449 492.696 105.629 492.408 105.741 492.08C105.853 491.744 105.909 491.384 105.909 491C105.909 490.232 105.657 489.632 105.153 489.2C104.657 488.768 103.885 488.552 102.837 488.552H101.205V493.736H102.837ZM111.453 503H107.781C107.101 503 106.613 502.744 106.317 502.232L103.413 497.156C103.277 496.94 103.125 496.784 102.957 496.688C102.789 496.584 102.549 496.532 102.237 496.532H101.205V503H97.149V485.516H102.837C104.101 485.516 105.177 485.648 106.065 485.912C106.961 486.168 107.689 486.528 108.249 486.992C108.817 487.456 109.229 488.004 109.485 488.636C109.741 489.268 109.869 489.956 109.869 490.7C109.869 491.268 109.793 491.804 109.641 492.308C109.489 492.812 109.265 493.28 108.969 493.712C108.673 494.136 108.305 494.516 107.865 494.852C107.433 495.188 106.933 495.464 106.365 495.68C106.629 495.816 106.877 495.988 107.109 496.196C107.341 496.396 107.549 496.636 107.733 496.916L111.453 503ZM132.578 485.516V503H129.002V492.944C129.002 492.712 129.006 492.46 129.014 492.188C129.03 491.916 129.054 491.64 129.086 491.36L124.442 500.348C124.298 500.628 124.102 500.84 123.854 500.984C123.614 501.128 123.338 501.2 123.026 501.2H122.474C122.162 501.2 121.882 501.128 121.634 500.984C121.394 500.84 121.202 500.628 121.058 500.348L116.414 491.336C116.438 491.624 116.458 491.908 116.474 492.188C116.49 492.46 116.498 492.712 116.498 492.944V503H112.922V485.516H116.018C116.194 485.516 116.346 485.52 116.474 485.528C116.61 485.536 116.73 485.56 116.834 485.6C116.938 485.64 117.03 485.704 117.11 485.792C117.198 485.872 117.282 485.988 117.362 486.14L121.862 495.008C122.022 495.312 122.174 495.628 122.318 495.956C122.47 496.284 122.614 496.62 122.75 496.964C122.886 496.612 123.026 496.268 123.17 495.932C123.322 495.596 123.482 495.276 123.65 494.972L128.138 486.14C128.218 485.988 128.298 485.872 128.378 485.792C128.466 485.704 128.562 485.64 128.666 485.6C128.77 485.56 128.886 485.536 129.014 485.528C129.15 485.52 129.306 485.516 129.482 485.516H132.578ZM151.536 499.64C151.936 499.64 152.252 499.752 152.484 499.976C152.716 500.192 152.832 500.48 152.832 500.84V503H140.544V501.8C140.544 501.568 140.592 501.32 140.688 501.056C140.784 500.792 140.952 500.552 141.192 500.336L146.232 495.26C146.664 494.828 147.04 494.416 147.36 494.024C147.68 493.632 147.944 493.248 148.152 492.872C148.36 492.488 148.516 492.108 148.62 491.732C148.724 491.348 148.776 490.944 148.776 490.52C148.776 489.824 148.608 489.292 148.272 488.924C147.944 488.548 147.44 488.36 146.76 488.36C146.208 488.36 145.74 488.508 145.356 488.804C144.98 489.092 144.72 489.452 144.576 489.884C144.408 490.324 144.188 490.616 143.916 490.76C143.644 490.904 143.256 490.936 142.752 490.856L140.784 490.508C140.912 489.636 141.156 488.876 141.516 488.228C141.884 487.58 142.336 487.04 142.872 486.608C143.416 486.176 144.036 485.856 144.732 485.648C145.428 485.432 146.176 485.324 146.976 485.324C147.84 485.324 148.616 485.452 149.304 485.708C150 485.956 150.592 486.304 151.08 486.752C151.568 487.2 151.94 487.736 152.196 488.36C152.46 488.976 152.592 489.656 152.592 490.4C152.592 491.04 152.5 491.632 152.316 492.176C152.14 492.72 151.896 493.24 151.584 493.736C151.272 494.224 150.908 494.7 150.492 495.164C150.084 495.62 149.648 496.084 149.184 496.556L145.764 500.06C146.204 499.924 146.64 499.82 147.072 499.748C147.504 499.676 147.904 499.64 148.272 499.64H151.536Z" fill="white"/>
<rect y="182" width="220" height="163" rx="50" fill="#9BD16E"/>
<path d="M72.0259 258.636V263.064H78.0019V266.196H72.0259V273H67.9459V255.516H79.2019V258.636H72.0259ZM89.3265 266.316L87.7065 261.528C87.5865 261.224 87.4585 260.868 87.3225 260.46C87.1865 260.044 87.0505 259.596 86.9145 259.116C86.7945 259.604 86.6665 260.056 86.5305 260.472C86.3945 260.888 86.2665 261.248 86.1465 261.552L84.5385 266.316H89.3265ZM95.7705 273H92.6265C92.2745 273 91.9905 272.92 91.7745 272.76C91.5585 272.592 91.3945 272.38 91.2825 272.124L90.2505 269.076H83.6025L82.5705 272.124C82.4825 272.348 82.3225 272.552 82.0905 272.736C81.8665 272.912 81.5865 273 81.2505 273H78.0825L84.8505 255.516H89.0025L95.7705 273ZM102.837 263.736C103.389 263.736 103.857 263.668 104.241 263.532C104.633 263.388 104.953 263.192 105.201 262.944C105.449 262.696 105.629 262.408 105.741 262.08C105.853 261.744 105.909 261.384 105.909 261C105.909 260.232 105.657 259.632 105.153 259.2C104.657 258.768 103.885 258.552 102.837 258.552H101.205V263.736H102.837ZM111.453 273H107.781C107.101 273 106.613 272.744 106.317 272.232L103.413 267.156C103.277 266.94 103.125 266.784 102.957 266.688C102.789 266.584 102.549 266.532 102.237 266.532H101.205V273H97.149V255.516H102.837C104.101 255.516 105.177 255.648 106.065 255.912C106.961 256.168 107.689 256.528 108.249 256.992C108.817 257.456 109.229 258.004 109.485 258.636C109.741 259.268 109.869 259.956 109.869 260.7C109.869 261.268 109.793 261.804 109.641 262.308C109.489 262.812 109.265 263.28 108.969 263.712C108.673 264.136 108.305 264.516 107.865 264.852C107.433 265.188 106.933 265.464 106.365 265.68C106.629 265.816 106.877 265.988 107.109 266.196C107.341 266.396 107.549 266.636 107.733 266.916L111.453 273ZM132.578 255.516V273H129.002V262.944C129.002 262.712 129.006 262.46 129.014 262.188C129.03 261.916 129.054 261.64 129.086 261.36L124.442 270.348C124.298 270.628 124.102 270.84 123.854 270.984C123.614 271.128 123.338 271.2 123.026 271.2H122.474C122.162 271.2 121.882 271.128 121.634 270.984C121.394 270.84 121.202 270.628 121.058 270.348L116.414 261.336C116.438 261.624 116.458 261.908 116.474 262.188C116.49 262.46 116.498 262.712 116.498 262.944V273H112.922V255.516H116.018C116.194 255.516 116.346 255.52 116.474 255.528C116.61 255.536 116.73 255.56 116.834 255.6C116.938 255.64 117.03 255.704 117.11 255.792C117.198 255.872 117.282 255.988 117.362 256.14L121.862 265.008C122.022 265.312 122.174 265.628 122.318 265.956C122.47 266.284 122.614 266.62 122.75 266.964C122.886 266.612 123.026 266.268 123.17 265.932C123.322 265.596 123.482 265.276 123.65 264.972L128.138 256.14C128.218 255.988 128.298 255.872 128.378 255.792C128.466 255.704 128.562 255.64 128.666 255.6C128.77 255.56 128.886 255.536 129.014 255.528C129.15 255.52 129.306 255.516 129.482 255.516H132.578ZM152.436 270.312V273H142.476V270.312H145.836V261.492C145.836 261.268 145.84 261.044 145.848 260.82C145.856 260.588 145.868 260.356 145.884 260.124L143.892 261.78C143.716 261.916 143.54 262 143.364 262.032C143.196 262.056 143.036 262.056 142.884 262.032C142.732 262 142.596 261.948 142.476 261.876C142.356 261.796 142.268 261.716 142.212 261.636L141.036 260.076L146.484 255.504H149.556V270.312H152.436Z" fill="white"/>
</svg>
