<svg id="Group_5" data-name="Group 5" xmlns="http://www.w3.org/2000/svg" width="77.126" height="77.126" viewBox="0 0 77.126 77.126">
  <g id="orange" transform="translate(16.55 15.36)">
    <path id="Path_1959" data-name="Path 1959" d="M33.131,15.11c-.36,0-.724-.015-1.086-.045l-7.88-.648,2.917-7.349a13.339,13.339,0,0,1,1.381-2.588,21.684,21.684,0,1,0,11.6,8.659A13.141,13.141,0,0,1,33.131,15.11Zm-19.467-.889a1.727,1.727,0,1,1,0-2.442A1.727,1.727,0,0,1,13.664,14.221Zm6.044-2.59a1.727,1.727,0,1,1,0-2.442A1.727,1.727,0,0,1,19.708,11.631ZM31.906,23.9a1.727,1.727,0,1,1,0,2.442A1.727,1.727,0,0,1,31.906,23.9Zm3.344,8.457a1.727,1.727,0,1,1,0-2.442A1.727,1.727,0,0,1,35.25,32.353Zm0-13.815a1.727,1.727,0,1,1,0-2.442A1.727,1.727,0,0,1,35.25,18.538Zm4.594,9.631a1.727,1.727,0,1,1,0-2.442A1.727,1.727,0,0,1,39.844,28.169Zm-.276-5.314a1.727,1.727,0,1,1,0-2.442A1.727,1.727,0,0,1,39.568,22.855Z" transform="translate(-0.552 -0.482)" fill="#b2dc8f"/>
    <path id="Path_1960" data-name="Path 1960" d="M44.422.041A11.39,11.39,0,0,0,32.846,7.224L31,11.881l.7-.777C36.813,5.622,43.02,3.746,43.764,3.919l.49.119.283.98-.363.368a.85.85,0,0,1-.7.249,23.547,23.547,0,0,0-10.508,6.637l-.263.291,3.638.3c.315.026.63.039.944.039A11.381,11.381,0,0,0,47.92,5.679L49.977.5Z" transform="translate(-4.709 0)" fill="#b2dc8f"/>
  </g>
  <g id="Ellipse_12" data-name="Ellipse 12" transform="translate(0 0)" fill="none" stroke="#b2dc8f" stroke-width="4">
    <ellipse cx="38.563" cy="38.563" rx="38.563" ry="38.563" stroke="none"/>
    <ellipse cx="38.563" cy="38.563" rx="36.563" ry="36.563" fill="none"/>
  </g>
  <path id="Path_1962" data-name="Path 1962" d="M1.848,7.985H8.185V14.11H1.848ZM-5.889-7.276q.254-6.041,4.218-8.563a11.121,11.121,0,0,1,6.147-1.611,13.242,13.242,0,0,1,7.959,2.289A7.83,7.83,0,0,1,15.6-8.378a7.671,7.671,0,0,1-1.374,4.642A15.8,15.8,0,0,1,11.143-.811L9.642.355A4.553,4.553,0,0,0,8.015,2.58a9.4,9.4,0,0,0-.275,2.5H2A16.665,16.665,0,0,1,2.672.132,8.727,8.727,0,0,1,5.5-3.015L7.047-4.223A5.4,5.4,0,0,0,8.272-5.474a4.273,4.273,0,0,0,.845-2.565,4.955,4.955,0,0,0-.941-2.936Q7.236-12.3,4.741-12.3a3.784,3.784,0,0,0-3.479,1.632A6.286,6.286,0,0,0,.237-7.276Z" transform="translate(32.941 40.702)" fill="#b2dc8f" stroke="rgba(255,255,255,0.98)" stroke-width="1"/>
</svg>
