<svg id="placeholder-on-map-paper-in-perspective" xmlns="http://www.w3.org/2000/svg" width="81.497" height="63.763" viewBox="0 0 81.497 63.763">
  <path id="Path_1961" data-name="Path 1961" d="M68.754,102.664,81.3,128.442a1.223,1.223,0,0,1-1.192,1.906H1.385a1.223,1.223,0,0,1-1.192-1.906l12.549-25.778a1.453,1.453,0,0,1,1.192-.746h10.76a1.506,1.506,0,0,1,1,.458c.73.844,1.474,1.668,2.215,2.484.7.774,1.412,1.559,2.114,2.362H17.25a1.453,1.453,0,0,0-1.192.746L7.745,125.045H73.75l-8.312-17.077a1.453,1.453,0,0,0-1.192-.746h-12.8c.7-.8,1.41-1.587,2.115-2.362.744-.818,1.491-1.641,2.223-2.485a1.5,1.5,0,0,1,.995-.457H67.563A1.453,1.453,0,0,1,68.754,102.664ZM59.2,85.048c0,14.086-11.726,16.727-17.241,30.264a1.318,1.318,0,0,1-2.445-.005c-4.975-12.2-15-15.551-16.917-26.424-1.888-10.7,5.522-21.188,16.343-22.211A18.466,18.466,0,0,1,59.2,85.048Zm-8.713,0a9.75,9.75,0,1,0-9.75,9.75A9.75,9.75,0,0,0,50.484,85.048Z" transform="translate(0.001 -66.585)" fill="#b2dc8f"/>
</svg>
