<svg xmlns="http://www.w3.org/2000/svg" width="1075.256" height="584" viewBox="0 0 1075.256 584">
  <g id="Group_48" data-name="Group 48" transform="translate(-423.372 -6607)">
    <rect id="Rectangle_257" data-name="Rectangle 257" width="116.256" height="99.585" transform="translate(906.995 6763)" fill="#af5161"/>
    <rect id="Rectangle_267" data-name="Rectangle 267" width="116.256" height="99.585" transform="translate(1090.372 6763)" fill="#bc7d84"/>
    <rect id="Rectangle_270" data-name="Rectangle 270" width="116.256" height="99.585" transform="translate(1090.372 6607)" fill="#bc7d84"/>
    <rect id="Rectangle_268" data-name="Rectangle 268" width="116.256" height="99.585" transform="translate(1239.372 6763)" fill="#bc7d84"/>
    <rect id="Rectangle_269" data-name="Rectangle 269" width="116.256" height="99.585" transform="translate(1382.372 6763)" fill="#bc7d84"/>
    <rect id="Rectangle_265" data-name="Rectangle 265" width="116.256" height="99.585" transform="translate(906.995 6608)" fill="#af5161"/>
    <rect id="Rectangle_264" data-name="Rectangle 264" width="116.256" height="99.585" transform="translate(906.995 6918)" fill="#af5161"/>
    <rect id="Rectangle_260" data-name="Rectangle 260" width="116.256" height="99.585" transform="translate(724.372 6763)" fill="#9e3a3a"/>
    <rect id="Rectangle_266" data-name="Rectangle 266" width="116.256" height="99.585" transform="translate(724.372 6608)" fill="#9e3a3a"/>
    <rect id="Rectangle_261" data-name="Rectangle 261" width="116.256" height="99.585" transform="translate(573.372 6763)" fill="#9e3a3a"/>
    <rect id="Rectangle_262" data-name="Rectangle 262" width="116.256" height="99.585" transform="translate(423.372 6763)" fill="#9e3a3a"/>
    <text id="_1.0_Feed" data-name="1.0 
Feed" transform="translate(780.372 6635.896)" fill="#fff" font-size="18" font-family="FuturaPT-Medium, Futura PT" font-weight="500"><tspan x="-13.959" y="0">1.0 </tspan><tspan x="-17.316" y="23">Feed</tspan></text>
    <text id="_2.0_My_Items" data-name="2.0 
My Items" transform="translate(963.539 6639.896)" fill="#fff" font-size="18" font-family="FuturaPT-Medium, Futura PT" font-weight="500"><tspan x="-14.481" y="0">2.0 </tspan><tspan x="-32.535" y="23">My Items</tspan></text>
    <text id="_2.1_Find_in_Store" data-name="2.1
Find in Store" transform="translate(965.539 6787.896)" fill="#fff" font-size="18" font-family="FuturaPT-Medium, Futura PT" font-weight="500"><tspan x="-11.214" y="0">2.1</tspan><tspan x="-44.379" y="23">Find in Store</tspan></text>
    <text id="_2.1.1_Store_Info" data-name="2.1.1
Store Info" transform="translate(963.539 6948.896)" fill="#fff" font-size="18" font-family="FuturaPT-Medium, Futura PT" font-weight="500"><tspan x="-16.794" y="0">2.1.1</tspan><tspan x="-34.659" y="23">Store Info</tspan></text>
    <rect id="Rectangle_263" data-name="Rectangle 263" width="116.256" height="99.585" transform="translate(723.372 6918)" fill="#9e3a3a"/>
    <rect id="Rectangle_271" data-name="Rectangle 271" width="116.256" height="99.585" transform="translate(907 7062)" fill="#595959"/>
    <rect id="Rectangle_272" data-name="Rectangle 272" width="116.256" height="99.585" transform="translate(724 7062)" fill="#595959"/>
    <text id="_3.0_Settings" data-name="3.0 
Settings" transform="translate(1148.399 6639.896)" fill="#fff" font-size="18" font-family="FuturaPT-Medium, Futura PT" font-weight="500"><tspan x="-14.481" y="0">3.0 </tspan><tspan x="-27.891" y="23">Settings</tspan></text>
    <text id="_3.1_Orders" data-name="3.1 
Orders" transform="translate(1148.372 6794.896)" fill="#fff" font-size="18" font-family="FuturaPT-Medium, Futura PT" font-weight="500"><tspan x="-13.311" y="0">3.1 </tspan><tspan x="-24.975" y="23">Orders</tspan></text>
    <text id="_3.2_Preferences" data-name="3.2 
Preferences" transform="translate(1299.399 6794.896)" fill="#fff" font-size="18" font-family="FuturaPT-Medium, Futura PT" font-weight="500"><tspan x="-14.481" y="0">3.2 </tspan><tspan x="-40.905" y="23">Preferences</tspan></text>
    <text id="_3.3_Profile" data-name="3.3 
Profile" transform="translate(1442.399 6794.896)" fill="#fff" font-size="18" font-family="FuturaPT-Medium, Futura PT" font-weight="500"><tspan x="-14.481" y="0">3.3 </tspan><tspan x="-22.464" y="23">Profile</tspan></text>
    <text id="_1.1_Categories" data-name="1.1 
Categories" transform="translate(481.372 6802.012)" fill="#fff" font-size="18" font-family="FuturaPT-Medium, Futura PT" font-weight="500"><tspan x="-12.789" y="0">1.1 </tspan><tspan x="-38.97" y="23">Categories</tspan></text>
    <text id="_1.2_Collections" data-name="1.2 
Collections" transform="translate(631.372 6802.012)" fill="#fff" font-size="18" font-family="FuturaPT-Medium, Futura PT" font-weight="500"><tspan x="-13.959" y="0">1.2 </tspan><tspan x="-39.015" y="23">Collections</tspan></text>
    <text id="_1.3.1_Clothing_Article" data-name="1.3.1 
Clothing
Article" transform="translate(781.372 6949.012)" fill="#fff" font-size="18" font-family="FuturaPT-Medium, Futura PT" font-weight="500"><tspan x="-20.061" y="0">1.3.1 </tspan><tspan x="-30.033" y="23">Clothing</tspan><tspan x="-23.364" y="46">Article</tspan></text>
    <text id="Checkout" transform="translate(966 7118.012)" fill="#fff" font-size="18" font-family="FuturaPT-Medium, Futura PT" font-weight="500"><tspan x="-33.156" y="0">Checkout</tspan></text>
    <text id="Shopping_Cart" data-name="Shopping
Cart" transform="translate(783 7107.012)" fill="#fff" font-size="18" font-family="FuturaPT-Medium, Futura PT" font-weight="500"><tspan x="-34.362" y="0">Shopping</tspan><tspan x="-15.696" y="23">Cart</tspan></text>
    <text id="_1.3_Search" data-name="1.3 
Search" transform="translate(782.372 6802.012)" fill="#fff" font-size="18" font-family="FuturaPT-Medium, Futura PT" font-weight="500"><tspan x="-13.959" y="0">1.3 </tspan><tspan x="-24.615" y="23">Search</tspan></text>
    <path id="Path_4426" data-name="Path 4426" d="M2925.926,9764.775v-15.581l11.264-8.662,11.277,8.662v15.581Z" transform="translate(-2156.054 -3070.399)" fill="none" stroke="snow" stroke-linejoin="round" stroke-width="5"/>
    <path id="Path_4433" data-name="Path 4433" d="M3159.167,9780.584V9836" transform="translate(-2195.628 -3073)" fill="none" stroke="#707070" stroke-width="1"/>
    <path id="Path_4439" data-name="Path 4439" d="M3159.167,9780.584V9836" transform="translate(-2195.628 -2918)" fill="none" stroke="#707070" stroke-width="1"/>
    <path id="Path_4436" data-name="Path 4436" d="M2934.832,9835.577v-55.069" transform="translate(-2152.628 -3073)" fill="none" stroke="#707070" stroke-width="1"/>
    <path id="Path_4440" data-name="Path 4440" d="M2934.832,9835.577v-55.069" transform="translate(-2152.628 -2918)" fill="none" stroke="#707070" stroke-width="1"/>
    <path id="Path_4438" data-name="Path 4438" d="M3410.027,9780.585v54.992" transform="translate(-2261.628 -3073)" fill="none" stroke="#707070" stroke-width="1"/>
    <path id="Path_4441" data-name="Path 4441" d="M2771.5,9808.043H2470.281v27.273" transform="translate(-1990 -3073)" fill="none" stroke="#707070" stroke-width="1"/>
    <path id="Path_4451" data-name="Path 4451" d="M2771.5,9835.381H2470.281v-27.339" transform="translate(-1990 -2945.176)" fill="none" stroke="#707070" stroke-width="1"/>
    <path id="Path_4442" data-name="Path 4442" d="M2620.89,9836.044v-28.1" transform="translate(-1990 -3073)" fill="none" stroke="#707070" stroke-width="1"/>
    <path id="Path_4452" data-name="Path 4452" d="M2620.89,9807.949v28.081" transform="translate(-1990 -2945.739)" fill="none" stroke="#707070" stroke-width="1"/>
    <path id="Path_4443" data-name="Path 4443" d="M3136.5,9808.081h292.848v27.532" transform="translate(-1988 -3073)" fill="none" stroke="#707070" stroke-width="1"/>
    <path id="Path_4444" data-name="Path 4444" d="M3282.924,9808.081V9836.6" transform="translate(-1988 -3073)" fill="none" stroke="#707070" stroke-width="1"/>
    <path id="Path_4445" data-name="Path 4445" d="M2830.628,9729.266h66.532" transform="translate(-1990 -3073)" fill="none" stroke="#707070" stroke-width="1"/>
    <path id="Path_4446" data-name="Path 4446" d="M2830.628,9729.266h66.532" transform="translate(-1807 -3073)" fill="none" stroke="#707070" stroke-width="1"/>
    <path id="Path_4462" data-name="Path 4462" d="M2830.628,9729.266h66.532" transform="translate(-1990 -2617)" fill="none" stroke="#707070" stroke-width="1"/>
    <g id="Rectangle_280" data-name="Rectangle 280" transform="translate(699 7033)" fill="none" stroke="#707070" stroke-width="1" stroke-dasharray="4 3">
      <rect width="349" height="158" stroke="none"/>
      <rect x="0.5" y="0.5" width="348" height="157" fill="none"/>
    </g>
  </g>
</svg>
