<svg xmlns="http://www.w3.org/2000/svg" viewBox="0 0 773 496.42"><defs><style>.cls-1{fill:#9e3a3a;}.cls-2{fill:#af5161;}.cls-3{fill:#bc7d84;}.cls-4{fill:#595959;}.cls-5,.cls-6{font-size:17.46px;font-family:Roboto-Bold, Roboto;font-weight:700;}.cls-5,.cls-7,.cls-8,.cls-9{fill:#fff;}.cls-6{fill:#606060;}.cls-7,.cls-9{stroke:#fff;stroke-miterlimit:10;}.cls-7{stroke-width:0.67px;}.cls-9{stroke-width:2.68px;}</style></defs><title>COLORS</title><g id="Layer_2" data-name="Layer 2"><g id="Layer_1-2" data-name="Layer 1"><rect class="cls-1" y="248.08" width="773" height="123.87"/><rect class="cls-2" x="0.03" y="372.26" width="396.97" height="124.16"/><rect class="cls-3" x="396.58" y="371.77" width="376.42" height="124.16"/><rect class="cls-4" width="397" height="124.16"/><text class="cls-5" transform="translate(87.51 332.03)">#9E3A3A</text><text class="cls-5" transform="translate(87.02 82.94)">#723A42</text><rect x="0.25" y="123.6" width="772.75" height="124.16"/><text class="cls-5" transform="translate(87.21 206.54)">#000000</text><text class="cls-6" transform="translate(446.27 82.7)">#FFFFFF</text><text class="cls-5" transform="translate(450.51 468.04)">#BC7D84</text><text class="cls-5" transform="translate(87.51 467.83)">#AF5161</text><path class="cls-7" d="M273.8,209.85v-28h-5.12v-5.58h5.12v-3.08q0-5.58,3.1-8.63t8.7-3a17.09,17.09,0,0,1,4.22.56l-.19,5.9a14.43,14.43,0,0,0-2.88-.25c-3.6,0-5.41,1.85-5.41,5.56v3h6.83v5.58h-6.83v28Z"/><path class="cls-7" d="M311.27,183.15a18.09,18.09,0,0,0-3.07-.25q-5.19,0-7,4v23h-7.54V176.26h7.2l.19,3.75a8.5,8.5,0,0,1,7.57-4.38,7,7,0,0,1,2.67.44Z"/><path class="cls-7" d="M335.18,209.85a11.75,11.75,0,0,1-.87-3.14,11.73,11.73,0,0,1-8.82,3.76,11.85,11.85,0,0,1-8.26-2.89,9.22,9.22,0,0,1-3.19-7.14,9.53,9.53,0,0,1,4-8.24q4-2.88,11.41-2.87h4.62v-2.21A5.83,5.83,0,0,0,332.6,183a5.76,5.76,0,0,0-4.44-1.57,6.65,6.65,0,0,0-4.22,1.29,4,4,0,0,0-1.64,3.27h-7.55a8.4,8.4,0,0,1,1.83-5.17,12.25,12.25,0,0,1,5-3.77,17.49,17.49,0,0,1,7-1.37q5.89,0,9.41,3a10.64,10.64,0,0,1,3.6,8.34v15.15a17.14,17.14,0,0,0,1.27,7.23v.53Zm-8.29-5.43a8.66,8.66,0,0,0,4.21-1.09,7.3,7.3,0,0,0,3-2.92v-6.33H330c-2.8,0-4.9.48-6.31,1.46a4.72,4.72,0,0,0-2.11,4.13,4.4,4.4,0,0,0,1.45,3.46A5.58,5.58,0,0,0,326.89,204.42Z"/><path class="cls-7" d="M356.6,176.26l.22,3.5a12.1,12.1,0,0,1,9.69-4.13q6.74,0,9.22,5.16A11.91,11.91,0,0,1,386,175.63q5.55,0,8.27,3.08t2.78,9.06v22.08h-7.55V188a6.71,6.71,0,0,0-1.39-4.69c-.93-1-2.48-1.49-4.63-1.49a6.3,6.3,0,0,0-4.21,1.38,7.42,7.42,0,0,0-2.28,3.62l0,23h-7.54V187.74c-.11-4-2.12-5.93-6.06-5.93a6.62,6.62,0,0,0-6.42,3.7v24.34h-7.55V176.26Z"/><path class="cls-7" d="M419.63,210.47A15.62,15.62,0,0,1,408,206q-4.46-4.51-4.45-12V193a20.09,20.09,0,0,1,1.94-9,14.73,14.73,0,0,1,5.45-6.16,14.36,14.36,0,0,1,7.82-2.21q6.86,0,10.6,4.38t3.74,12.39v3h-22a10.1,10.1,0,0,0,2.78,6.58,8.34,8.34,0,0,0,6.13,2.43,10.24,10.24,0,0,0,8.45-4.19l4.07,3.88a13.74,13.74,0,0,1-5.39,4.67A16.85,16.85,0,0,1,419.63,210.47Zm-.9-28.78a6.37,6.37,0,0,0-5,2.17,11.28,11.28,0,0,0-2.43,6.06h14.37v-.56a9.12,9.12,0,0,0-2-5.73A6.31,6.31,0,0,0,418.73,181.69Z"/><path class="cls-8" d="M516.34,210.85h-9.56v-28h-5.12v-7.6h5.12v-2.07c0-4,1.15-7.13,3.41-9.35s5.41-3.33,9.39-3.33a18.51,18.51,0,0,1,4.47.59l.79.2-.25,7.89-1.17-.23a14,14,0,0,0-2.69-.23c-3,0-4.39,1.41-4.39,4.56v2h6.83v7.6h-6.83Zm-7.55-2h5.54v-28h6.83v-3.58h-6.83v-4c0-4.24,2.27-6.57,6.4-6.57a16.4,16.4,0,0,1,1.92.1l.12-3.95a15.79,15.79,0,0,0-3.19-.35c-3.43,0-6.12.93-8,2.76s-2.8,4.48-2.8,7.91v4.08h-5.12v3.58h5.12Z"/><path class="cls-8" d="M536.2,210.85h-9.55v-35.6h9.17l.1,2.05a9.2,9.2,0,0,1,6.7-2.67,8,8,0,0,1,3,.51l.63.26,0,8.93-1.17-.19a17.2,17.2,0,0,0-2.9-.23c-3,0-4.93,1-6,3.19Zm-7.54-2h5.53V186.66l.09-.2c1.38-3,4-4.57,7.91-4.57a20.35,20.35,0,0,1,2.07.11l0-5.2a7.42,7.42,0,0,0-1.66-.16,7.5,7.5,0,0,0-6.72,3.9l-1.7,2.73-.3-6h-5.24Z"/><path class="cls-8" d="M559.48,211.47a12.84,12.84,0,0,1-8.93-3.14,10.27,10.27,0,0,1-3.53-7.89,10.55,10.55,0,0,1,4.4-9.06c2.83-2,6.86-3.06,12-3.06H567v-1.2a4.29,4.29,0,0,0-4.89-4.74,5.63,5.63,0,0,0-3.6,1.08,3,3,0,0,0-1.26,2.48v1h-9.56v-1a9.42,9.42,0,0,1,2-5.78,13.22,13.22,0,0,1,5.38-4.08,18.62,18.62,0,0,1,7.43-1.45c4.16,0,7.54,1.08,10.06,3.2a11.6,11.6,0,0,1,4,9.09v15.17a16.27,16.27,0,0,0,1.17,6.8l.1.21v1.75h-9.32l-.28-.54a8.47,8.47,0,0,1-.59-1.66A12.7,12.7,0,0,1,559.48,211.47Zm3.94-21.14c-4.71,0-8.35.9-10.82,2.68a8.53,8.53,0,0,0-3.57,7.43,8.24,8.24,0,0,0,2.86,6.4,10.83,10.83,0,0,0,7.59,2.62,10.67,10.67,0,0,0,8.09-3.44l1.38-1.44.34,2a15.28,15.28,0,0,0,.54,2.3h5.75a19.88,19.88,0,0,1-1-6.75V186.94a9.53,9.53,0,0,0-3.25-7.57c-2.14-1.81-5.09-2.73-8.76-2.73a16.61,16.61,0,0,0-6.63,1.28,11.28,11.28,0,0,0-4.58,3.46,7.57,7.57,0,0,0-1.56,3.56h5.56a5,5,0,0,1,1.94-3.06,7.62,7.62,0,0,1,4.84-1.51,6.75,6.75,0,0,1,5.17,1.89,6.87,6.87,0,0,1,1.73,4.86v3.21Zm-2.54,15.09a6.62,6.62,0,0,1-4.54-1.54,5.4,5.4,0,0,1-1.78-4.21,5.7,5.7,0,0,1,2.55-5c1.59-1.1,3.84-1.64,6.87-1.64h5.07v7.6l-.12.22a8.27,8.27,0,0,1-3.36,3.32A9.67,9.67,0,0,1,560.88,205.42Zm3.1-10.34c-2.57,0-4.5.43-5.73,1.28a3.75,3.75,0,0,0-1.68,3.31,3.41,3.41,0,0,0,1.11,2.71,4.61,4.61,0,0,0,3.2,1,7.61,7.61,0,0,0,3.72-1,6.3,6.3,0,0,0,2.44-2.3v-5.07Z"/><path class="cls-8" d="M632.08,210.85h-9.56V188a5.78,5.78,0,0,0-1.12-4c-.73-.78-2-1.17-3.89-1.17A5.27,5.27,0,0,0,614,184a6.21,6.21,0,0,0-1.93,3l0,23.89H602.5V187.74c-.09-3.4-1.65-4.92-5-4.92a5.65,5.65,0,0,0-5.42,2.94v25.09h-9.56v-35.6h9.06l.14,2.26a13.58,13.58,0,0,1,8.82-2.88c4.27,0,7.41,1.47,9.36,4.37A12.93,12.93,0,0,1,620,174.63c4,0,7,1.15,9,3.41s3,5.5,3,9.72Zm-7.55-2h5.54V187.77c0-3.71-.89-6.54-2.53-8.4s-4.13-2.73-7.52-2.73a10.89,10.89,0,0,0-9.49,4.73l-1,1.39-.74-1.53c-1.49-3.09-4.21-4.59-8.32-4.59a11,11,0,0,0-8.92,3.78L590,182.3l-.32-5h-5.16v31.58H590V185.27l.11-.22a7.6,7.6,0,0,1,7.32-4.24c4.5,0,6.94,2.39,7.06,6.91v21.12H610l0-22.17,0-.14a8.23,8.23,0,0,1,2.6-4.1,7.26,7.26,0,0,1,4.86-1.62c2.43,0,4.23.61,5.36,1.81a7.67,7.67,0,0,1,1.66,5.37Z"/><path class="cls-8" d="M653.61,211.47a16.67,16.67,0,0,1-12.34-4.81c-3.15-3.19-4.74-7.48-4.74-12.74V193a21.2,21.2,0,0,1,2-9.43,15.77,15.77,0,0,1,5.82-6.57,15.4,15.4,0,0,1,8.35-2.36c4.86,0,8.69,1.59,11.37,4.73s4,7.48,4,13v4H646.27a8.75,8.75,0,0,0,2.35,4.86,7.35,7.35,0,0,0,5.43,2.13,9.17,9.17,0,0,0,7.65-3.8l.68-.88,5.49,5.23-.47.71a14.72,14.72,0,0,1-5.78,5A18,18,0,0,1,653.61,211.47Zm-.87-34.83a13.44,13.44,0,0,0-7.28,2.05,13.9,13.9,0,0,0-5.09,5.75,19.42,19.42,0,0,0-1.83,8.55v.93c0,4.71,1.4,8.52,4.16,11.33s6.37,4.21,10.91,4.21a16,16,0,0,0,7.12-1.55,12.79,12.79,0,0,0,4.5-3.65l-2.66-2.54a11.08,11.08,0,0,1-8.52,3.73,9.34,9.34,0,0,1-6.84-2.71,11.08,11.08,0,0,1-3.07-7.21l-.09-1.09h22v-2c0-5.07-1.17-9-3.5-11.73S657.05,176.64,652.74,176.64Zm7.9,14.28H644.11l.16-1.14a12.22,12.22,0,0,1,2.67-6.58,8,8,0,0,1,11.42-.25,10.19,10.19,0,0,1,2.28,6.34Zm-14.19-2H658.6a7.93,7.93,0,0,0-1.72-4.6,6,6,0,0,0-8.43.22A9.58,9.58,0,0,0,646.45,188.91Z"/><path class="cls-8" d="M480.68,210.67l-29.94-29.94,6.16-6.16,29.94,29.94Zm-26.15-29.94,26.15,26.15,2.37-2.37L456.9,178.36Z"/><rect class="cls-9" x="448.96" y="189.6" width="39.66" height="6.03" transform="translate(1.12 387.94) rotate(-45)"/><path class="cls-7" d="M273.8,333.85v-28h-5.12v-5.58h5.12v-3.08q0-5.58,3.1-8.63t8.7-3a17.09,17.09,0,0,1,4.22.56l-.19,5.9a14.43,14.43,0,0,0-2.88-.25c-3.6,0-5.41,1.85-5.41,5.56v3h6.83v5.58h-6.83v28Z"/><path class="cls-7" d="M311.27,307.15a18.09,18.09,0,0,0-3.07-.25q-5.19,0-7,4v23h-7.54V300.26h7.2l.19,3.75a8.5,8.5,0,0,1,7.57-4.38,7,7,0,0,1,2.67.44Z"/><path class="cls-7" d="M335.18,333.85a11.75,11.75,0,0,1-.87-3.14,11.73,11.73,0,0,1-8.82,3.76,11.85,11.85,0,0,1-8.26-2.89,9.22,9.22,0,0,1-3.19-7.14,9.53,9.53,0,0,1,4-8.24q4-2.88,11.41-2.87h4.62v-2.21A5.83,5.83,0,0,0,332.6,307a5.76,5.76,0,0,0-4.44-1.57,6.65,6.65,0,0,0-4.22,1.29,4,4,0,0,0-1.64,3.27h-7.55a8.4,8.4,0,0,1,1.83-5.17,12.25,12.25,0,0,1,5-3.77,17.49,17.49,0,0,1,7-1.37q5.89,0,9.41,3a10.64,10.64,0,0,1,3.6,8.34v15.15a17.14,17.14,0,0,0,1.27,7.23v.53Zm-8.29-5.43a8.66,8.66,0,0,0,4.21-1.09,7.3,7.3,0,0,0,3-2.92v-6.33H330c-2.8,0-4.9.48-6.31,1.46a4.72,4.72,0,0,0-2.11,4.13,4.4,4.4,0,0,0,1.45,3.46A5.58,5.58,0,0,0,326.89,328.42Z"/><path class="cls-7" d="M356.6,300.26l.22,3.5a12.1,12.1,0,0,1,9.69-4.13q6.74,0,9.22,5.16A11.91,11.91,0,0,1,386,299.63q5.55,0,8.27,3.08t2.78,9.06v22.08h-7.55V312a6.71,6.71,0,0,0-1.39-4.69c-.93-1-2.48-1.49-4.63-1.49a6.3,6.3,0,0,0-4.21,1.38,7.42,7.42,0,0,0-2.28,3.62l0,23h-7.54V311.74c-.11-3.95-2.12-5.93-6.06-5.93a6.62,6.62,0,0,0-6.42,3.7v24.34h-7.55V300.26Z"/><path class="cls-7" d="M419.63,334.47A15.62,15.62,0,0,1,408,330q-4.46-4.51-4.45-12V317a20.09,20.09,0,0,1,1.94-9,14.73,14.73,0,0,1,5.45-6.16,14.36,14.36,0,0,1,7.82-2.21q6.86,0,10.6,4.38t3.74,12.39v3h-22a10.1,10.1,0,0,0,2.78,6.58,8.34,8.34,0,0,0,6.13,2.43,10.24,10.24,0,0,0,8.45-4.19l4.07,3.88a13.74,13.74,0,0,1-5.39,4.67A16.85,16.85,0,0,1,419.63,334.47Zm-.9-28.78a6.37,6.37,0,0,0-5,2.17,11.28,11.28,0,0,0-2.43,6.06h14.37v-.56a9.12,9.12,0,0,0-2-5.73A6.31,6.31,0,0,0,418.73,305.69Z"/><path class="cls-8" d="M516.34,334.85h-9.56v-28h-5.12v-7.6h5.12v-2.07c0-4,1.15-7.13,3.41-9.35s5.41-3.33,9.39-3.33a18.51,18.51,0,0,1,4.47.59l.79.2-.25,7.89-1.17-.23a14,14,0,0,0-2.69-.23c-3,0-4.39,1.41-4.39,4.56v2h6.83v7.6h-6.83Zm-7.55-2h5.54v-28h6.83v-3.58h-6.83v-4c0-4.24,2.27-6.57,6.4-6.57a16.4,16.4,0,0,1,1.92.1l.12-3.95a15.79,15.79,0,0,0-3.19-.35c-3.43,0-6.12.93-8,2.76s-2.8,4.48-2.8,7.91v4.08h-5.12v3.58h5.12Z"/><path class="cls-8" d="M536.2,334.85h-9.55v-35.6h9.17l.1,2.05a9.2,9.2,0,0,1,6.7-2.67,8,8,0,0,1,3,.51l.63.26,0,8.93-1.17-.19a17.2,17.2,0,0,0-2.9-.23c-3,0-4.93,1-6,3.19Zm-7.54-2h5.53V310.66l.09-.2c1.38-3,4-4.57,7.91-4.57a20.35,20.35,0,0,1,2.07.11l0-5.2a7.42,7.42,0,0,0-1.66-.16,7.5,7.5,0,0,0-6.72,3.9l-1.7,2.73-.3-6h-5.24Z"/><path class="cls-8" d="M559.48,335.47a12.84,12.84,0,0,1-8.93-3.14,10.27,10.27,0,0,1-3.53-7.89,10.55,10.55,0,0,1,4.4-9.06c2.83-2,6.86-3.06,12-3.06H567v-1.2a4.29,4.29,0,0,0-4.89-4.74,5.63,5.63,0,0,0-3.6,1.08,3,3,0,0,0-1.26,2.48v1h-9.56v-1a9.42,9.42,0,0,1,2-5.78,13.22,13.22,0,0,1,5.38-4.08,18.62,18.62,0,0,1,7.43-1.45c4.16,0,7.54,1.08,10.06,3.2a11.6,11.6,0,0,1,4,9.09v15.17a16.27,16.27,0,0,0,1.17,6.8l.1.21v1.75h-9.32l-.28-.54a8.47,8.47,0,0,1-.59-1.66A12.7,12.7,0,0,1,559.48,335.47Zm3.94-21.14c-4.71,0-8.35.9-10.82,2.68a8.53,8.53,0,0,0-3.57,7.43,8.24,8.24,0,0,0,2.86,6.4,10.83,10.83,0,0,0,7.59,2.62,10.67,10.67,0,0,0,8.09-3.44l1.38-1.44.34,2a15.28,15.28,0,0,0,.54,2.3h5.75a19.88,19.88,0,0,1-1-6.75V310.94a9.53,9.53,0,0,0-3.25-7.57c-2.14-1.81-5.09-2.73-8.76-2.73a16.61,16.61,0,0,0-6.63,1.28,11.28,11.28,0,0,0-4.58,3.46,7.57,7.57,0,0,0-1.56,3.56h5.56a5,5,0,0,1,1.94-3.06,7.62,7.62,0,0,1,4.84-1.51,6.75,6.75,0,0,1,5.17,1.89,6.87,6.87,0,0,1,1.73,4.86v3.21Zm-2.54,15.09a6.62,6.62,0,0,1-4.54-1.54,5.4,5.4,0,0,1-1.78-4.21,5.7,5.7,0,0,1,2.55-5c1.59-1.1,3.84-1.64,6.87-1.64h5.07v7.6l-.12.22a8.27,8.27,0,0,1-3.36,3.32A9.67,9.67,0,0,1,560.88,329.42Zm3.1-10.34c-2.57,0-4.5.43-5.73,1.28a3.75,3.75,0,0,0-1.68,3.31,3.41,3.41,0,0,0,1.11,2.71,4.61,4.61,0,0,0,3.2,1,7.61,7.61,0,0,0,3.72-1,6.3,6.3,0,0,0,2.44-2.3v-5.07Z"/><path class="cls-8" d="M632.08,334.85h-9.56V312a5.78,5.78,0,0,0-1.12-4c-.73-.78-2-1.17-3.89-1.17A5.27,5.27,0,0,0,614,308a6.21,6.21,0,0,0-1.93,3l0,23.89H602.5V311.74c-.09-3.4-1.65-4.92-5-4.92a5.65,5.65,0,0,0-5.42,2.94v25.09h-9.56v-35.6h9.06l.14,2.26a13.58,13.58,0,0,1,8.82-2.88c4.27,0,7.41,1.47,9.36,4.37A12.93,12.93,0,0,1,620,298.63c4,0,7,1.15,9,3.41s3,5.5,3,9.72Zm-7.55-2h5.54V311.77c0-3.71-.89-6.54-2.53-8.4s-4.13-2.73-7.52-2.73a10.89,10.89,0,0,0-9.49,4.73l-1,1.39-.74-1.53c-1.49-3.09-4.21-4.59-8.32-4.59a11,11,0,0,0-8.92,3.78L590,306.3l-.32-5h-5.16v31.58H590V309.27l.11-.22a7.6,7.6,0,0,1,7.32-4.24c4.5,0,6.94,2.39,7.06,6.91v21.12H610l0-22.17,0-.14a8.23,8.23,0,0,1,2.6-4.1,7.26,7.26,0,0,1,4.86-1.62c2.43,0,4.23.61,5.36,1.81a7.67,7.67,0,0,1,1.66,5.37Z"/><path class="cls-8" d="M653.61,335.47a16.67,16.67,0,0,1-12.34-4.81c-3.15-3.19-4.74-7.48-4.74-12.74V317a21.2,21.2,0,0,1,2-9.43,15.77,15.77,0,0,1,5.82-6.57,15.4,15.4,0,0,1,8.35-2.36c4.86,0,8.69,1.59,11.37,4.73s4,7.48,4,13v4.05H646.27a8.75,8.75,0,0,0,2.35,4.86,7.35,7.35,0,0,0,5.43,2.13,9.17,9.17,0,0,0,7.65-3.8l.68-.88,5.49,5.23-.47.71a14.72,14.72,0,0,1-5.78,5A18,18,0,0,1,653.61,335.47Zm-.87-34.83a13.44,13.44,0,0,0-7.28,2.05,13.9,13.9,0,0,0-5.09,5.75,19.42,19.42,0,0,0-1.83,8.55v.93c0,4.71,1.4,8.52,4.16,11.33s6.37,4.21,10.91,4.21a16,16,0,0,0,7.12-1.55,12.79,12.79,0,0,0,4.5-3.65l-2.66-2.54a11.08,11.08,0,0,1-8.52,3.73,9.34,9.34,0,0,1-6.84-2.71,11.08,11.08,0,0,1-3.07-7.21l-.09-1.09h22v-2c0-5.07-1.17-9-3.5-11.73S657.05,300.64,652.74,300.64Zm7.9,14.28H644.11l.16-1.14a12.22,12.22,0,0,1,2.67-6.58,8,8,0,0,1,11.42-.25,10.19,10.19,0,0,1,2.28,6.34Zm-14.19-2H658.6a7.93,7.93,0,0,0-1.72-4.6,6,6,0,0,0-8.43.22A9.58,9.58,0,0,0,646.45,312.91Z"/><path class="cls-8" d="M480.68,334.67l-29.94-29.94,6.16-6.16,29.94,29.94Zm-26.15-29.94,26.15,26.15,2.37-2.37L456.9,302.36Z"/><rect class="cls-9" x="448.96" y="313.6" width="39.66" height="6.03" transform="translate(-86.57 424.26) rotate(-45)"/></g></g></svg>
