<svg xmlns="http://www.w3.org/2000/svg" width="527" height="112.34" viewBox="0 0 527 112.34">
  <g id="Group_4" data-name="Group 4" transform="translate(-139 -221)">
    <rect id="Rectangle_75" data-name="Rectangle 75" width="527" height="112.34" transform="translate(139 221)" fill="#9e3a3a"/>
    <g id="Asset_20" data-name="Asset 20" transform="translate(168.9 243.07)">
      <g id="Layer_2" data-name="Layer 2" transform="translate(0 0)">
        <path id="Path_145" data-name="Path 145" d="M6.923,59V25.692H.5V19.044H6.923V15.385q0-6.648,3.9-10.267T21.754,1.5a23.209,23.209,0,0,1,5.3.662l-.235,7.022a19.4,19.4,0,0,0-3.624-.295q-6.768,0-6.776,6.608v3.547h8.55v6.648H16.39V59Z" transform="translate(-11.5 -0.172)" fill="#fff" stroke="#fff" stroke-miterlimit="10" stroke-width="1"/>
        <path id="Path_146" data-name="Path 146" d="M59.886,32a24.23,24.23,0,0,0-3.859-.311q-6.507,0-8.769,4.986V65.507H37.8V23.361h9.029l.235,4.708a10.7,10.7,0,0,1,9.509-5.49,8.9,8.9,0,0,1,3.363.546Z" transform="translate(-17.441 -6.677)" fill="#fff" stroke="#fff" stroke-miterlimit="10" stroke-width="1"/>
        <path id="Path_147" data-name="Path 147" d="M94.715,65.514a14.755,14.755,0,0,1-1.093-3.9,14.713,14.713,0,0,1-11.056,4.708A14.87,14.87,0,0,1,72.2,62.7a11.577,11.577,0,0,1-4.01-8.987,11.954,11.954,0,0,1,5.044-10.341q5.044-3.615,14.292-3.607h5.8V37A7.39,7.39,0,0,0,91.5,31.758c-1.227-1.312-3.077-1.967-5.574-1.967a8.357,8.357,0,0,0-5.288,1.614,5.044,5.044,0,0,0-2.093,4.145H69.081a10.509,10.509,0,0,1,2.312-6.516A15.268,15.268,0,0,1,77.639,24.3a21.985,21.985,0,0,1,8.828-1.681q7.407,0,11.77,3.716t4.515,10.459V55.77a21.548,21.548,0,0,0,1.6,9.08v.664ZM84.315,58.7a10.787,10.787,0,0,0,5.28-1.362,9.08,9.08,0,0,0,3.716-3.666V45.723h-5.1q-5.255,0-7.9,1.833a5.885,5.885,0,0,0-2.648,5.179,5.557,5.557,0,0,0,1.808,4.347A7.029,7.029,0,0,0,84.315,58.7Z" transform="translate(-21.28 -6.683)" fill="#fff" stroke="#fff" stroke-miterlimit="10" stroke-width="1"/>
        <path id="Path_148" data-name="Path 148" d="M130.02,23.362l.269,4.4q4.439-5.179,12.157-5.179,8.407,0,11.569,6.465a14.938,14.938,0,0,1,12.931-6.465q6.978,0,10.383,3.859t3.481,11.375V65.508h-9.458V38.066q0-4.01-1.757-5.885t-5.8-1.866a7.894,7.894,0,0,0-5.28,1.732,9.248,9.248,0,0,0-2.867,4.54l.042,28.9h-9.45V37.747q-.185-7.441-7.567-7.441-5.683,0-8.063,4.632V65.508H121.1V23.362Z" transform="translate(-32.206 -6.678)" fill="#fff" stroke="#fff" stroke-miterlimit="10" stroke-width="1"/>
        <path id="Path_149" data-name="Path 149" d="M221.937,66.281q-8.987,0-14.587-5.667t-5.591-15.091V44.355A25.272,25.272,0,0,1,204.2,33.081a18.5,18.5,0,0,1,6.835-7.735,18.084,18.084,0,0,1,9.811-2.766q8.609,0,13.3,5.49t4.7,15.545v3.817H211.3a12.611,12.611,0,0,0,3.489,8.29,10.459,10.459,0,0,0,7.693,3.043,12.813,12.813,0,0,0,10.585-5.3l5.1,4.868a17.017,17.017,0,0,1-6.726,5.885A21.06,21.06,0,0,1,221.937,66.281Zm-1.127-36.1a7.987,7.987,0,0,0-6.3,2.724,14.074,14.074,0,0,0-3.052,7.567H229.5v-.7q-.311-4.759-2.522-7.188A7.9,7.9,0,0,0,220.81,30.18Z" transform="translate(-47.632 -6.677)" fill="#fff" stroke="#fff" stroke-miterlimit="10" stroke-width="1"/>
        <path id="Path_150" data-name="Path 150" d="M366.582,60.012H354.593V26.626H348.17V17.559h6.423V15.1c0-4.793,1.438-8.508,4.279-11.184S365.666-.08,370.643-.08a24.474,24.474,0,0,1,5.6.7l.992.232-.294,9.515-1.463-.28a18.256,18.256,0,0,0-3.363-.272c-3.809,0-5.515,1.67-5.515,5.424v2.4h8.576v8.987H366.6Zm-9.467-2.4h6.944V24.23h8.576V19.956H364.06V15.163c0-5.049,2.858-7.821,8.037-7.821a22.905,22.905,0,0,1,2.413.112l.151-4.705a20.459,20.459,0,0,0-4-.367c-4.313,0-7.684,1.1-10.022,3.283s-3.523,5.344-3.523,9.435v4.857h-6.423v4.266h6.423Z" transform="translate(-81.478 0.08)" fill="#fff"/>
        <path id="Path_151" data-name="Path 151" d="M397.45,66.526H385.47V21.85h11.493l.126,2.573a11.543,11.543,0,0,1,8.407-3.363,10.223,10.223,0,0,1,3.825.639l.79.328-.05,11.207-1.446-.227a22.574,22.574,0,0,0-3.649-.294c-3.724,0-6.179,1.312-7.508,4.01ZM387.992,64h6.936V36.142l.118-.252c1.681-3.8,5.044-5.725,9.912-5.725a24.1,24.1,0,0,1,2.6.135V23.775a9.575,9.575,0,0,0-2.085-.2,9.326,9.326,0,0,0-8.407,4.9l-2.127,3.464-.37-7.567h-6.575Z" transform="translate(-86.902 -6.435)" fill="#fff"/>
        <path id="Path_152" data-name="Path 152" d="M431.489,67.31a16.158,16.158,0,0,1-11.2-3.943,12.855,12.855,0,0,1-4.431-9.9c0-4.9,1.858-8.727,5.532-11.367,3.539-2.522,8.6-3.842,15.049-3.842h4.54v-1.5a6.146,6.146,0,0,0-1.463-4.38,6.118,6.118,0,0,0-4.649-1.564,7.113,7.113,0,0,0-4.523,1.345,3.75,3.75,0,0,0-1.606,3.153v1.261H416.751V35.311a11.821,11.821,0,0,1,2.522-7.247A16.714,16.714,0,0,1,426,22.936a23.372,23.372,0,0,1,9.324-1.816c5.213,0,9.458,1.354,12.611,4.019s4.885,6.549,4.969,11.4V55.531a20.376,20.376,0,0,0,1.48,8.542l.118.252v2.211H442.881l-.353-.681a9.876,9.876,0,0,1-.748-2.093A15.924,15.924,0,0,1,431.489,67.31Zm4.952-26.525c-5.885,0-10.476,1.135-13.578,3.363s-4.481,5.213-4.481,9.315a10.291,10.291,0,0,0,3.6,8.021,14.667,14.667,0,0,0,19.665-1.026l1.732-1.808.42,2.463a19.1,19.1,0,0,0,.681,2.892h7.214a25.1,25.1,0,0,1-1.244-8.475V36.522c-.067-4.12-1.4-7.239-4.069-9.492s-6.39-3.422-10.988-3.422a20.674,20.674,0,0,0-8.323,1.614,14.141,14.141,0,0,0-5.751,4.338,9.424,9.424,0,0,0-1.951,4.456h6.97a6.314,6.314,0,0,1,2.43-3.842,9.635,9.635,0,0,1,6.079-1.883,8.61,8.61,0,0,1,6.49,2.371,8.634,8.634,0,0,1,2.169,6.1v4.027Zm-3.195,18.908a8.307,8.307,0,0,1-5.692-1.934,6.785,6.785,0,0,1-2.228-5.288,7.155,7.155,0,0,1,3.186-6.221c2-1.379,4.826-2.051,8.626-2.051H443.5v9.551l-.151.286a10.375,10.375,0,0,1-4.2,4.162,12.039,12.039,0,0,1-5.9,1.5Zm3.893-12.973c-3.228,0-5.641.538-7.188,1.606a4.716,4.716,0,0,0-2.1,4.145,4.313,4.313,0,0,0,1.387,3.4,5.784,5.784,0,0,0,4.01,1.295,9.467,9.467,0,0,0,4.666-1.211,7.827,7.827,0,0,0,3.069-2.884V46.745Z" transform="translate(-89.877 -6.445)" fill="#fff"/>
        <path id="Path_153" data-name="Path 153" d="M531,66.527H519.012v-28.7c0-2.329-.471-4.019-1.4-5.044s-2.564-1.471-4.885-1.471a6.6,6.6,0,0,0-4.464,1.471,7.777,7.777,0,0,0-2.421,3.758V66.518H493.891V37.53c-.109-4.263-2.068-6.179-6.331-6.179-3.2,0-5.431,1.211-6.8,3.691V66.527H468.77V21.85h11.367l.177,2.833a17,17,0,0,1,11.064-3.615c5.355,0,9.248,1.841,11.77,5.482a16.214,16.214,0,0,1,12.762-5.482c5.044,0,8.811,1.438,11.325,4.279s3.75,6.9,3.8,12.2ZM521.534,64h6.945V37.572c0-4.666-1.11-8.214-3.17-10.543s-5.187-3.43-9.433-3.43a13.648,13.648,0,0,0-11.9,5.936l-1.236,1.74-.925-1.925c-1.866-3.867-5.28-5.751-10.434-5.751-4.8,0-8.466,1.547-11.2,4.742L478.153,30.7l-.387-6.331h-6.474V64h6.919V34.461l.135-.269c1.808-3.531,4.9-5.322,9.189-5.322,5.641,0,8.7,3,8.853,8.668V64h6.944l-.042-27.82.05-.177a10.433,10.433,0,0,1,3.262-5.145,9.105,9.105,0,0,1,6.1-2.035c3.052,0,5.313.765,6.726,2.27s2.093,3.75,2.093,6.726Z" transform="translate(-99.434 -6.435)" fill="#fff"/>
        <path id="Path_154" data-name="Path 154" d="M570.868,67.3c-6.322,0-11.535-2.026-15.486-6.036s-5.952-9.383-5.952-15.974V44.116a26.66,26.66,0,0,1,2.564-11.829,19.741,19.741,0,0,1,7.3-8.248,19.337,19.337,0,0,1,10.484-2.959c6.1,0,10.93,2,14.292,5.936s5,9.383,5,16.361v5.044H561.679a10.93,10.93,0,0,0,2.943,6.1,9.189,9.189,0,0,0,6.81,2.674,11.526,11.526,0,0,0,9.584-4.742l.841-1.1,6.877,6.566-.589.841a18.37,18.37,0,0,1-7.256,6.289A22.447,22.447,0,0,1,570.868,67.3Zm-1.093-43.718a16.949,16.949,0,0,0-9.147,2.573,17.386,17.386,0,0,0-6.373,7.222,24.137,24.137,0,0,0-2.3,10.719v1.169c0,5.885,1.757,10.694,5.229,14.208s7.987,5.288,13.687,5.288a20.035,20.035,0,0,0,8.929-1.951,15.975,15.975,0,0,0,5.65-4.574l-3.363-3.186a13.956,13.956,0,0,1-10.694,4.683,11.77,11.77,0,0,1-8.584-3.363,13.922,13.922,0,0,1-3.851-9.055l-.118-1.362h27.652V43.435c0-6.364-1.48-11.316-4.4-14.721S575.181,23.6,569.775,23.6ZM579.687,41.5H558.947l.193-1.429a15.385,15.385,0,0,1,3.363-8.256A10.089,10.089,0,0,1,576.8,31.5c1.681,1.833,2.632,4.506,2.859,7.953Zm-17.807-2.522h15.234a9.879,9.879,0,0,0-2.152-5.776,7.567,7.567,0,0,0-10.568.277A11.972,11.972,0,0,0,561.881,39Z" transform="translate(-113.28 -6.438)" fill="#fff"/>
        <path id="Path_155" data-name="Path 155" d="M309.746,66.282,272.19,28.718,279.916,21,317.48,58.556ZM276.957,28.718l32.789,32.789,2.976-2.976L279.933,25.742Z" transform="translate(-64.493 -6.426)" fill="#fff"/>
        <rect id="Rectangle_74" data-name="Rectangle 74" width="49.755" height="7.567" transform="translate(210.084 52.143) rotate(-45)" fill="#fff" stroke="#fff" stroke-miterlimit="10" stroke-width="4"/>
      </g>
    </g>
  </g>
</svg>
