<svg xmlns="http://www.w3.org/2000/svg" width="233" height="112" viewBox="0 0 233 112">
  <g id="Group_35" data-name="Group 35" transform="translate(-139 -56)">
    <rect id="Rectangle_73" data-name="Rectangle 73" width="233" height="112" transform="translate(139 56)" fill="#9e3a3a"/>
    <g id="Asset_17" data-name="Asset 17" transform="translate(163.993 85.018)">
      <g id="Layer_1" data-name="Layer 1" transform="translate(0.007)">
        <rect id="Rectangle_68" data-name="Rectangle 68" width="8.671" height="52.591" transform="translate(174.265)" fill="#fff"/>
        <path id="Path_129" data-name="Path 129" d="M43.24,37.31H64.753V6H43.24ZM62.4,7.522,54,20.1,45.755,7.522ZM44.895,9.31,53,21.489,44.895,33.636Zm.861,26.478L54.129,23.21,62.3,35.787Zm17.475-1.92L55.023,21.589,63.1,9.31Z" transform="translate(99.847 13.858)" fill="#fff"/>
        <path id="Path_130" data-name="Path 130" d="M42.153,5.512a11.783,11.783,0,0,0-5.991,1.655,16.549,16.549,0,0,0-5.064,4.8V6.6H22.56V39.9h8.7V23.914a22.572,22.572,0,0,1,.364-4.634,8.01,8.01,0,0,1,1.158-2.714,6.851,6.851,0,0,1,5.825-3.31,4.832,4.832,0,0,1,4.4,1.953,16.847,16.847,0,0,1,1.258,8.109V39.866h8.7V19.412a37.6,37.6,0,0,0-.265-5.627,12.246,12.246,0,0,0-.96-3.111,9.366,9.366,0,0,0-3.74-4A12.18,12.18,0,0,0,42.153,5.512Z" transform="translate(52.082 12.692)" fill="#fff"/>
        <path id="Path_131" data-name="Path 131" d="M33.753,6H12.24V37.442H33.753ZM31.4,7.655,23,20.232,14.755,7.522ZM13.895,9.31,22,21.489,13.895,33.636Zm.861,26.478L23.129,23.21,31.3,35.787Zm17.475-1.92L24.023,21.589,32.1,9.31Z" transform="translate(28.246 13.858)" fill="#fff"/>
        <path id="Path_132" data-name="Path 132" d="M13.222,53.915a11.882,11.882,0,0,0,6.057-1.456,12.08,12.08,0,0,0,4.236-4.634v4.766h8.34V0H23.614V22.274a21.877,21.877,0,0,0,.232,2.714,16.118,16.118,0,0,0-4.567-5.13A9.929,9.929,0,0,0,13.553,18.2a11.882,11.882,0,0,0-9.929,4.7A21.414,21.414,0,0,0,.049,36.142,21.414,21.414,0,0,0,3.69,49.149a11.452,11.452,0,0,0,9.532,4.766Zm8.671-25.088a11.187,11.187,0,0,1,2.052,7.083,10.988,10.988,0,0,1-1.986,7.116,6.619,6.619,0,0,1-5.428,2.416,6.619,6.619,0,0,1-5.726-2.416,11.154,11.154,0,0,1-1.986-7.05,11.121,11.121,0,0,1,2.019-7.083,6.619,6.619,0,0,1,5.693-2.681,6.619,6.619,0,0,1,5.362,2.615Z" transform="translate(-0.007)" fill="#fff"/>
        <path id="Path_133" data-name="Path 133" d="M55.753,6H34.24V37.442H55.753ZM53.4,7.655,45,20.232,36.755,7.522ZM35.895,9.31,44,21.489,35.895,33.636Zm.861,26.478L45.129,23.21,53.3,35.787Zm17.475-1.92L46.023,21.589,54.1,9.31Z" transform="translate(79.06 13.858)" fill="#fff"/>
      </g>
    </g>
  </g>
</svg>
