<svg id="CG" xmlns="http://www.w3.org/2000/svg" xmlns:xlink="http://www.w3.org/1999/xlink" width="616.418" height="616.418" viewBox="0 0 616.418 616.418">
  <defs>
    <linearGradient id="linear-gradient" y1="1" x2="1" gradientUnits="objectBoundingBox">
      <stop offset="0" stop-color="#05a8aa"/>
      <stop offset="0.27" stop-color="#b8d5b8"/>
      <stop offset="0.5" stop-color="#eaefbd"/>
      <stop offset="0.72" stop-color="#db6a3d"/>
      <stop offset="1" stop-color="#bc412b"/>
    </linearGradient>
  </defs>
  <g id="title_slide" data-name="title slide">
    <path id="Path_72" data-name="Path 72" d="M0,0H616.418V616.418H0Z" fill="url(#linear-gradient)"/>
    <rect id="Rectangle_31" data-name="Rectangle 31" width="544.479" height="544.479" transform="translate(35.969 35.969)" fill="#b8d5b8"/>
    <path id="Path_20" data-name="Path 20" d="M599.584,599.584H41V41H599.584ZM55.106,585.479H585.479V55.106H55.106Z" transform="translate(-12.083 -12.083)" fill="#fff"/>
    <path id="Path_21" data-name="Path 21" d="M108.309,142.96a21.363,21.363,0,0,1,2.116-9.55,15.58,15.58,0,0,1,5.812-6.552,15.876,15.876,0,0,1,8.506-2.3,15.267,15.267,0,0,1,11.94,5.106q4.57,5.106,4.556,13.6v.43a21.539,21.539,0,0,1-2.017,9.472,15.291,15.291,0,0,1-5.783,6.531,16,16,0,0,1-8.633,2.342,15.177,15.177,0,0,1-11.905-5.113q-4.549-5.113-4.563-13.527Zm6.214.705q0,6.016,2.786,9.655a9.451,9.451,0,0,0,14.952-.049q2.772-3.7,2.772-10.339a15.43,15.43,0,0,0-2.821-9.634,8.971,8.971,0,0,0-7.5-3.7,8.88,8.88,0,0,0-7.384,3.646q-2.8,3.668-2.807,10.445Z" transform="translate(-31.92 -36.709)" fill="#fff"/>
    <path id="Path_22" data-name="Path 22" d="M167.873,155.015V123.651H162.16v-4.782h5.713v-3.7q0-5.819,3.11-8.992T179.764,103a16.151,16.151,0,0,1,4.232.564l-.339,4.979a17.355,17.355,0,0,0-3.336-.3A6.03,6.03,0,0,0,175.673,110a7.1,7.1,0,0,0-1.636,5.043v3.816H181.8v4.782h-7.758v31.364Z" transform="translate(-47.791 -30.356)" fill="#fff"/>
    <path id="Path_23" data-name="Path 23" d="M237.479,157a8.894,8.894,0,0,0,5.776-2.01,7.053,7.053,0,0,0,2.736-5.008h5.847a11.214,11.214,0,0,1-2.116,5.91,14.106,14.106,0,0,1-5.261,4.479,15.164,15.164,0,0,1-6.961,1.672q-7.384,0-11.743-4.937T221.4,143.629v-1.037a21.786,21.786,0,0,1,1.932-9.387,14.713,14.713,0,0,1,5.565-6.348,15.763,15.763,0,0,1,8.569-2.271,14.522,14.522,0,0,1,10.107,3.639,13.013,13.013,0,0,1,4.288,9.451h-5.847a8.534,8.534,0,0,0-2.652-5.762,8.28,8.28,0,0,0-5.9-2.257,8.668,8.668,0,0,0-7.3,3.392q-2.6,3.392-2.588,9.8v1.171q0,6.256,2.574,9.62A8.664,8.664,0,0,0,237.479,157Z" transform="translate(-65.249 -36.715)" fill="#fff"/>
    <path id="Path_24" data-name="Path 24" d="M272.089,142.96a21.364,21.364,0,0,1,2.116-9.549,15.629,15.629,0,0,1,5.812-6.552,15.876,15.876,0,0,1,8.506-2.3,15.24,15.24,0,0,1,11.94,5.106q4.556,5.106,4.563,13.6v.43A21.541,21.541,0,0,1,303,153.165a15.319,15.319,0,0,1-5.776,6.531,16.038,16.038,0,0,1-8.64,2.342,15.2,15.2,0,0,1-11.905-5.113q-4.563-5.113-4.563-13.527Zm6.214.705q0,6.016,2.821,9.655a9.444,9.444,0,0,0,14.945-.049q2.772-3.7,2.772-10.339a15.43,15.43,0,0,0-2.821-9.634,8.971,8.971,0,0,0-7.5-3.7,8.879,8.879,0,0,0-7.384,3.646q-2.828,3.668-2.835,10.445Z" transform="translate(-80.189 -36.709)" fill="#fff"/>
    <path id="Path_25" data-name="Path 25" d="M351.992,158.07q-3.611,4.232-10.579,4.232c-3.851,0-6.792-1.121-8.8-3.357s-3.033-5.551-3.061-9.937V125.5h6.185v23.352q0,8.217,6.679,8.217,7.053,0,9.423-5.275V125.5h6.178v36.146h-5.882Z" transform="translate(-97.124 -36.987)" fill="#fff"/>
    <path id="Path_26" data-name="Path 26" d="M400.7,130.77a17.9,17.9,0,0,0-3.04-.24q-6.08,0-8.252,5.184v25.651H383.23V125.219h6.009l.1,4.175a9.634,9.634,0,0,1,8.619-4.838,6.348,6.348,0,0,1,2.744.466Z" transform="translate(-112.944 -36.706)" fill="#fff"/>
    <path id="Path_27" data-name="Path 27" d="M436.448,151.784a4.542,4.542,0,0,0-1.89-3.893q-1.883-1.411-6.58-2.391a30.664,30.664,0,0,1-7.448-2.405,10.579,10.579,0,0,1-4.077-3.336,7.991,7.991,0,0,1-1.319-4.613,9.387,9.387,0,0,1,3.773-7.518,14.682,14.682,0,0,1,9.606-3.068,15.07,15.07,0,0,1,9.966,3.174,10.064,10.064,0,0,1,3.83,8.111H436.1a5.586,5.586,0,0,0-2.158-4.373,8.047,8.047,0,0,0-5.424-1.841,8.463,8.463,0,0,0-5.283,1.474,4.626,4.626,0,0,0-1.9,3.844,3.752,3.752,0,0,0,1.77,3.371,22.2,22.2,0,0,0,6.4,2.172,33.686,33.686,0,0,1,7.5,2.468,11.1,11.1,0,0,1,4.232,3.456,8.576,8.576,0,0,1,1.411,4.937,9.247,9.247,0,0,1-3.872,7.758,16.254,16.254,0,0,1-10.057,2.927,18.19,18.19,0,0,1-7.688-1.538,12.491,12.491,0,0,1-5.233-4.3,10.346,10.346,0,0,1-1.89-5.945h6.178a6.39,6.39,0,0,0,2.49,4.937,9.606,9.606,0,0,0,6.129,1.827,9.874,9.874,0,0,0,5.642-1.411A4.352,4.352,0,0,0,436.448,151.784Z" transform="translate(-121.983 -36.71)" fill="#fff"/>
    <path id="Path_28" data-name="Path 28" d="M480.386,162.039a15.757,15.757,0,0,1-11.954-4.831q-4.6-4.831-4.613-12.907v-1.135a21.7,21.7,0,0,1,2.052-9.606,16.053,16.053,0,0,1,5.748-6.616,14.487,14.487,0,0,1,8-2.384q7.053,0,10.96,4.641t3.907,13.3v2.574H470a12.835,12.835,0,0,0,3.124,8.633,9.818,9.818,0,0,0,7.6,3.294,10.791,10.791,0,0,0,5.544-1.34,13.992,13.992,0,0,0,3.971-3.526l3.773,2.941Q489.47,162.039,480.386,162.039Zm-.769-32.408a8.224,8.224,0,0,0-6.277,2.729,13.193,13.193,0,0,0-3.138,7.631h18.1v-.473a11.8,11.8,0,0,0-2.539-7.293A7.758,7.758,0,0,0,479.617,129.631Z" transform="translate(-136.694 -36.71)" fill="#fff"/>
    <path id="Path_29" data-name="Path 29" d="M549.9,156.415H543.48V107.75H549.9Z" transform="translate(-160.173 -31.756)" fill="#fff"/>
    <path id="Path_30" data-name="Path 30" d="M566.966,120.37l-3.526-2.405a16.1,16.1,0,0,0,3.209-9.169V104h6.115v4.345a15.594,15.594,0,0,1-1.657,6.665A15.4,15.4,0,0,1,566.966,120.37Z" transform="translate(-166.055 -30.651)" fill="#fff"/>
    <path id="Path_31" data-name="Path 31" d="M593,125.212l.169,4.013a13.338,13.338,0,0,1,10.72-4.676q7.582,0,10.325,5.812a13.573,13.573,0,0,1,4.69-4.232,13.831,13.831,0,0,1,6.834-1.6q11.891,0,12.089,12.589v24.219h-6.178V137.505q0-3.872-1.77-5.8t-5.945-1.911a8.209,8.209,0,0,0-5.713,2.052,8.321,8.321,0,0,0-2.638,5.529v23.98h-6.214V137.674q0-7.878-7.716-7.885-6.079,0-8.322,5.177v26.392H587.15V125.212Z" transform="translate(-173.043 -36.699)" fill="#fff"/>
    <path id="Path_32" data-name="Path 32" d="M108.309,252.96a21.363,21.363,0,0,1,2.116-9.549,15.58,15.58,0,0,1,5.812-6.552,15.876,15.876,0,0,1,8.506-2.3,15.267,15.267,0,0,1,11.94,5.106q4.57,5.106,4.556,13.6v.43a21.539,21.539,0,0,1-2.017,9.472,15.291,15.291,0,0,1-5.783,6.531,16,16,0,0,1-8.633,2.342,15.177,15.177,0,0,1-11.905-5.113q-4.549-5.113-4.563-13.527Zm6.214.705q0,6.023,2.786,9.655a9.451,9.451,0,0,0,14.952-.049q2.772-3.7,2.772-10.339a15.43,15.43,0,0,0-2.821-9.634,8.971,8.971,0,0,0-7.5-3.7,8.879,8.879,0,0,0-7.384,3.646q-2.8,3.668-2.807,10.445Z" transform="translate(-31.92 -69.128)" fill="#fff"/>
    <path id="Path_33" data-name="Path 33" d="M171.812,235.221l.2,4.542a13.181,13.181,0,0,1,10.826-5.205q11.454,0,11.56,12.928v23.881h-6.178V247.451c0-2.61-.621-4.535-1.791-5.783s-2.99-1.869-5.459-1.869a8.922,8.922,0,0,0-5.283,1.608,10.9,10.9,0,0,0-3.526,4.232V271.4H166V235.221Z" transform="translate(-48.923 -69.127)" fill="#fff"/>
    <path id="Path_34" data-name="Path 34" d="M280.719,249.947q-.571,7.85-5.8,12.357t-13.781,4.514q-9.352,0-14.712-6.3t-5.36-17.287v-3a29.206,29.206,0,0,1,2.468-12.357,18.564,18.564,0,0,1,7.053-8.2,19.79,19.79,0,0,1,10.671-2.821q8.421,0,13.563,4.514t5.946,12.66H270.753c-.247-3.146-1.121-5.417-2.624-6.834s-3.794-2.116-6.87-2.116q-5.007,0-7.5,3.59T251.209,239.8v3.675q0,7.885,2.384,11.524t7.532,3.639q4.648,0,6.933-2.116t2.624-6.566Z" transform="translate(-71.045 -63.907)" fill="#fff"/>
    <path id="Path_35" data-name="Path 35" d="M326.032,244.279a26.666,26.666,0,0,0-3.477-.268q-5.48,0-7.18,3.71v23.648H305.72V235.223h9.119l.268,4.309q2.913-4.972,8.047-4.972a10.157,10.157,0,0,1,3.012.43Z" transform="translate(-90.101 -69.129)" fill="#fff"/>
    <path id="Path_36" data-name="Path 36" d="M357.191,272.029q-7.956,0-12.949-4.881t-4.993-12.991V253.2a21.808,21.808,0,0,1,2.116-9.733,15.4,15.4,0,0,1,5.96-6.616,16.708,16.708,0,0,1,8.8-2.32q7.412,0,11.679,4.676t4.232,13.259v3.943h-23a8.971,8.971,0,0,0,2.821,5.677,8.548,8.548,0,0,0,5.967,2.116,10.417,10.417,0,0,0,8.717-4.041l4.74,5.311a14.486,14.486,0,0,1-5.875,4.8A19.367,19.367,0,0,1,357.191,272.029Zm-1.107-29.7a6.03,6.03,0,0,0-4.655,1.947,10.107,10.107,0,0,0-2.292,5.572h13.4v-.776a7.166,7.166,0,0,0-1.735-4.979A6.213,6.213,0,0,0,356.084,242.329Z" transform="translate(-99.981 -69.119)" fill="#fff"/>
    <path id="Path_37" data-name="Path 37" d="M413.878,271.368a10.842,10.842,0,0,1-.973-3.237,11.679,11.679,0,0,1-9.119,3.907,12.815,12.815,0,0,1-8.8-3.075A9.874,9.874,0,0,1,391.5,261.2a10.237,10.237,0,0,1,4.232-8.816q4.232-3.075,12.342-3.1h4.443v-2.066a5.952,5.952,0,0,0-1.291-4.013,5.039,5.039,0,0,0-4.055-1.5,5.72,5.72,0,0,0-3.823,1.171,3.949,3.949,0,0,0-1.411,3.209H392.3a9.726,9.726,0,0,1,1.94-5.819,12.836,12.836,0,0,1,5.48-4.189,19.9,19.9,0,0,1,7.949-1.516q6.672,0,10.579,3.357t3.935,9.437v15.664q0,5.142,1.411,7.758v.571Zm-7.984-6.714a8.329,8.329,0,0,0,3.943-.952,6.291,6.291,0,0,0,2.673-2.553v-6.214H408.9q-7.25,0-7.716,5.007l-.035.571a3.858,3.858,0,0,0,1.269,2.969,4.937,4.937,0,0,0,3.477,1.171Z" transform="translate(-115.38 -69.128)" fill="#fff"/>
    <path id="Path_38" data-name="Path 38" d="M455.672,222.9v8.887h6.185v7.053h-6.185V256.88a4.331,4.331,0,0,0,.769,2.871,3.88,3.88,0,0,0,2.941.867,15.515,15.515,0,0,0,2.821-.233v7.321a19.933,19.933,0,0,1-5.847.868q-10.156,0-10.354-10.255V238.868H440.72v-7.053H446V222.9Z" transform="translate(-129.887 -65.692)" fill="#fff"/>
    <path id="Path_39" data-name="Path 39" d="M478.219,220.159a4.746,4.746,0,0,1,1.453-3.576,6.256,6.256,0,0,1,7.9,0,5.12,5.12,0,0,1,0,7.187,6.192,6.192,0,0,1-7.85,0,4.733,4.733,0,0,1-1.5-3.611Zm10.255,45.5h-9.7V229.511h9.691Z" transform="translate(-140.938 -63.417)" fill="#fff"/>
    <path id="Path_40" data-name="Path 40" d="M516.19,259.823,522.9,235.47h10.064l-12.194,36.146h-9.19L499.39,235.491h10.086Z" transform="translate(-147.179 -69.397)" fill="#fff"/>
    <path id="Path_41" data-name="Path 41" d="M569.144,272.029q-7.956,0-12.942-4.881t-4.993-12.991V253.2a21.806,21.806,0,0,1,2.116-9.733,15.446,15.446,0,0,1,5.96-6.616,16.707,16.707,0,0,1,8.8-2.32q7.413,0,11.68,4.676T584,252.464v3.943H560.991a8.971,8.971,0,0,0,2.821,5.677,8.548,8.548,0,0,0,5.967,2.116,10.43,10.43,0,0,0,8.717-4.041l4.746,5.311a14.556,14.556,0,0,1-5.882,4.8,19.345,19.345,0,0,1-8.216,1.763Zm-1.1-29.7a6.03,6.03,0,0,0-4.662,1.947,10.107,10.107,0,0,0-2.292,5.572h13.4v-.776a7.166,7.166,0,0,0-1.735-4.979A6.206,6.206,0,0,0,568.044,242.329Z" transform="translate(-162.449 -69.119)" fill="#fff"/>
    <path id="Path_42" data-name="Path 42" d="M148.133,369.982A17.4,17.4,0,0,1,140.48,375a32,32,0,0,1-10.953,1.791,21.737,21.737,0,0,1-11.073-2.758,18.394,18.394,0,0,1-7.349-8,28.211,28.211,0,0,1-2.659-12.279v-3.308a29.933,29.933,0,0,1,2.454-12.61,18.168,18.168,0,0,1,7.053-8.153,20.454,20.454,0,0,1,10.84-2.821q8.654,0,13.534,4.126t5.776,11.99h-9.726q-.663-4.182-2.955-6.115a9.46,9.46,0,0,0-6.3-1.94,8.817,8.817,0,0,0-7.758,3.844q-2.645,3.844-2.729,11.461v3.1q0,7.645,2.906,11.56t8.52,3.907q5.642,0,8.047-2.405v-8.407h-9.119V350.6h19.141Z" transform="translate(-31.958 -96.332)" fill="#fff"/>
    <path id="Path_43" data-name="Path 43" d="M196.864,377.971a12.091,12.091,0,0,1-9.874,4.344c-3.872,0-6.834-1.114-8.865-3.343s-3.082-5.487-3.124-9.789V345.5h9.655v23.38q0,5.642,5.141,5.642,4.937,0,6.75-3.414V345.5h9.684v36.146h-9.084Z" transform="translate(-51.575 -101.825)" fill="#fff"/>
    <path id="Path_44" data-name="Path 44" d="M229.509,330.159a4.775,4.775,0,0,1,1.453-3.576,6.256,6.256,0,0,1,7.9,0,5.1,5.1,0,0,1,0,7.187,6.193,6.193,0,0,1-7.85,0,4.733,4.733,0,0,1-1.5-3.611Zm10.255,45.5H230.08V339.511h9.684Z" transform="translate(-67.639 -95.836)" fill="#fff"/>
    <path id="Path_45" data-name="Path 45" d="M265.712,375.309H256V324h9.684Z" transform="translate(-75.447 -95.488)" fill="#fff"/>
    <path id="Path_46" data-name="Path 46" d="M278.91,356.972q0-8.463,3.794-13.464a12.279,12.279,0,0,1,10.368-5.008,11.094,11.094,0,0,1,8.724,3.936V324h9.684v51.309h-8.717l-.465-3.844a11.355,11.355,0,0,1-9.289,4.514,12.279,12.279,0,0,1-10.241-5.029Q278.917,365.929,278.91,356.972Zm9.655.705q0,5.078,1.77,7.793a5.769,5.769,0,0,0,5.141,2.708,6.517,6.517,0,0,0,6.348-3.78V350.131a6.366,6.366,0,0,0-6.249-3.78q-7.01,0-7.01,11.341Z" transform="translate(-82.199 -95.488)" fill="#fff"/>
    <path id="Path_47" data-name="Path 47" d="M335.316,403.384l-3.526-2.405a16.137,16.137,0,0,0,3.273-9.021V386.38h6.044v4.845a15.241,15.241,0,0,1-1.65,6.742A15.89,15.89,0,0,1,335.316,403.384Z" transform="translate(-97.784 -113.873)" fill="#fff"/>
    <path id="Path_48" data-name="Path 48" d="M388.578,376.415H382.16V327.75h6.418Z" transform="translate(-112.629 -96.593)" fill="#fff"/>
    <path id="Path_49" data-name="Path 49" d="M405.656,340.37l-3.526-2.4a16.1,16.1,0,0,0,3.209-9.169V324h6.115v4.344a16.539,16.539,0,0,1-5.811,11.99Z" transform="translate(-118.514 -95.488)" fill="#fff"/>
    <path id="Path_50" data-name="Path 50" d="M431.683,345.212l.169,4.013a13.351,13.351,0,0,1,10.72-4.676q7.589,0,10.325,5.811a13.57,13.57,0,0,1,4.69-4.232,13.832,13.832,0,0,1,6.834-1.6q11.891,0,12.089,12.589v24.219h-6.178V357.505q0-3.872-1.77-5.8t-5.931-1.911a8.209,8.209,0,0,0-5.713,2.052,8.351,8.351,0,0,0-2.638,5.529v23.98h-6.214V357.674q0-7.885-7.716-7.885-6.079,0-8.315,5.177v26.392H425.85V345.212Z" transform="translate(-125.505 -101.537)" fill="#fff"/>
    <path id="Path_51" data-name="Path 51" d="M556.788,381.377a12.745,12.745,0,0,1-.868-3.809,13.8,13.8,0,0,1-10.29,4.479,12.741,12.741,0,0,1-8.767-3.026,9.775,9.775,0,0,1-3.428-7.666,10.212,10.212,0,0,1,4.3-8.767q4.3-3.117,12.074-3.124h6.016v-2.821a6.933,6.933,0,0,0-1.94-5.156,7.765,7.765,0,0,0-5.713-1.926,9,9,0,0,0-5.544,1.672,4.937,4.937,0,0,0-2.243,4.041h-6.207a8.463,8.463,0,0,1,1.918-5.226,13.119,13.119,0,0,1,5.212-3.992,17.519,17.519,0,0,1,7.229-1.467q6.249,0,9.789,3.117a11.259,11.259,0,0,1,3.675,8.6v16.638a20.332,20.332,0,0,0,1.27,7.913v.536Zm-10.262-4.711a10.891,10.891,0,0,0,5.515-1.5,9.127,9.127,0,0,0,3.773-3.907v-7.42h-4.845q-11.362,0-11.355,6.651a5.642,5.642,0,0,0,1.933,4.542A7.448,7.448,0,0,0,546.526,376.666Z" transform="translate(-157.21 -101.556)" fill="#fff"/>
    <path id="Path_52" data-name="Path 52" d="M118.578,453.106a12.046,12.046,0,0,1,9.655-4.605q11.764,0,11.926,13.661v23.147H130.5V462.43a6.739,6.739,0,0,0-1.333-4.6c-.9-.987-2.37-1.481-4.443-1.481a6.594,6.594,0,0,0-6.15,3.272v25.686H108.93V434h9.648Z" transform="translate(-32.103 -127.907)" fill="#fff"/>
    <path id="Path_53" data-name="Path 53" d="M163.439,440.159a4.775,4.775,0,0,1,1.453-3.576,6.256,6.256,0,0,1,7.9,0,5.1,5.1,0,0,1,0,7.187,6.193,6.193,0,0,1-7.85,0A4.733,4.733,0,0,1,163.439,440.159Zm10.269,45.5h-9.7V449.511h9.7Z" transform="translate(-48.167 -128.254)" fill="#fff"/>
    <path id="Path_54" data-name="Path 54" d="M209.562,464.279a26.484,26.484,0,0,0-3.47-.268q-5.48,0-7.187,3.71v23.648H189.25V455.223h9.119l.268,4.309q2.913-4.937,8.054-4.972a10.153,10.153,0,0,1,3,.43Z" transform="translate(-55.775 -133.966)" fill="#fff"/>
    <path id="Path_55" data-name="Path 55" d="M224.539,440.159a4.775,4.775,0,0,1,1.453-3.576,6.256,6.256,0,0,1,7.9,0,5.1,5.1,0,0,1,0,7.187,6.192,6.192,0,0,1-7.85,0A4.733,4.733,0,0,1,224.539,440.159Zm10.255,45.5H225.1V449.511h9.691Z" transform="translate(-66.175 -128.254)" fill="#fff"/>
    <path id="Path_56" data-name="Path 56" d="M259.189,455.22l.3,4.175a12.625,12.625,0,0,1,10.389-4.838q5.741,0,8.548,3.371t2.878,10.086v23.352h-9.691v-23.1a6.254,6.254,0,0,0-1.34-4.457q-1.34-1.389-4.443-1.411a6.63,6.63,0,0,0-6.108,3.47v25.489H250.07V455.22Z" transform="translate(-73.7 -133.963)" fill="#fff"/>
    <path id="Path_57" data-name="Path 57" d="M302.684,473.028q0-8.329,3.957-13.4a12.836,12.836,0,0,1,10.671-5.071,11.258,11.258,0,0,1,9.253,4.069l.4-3.406h8.753v34.912a15.474,15.474,0,0,1-2.116,8.252,13.872,13.872,0,0,1-6.065,5.346,21.268,21.268,0,0,1-9.169,1.841,19.818,19.818,0,0,1-7.758-1.587,13.887,13.887,0,0,1-5.713-4.091l4.281-5.882a11.284,11.284,0,0,0,8.753,4.041A8.271,8.271,0,0,0,323.906,496a7.645,7.645,0,0,0,2.116-5.833v-1.933a11.186,11.186,0,0,1-8.788,3.773,12.78,12.78,0,0,1-10.537-5.1q-4.034-5.092-4.027-13.506Zm9.655.705q0,4.937,1.968,7.709a6.263,6.263,0,0,0,5.41,2.821q4.415,0,6.348-3.315V465.714a6.7,6.7,0,0,0-6.249-3.308,6.291,6.291,0,0,0-5.459,2.821q-2.017,2.871-2.017,8.52Z" transform="translate(-89.202 -133.963)" fill="#fff"/>
    <path id="Path_58" data-name="Path 58" d="M393.228,455.223l.3,4.041a12.673,12.673,0,0,1,10.389-4.7q6.982,0,9.592,5.508a12.411,12.411,0,0,1,10.854-5.508q5.882,0,8.753,3.421t2.9,10.29v23.084h-9.684V468.32a6.91,6.91,0,0,0-1.206-4.493c-.8-.966-2.215-1.411-4.232-1.411a6.029,6.029,0,0,0-6.016,4.14l.035,24.819h-9.691v-23.02q0-3.146-1.234-4.542t-4.232-1.411a6.263,6.263,0,0,0-5.946,3.407v25.552H384.2V455.223Z" transform="translate(-113.23 -133.966)" fill="#fff"/>
    <path id="Path_59" data-name="Path 59" d="M488.518,491.365a10.649,10.649,0,0,1-.966-3.237,11.7,11.7,0,0,1-9.119,3.907,12.814,12.814,0,0,1-8.8-3.075,9.874,9.874,0,0,1-3.491-7.758,10.237,10.237,0,0,1,4.232-8.816q4.232-3.075,12.307-3.11h4.443v-2.067a5.988,5.988,0,0,0-1.284-4.013,5.075,5.075,0,0,0-4.062-1.5,5.734,5.734,0,0,0-3.823,1.171,3.978,3.978,0,0,0-1.411,3.209h-9.6a9.721,9.721,0,0,1,1.934-5.82,12.837,12.837,0,0,1,5.479-4.188,19.947,19.947,0,0,1,7.949-1.516q6.686,0,10.579,3.357t3.928,9.437v15.664q0,5.141,1.41,7.758v.564Zm-7.984-6.714a8.311,8.311,0,0,0,3.943-.952,6.25,6.25,0,0,0,2.673-2.553v-6.214h-3.6q-7.257,0-7.716,5.007l-.035.571a3.858,3.858,0,0,0,1.269,2.969A4.937,4.937,0,0,0,480.534,484.651Z" transform="translate(-137.378 -133.962)" fill="#fff"/>
    <path id="Path_60" data-name="Path 60" d="M528.984,455.22l.3,4.175a12.625,12.625,0,0,1,10.389-4.838q5.741,0,8.548,3.371t2.871,10.086v23.352h-9.648v-23.1a6.284,6.284,0,0,0-1.34-4.457c-.889-.931-2.37-1.411-4.443-1.411a6.651,6.651,0,0,0-6.115,3.47v25.489H519.9V455.22Z" transform="translate(-153.223 -133.963)" fill="#fff"/>
    <path id="Path_61" data-name="Path 61" d="M594.848,491.368a10.845,10.845,0,0,1-.966-3.237,11.679,11.679,0,0,1-9.119,3.907,12.814,12.814,0,0,1-8.8-3.075,9.874,9.874,0,0,1-3.491-7.758,10.237,10.237,0,0,1,4.232-8.816q4.232-3.075,12.364-3.1h4.443v-2.067a5.989,5.989,0,0,0-1.284-4.013,5.075,5.075,0,0,0-4.062-1.5,5.735,5.735,0,0,0-3.823,1.171,3.978,3.978,0,0,0-1.411,3.209h-9.655a9.722,9.722,0,0,1,1.934-5.82,12.886,12.886,0,0,1,5.479-4.188,19.945,19.945,0,0,1,7.949-1.516q6.686,0,10.579,3.357t3.957,9.437v15.664q0,5.141,1.411,7.758v.564Zm-7.984-6.714a8.308,8.308,0,0,0,3.942-.952,6.248,6.248,0,0,0,2.673-2.553v-6.214h-3.6q-7.257,0-7.716,5.008l-.035.571a3.858,3.858,0,0,0,1.269,2.969A4.937,4.937,0,0,0,586.864,484.653Z" transform="translate(-168.715 -133.965)" fill="#fff"/>
    <path id="Path_62" data-name="Path 62" d="M624.5,473.028q0-8.329,3.964-13.4a12.829,12.829,0,0,1,10.671-5.071,11.257,11.257,0,0,1,9.253,4.069l.4-3.406h8.752v34.912a15.41,15.41,0,0,1-2.158,8.252,13.829,13.829,0,0,1-6.065,5.346,21.263,21.263,0,0,1-9.169,1.841,19.816,19.816,0,0,1-7.758-1.587,13.788,13.788,0,0,1-5.713-4.091l4.274-5.882a11.284,11.284,0,0,0,8.753,4.041A8.282,8.282,0,0,0,645.686,496a7.646,7.646,0,0,0,2.116-5.833v-1.932a11.186,11.186,0,0,1-8.788,3.773,12.794,12.794,0,0,1-10.537-5.1q-4.034-5.092-4.027-13.506Zm9.655.705q0,4.937,1.968,7.709a6.284,6.284,0,0,0,5.417,2.821q4.415,0,6.348-3.315V465.714a6.7,6.7,0,0,0-6.249-3.308,6.3,6.3,0,0,0-5.459,2.821q-2.024,2.871-2.024,8.52Z" transform="translate(-184.036 -133.963)" fill="#fff"/>
    <path id="Path_63" data-name="Path 63" d="M697.962,492.037q-7.956,0-12.949-4.881T680,474.165v-.959a21.808,21.808,0,0,1,2.116-9.733,15.4,15.4,0,0,1,5.96-6.616,16.708,16.708,0,0,1,8.851-2.3q7.413,0,11.672,4.676t4.232,13.259v3.943H689.809a8.971,8.971,0,0,0,2.821,5.678,8.547,8.547,0,0,0,5.967,2.116,10.429,10.429,0,0,0,8.717-4.041l4.746,5.311a14.557,14.557,0,0,1-5.882,4.8A19.364,19.364,0,0,1,697.962,492.037Zm-1.107-29.7a6.03,6.03,0,0,0-4.655,1.947,10.109,10.109,0,0,0-2.292,5.572h13.4v-.776a7.166,7.166,0,0,0-1.735-4.979A6.213,6.213,0,0,0,696.855,462.337Z" transform="translate(-200.406 -133.964)" fill="#fff"/>
    <path id="Path_64" data-name="Path 64" d="M754.622,464.279a26.579,26.579,0,0,0-3.477-.268q-5.48,0-7.18,3.71v23.648H734.31V455.223h9.119l.268,4.309q2.913-4.937,8.054-4.972a10.153,10.153,0,0,1,3,.43Z" transform="translate(-216.413 -133.966)" fill="#fff"/>
  </g>
</svg>
