<?xml version="1.0" encoding="utf-8"?>
<!-- Generator: Adobe Illustrator 23.0.2, SVG Export Plug-In . SVG Version: 6.00 Build 0)  -->
<svg version="1.1" id="Layer_1" xmlns="http://www.w3.org/2000/svg" xmlns:xlink="http://www.w3.org/1999/xlink" x="0px" y="0px"
	 viewBox="0 0 83.7 95.2" style="enable-background:new 0 0 83.7 95.2;" xml:space="preserve">
<style type="text/css">
	.st0{fill:#FFFFFF;}
	.st1{fill:#BC412B;}
</style>
<title>Asset 22</title>
<g>
	<g id="Layer_2-2">
		<path class="st0" d="M19.2,71.6c-5,0-9.1-4.1-9.1-9.1c0-5,4.1-9.1,9.1-9.1c5,0,9.1,4.1,9.1,9.1c0,0,0,0,0,0
			C28.3,67.5,24.3,71.6,19.2,71.6z"/>
		<path class="st1" d="M19.2,57c3,0,5.5,2.5,5.5,5.5c0,3-2.5,5.5-5.5,5.5s-5.5-2.5-5.5-5.5c0,0,0,0,0,0C13.7,59.5,16.2,57,19.2,57
			 M19.2,49.8c-7,0-12.7,5.7-12.7,12.8c0,7,5.7,12.7,12.8,12.7c7,0,12.7-5.7,12.7-12.7C32,55.5,26.3,49.8,19.2,49.8
			C19.3,49.8,19.3,49.8,19.2,49.8L19.2,49.8z"/>
		<path class="st0" d="M3.6,91.6c0.3-6.4,5.5-11.4,11.9-11.4H23c6.4,0,11.6,5.1,11.9,11.4H3.6z"/>
		<path class="st1" d="M23,83.7c3,0,5.7,1.7,7.2,4.3H8.3c1.5-2.6,4.2-4.2,7.3-4.2L23,83.7 M23,76.6h-7.5C7,76.5,0,83.5,0,92.1v3.1
			h38.5v-3.1C38.5,83.5,31.6,76.6,23,76.6L23,76.6z"/>
		<path class="st0" d="M64.4,71.6c-5,0-9.1-4.1-9.1-9.1s4.1-9.1,9.1-9.1s9.1,4.1,9.1,9.1c0,0,0,0,0,0C73.5,67.5,69.5,71.6,64.4,71.6
			z"/>
		<path class="st1" d="M64.4,57c3,0,5.5,2.5,5.5,5.5c0,3-2.5,5.5-5.5,5.5c-3,0-5.5-2.5-5.5-5.5S61.4,57,64.4,57
			C64.4,57,64.4,57,64.4,57 M64.4,49.8c-7,0-12.7,5.7-12.7,12.7c0,7,5.7,12.7,12.7,12.7c7,0,12.7-5.7,12.7-12.7c0,0,0,0,0,0
			C77.1,55.5,71.5,49.8,64.4,49.8C64.4,49.8,64.4,49.8,64.4,49.8L64.4,49.8z"/>
		<path class="st0" d="M48.8,91.6c0.3-6.4,5.5-11.4,11.9-11.4h7.4c6.4,0,11.6,5.1,11.9,11.4H48.8z"/>
		<path class="st1" d="M68.1,83.7c3,0,5.8,1.6,7.3,4.3H53.5c1.5-2.6,4.2-4.2,7.3-4.2L68.1,83.7 M68.1,76.6h-7.4
			c-8.6,0-15.5,6.9-15.5,15.5v3.1h38.5v-3.1C83.7,83.5,76.7,76.5,68.1,76.6L68.1,76.6z"/>
		<path class="st0" d="M41.8,21.8c-5,0-9.1-4.1-9.1-9.1c0-5,4.1-9.1,9.1-9.1c5,0,9.1,4.1,9.1,9.1C50.9,17.7,46.9,21.8,41.8,21.8z"/>
		<path class="st1" d="M41.8,7.2c3,0,5.5,2.5,5.5,5.5c0,3-2.5,5.5-5.5,5.5s-5.5-2.5-5.5-5.5c0,0,0,0,0,0C36.3,9.7,38.8,7.2,41.8,7.2
			 M41.8,0c-7,0-12.7,5.7-12.7,12.7s5.7,12.7,12.7,12.7s12.7-5.7,12.7-12.7c0,0,0,0,0,0C54.6,5.7,48.9,0,41.8,0
			C41.8,0,41.8,0,41.8,0z"/>
		<path class="st0" d="M26.2,41.8c0.3-6.4,5.5-11.4,11.9-11.4h7.4c6.4,0,11.6,5.1,11.9,11.4H26.2z"/>
		<path class="st1" d="M45.5,34c3,0,5.8,1.6,7.3,4.2H30.9c1.5-2.6,4.2-4.2,7.2-4.2H45.5 M45.5,26.8h-7.4c-8.6,0-15.5,6.9-15.5,15.5
			v3.1h38.5v-3.1C61.1,33.7,54.1,26.8,45.5,26.8L45.5,26.8z"/>
	</g>
</g>
</svg>
