<svg id="creative_mornings" data-name="creative mornings" xmlns="http://www.w3.org/2000/svg" width="236.245" height="74.601" viewBox="0 0 236.245 74.601">
  <g id="Layer_9" data-name="Layer 9">
    <g id="Layer_10" data-name="Layer 10">
      <path id="Path_2617" data-name="Path 2617" d="M0,0V49.736H32.326V74.6L58.438,49.736H236.245V0Z"/>
      <path id="Path_2618" data-name="Path 2618" d="M29.194,18.64c-3.6,0-4.974,1.467-4.974,4.475V35.779c0,2.986,1.372,4.475,4.974,4.475s4.974-1.467,4.974-4.475V32.565A.785.785,0,0,0,33.3,31.7H31.836a.778.778,0,0,0-.866.866v3.214c0,1.24-.374,1.988-1.871,1.988s-1.864-.734-1.864-1.988V23.115c0-1.24.5-1.988,1.864-1.988,1.467,0,1.871.734,1.871,1.988v3.236a.785.785,0,0,0,.866.873H33.3a.785.785,0,0,0,.866-.873V23.115C34.051,20.137,32.811,18.64,29.194,18.64Z" transform="translate(-6.45 -4.964)" fill="#fff"/>
      <path id="Path_2619" data-name="Path 2619" d="M51.053,30.745c1.871-.624,2.487-2.113,2.487-4.351V23.533c0-3.111-1.365-4.725-5.224-4.725H44.59a.785.785,0,0,0-.873.873V39.322a.785.785,0,0,0,.873.9h1.467a.785.785,0,0,0,.873-.873V31.119h1.123l3.1,8.452c.125.374.374.5.873.5h1.614a.814.814,0,0,0,.734-1.115Zm-.492-4.351c0,1.365-.5,2.238-2.12,2.238H46.974V21.3h1.467c1.621,0,2.12.873,2.12,2.238Z" transform="translate(-11.64 -5.007)" fill="#fff"/>
      <path id="Path_2620" data-name="Path 2620" d="M71.042,18.808H64.08a.785.785,0,0,0-.873.873V39.322a.785.785,0,0,0,.873.9h6.963a.785.785,0,0,0,.873-.873v-.9a.785.785,0,0,0-.873-.873h-4.6V30.62h3.485a.785.785,0,0,0,.866-.866v-.873a.785.785,0,0,0-.866-.873H66.442V21.046h4.6a.785.785,0,0,0,.873-.866v-.873A.954.954,0,0,0,71.042,18.808Z" transform="translate(-16.831 -5.007)" fill="#fff"/>
      <path id="Path_2621" data-name="Path 2621" d="M86.048,18.808H82.82a.822.822,0,0,0-.873.734L78.983,39.079a.734.734,0,0,0,.734.99h1.372c.492,0,.734-.249.866-.734l.5-3.6H86.32l.5,3.6c0,.5.374.734.873.734h1.343a.734.734,0,0,0,.734-.99L86.8,19.556a.66.66,0,0,0-.748-.748ZM82.7,33.232l.873-5.723.734-6.464h.249l.734,6.464.734,5.723Z" transform="translate(-21.022 -5.007)" fill="#fff"/>
      <path id="Path_2622" data-name="Path 2622" d="M105.561,18.808h-9.45a.785.785,0,0,0-.873.873v.866a.785.785,0,0,0,.873.873h3.236V39.446a.785.785,0,0,0,.851.873h1.467a.785.785,0,0,0,.866-.873V21.42h3.236a.785.785,0,0,0,.873-.873v-.866C106.309,19.182,106.067,18.808,105.561,18.808Z" transform="translate(-25.362 -5.007)" fill="#fff"/>
      <path id="Path_2623" data-name="Path 2623" d="M117.259,18.807h-1.467a.785.785,0,0,0-.9.873V39.321a.785.785,0,0,0,.873.9h1.467a.785.785,0,0,0,.873-.873V19.68C118.007,19.181,117.758,18.807,117.259,18.807Z" transform="translate(-30.597 -5.006)" fill="#fff"/>
      <path id="Path_2624" data-name="Path 2624" d="M134.405,18.808h-1.365a.91.91,0,0,0-.873.734l-1.739,11.812-.624,6.464h-.249l-.624-6.464-1.739-11.812c0-.5-.374-.734-.866-.734h-1.372a.734.734,0,0,0-.734,1l2.986,19.516a.785.785,0,0,0,.858.9h3.228c.5,0,.734-.249.873-.873l2.986-19.516a.734.734,0,0,0-.748-1.027Z" transform="translate(-33.069 -5.008)" fill="#fff"/>
      <path id="Path_2625" data-name="Path 2625" d="M151.882,18.808H144.92a.785.785,0,0,0-.873.873V39.322a.785.785,0,0,0,.873.9h6.963a.785.785,0,0,0,.873-.873v-.9a.785.785,0,0,0-.873-.873h-4.6V30.62h3.478a.785.785,0,0,0,.873-.866v-.873a.785.785,0,0,0-.873-.873h-3.478V21.046h4.6a.785.785,0,0,0,.873-.866v-.873A1.159,1.159,0,0,0,151.882,18.808Z" transform="translate(-38.36 -5.007)" fill="#fff"/>
      <path id="Path_2626" data-name="Path 2626" d="M174.221,18.809h-1.739a.455.455,0,0,0-.5.5l-1.621,9.575-.734,4.974H169.5l-.734-4.974-1.614-9.538a.455.455,0,0,0-.5-.5h-1.739a.455.455,0,0,0-.5.5V39.7a.455.455,0,0,0,.5.5h.99a.455.455,0,0,0,.5-.5V26.645l-.125-4.226h.125l1.966,12.671a.455.455,0,0,0,.5.5h1.739c.374,0,.5-.125.5-.5L173.1,22.412h.125l-.125,4.226V39.7a.455.455,0,0,0,.5.5h1a.455.455,0,0,0,.492-.5V19.308C174.72,18.949,174.6,18.809,174.221,18.809Z" transform="translate(-43.787 -5.009)" fill="#fff"/>
      <path id="Path_2627" data-name="Path 2627" d="M189.679,18.64c-3.485,0-4.109,1.621-4.109,4.226V36.072c0,2.612.624,4.226,4.109,4.226s4.1-1.467,4.1-4.226V22.866C193.78,20.261,193.156,18.64,189.679,18.64Zm2.362,17.41c0,1.614-.374,2.612-2.2,2.612s-2.238-1-2.238-2.612V22.844c0-1.614.367-2.6,2.238-2.6s2.2.99,2.2,2.6Z" transform="translate(-49.421 -4.964)" fill="#fff"/>
      <path id="Path_2628" data-name="Path 2628" d="M208.978,30.123c2.362-.492,2.854-2.113,2.854-4.6V23.534c0-2.986-.734-4.725-4.6-4.725h-2.861a.455.455,0,0,0-.492.5V39.7a.455.455,0,0,0,.492.5h1a.455.455,0,0,0,.5-.5V30.372h1.24l3.61,9.45c.125.249.249.374.5.374h1.115c.249,0,.374-.249.249-.5Zm-3.236-1.467V20.416h1.467c2.362,0,2.737,1.123,2.737,3.111v2.025c0,1.988-.374,3.111-2.737,3.111Z" transform="translate(-54.296 -5.009)" fill="#fff"/>
      <path id="Path_2629" data-name="Path 2629" d="M229.63,18.809h-1a.455.455,0,0,0-.5.5h0V31.781l.125,4.226h-.125l-.866-4.1-3.236-12.561c-.125-.374-.249-.5-.5-.5h-1.365a.455.455,0,0,0-.5.5V39.7a.455.455,0,0,0,.5.5h1a.455.455,0,0,0,.492-.5V27.268l-.125-4.233h.125l.873,4.109,3.25,12.553c.125.374.242.5.492.5h1.372a.455.455,0,0,0,.5-.5V19.308C229.982,18.949,229.879,18.809,229.63,18.809Z" transform="translate(-59.034 -5.009)" fill="#fff"/>
      <path id="Path_2630" data-name="Path 2630" d="M241.636,18.809h-1a.455.455,0,0,0-.5.5V39.7a.455.455,0,0,0,.5.5h1a.455.455,0,0,0,.5-.5V19.308a.455.455,0,0,0-.5-.5Z" transform="translate(-63.953 -5.009)" fill="#fff"/>
      <path id="Path_2631" data-name="Path 2631" d="M257.63,18.809h-.873a.455.455,0,0,0-.492.5V31.781l.125,4.226h-.125l-.873-4.1-3.25-12.6c-.125-.374-.242-.5-.492-.5h-1.372a.455.455,0,0,0-.5.5V39.7a.455.455,0,0,0,.5.5h1a.455.455,0,0,0,.5-.5V27.268l-.125-4.233h.125l.866,4.109L255.876,39.7c.125.374.249.5.5.5h1.365a.455.455,0,0,0,.5-.5V19.308C258.128,18.949,258.011,18.809,257.63,18.809Z" transform="translate(-66.521 -5.009)" fill="#fff"/>
      <path id="Path_2632" data-name="Path 2632" d="M272.381,18.64c-3.485,0-4.1,1.621-4.1,4.226V36.072c0,2.612.616,4.226,4.1,4.226s4.1-1.467,4.1-4.226V29.829a.455.455,0,0,0-.5-.492h-3.353a.455.455,0,0,0-.5.492v.734a.455.455,0,0,0,.5.5h1.988v4.974c0,1.614-.374,2.612-2.238,2.612s-2.238-1-2.238-2.612V22.829c0-1.614.374-2.6,2.238-2.6s2.238.99,2.238,2.6v2.487a.455.455,0,0,0,.5.5h1.027a.455.455,0,0,0,.5-.5v-2.45C276.483,20.261,275.859,18.64,272.381,18.64Z" transform="translate(-71.448 -4.964)" fill="#fff"/>
      <path id="Path_2633" data-name="Path 2633" d="M293.43,26.351h1a.455.455,0,0,0,.492-.5V22.866c0-2.6-.616-4.226-4.1-4.226s-4.1,1.621-4.1,4.226c0,3.236.734,4.358,1.739,5.473l2.986,3.236a5.355,5.355,0,0,1,1.614,4.351c0,1.614-.374,2.612-2.238,2.612s-2.2-1-2.2-2.612V32.939a.455.455,0,0,0-.5-.5h-.99a.455.455,0,0,0-.5.5v2.986c0,2.612.624,4.226,4.1,4.226s4.109-1.467,4.109-4.226c0-3.236-.734-4.351-1.746-5.473l-2.979-3.228a5.352,5.352,0,0,1-1.621-4.358c0-1.614.374-2.6,2.238-2.6s2.238.99,2.238,2.6v2.986C293.056,26.241,293.181,26.351,293.43,26.351Z" transform="translate(-76.334 -4.964)" fill="#fff"/>
    </g>
  </g>
</svg>
