<svg id="overview" xmlns="http://www.w3.org/2000/svg" width="1089.375" height="428.281" viewBox="0 0 1089.375 428.281">
  <g id="Layer_9" data-name="Layer 9">
    <rect id="Rectangle_145" data-name="Rectangle 145" width="320.663" height="142.056" transform="translate(381.82)" fill="#b8d5b8"/>
    <rect id="Rectangle_146" data-name="Rectangle 146" width="320.663" height="142.056" transform="translate(381.191 142.088)" fill="#eaefbd"/>
    <rect id="Rectangle_147" data-name="Rectangle 147" width="320.663" height="142.056" transform="translate(381.191 285.441)" fill="#db6a3d"/>
    <rect id="Rectangle_148" data-name="Rectangle 148" width="320.663" height="427.951" transform="translate(0 0.071)" fill="#05a8aa"/>
    <path id="Path_2649" data-name="Path 2649" d="M551.89,316.924,521,288.55v56.741Z" transform="translate(-183.112 -101.414)" fill="#969696"/>
    <path id="Path_2650" data-name="Path 2650" d="M1140.89,316.924,1110,288.55v56.741Z" transform="translate(-390.123 -101.414)" fill="#969696"/>
    <g id="Layer_10" data-name="Layer 10" transform="translate(9.08 16.888)">
      <path id="Path_2651" data-name="Path 2651" d="M14,26.04V70H42.575V91.99L65.656,70H222.829V26.04Z" transform="translate(-14 -26.04)"/>
      <path id="Path_2652" data-name="Path 2652" d="M42.617,44.69c-3.184,0-4.4,1.3-4.4,3.956V59.853c0,2.64,1.213,3.956,4.4,3.956s4.4-1.3,4.4-3.956V57a.694.694,0,0,0-.765-.772h-1.3a.694.694,0,0,0-.765.772v2.854c0,1.1-.331,1.758-1.654,1.758s-1.647-.649-1.647-1.758V48.646c0-1.1.441-1.758,1.647-1.758,1.3,0,1.654.649,1.654,1.758V51.5a.694.694,0,0,0,.765.772h1.3a.694.694,0,0,0,.765-.772V48.646C46.91,46.007,45.814,44.69,42.617,44.69Z" transform="translate(-22.512 -32.595)" fill="#fff"/>
      <path id="Path_2653" data-name="Path 2653" d="M64.2,55.4c1.654-.545,2.2-1.868,2.2-3.846V49.034c0-2.75-1.206-4.177-4.618-4.177H58.489a.694.694,0,0,0-.772.739V62.991a.694.694,0,0,0,.772.765h1.3a.694.694,0,0,0,.772-.765V55.733h.992l2.743,7.478c.11.331.331.441.772.441h1.427a.726.726,0,0,0,.649-.992Zm-.435-3.846c0,1.213-.441,1.978-1.874,1.978H60.6V47.05h1.3c1.433,0,1.874.772,1.874,1.985Z" transform="translate(-29.364 -32.652)" fill="#fff"/>
      <path id="Path_2654" data-name="Path 2654" d="M84.134,44.858H77.979a.694.694,0,0,0-.772.739V62.991a.694.694,0,0,0,.772.765h6.155a.694.694,0,0,0,.772-.765v-.772a.694.694,0,0,0-.772-.765H80.068V55.325h3.081a.694.694,0,0,0,.765-.772v-.8a.687.687,0,0,0-.765-.765H80.068V46.836h4.066a.694.694,0,0,0,.772-.772v-.772a.837.837,0,0,0-.772-.435Z" transform="translate(-36.214 -32.652)" fill="#fff"/>
      <path id="Path_2655" data-name="Path 2655" d="M99.222,44.856H96.368a.726.726,0,0,0-.772.649l-2.62,17.264a.649.649,0,0,0,.649.882h1.213c.435,0,.649-.22.765-.649l.441-3.191h3.418L99.9,63c0,.441.331.649.772.649h1.206a.649.649,0,0,0,.649-.882L99.89,45.511a.577.577,0,0,0-.668-.655ZM96.258,57.6l.772-5.052.649-5.714h.22l.649,5.714L99.2,57.6Z" transform="translate(-41.742 -32.65)" fill="#fff"/>
      <path id="Path_2656" data-name="Path 2656" d="M118.363,44.858h-8.353a.694.694,0,0,0-.772.739v.772a.694.694,0,0,0,.772.765h2.86V63.107a.687.687,0,0,0,.752.759h1.3a.687.687,0,0,0,.8-.759V47.16h2.86a.694.694,0,0,0,.772-.765v-.8C119.024,45.182,118.81,44.858,118.363,44.858Z" transform="translate(-47.471 -32.652)" fill="#fff"/>
      <path id="Path_2657" data-name="Path 2657" d="M130.986,44.856h-1.3a.694.694,0,0,0-.791.739V62.989a.694.694,0,0,0,.772.765h1.3a.694.694,0,0,0,.772-.765V45.6C131.648,45.18,131.427,44.856,130.986,44.856Z" transform="translate(-54.381 -32.651)" fill="#fff"/>
      <path id="Path_2658" data-name="Path 2658" d="M147.219,44.859h-1.206a.8.8,0,0,0-.772.649L143.7,55.975l-.551,5.714h-.221l-.551-5.714-1.537-10.441c0-.441-.331-.649-.765-.649h-1.213a.649.649,0,0,0-.649.876l2.64,17.258a.694.694,0,0,0,.759.739h2.854c.441,0,.649-.214.772-.765l2.64-17.258a.649.649,0,0,0-.662-.876Z" transform="translate(-57.643 -32.653)" fill="#fff"/>
      <path id="Path_2659" data-name="Path 2659" d="M164.974,44.858h-6.155a.694.694,0,0,0-.772.739V62.991a.694.694,0,0,0,.772.765h6.155a.694.694,0,0,0,.772-.765v-.772a.694.694,0,0,0-.772-.765h-4.066V55.325h3.074a.694.694,0,0,0,.772-.772v-.8a.694.694,0,0,0-.772-.765h-3.074V46.836h4.066a.694.694,0,0,0,.772-.772v-.772a1.025,1.025,0,0,0-.772-.435Z" transform="translate(-64.626 -32.652)" fill="#fff"/>
      <path id="Path_2660" data-name="Path 2660" d="M187.083,44.858h-1.537a.4.4,0,0,0-.441.435l-1.433,8.431-.649,4.4h-.11l-.649-4.4-1.427-8.431a.4.4,0,0,0-.441-.435H178.86a.4.4,0,0,0-.441.435V63.322a.4.4,0,0,0,.441.435h.876a.4.4,0,0,0,.441-.435V51.778l-.11-3.736h.11l1.758,11.213a.4.4,0,0,0,.441.435h1.537c.331,0,.441-.11.441-.435l1.758-11.213h.11l-.11,3.736V63.322a.4.4,0,0,0,.441.435h.882a.4.4,0,0,0,.435-.435V45.293C187.524,44.949,187.414,44.858,187.083,44.858Z" transform="translate(-71.786 -32.653)" fill="#fff"/>
      <path id="Path_2661" data-name="Path 2661" d="M203.2,44.69c-3.081,0-3.632,1.427-3.632,3.736V60.1c0,2.309.551,3.736,3.632,3.736s3.625-1.3,3.625-3.736V48.426C206.827,46.117,206.276,44.69,203.2,44.69Zm2.088,15.383c0,1.433-.331,2.309-1.946,2.309s-1.978-.876-1.978-2.309V48.4c0-1.433.324-2.309,1.978-2.309s1.946.876,1.946,2.309Z" transform="translate(-79.221 -32.595)" fill="#fff"/>
      <path id="Path_2662" data-name="Path 2662" d="M222.386,54.859c2.088-.441,2.523-1.868,2.523-4.066V49.035c0-2.64-.649-4.177-4.066-4.177h-2.529a.4.4,0,0,0-.435.435V63.323a.4.4,0,0,0,.435.435h.882a.4.4,0,0,0,.441-.435V55.08h1.1l3.191,8.353c.11.221.22.324.441.324h.986c.22,0,.331-.214.22-.435Zm-2.86-1.3V46.286h1.3c2.088,0,2.419.986,2.419,2.75v1.751c0,1.758-.331,2.743-2.419,2.743Z" transform="translate(-85.655 -32.653)" fill="#fff"/>
      <path id="Path_2663" data-name="Path 2663" d="M242.705,44.858h-.882a.4.4,0,0,0-.441.435h0V56.286l.11,3.736h-.11l-.765-3.625-2.86-11.1c-.11-.331-.22-.435-.441-.435H236.11a.4.4,0,0,0-.441.435V63.322a.4.4,0,0,0,.441.435h.882a.4.4,0,0,0,.435-.435V52.33l-.11-3.736h.11l.772,3.625,2.873,11.1c.11.331.214.435.435.435h1.213a.4.4,0,0,0,.441-.435V45.293C243.017,44.949,242.926,44.858,242.705,44.858Z" transform="translate(-91.907 -32.653)" fill="#fff"/>
      <path id="Path_2664" data-name="Path 2664" d="M255.462,44.858h-.882a.4.4,0,0,0-.441.435V63.322a.4.4,0,0,0,.441.435h.882a.4.4,0,0,0,.441-.435V45.293a.4.4,0,0,0-.441-.435Z" transform="translate(-98.399 -32.653)" fill="#fff"/>
      <path id="Path_2665" data-name="Path 2665" d="M270.718,44.858h-.772a.4.4,0,0,0-.435.435V56.286l.11,3.736h-.11L268.74,56.4l-2.873-11.1c-.11-.331-.214-.435-.435-.435H264.22a.4.4,0,0,0-.441.435V63.322a.4.4,0,0,0,.441.435h.882a.4.4,0,0,0,.441-.435V52.33l-.11-3.736h.11l.765,3.625,2.86,11.1c.11.331.22.435.441.435h1.206a.4.4,0,0,0,.441-.435V45.293C271.159,44.949,271.055,44.858,270.718,44.858Z" transform="translate(-101.787 -32.653)" fill="#fff"/>
      <path id="Path_2666" data-name="Path 2666" d="M285.905,44.69c-3.081,0-3.625,1.427-3.625,3.736V60.1c0,2.309.545,3.736,3.625,3.736s3.625-1.3,3.625-3.736V54.58a.4.4,0,0,0-.441-.441h-2.964a.4.4,0,0,0-.441.441v.649a.4.4,0,0,0,.441.435h1.758v4.4c0,1.433-.331,2.309-1.978,2.309s-1.978-.876-1.978-2.309V48.387c0-1.433.331-2.309,1.978-2.309s1.978.876,1.978,2.309v2.2a.4.4,0,0,0,.441.441h.908a.4.4,0,0,0,.441-.441v-2.16C289.531,46.117,288.979,44.69,285.905,44.69Z" transform="translate(-108.29 -32.595)" fill="#fff"/>
      <path id="Path_2667" data-name="Path 2667" d="M306.641,51.5h.882a.4.4,0,0,0,.435-.435v-2.64c0-2.309-.545-3.736-3.625-3.736s-3.625,1.427-3.625,3.736c0,2.854.649,3.846,1.537,4.832l2.64,2.86a4.733,4.733,0,0,1,1.427,3.846c0,1.433-.331,2.309-1.978,2.309s-1.946-.876-1.946-2.309V57.33a.4.4,0,0,0-.441-.441h-.876a.4.4,0,0,0-.441.441v2.633c0,2.309.551,3.736,3.625,3.736s3.632-1.3,3.632-3.736c0-2.854-.649-3.846-1.544-4.832l-2.633-2.86a4.718,4.718,0,0,1-1.433-3.846c0-1.433.331-2.309,1.978-2.309s1.978.876,1.978,2.309v2.64C306.31,51.376,306.42,51.5,306.641,51.5Z" transform="translate(-114.739 -32.595)" fill="#fff"/>
      <path id="Path_2668" data-name="Path 2668" d="M629.99,35.3a.824.824,0,0,1-.9.9H627.63a.824.824,0,0,1-.9-.9V32.586a1.454,1.454,0,1,0-2.9,0V43.455a1.455,1.455,0,1,0,2.9,0V40.712a.8.8,0,0,1,.9-.869H629.1a.8.8,0,0,1,.895.869v2.743c0,2.672-1.485,3.976-4.715,3.976s-4.7-1.3-4.7-3.976V32.586c0-2.665,1.459-3.976,4.7-3.976s4.715,1.3,4.715,3.976Z" transform="translate(-227.19 -26.943)" fill="#fff"/>
      <path id="Path_2669" data-name="Path 2669" d="M648.527,39.4l2.536,6.719a.863.863,0,0,1-.8,1.252H648.7a.824.824,0,0,1-.869-.584l-2.516-6.874h-.843v6.563a.817.817,0,0,1-.895.895h-1.466a.817.817,0,0,1-.895-.895V29.683a.8.8,0,0,1,.895-.876h3.645c3.308,0,4.793,1.336,4.793,4.079V35.8C650.55,37.627,649.96,38.833,648.527,39.4Zm-2.769-2a1.4,1.4,0,0,0,1.563-1.6V32.886a1.394,1.394,0,0,0-1.563-1.563h-1.3V37.4Z" transform="translate(-234.442 -27.011)" fill="#fff"/>
      <path id="Path_2670" data-name="Path 2670" d="M668.865,28.807a.8.8,0,0,1,.9.876v.739a.824.824,0,0,1-.9.9h-3.891v5.513h2.893a.8.8,0,0,1,.9.869v.746a.824.824,0,0,1-.9.895h-2.892v5.513h3.891a.8.8,0,0,1,.9.869v.746a.817.817,0,0,1-.895.895h-6.232a.817.817,0,0,1-.9-.895V29.683a.8.8,0,0,1,.9-.876Z" transform="translate(-241.654 -27.011)" fill="#fff"/>
      <path id="Path_2671" data-name="Path 2671" d="M685.023,46.578l-.389-2.873h-3.243l-.357,2.873a.83.83,0,0,1-.9.791h-1.381a.824.824,0,0,1-.843-1.077l2.536-16.635a.837.837,0,0,1,.921-.85H684.7c.512,0,.824.233.9.85l2.536,16.635c.1.649-.208,1.077-.843,1.077H685.9a.8.8,0,0,1-.882-.791Zm-3.333-5.383h2.594l-.493-3.95-.649-6.207h-.233l-.649,6.207Z" transform="translate(-247.324 -27.011)" fill="#fff"/>
      <path id="Path_2672" data-name="Path 2672" d="M701.839,31.323v15.15a.817.817,0,0,1-.9.895h-1.466a.817.817,0,0,1-.895-.895V31.323h-2.594a.83.83,0,0,1-.9-.9v-.739a.8.8,0,0,1,.9-.876h8.431a.8.8,0,0,1,.9.876v.739a.83.83,0,0,1-.9.9Z" transform="translate(-253.375 -27.01)" fill="#fff"/>
      <path id="Path_2673" data-name="Path 2673" d="M718.674,46.473a.817.817,0,0,1-.9.895h-1.459a.824.824,0,0,1-.9-.895V29.682a.8.8,0,0,1,.9-.876h1.459a.8.8,0,0,1,.9.876Z" transform="translate(-260.521 -27.01)" fill="#fff"/>
      <path id="Path_2674" data-name="Path 2674" d="M728.533,29.565l1.3,9.307.564,6.226h.233l.564-6.226,1.343-9.307a.791.791,0,0,1,.869-.8h1.381c.649,0,.953.435.85,1.077L733.1,46.486c-.078.616-.389.843-.9.843h-3.333a.837.837,0,0,1-.921-.843L725.4,29.844a.837.837,0,0,1,.85-1.077h1.381a.817.817,0,0,1,.9.8Z" transform="translate(-264.018 -26.997)" fill="#fff"/>
      <path id="Path_2675" data-name="Path 2675" d="M753.316,28.807a.8.8,0,0,1,.895.876v.739a.824.824,0,0,1-.895.9h-3.891v5.513h2.9a.8.8,0,0,1,.895.869v.746a.817.817,0,0,1-.895.895h-2.88v5.513h3.891a.8.8,0,0,1,.9.869v.746a.817.817,0,0,1-.9.895H747.1a.817.817,0,0,1-.9-.895V29.683a.8.8,0,0,1,.9-.876Z" transform="translate(-271.342 -27.011)" fill="#fff"/>
      <path id="Path_2676" data-name="Path 2676" d="M770.238,38.02a.344.344,0,0,1,.389.389v5.37c0,2.335-.564,3.664-3.567,3.664s-3.56-1.342-3.56-3.664v-11.5c0-2.309.564-3.671,3.56-3.671s3.567,1.362,3.567,3.671v2.127a.344.344,0,0,1-.389.383h-.817a.337.337,0,0,1-.383-.383V32.281c0-1.414-.311-2.231-1.946-2.231s-1.946.817-1.946,2.231v11.5c0,1.407.3,2.231,1.946,2.231s1.946-.824,1.946-2.231V39.46h-1.77a.344.344,0,0,1-.389-.389v-.649a.344.344,0,0,1,.389-.389Z" transform="translate(-277.421 -26.943)" fill="#fff"/>
      <path id="Path_2677" data-name="Path 2677" d="M780.607,29.191a.344.344,0,0,1,.389-.383h.817a.337.337,0,0,1,.383.383V43.848c0,1.407.311,2.231,1.978,2.231s1.946-.824,1.946-2.231V29.191a.344.344,0,0,1,.389-.383h.837a.337.337,0,0,1,.383.383V43.848c0,2.335-.564,3.664-3.56,3.664s-3.567-1.33-3.567-3.664Z" transform="translate(-283.431 -27.012)" fill="#fff"/>
      <path id="Path_2678" data-name="Path 2678" d="M799.317,46.987a.337.337,0,0,1-.383.383h-.824a.337.337,0,0,1-.383-.383v-17.8a.337.337,0,0,1,.383-.383h.824a.337.337,0,0,1,.383.383Z" transform="translate(-289.45 -27.012)" fill="#fff"/>
      <path id="Path_2679" data-name="Path 2679" d="M807.9,45.936h4.384a.337.337,0,0,1,.383.383v.649a.337.337,0,0,1-.383.383h-5.59a.337.337,0,0,1-.383-.383V29.191a.337.337,0,0,1,.383-.383h.824a.337.337,0,0,1,.383.383Z" transform="translate(-292.465 -27.012)" fill="#fff"/>
      <path id="Path_2680" data-name="Path 2680" d="M821.241,47.369a.337.337,0,0,1-.383-.383v-17.8a.337.337,0,0,1,.383-.383h2.49c3.385,0,3.995,1.537,3.995,4.131V43.245c0,2.594-.61,4.125-3.995,4.125Zm2.49-1.433c2.049,0,2.406-.973,2.406-2.691V32.939c0-1.693-.357-2.7-2.406-2.7h-1.3V45.936Z" transform="translate(-297.579 -27.012)" fill="#fff"/>
    </g>
  </g>
  <g id="Layer_8" data-name="Layer 8" transform="translate(217.573 0.026)">
    <path id="Path_2681" data-name="Path 2681" d="M345.04,625.293a4.4,4.4,0,0,1-.415-1.381,4.974,4.974,0,0,1-3.891,1.667,5.467,5.467,0,0,1-3.755-1.3,4.228,4.228,0,0,1-1.492-3.307,4.358,4.358,0,0,1,1.822-3.762,8.915,8.915,0,0,1,5.247-1.3h1.894v-.882a2.555,2.555,0,0,0-.545-1.712,2.153,2.153,0,0,0-1.732-.648,2.471,2.471,0,0,0-1.634.5,1.712,1.712,0,0,0-.59,1.368h-4.131a4.125,4.125,0,0,1,.83-2.477,5.5,5.5,0,0,1,2.335-1.79,8.483,8.483,0,0,1,3.392-.648,6.751,6.751,0,0,1,4.54,1.433,5.006,5.006,0,0,1,1.673,4.027v6.68a7.381,7.381,0,0,0,.61,3.321v.24Zm-3.385-2.86a3.541,3.541,0,0,0,1.686-.409,2.672,2.672,0,0,0,1.135-1.09V618.3h-1.537q-3.094,0-3.288,2.14v.24a1.647,1.647,0,0,0,.545,1.3A2.115,2.115,0,0,0,341.655,622.433Z" transform="translate(-335.482 -214.283)" fill="#fff"/>
    <path id="Path_2682" data-name="Path 2682" d="M369.224,613.737a11.879,11.879,0,0,0-1.479-.11c-1.556,0-2.594.525-3.061,1.583v10.085H360.56V609.845h3.891l.117,1.835A3.813,3.813,0,0,1,368,609.56a4.3,4.3,0,0,1,1.3.188Z" transform="translate(-344.296 -214.263)" fill="#fff"/>
    <path id="Path_2683" data-name="Path 2683" d="M385.651,613.737a12.055,12.055,0,0,0-1.485-.11q-2.335,0-3.061,1.582v10.085H377V609.845h3.891l.11,1.835a3.82,3.82,0,0,1,3.437-2.121,4.355,4.355,0,0,1,1.3.188Z" transform="translate(-350.074 -214.263)" fill="#fff"/>
    <path id="Path_2684" data-name="Path 2684" d="M393.349,602.717a2.03,2.03,0,0,1,.616-1.524,2.659,2.659,0,0,1,3.372,0,1.991,1.991,0,0,1,.649,1.524,2.037,2.037,0,0,1-.649,1.537,2.646,2.646,0,0,1-3.346,0A2.01,2.01,0,0,1,393.349,602.717Zm4.371,19.4h-4.131V606.693h4.131Z" transform="translate(-355.82 -211.111)" fill="#fff"/>
    <path id="Path_2685" data-name="Path 2685" d="M410.35,620.377,413.217,610h4.3l-5.188,15.416H408.4L403.21,610h4.306Z" transform="translate(-359.286 -214.418)" fill="#fff"/>
    <path id="Path_2686" data-name="Path 2686" d="M436.333,625.293a4.584,4.584,0,0,1-.409-1.381,4.974,4.974,0,0,1-3.891,1.667,5.467,5.467,0,0,1-3.755-1.3,4.229,4.229,0,0,1-1.492-3.307,4.352,4.352,0,0,1,1.816-3.762,8.95,8.95,0,0,1,5.253-1.3h1.894v-.882a2.555,2.555,0,0,0-.545-1.712,2.166,2.166,0,0,0-1.732-.648,2.471,2.471,0,0,0-1.634.5,1.693,1.693,0,0,0-.59,1.368h-4.118a4.118,4.118,0,0,1,.824-2.477,5.48,5.48,0,0,1,2.341-1.79,8.431,8.431,0,0,1,3.392-.648,6.738,6.738,0,0,1,4.54,1.433,5.007,5.007,0,0,1,1.667,3.995v6.68a7.367,7.367,0,0,0,.616,3.32v.24Zm-3.4-2.86a3.516,3.516,0,0,0,1.68-.409,2.692,2.692,0,0,0,1.141-1.09V618.3h-1.537q-3.094,0-3.295,2.14v.24a1.647,1.647,0,0,0,.545,1.3A2.1,2.1,0,0,0,432.929,622.433Z" transform="translate(-367.57 -214.282)" fill="#fff"/>
    <path id="Path_2687" data-name="Path 2687" d="M456.321,621.914H452.19V600h4.131Z" transform="translate(-376.5 -210.903)" fill="#fff"/>
    <path id="Path_2688" data-name="Path 2688" d="M836.436,182.431a9.144,9.144,0,0,1,.882-4.092,6.486,6.486,0,0,1,2.542-2.776,7.439,7.439,0,0,1,3.859-.986,7.017,7.017,0,0,1,5.091,1.907,7.691,7.691,0,0,1,2.205,5.188v1.057a8.081,8.081,0,0,1-1.978,5.694,7.685,7.685,0,0,1-10.636,0,8.232,8.232,0,0,1-1.991-5.837Zm4.118.292a5.837,5.837,0,0,0,.824,3.359,2.977,2.977,0,0,0,4.708,0,6.319,6.319,0,0,0,.837-3.671,5.713,5.713,0,0,0-.837-3.34,2.938,2.938,0,0,0-4.708,0A6.486,6.486,0,0,0,840.554,182.723Z" transform="translate(-511.539 -61.381)" fill="#fff"/>
    <path id="Path_2689" data-name="Path 2689" d="M871.544,178.736a11.876,11.876,0,0,0-1.479-.11c-1.563,0-2.594.525-3.068,1.582v10.085H862.88V174.845h3.891l.117,1.835a3.813,3.813,0,0,1,3.431-2.121,4.3,4.3,0,0,1,1.3.188Z" transform="translate(-520.843 -61.377)" fill="#fff"/>
    <path id="Path_2690" data-name="Path 2690" d="M879.25,167.717a2.01,2.01,0,0,1,.649-1.524,2.659,2.659,0,0,1,3.372,0,2.179,2.179,0,0,1,0,3.061,2.646,2.646,0,0,1-3.346,0,2.037,2.037,0,0,1-.675-1.537Zm4.378,19.4H879.5V171.693h4.131Z" transform="translate(-526.596 -58.225)" fill="#fff"/>
    <path id="Path_2691" data-name="Path 2691" d="M898.019,190.562a7.575,7.575,0,0,1-5.519-2.075,7.4,7.4,0,0,1-2.134-5.545v-.4a9.228,9.228,0,0,1,.9-4.151,6.6,6.6,0,0,1,2.542-2.821,7.134,7.134,0,0,1,3.755-.992,6.407,6.407,0,0,1,4.981,2,8.173,8.173,0,0,1,1.816,5.655v1.7h-9.819a3.807,3.807,0,0,0,1.206,2.426,3.658,3.658,0,0,0,2.542.908,4.429,4.429,0,0,0,3.716-1.725l2.023,2.27a6.147,6.147,0,0,1-2.5,2.043,8.191,8.191,0,0,1-3.509.713Zm-.467-12.666a2.594,2.594,0,0,0-1.991.83,4.255,4.255,0,0,0-.973,2.374h5.727v-.324a3.068,3.068,0,0,0-.739-2.127A2.678,2.678,0,0,0,897.552,177.9Z" transform="translate(-530.5 -61.38)" fill="#fff"/>
    <path id="Path_2692" data-name="Path 2692" d="M919.305,174.844l.123,1.783a5.383,5.383,0,0,1,4.436-2.069,4.462,4.462,0,0,1,3.645,1.44,6.741,6.741,0,0,1,1.226,4.3v9.962h-4.118V180.4a2.639,2.639,0,0,0-.571-1.9,2.536,2.536,0,0,0-1.894-.6,2.834,2.834,0,0,0-2.594,1.485v10.869H915.44V174.844Z" transform="translate(-539.315 -61.375)" fill="#fff"/>
    <path id="Path_2693" data-name="Path 2693" d="M944.909,169.163v3.781h2.633v3.022h-2.633v7.692a1.861,1.861,0,0,0,.324,1.226,1.653,1.653,0,0,0,1.258.37,6.68,6.68,0,0,0,1.206-.1v3.119a8.43,8.43,0,0,1-2.49.37c-2.886,0-4.365-1.459-4.417-4.371v-8.295h-2.25v-3.035h2.244V169.15Z" transform="translate(-547.434 -59.476)" fill="#fff"/>
    <path id="Path_2694" data-name="Path 2694" d="M964.56,190.293a4.4,4.4,0,0,1-.415-1.381,4.974,4.974,0,0,1-3.891,1.667,5.467,5.467,0,0,1-3.755-1.3,4.229,4.229,0,0,1-1.492-3.308,4.358,4.358,0,0,1,1.822-3.762,8.915,8.915,0,0,1,5.247-1.3h1.9v-.882a2.594,2.594,0,0,0-.551-1.712,2.153,2.153,0,0,0-1.732-.649,2.471,2.471,0,0,0-1.634.5,1.712,1.712,0,0,0-.59,1.368h-4.118a4.125,4.125,0,0,1,.83-2.477,5.5,5.5,0,0,1,2.335-1.79,8.483,8.483,0,0,1,3.392-.649,6.751,6.751,0,0,1,4.54,1.433,5.007,5.007,0,0,1,1.673,4.027v6.68a7.379,7.379,0,0,0,.609,3.321v.24Zm-3.411-2.86a3.541,3.541,0,0,0,1.686-.409,2.73,2.73,0,0,0,1.141-1.09V183.3h-1.544q-3.093,0-3.288,2.14v.24a1.647,1.647,0,0,0,.545,1.3,2.114,2.114,0,0,0,1.459.46Z" transform="translate(-553.22 -61.396)" fill="#fff"/>
    <path id="Path_2695" data-name="Path 2695" d="M984.239,169.163v3.781h2.633v3.022h-2.633v7.692a1.861,1.861,0,0,0,.324,1.226,1.654,1.654,0,0,0,1.258.37,6.681,6.681,0,0,0,1.206-.1v3.119a8.431,8.431,0,0,1-2.49.37q-4.326,0-4.417-4.371v-8.295h-2.25v-3.035h2.25V169.15Z" transform="translate(-561.257 -59.476)" fill="#fff"/>
    <path id="Path_2696" data-name="Path 2696" d="M995.25,167.717a2.03,2.03,0,0,1,.648-1.524,2.659,2.659,0,0,1,3.372,0,2.13,2.13,0,0,1,0,3.061,2.321,2.321,0,0,1-1.673.6,2.348,2.348,0,0,1-1.68-.6,2.03,2.03,0,0,1-.668-1.537Zm4.371,19.4H995.49V171.693h4.138Z" transform="translate(-567.365 -58.225)" fill="#fff"/>
    <path id="Path_2697" data-name="Path 2697" d="M1006.229,182.431a9.146,9.146,0,0,1,.889-4.092,6.394,6.394,0,0,1,2.542-2.776,7.419,7.419,0,0,1,3.852-.986,7.037,7.037,0,0,1,5.1,1.907,7.685,7.685,0,0,1,2.2,5.188v1.057a8.055,8.055,0,0,1-1.946,5.694,7.685,7.685,0,0,1-10.636,0,8.232,8.232,0,0,1-1.991-5.837Zm4.118.292a5.759,5.759,0,0,0,.83,3.359,2.711,2.711,0,0,0,2.361,1.161,2.743,2.743,0,0,0,2.341-1.148,6.319,6.319,0,0,0,.837-3.671,5.714,5.714,0,0,0-.837-3.34,2.737,2.737,0,0,0-2.367-1.187,2.7,2.7,0,0,0-2.335,1.174,6.44,6.44,0,0,0-.83,3.651Z" transform="translate(-571.224 -61.381)" fill="#fff"/>
    <path id="Path_2698" data-name="Path 2698" d="M1036.419,174.844l.13,1.783a5.376,5.376,0,0,1,4.429-2.069,4.482,4.482,0,0,1,3.651,1.44,6.689,6.689,0,0,1,1.226,4.3v9.962h-4.118V180.4a2.672,2.672,0,0,0-.571-1.9,2.549,2.549,0,0,0-1.894-.6,2.854,2.854,0,0,0-2.594,1.485v10.87h-4.118V174.844Z" transform="translate(-580.479 -61.375)" fill="#fff"/>
    <path id="Path_2699" data-name="Path 2699" d="M816.4,378.717a2,2,0,0,1,.649-1.524,2.659,2.659,0,0,1,3.372,0,2.186,2.186,0,0,1,0,3.061,2.653,2.653,0,0,1-3.353,0,2.03,2.03,0,0,1-.668-1.537Zm4.371,19.4H816.64V382.693h4.131Z" transform="translate(-504.506 -132.383)" fill="#565656"/>
    <path id="Path_2700" data-name="Path 2700" d="M832.119,385.844l.13,1.783a5.383,5.383,0,0,1,4.436-2.069,4.462,4.462,0,0,1,3.645,1.44,6.741,6.741,0,0,1,1.226,4.3v9.962h-4.118V391.4a2.639,2.639,0,0,0-.571-1.9,2.536,2.536,0,0,0-1.894-.6,2.834,2.834,0,0,0-2.594,1.485v10.869H828.26V385.844Z" transform="translate(-508.675 -135.534)" fill="#565656"/>
    <path id="Path_2701" data-name="Path 2701" d="M854.066,397.761V385.367h-2.3v-3.035h2.3v-1.3a5.318,5.318,0,0,1,1.485-4.027,5.792,5.792,0,0,1,4.17-1.433,9.732,9.732,0,0,1,2.095.285l-.039,3.191a5.391,5.391,0,0,0-1.258-.123q-2.328,0-2.322,2.179v1.226h3.061v3.022H858.2v12.394Z" transform="translate(-516.938 -132.023)" fill="#565656"/>
    <path id="Path_2702" data-name="Path 2702" d="M868.7,393.431a9.237,9.237,0,0,1,.882-4.092,6.447,6.447,0,0,1,2.549-2.776,7.4,7.4,0,0,1,3.852-.986,7,7,0,0,1,5.091,1.907,7.659,7.659,0,0,1,2.205,5.188v1.057a8.055,8.055,0,0,1-1.978,5.694,7.685,7.685,0,0,1-10.636,0,8.232,8.232,0,0,1-1.991-5.837Zm4.118.292a5.76,5.76,0,0,0,.83,3.359,2.711,2.711,0,0,0,2.361,1.161,2.743,2.743,0,0,0,2.341-1.148,6.319,6.319,0,0,0,.837-3.671,5.712,5.712,0,0,0-.837-3.34,2.737,2.737,0,0,0-2.367-1.187,2.7,2.7,0,0,0-2.335,1.174,6.439,6.439,0,0,0-.83,3.651Z" transform="translate(-522.877 -135.54)" fill="#565656"/>
    <path id="Path_2703" data-name="Path 2703" d="M914.271,397.015a1.33,1.33,0,0,0-.752-1.187,8.382,8.382,0,0,0-2.4-.778q-5.5-1.148-5.5-4.676a4.222,4.222,0,0,1,1.706-3.424,6.868,6.868,0,0,1,4.449-1.375,7.393,7.393,0,0,1,4.7,1.381,4.365,4.365,0,0,1,1.764,3.593h-4.112a2,2,0,0,0-.571-1.459,2.406,2.406,0,0,0-1.783-.577,2.465,2.465,0,0,0-1.608.467,1.479,1.479,0,0,0-.571,1.2,1.3,1.3,0,0,0,.648,1.1,6.59,6.59,0,0,0,2.186.726,17.84,17.84,0,0,1,2.594.694q3.243,1.2,3.243,4.144a4.014,4.014,0,0,1-1.809,3.411,7.782,7.782,0,0,1-4.676,1.3,8.133,8.133,0,0,1-3.437-.687,5.766,5.766,0,0,1-2.361-1.9,4.378,4.378,0,0,1-.856-2.594h3.891a2.153,2.153,0,0,0,.817,1.68,3.242,3.242,0,0,0,2.023.584,2.977,2.977,0,0,0,1.783-.448A1.394,1.394,0,0,0,914.271,397.015Z" transform="translate(-535.688 -135.538)" fill="#565656"/>
    <path id="Path_2704" data-name="Path 2704" d="M936.279,401.562a7.575,7.575,0,0,1-5.519-2.075,7.4,7.4,0,0,1-2.134-5.545v-.4a9.228,9.228,0,0,1,.9-4.151,6.6,6.6,0,0,1,2.542-2.821,7.134,7.134,0,0,1,3.755-.992,6.407,6.407,0,0,1,4.981,2,8.063,8.063,0,0,1,1.816,5.655v1.7H932.8a3.807,3.807,0,0,0,1.206,2.425,3.658,3.658,0,0,0,2.542.908,4.43,4.43,0,0,0,3.716-1.725l2.023,2.27a6.147,6.147,0,0,1-2.5,2.043A8.192,8.192,0,0,1,936.279,401.562Zm-.467-12.666a2.594,2.594,0,0,0-1.991.83,4.255,4.255,0,0,0-.973,2.374h5.746v-.324a3.068,3.068,0,0,0-.739-2.127,2.679,2.679,0,0,0-2.043-.752Z" transform="translate(-543.947 -135.538)" fill="#565656"/>
    <path id="Path_2705" data-name="Path 2705" d="M960.6,401.562a7.588,7.588,0,0,1-5.519-2.075,7.4,7.4,0,0,1-2.127-5.545v-.4a9.314,9.314,0,0,1,.9-4.151,6.6,6.6,0,0,1,2.542-2.821,7.135,7.135,0,0,1,3.755-.992,6.408,6.408,0,0,1,4.981,2,8.032,8.032,0,0,1,1.816,5.655v1.7h-9.819a3.892,3.892,0,0,0,1.206,2.426,3.658,3.658,0,0,0,2.542.908,4.436,4.436,0,0,0,3.723-1.725l2,2.283a6.168,6.168,0,0,1-2.51,2.043A8.192,8.192,0,0,1,960.6,401.562Zm-.486-12.666a2.594,2.594,0,0,0-1.946.843,4.3,4.3,0,0,0-.973,2.374h5.727v-.324a3.068,3.068,0,0,0-.739-2.127A2.659,2.659,0,0,0,960.115,388.9Z" transform="translate(-552.498 -135.538)" fill="#565656"/>
    <path id="Path_2706" data-name="Path 2706" d="M983.737,391.734l-1.479,1.479v4.7H978.14V376h4.118v12.128l.8-1.025L987,382.485h4.948l-5.571,6.427,6.051,8.989H987.7Z" transform="translate(-561.352 -132.176)" fill="#565656"/>
    <path id="Path_2707" data-name="Path 2707" d="M1002.13,378.718a2.011,2.011,0,0,1,.649-1.524,2.653,2.653,0,0,1,3.366,0,1.991,1.991,0,0,1,.648,1.524,2.037,2.037,0,0,1-.649,1.537,2.646,2.646,0,0,1-3.346,0,2.036,2.036,0,0,1-.668-1.537Zm4.378,19.4h-4.138V382.693h4.138Z" transform="translate(-569.783 -132.384)" fill="#565656"/>
    <path id="Path_2708" data-name="Path 2708" d="M1017.891,385.844l.13,1.784a5.37,5.37,0,0,1,4.429-2.069A4.482,4.482,0,0,1,1026.1,387a6.688,6.688,0,0,1,1.226,4.3v9.961h-4.118V391.4a2.672,2.672,0,0,0-.571-1.9,2.556,2.556,0,0,0-1.9-.6,2.847,2.847,0,0,0-2.594,1.485v10.869H1014V385.844Z" transform="translate(-573.956 -135.534)" fill="#565656"/>
    <path id="Path_2709" data-name="Path 2709" d="M1038.37,393.456a9.022,9.022,0,0,1,1.693-5.714,5.454,5.454,0,0,1,4.54-2.166,4.793,4.793,0,0,1,3.95,1.738l.169-1.453h3.735v14.916a6.628,6.628,0,0,1-.921,3.522,5.954,5.954,0,0,1-2.594,2.283,9.138,9.138,0,0,1-3.891.778,8.43,8.43,0,0,1-3.307-.649,5.915,5.915,0,0,1-2.439-1.745l1.829-2.51a4.825,4.825,0,0,0,3.729,1.725,3.541,3.541,0,0,0,2.555-.876,3.307,3.307,0,0,0,.908-2.49v-.824a4.747,4.747,0,0,1-3.749,1.608,5.454,5.454,0,0,1-4.494-2.173,9.04,9.04,0,0,1-1.719-5.766Zm4.118.3a5.669,5.669,0,0,0,.843,3.295,2.685,2.685,0,0,0,2.309,1.187,2.847,2.847,0,0,0,2.692-1.414v-6.485a2.86,2.86,0,0,0-2.666-1.414,2.7,2.7,0,0,0-2.328,1.213A6.355,6.355,0,0,0,1042.489,393.761Z" transform="translate(-582.515 -135.539)" fill="#565656"/>
    <path id="Path_2710" data-name="Path 2710" d="M725.45,614.093a9.269,9.269,0,0,1,1.615-5.74,5.26,5.26,0,0,1,4.43-2.14,4.715,4.715,0,0,1,3.716,1.68V600h4.131v21.888h-3.716l-.2-1.634a4.858,4.858,0,0,1-3.963,1.946,5.227,5.227,0,0,1-4.365-2.14A9.609,9.609,0,0,1,725.45,614.093Zm4.118.3a6.134,6.134,0,0,0,.752,3.327,2.464,2.464,0,0,0,2.2,1.154,2.756,2.756,0,0,0,2.691-1.608v-6.1a2.717,2.717,0,0,0-2.665-1.615Q729.568,609.559,729.568,614.4Z" transform="translate(-472.541 -210.903)" fill="#fff"/>
    <path id="Path_2711" data-name="Path 2711" d="M758.588,625.562a7.594,7.594,0,0,1-5.526-2.075,7.4,7.4,0,0,1-2.127-5.545v-.4a9.314,9.314,0,0,1,.9-4.151,6.609,6.609,0,0,1,2.549-2.821,7.135,7.135,0,0,1,3.749-.992,6.388,6.388,0,0,1,4.981,2,8.144,8.144,0,0,1,1.822,5.655v1.7h-9.819a3.833,3.833,0,0,0,1.2,2.426,3.671,3.671,0,0,0,2.549.908,4.436,4.436,0,0,0,3.716-1.725l2.017,2.283a6.124,6.124,0,0,1-2.51,2.043A8.14,8.14,0,0,1,758.588,625.562Zm-.48-12.666a2.594,2.594,0,0,0-1.946.843,4.254,4.254,0,0,0-.979,2.374h5.733v-.324a3.041,3.041,0,0,0-.746-2.127,2.659,2.659,0,0,0-2.062-.765Z" transform="translate(-481.495 -214.266)" fill="#fff"/>
    <path id="Path_2712" data-name="Path 2712" d="M782.195,622.21a2.7,2.7,0,0,0,1.848-.649,2.192,2.192,0,0,0,.746-1.667h3.891a5.19,5.19,0,0,1-.856,2.867,5.637,5.637,0,0,1-2.3,2.023,7.193,7.193,0,0,1-3.243.72,6.712,6.712,0,0,1-5.188-2.1,8.369,8.369,0,0,1-1.907-5.837v-.272a8.23,8.23,0,0,1,1.894-5.688,6.622,6.622,0,0,1,5.188-2.121,6.486,6.486,0,0,1,4.637,1.647,5.838,5.838,0,0,1,1.777,4.378h-3.891a2.808,2.808,0,0,0-.746-1.946,2.75,2.75,0,0,0-4.053.3,6.1,6.1,0,0,0-.733,3.4v.428a6.164,6.164,0,0,0,.726,3.424A2.51,2.51,0,0,0,782.195,622.21Z" transform="translate(-490.017 -214.234)" fill="#fff"/>
    <path id="Path_2713" data-name="Path 2713" d="M799.54,602.718a2.01,2.01,0,0,1,.649-1.524,2.652,2.652,0,0,1,3.366,0,1.991,1.991,0,0,1,.649,1.524,2.036,2.036,0,0,1-.649,1.537,2.646,2.646,0,0,1-3.346,0,2.037,2.037,0,0,1-.668-1.537Zm4.378,19.4h-4.131V606.693h4.131Z" transform="translate(-498.581 -211.111)" fill="#fff"/>
    <path id="Path_2714" data-name="Path 2714" d="M819.431,621.015a1.3,1.3,0,0,0-.746-1.187,8.381,8.381,0,0,0-2.4-.778q-5.506-1.148-5.5-4.676a4.235,4.235,0,0,1,1.7-3.424,6.887,6.887,0,0,1,4.455-1.375,7.393,7.393,0,0,1,4.7,1.381,4.358,4.358,0,0,1,1.758,3.593h-4.118a1.946,1.946,0,0,0-.571-1.459,2.381,2.381,0,0,0-1.777-.577,2.5,2.5,0,0,0-1.615.467,1.5,1.5,0,0,0-.571,1.2,1.3,1.3,0,0,0,.649,1.1,6.643,6.643,0,0,0,2.192.726,18.09,18.09,0,0,1,2.594.694q3.243,1.193,3.243,4.144a4.015,4.015,0,0,1-1.809,3.411,7.822,7.822,0,0,1-4.676,1.3,8.184,8.184,0,0,1-3.444-.687,5.784,5.784,0,0,1-2.354-1.9,4.377,4.377,0,0,1-.856-2.594h3.891a2.146,2.146,0,0,0,.811,1.68,3.243,3.243,0,0,0,2.023.584,2.983,2.983,0,0,0,1.79-.448A1.4,1.4,0,0,0,819.431,621.015Z" transform="translate(-502.356 -214.265)" fill="#fff"/>
    <path id="Path_2715" data-name="Path 2715" d="M834.61,602.718a2.01,2.01,0,0,1,.649-1.524,2.652,2.652,0,0,1,3.366,0,1.991,1.991,0,0,1,.649,1.524,2.036,2.036,0,0,1-.649,1.537,2.646,2.646,0,0,1-3.346,0,2.037,2.037,0,0,1-.668-1.537Zm4.378,19.4h-4.125V606.693H839Z" transform="translate(-510.906 -211.111)" fill="#fff"/>
    <path id="Path_2716" data-name="Path 2716" d="M845.582,617.431a9.145,9.145,0,0,1,.882-4.092,6.433,6.433,0,0,1,2.542-2.776,7.432,7.432,0,0,1,3.852-.986,7.036,7.036,0,0,1,5.1,1.907,7.659,7.659,0,0,1,2.2,5.188v1.057a8.055,8.055,0,0,1-1.985,5.694,7.685,7.685,0,0,1-10.636,0,8.249,8.249,0,0,1-1.984-5.837Zm4.118.292a5.759,5.759,0,0,0,.824,3.359,2.97,2.97,0,0,0,4.7,0,6.215,6.215,0,0,0,.843-3.671,5.662,5.662,0,0,0-.843-3.34,2.73,2.73,0,0,0-2.367-1.187,2.7,2.7,0,0,0-2.335,1.174,6.543,6.543,0,0,0-.791,3.664Z" transform="translate(-514.752 -214.267)" fill="#fff"/>
    <path id="Path_2717" data-name="Path 2717" d="M875.772,609.844l.13,1.783a5.383,5.383,0,0,1,4.436-2.069,4.474,4.474,0,0,1,3.645,1.44,6.714,6.714,0,0,1,1.226,4.3v9.962H881.09V615.4a2.64,2.64,0,0,0-.571-1.9,2.536,2.536,0,0,0-1.894-.6,2.834,2.834,0,0,0-2.594,1.485v10.869H871.9V609.844Z" transform="translate(-524.013 -214.262)" fill="#fff"/>
    <path id="Path_2718" data-name="Path 2718" d="M912.292,609.843l.13,1.725a5.415,5.415,0,0,1,4.43-2.01,4.1,4.1,0,0,1,4.092,2.354,5.292,5.292,0,0,1,4.63-2.354,4.6,4.6,0,0,1,3.736,1.459,6.71,6.71,0,0,1,1.226,4.4v9.845H926.4V615.44a2.905,2.905,0,0,0-.519-1.946,2.263,2.263,0,0,0-1.809-.61,2.594,2.594,0,0,0-2.562,1.771v10.584H917.4v-9.786a2.892,2.892,0,0,0-.525-1.946,2.29,2.29,0,0,0-1.8-.6,2.672,2.672,0,0,0-2.536,1.453v10.9H908.42V609.843Z" transform="translate(-536.848 -214.261)" fill="#fff"/>
    <path id="Path_2719" data-name="Path 2719" d="M955.993,625.293a4.59,4.59,0,0,1-.409-1.381,4.974,4.974,0,0,1-3.891,1.667,5.468,5.468,0,0,1-3.755-1.3,4.228,4.228,0,0,1-1.492-3.307,4.351,4.351,0,0,1,1.816-3.762,8.951,8.951,0,0,1,5.253-1.3h1.894v-.882a2.556,2.556,0,0,0-.545-1.712,2.166,2.166,0,0,0-1.732-.648,2.471,2.471,0,0,0-1.634.5,1.692,1.692,0,0,0-.59,1.368H946.8a4.117,4.117,0,0,1,.824-2.477,5.48,5.48,0,0,1,2.341-1.79,8.433,8.433,0,0,1,3.392-.648,6.725,6.725,0,0,1,4.54,1.433,5.007,5.007,0,0,1,1.673,4.027v6.68a7.368,7.368,0,0,0,.649,3.32v.24Zm-3.4-2.86a3.515,3.515,0,0,0,1.68-.409,2.653,2.653,0,0,0,1.141-1.09V618.3h-1.537q-3.093,0-3.295,2.14v.24a1.647,1.647,0,0,0,.545,1.3A2.1,2.1,0,0,0,952.589,622.433Z" transform="translate(-550.211 -214.282)" fill="#fff"/>
    <path id="Path_2720" data-name="Path 2720" d="M977.123,615.734l-1.485,1.479v4.7H971.52V600h4.118v12.128l.8-1.025,3.95-4.631h4.942l-5.571,6.427,6.057,8.989h-4.728Z" transform="translate(-559.025 -210.903)" fill="#fff"/>
    <path id="Path_2721" data-name="Path 2721" d="M995.52,602.717a2,2,0,0,1,.649-1.524,2.659,2.659,0,0,1,3.372,0,2.13,2.13,0,0,1,0,3.061,2.652,2.652,0,0,1-3.353,0,2.03,2.03,0,0,1-.668-1.537Zm4.371,19.4H995.76V606.693h4.131Z" transform="translate(-567.46 -211.111)" fill="#fff"/>
    <path id="Path_2722" data-name="Path 2722" d="M1011.245,609.844l.123,1.783a5.382,5.382,0,0,1,4.436-2.069,4.462,4.462,0,0,1,3.645,1.44,6.74,6.74,0,0,1,1.226,4.3v9.962h-4.118V615.4a2.64,2.64,0,0,0-.571-1.9,2.536,2.536,0,0,0-1.894-.6,2.834,2.834,0,0,0-2.594,1.485v10.87h-4.118V609.844Z" transform="translate(-571.629 -214.262)" fill="#fff"/>
    <path id="Path_2723" data-name="Path 2723" d="M1031.763,617.456a9.022,9.022,0,0,1,1.693-5.714,5.455,5.455,0,0,1,4.54-2.166,4.792,4.792,0,0,1,3.943,1.738l.175-1.453h3.729v14.916a6.571,6.571,0,0,1-.921,3.522,5.9,5.9,0,0,1-2.594,2.283,9.158,9.158,0,0,1-3.891.778,8.386,8.386,0,0,1-3.307-.649,5.869,5.869,0,0,1-2.439-1.744l1.822-2.51a4.839,4.839,0,0,0,3.736,1.725,3.522,3.522,0,0,0,2.549-.876,3.287,3.287,0,0,0,.915-2.49v-.824a4.747,4.747,0,0,1-3.749,1.608,5.434,5.434,0,0,1-4.494-2.173,9.029,9.029,0,0,1-1.719-5.766Zm4.118.3a5.617,5.617,0,0,0,.843,3.295,2.672,2.672,0,0,0,2.309,1.187,2.854,2.854,0,0,0,2.691-1.414v-6.485a2.86,2.86,0,0,0-2.666-1.414,2.7,2.7,0,0,0-2.328,1.213,6.356,6.356,0,0,0-.85,3.619Z" transform="translate(-580.194 -214.267)" fill="#fff"/>
    <rect id="Rectangle_149" data-name="Rectangle 149" width="320.663" height="71.78" transform="translate(551.139 356.475)" fill="#bc412b"/>
    <rect id="Rectangle_150" data-name="Rectangle 150" width="320.663" height="71.78" transform="translate(551.139 265.881)" fill="#bc412b"/>
    <rect id="Rectangle_151" data-name="Rectangle 151" width="320.663" height="71.78" transform="translate(551.139 177.252)" fill="#bc412b"/>
    <rect id="Rectangle_152" data-name="Rectangle 152" width="320.663" height="71.78" transform="translate(551.139 88.629)" fill="#bc412b"/>
    <rect id="Rectangle_153" data-name="Rectangle 153" width="320.663" height="71.78" transform="translate(551.139)" fill="#bc412b"/>
    <path id="Path_2724" data-name="Path 2724" d="M1424.449,327.431a9.144,9.144,0,0,1,.882-4.092,6.485,6.485,0,0,1,2.542-2.776,7.438,7.438,0,0,1,3.891-.986,7.017,7.017,0,0,1,5.091,1.907,7.692,7.692,0,0,1,2.205,5.188v1.057a8.08,8.08,0,0,1-1.946,5.694,7.685,7.685,0,0,1-10.636,0,8.232,8.232,0,0,1-1.991-5.837Zm4.118.292a5.838,5.838,0,0,0,.824,3.359,2.977,2.977,0,0,0,4.708,0,6.319,6.319,0,0,0,.837-3.671,5.714,5.714,0,0,0-.837-3.34,2.938,2.938,0,0,0-4.708,0,6.486,6.486,0,0,0-.823,3.651Z" transform="translate(-718.212 -112.343)" fill="#fff"/>
    <path id="Path_2725" data-name="Path 2725" d="M1454.635,319.844l.13,1.783a5.37,5.37,0,0,1,4.429-2.069,4.462,4.462,0,0,1,3.645,1.44,6.74,6.74,0,0,1,1.226,4.3v9.962h-4.118V325.4a2.639,2.639,0,0,0-.571-1.9,2.536,2.536,0,0,0-1.894-.6,2.84,2.84,0,0,0-2.594,1.485v10.869h-4.118V319.844Z" transform="translate(-727.464 -112.337)" fill="#fff"/>
    <path id="Path_2726" data-name="Path 2726" d="M1489.982,324.352a9.33,9.33,0,0,1-1.582,5.778,5.247,5.247,0,0,1-4.417,2.069,4.831,4.831,0,0,1-4.008-1.946l-.182,1.634h-3.7V310h4.118v7.854a4.689,4.689,0,0,1,3.742-1.667,5.292,5.292,0,0,1,4.43,2.075,9.309,9.309,0,0,1,1.6,5.837Zm-4.118-.3a6.149,6.149,0,0,0-.74-3.411,2.523,2.523,0,0,0-2.211-1.077,2.711,2.711,0,0,0-2.7,1.615v6.083a2.743,2.743,0,0,0,2.73,1.621,2.542,2.542,0,0,0,2.594-1.946,10.12,10.12,0,0,0,.331-2.886Z" transform="translate(-736.363 -108.979)" fill="#fff"/>
    <path id="Path_2727" data-name="Path 2727" d="M1500.429,327.431a9.234,9.234,0,0,1,.882-4.092,6.447,6.447,0,0,1,2.549-2.776,7.4,7.4,0,0,1,3.852-.986,7,7,0,0,1,5.091,1.907,7.659,7.659,0,0,1,2.205,5.188v1.057a8.055,8.055,0,0,1-1.946,5.694,7.685,7.685,0,0,1-10.636,0,8.232,8.232,0,0,1-1.991-5.837Zm4.118.292a5.758,5.758,0,0,0,.83,3.359,2.711,2.711,0,0,0,2.361,1.161,2.743,2.743,0,0,0,2.341-1.148,6.319,6.319,0,0,0,.837-3.671,5.713,5.713,0,0,0-.837-3.34,2.737,2.737,0,0,0-2.367-1.187,2.7,2.7,0,0,0-2.335,1.174A6.44,6.44,0,0,0,1504.548,327.723Z" transform="translate(-744.917 -112.343)" fill="#fff"/>
    <path id="Path_2728" data-name="Path 2728" d="M1535.46,335.293a4.767,4.767,0,0,1-.415-1.381,4.949,4.949,0,0,1-3.891,1.667,5.467,5.467,0,0,1-3.755-1.3,4.228,4.228,0,0,1-1.492-3.308,4.352,4.352,0,0,1,1.816-3.762,8.951,8.951,0,0,1,5.253-1.3h1.894v-.882a2.53,2.53,0,0,0-.551-1.712,2.146,2.146,0,0,0-1.725-.649,2.471,2.471,0,0,0-1.635.5,1.693,1.693,0,0,0-.59,1.368h-4.118a4.118,4.118,0,0,1,.824-2.477,5.48,5.48,0,0,1,2.341-1.79,8.431,8.431,0,0,1,3.385-.648,6.745,6.745,0,0,1,4.54,1.433,5.007,5.007,0,0,1,1.673,4.027v6.68a7.368,7.368,0,0,0,.648,3.32v.24Zm-3.4-2.86a3.515,3.515,0,0,0,1.68-.409,2.692,2.692,0,0,0,1.141-1.09V328.3h-1.537q-3.094,0-3.295,2.14v.24a1.666,1.666,0,0,0,.538,1.3,2.12,2.12,0,0,0,1.472.46Z" transform="translate(-753.87 -112.358)" fill="#fff"/>
    <path id="Path_2729" data-name="Path 2729" d="M1559.658,323.737a11.975,11.975,0,0,0-1.485-.11q-2.335,0-3.061,1.582v10.085H1551V319.845h3.891l.117,1.835a3.806,3.806,0,0,1,3.431-2.121,4.359,4.359,0,0,1,1.3.188Z" transform="translate(-762.691 -112.339)" fill="#fff"/>
    <path id="Path_2730" data-name="Path 2730" d="M1566,324.093a9.27,9.27,0,0,1,1.615-5.74,5.247,5.247,0,0,1,4.423-2.14,4.721,4.721,0,0,1,3.723,1.68V310h4.131v21.888h-3.716l-.2-1.634a4.858,4.858,0,0,1-3.963,1.946,5.227,5.227,0,0,1-4.365-2.14A9.568,9.568,0,0,1,1566,324.093Zm4.118.3a6.136,6.136,0,0,0,.752,3.327,2.465,2.465,0,0,0,2.2,1.154,2.763,2.763,0,0,0,2.691-1.608v-6.1a2.717,2.717,0,0,0-2.666-1.615Q1570.118,319.559,1570.118,324.4Z" transform="translate(-767.963 -108.979)" fill="#fff"/>
    <path id="Path_2731" data-name="Path 2731" d="M1592.3,312.717a2.031,2.031,0,0,1,.648-1.524,2.659,2.659,0,0,1,3.373,0,1.991,1.991,0,0,1,.649,1.524,2.037,2.037,0,0,1-.649,1.537,2.646,2.646,0,0,1-3.346,0,2.037,2.037,0,0,1-.675-1.537Zm4.371,19.4h-4.131V316.693h4.105Z" transform="translate(-777.206 -109.187)" fill="#fff"/>
    <path id="Path_2732" data-name="Path 2732" d="M1608.025,319.838l.13,1.783a5.369,5.369,0,0,1,4.429-2.069,4.487,4.487,0,0,1,3.651,1.44,6.689,6.689,0,0,1,1.226,4.3v9.962h-4.125V325.4a2.672,2.672,0,0,0-.564-1.9,2.556,2.556,0,0,0-1.9-.6,2.847,2.847,0,0,0-2.594,1.485v10.87h-4.118V319.838Z" transform="translate(-781.375 -112.332)" fill="#fff"/>
    <path id="Path_2733" data-name="Path 2733" d="M1628.54,327.456a9.022,9.022,0,0,1,1.693-5.714,5.454,5.454,0,0,1,4.54-2.166,4.78,4.78,0,0,1,3.943,1.738l.175-1.453h3.736v14.916a6.627,6.627,0,0,1-.921,3.522,5.954,5.954,0,0,1-2.594,2.283,9.138,9.138,0,0,1-3.891.778,8.432,8.432,0,0,1-3.308-.649,5.916,5.916,0,0,1-2.438-1.745l1.829-2.51a4.825,4.825,0,0,0,3.729,1.725,3.541,3.541,0,0,0,2.555-.876,3.308,3.308,0,0,0,.908-2.49v-.824a4.748,4.748,0,0,1-3.749,1.608,5.454,5.454,0,0,1-4.494-2.173,9.041,9.041,0,0,1-1.719-5.766Zm4.118.3a5.67,5.67,0,0,0,.843,3.295,2.672,2.672,0,0,0,2.309,1.187,2.847,2.847,0,0,0,2.691-1.414v-6.485a2.86,2.86,0,0,0-2.665-1.414,2.7,2.7,0,0,0-2.328,1.213A6.355,6.355,0,0,0,1632.659,327.761Z" transform="translate(-789.937 -112.343)" fill="#fff"/>
  </g>
</svg>
