<svg id="Asset_21" data-name="Asset 21" xmlns="http://www.w3.org/2000/svg" width="89.763" height="86.035" viewBox="0 0 89.763 86.035">
  <g id="Layer_2" data-name="Layer 2">
    <path id="Path_3045" data-name="Path 3045" d="M41.146,43.272A19.886,19.886,0,1,1,61.032,23.386,19.886,19.886,0,0,1,41.146,43.272Z" transform="translate(3.741 0.616)" fill="#fff"/>
    <path id="Path_3046" data-name="Path 3046" d="M41.762,8.232A15.77,15.77,0,1,1,25.992,24a15.77,15.77,0,0,1,15.77-15.77m0-8.232a24,24,0,1,0,24,24A24,24,0,0,0,41.762,0Z" transform="translate(3.125 0)" fill="#bc412b"/>
    <path id="Path_3047" data-name="Path 3047" d="M3.5,73.7V63.362A16.664,16.664,0,0,1,20.152,46.71H68.367A16.664,16.664,0,0,1,85.031,63.362V73.7Z" transform="translate(0.616 8.22)" fill="#fff"/>
    <path id="Path_3048" data-name="Path 3048" d="M69.007,51.442A12.548,12.548,0,0,1,81.531,63.978V70.2H8.232V63.978A12.548,12.548,0,0,1,20.768,51.442H68.983m0-8.232H20.768A20.768,20.768,0,0,0,0,63.978V78.431H89.763V63.978A20.768,20.768,0,0,0,69.007,43.21Z" transform="translate(0 7.604)" fill="#bc412b"/>
  </g>
</svg>
