<svg xmlns="http://www.w3.org/2000/svg" width="399.321" height="54.171" viewBox="0 0 399.321 54.171">
  <g id="Asset_16" data-name="Asset 16" transform="translate(3 8.009)">
    <g id="Layer_2" data-name="Layer 2" transform="translate(-3 -8.009)">
      <path id="Path_114" data-name="Path 114" d="M252.434,18.854,237.574,6A2.71,2.71,0,0,0,233.1,8.134V18.972h0L218.237,6.114a2.71,2.71,0,0,0-4.527,2.02V33.748a2.71,2.71,0,0,0,4.477,2.036l14.86-12.841h0V33.8a2.71,2.71,0,0,0,4.477,2.036l14.86-12.841a2.71,2.71,0,0,0,.05-4.14Z" transform="translate(145.95 3.661)" fill="#73e6d3"/>
      <path id="Path_115" data-name="Path 115" d="M2.053,13.095l3.82-.32.353-1.9C7.388,4.933,10.754.17,17.385.17a12.891,12.891,0,0,1,6.176,1.565l-2.541,5.6a5.958,5.958,0,0,0-2.794-.858c-2.154,0-3.366.909-4.039,4.106l-.438,2.188H18.8l-1.229,6.21H12.521L7.96,41.671H0L4.578,18.985H.858Z" transform="translate(0 0.13)" fill="#73e6d3"/>
      <path id="Path_116" data-name="Path 116" d="M25.038,7.24c6.9,0,9.424,4.847,9.424,10.838A17.688,17.688,0,0,1,33,24.658H16.523c-.2,4.813,2.71,6.85,6.513,6.85a9.98,9.98,0,0,0,5.3-2.02l2.827,5.049a18.041,18.041,0,0,1-10.384,3C13.8,37.533,9,32.9,9,25.163,9,14.46,17.415,7.24,25.038,7.24Zm2.642,12.555a9.828,9.828,0,0,0,.252-2.154c0-2.322-.976-4.275-3.871-4.275s-5.571,2.188-6.9,6.429Z" transform="translate(6.146 4.959)" fill="#73e6d3"/>
      <path id="Path_117" data-name="Path 117" d="M40.515,7.24c6.9,0,9.424,4.847,9.424,10.838a17.284,17.284,0,0,1-1.481,6.58H31.949c-.2,4.813,2.71,6.85,6.513,6.85a10.1,10.1,0,0,0,5.3-2.02l2.827,5.049a18.041,18.041,0,0,1-10.35,3.029c-6.984,0-11.781-4.628-11.781-12.37C24.41,14.46,32.774,7.24,40.515,7.24Zm2.642,12.555a9.828,9.828,0,0,0,.252-2.154c0-2.322-.976-4.275-3.888-4.275s-5.554,2.188-6.883,6.429Z" transform="translate(16.705 4.959)" fill="#73e6d3"/>
      <path id="Path_118" data-name="Path 118" d="M40.13,36.443a16.71,16.71,0,0,1,.421-3.534L47.013.58h8.044L48.427,33.263a4.8,4.8,0,0,0-.118,1.128c0,.993.522,1.346,1.094,1.346a2.794,2.794,0,0,0,1.027-.151l-.236,5.907a12.942,12.942,0,0,1-4.224.64C41.83,42.081,40.13,39.994,40.13,36.443Z" transform="translate(27.406 0.41)" fill="#73e6d3"/>
      <path id="Path_119" data-name="Path 119" d="M52.929,12.9h7.96L55.1,41.793H47.14Zm1.178-8.162A4.864,4.864,0,0,1,59.072.006,3.989,3.989,0,0,1,63.4,3.86a4.763,4.763,0,0,1-5.049,4.712,3.938,3.938,0,0,1-4.241-3.837Z" transform="translate(32.194 0.009)" fill="#73e6d3"/>
      <path id="Path_120" data-name="Path 120" d="M60.336,7.92h6.479l-.185,3.938h.236C69.693,9.4,72.924,7.28,76.593,7.28c4.78,0,6.833,2.609,6.833,7.439a19.976,19.976,0,0,1-.471,4.106l-3.6,17.991H71.376l3.366-17.065a13.868,13.868,0,0,0,.454-2.76,2.625,2.625,0,0,0-2.928-2.979c-1.8,0-3.568,1.195-6.075,3.77L62.54,36.816H54.58Z" transform="translate(37.275 4.986)" fill="#73e6d3"/>
      <path id="Path_121" data-name="Path 121" d="M71,45.163l3.366-5.318a12.386,12.386,0,0,0,7.422,3.029c3.787,0,6.311-2.121,7.455-6.042l1.5-5.133a12.487,12.487,0,0,1-8.886,4.191c-4.864,0-8.415-3.366-8.415-10.1C73.44,15.426,80.61,7.28,88.587,7.28a6.934,6.934,0,0,1,6.277,3.736H95l1.245-3.1h6.479L97.018,36.345c-1.683,8.566-7.169,12.841-15.281,12.841A17.671,17.671,0,0,1,71,45.163ZM91.2,25.658l1.784-9.172a4.392,4.392,0,0,0-3.787-2.76c-3.955,0-7.388,4.8-7.388,11.057,0,3.13,1.3,4.611,3.265,4.611A7.27,7.27,0,0,0,91.2,25.658Z" transform="translate(48.488 4.986)" fill="#73e6d3"/>
      <path id="Path_122" data-name="Path 122" d="M102.132,13.095l3.82-.32.337-1.9C107.45,4.916,110.832.17,117.446.17a12.908,12.908,0,0,1,6.193,1.565l-2.541,5.6a5.958,5.958,0,0,0-2.743-.858c-2.137,0-3.366.909-4.022,4.106l-.454,2.188h5.049l-1.212,6.21h-5.049L108.19,41.671h-7.96l4.561-22.686h-3.7Z" transform="translate(68.451 0.13)" fill="#73e6d3"/>
      <path id="Path_123" data-name="Path 123" d="M109.14,25.634c0-11.141,8.23-18.394,16.19-18.394,6.732,0,11.208,4.729,11.208,11.915,0,11.141-8.23,18.378-16.19,18.378C113.617,37.533,109.14,32.8,109.14,25.634Zm19.337-6.328c0-3.517-1.346-5.655-4.039-5.655-3.888,0-7.237,5.049-7.237,11.781,0,3.534,1.346,5.671,4.039,5.671C125.128,31.138,128.477,26.055,128.477,19.307Z" transform="translate(74.536 4.959)" fill="#73e6d3"/>
      <path id="Path_124" data-name="Path 124" d="M131,7.952h6.479l-.353,5.621h.236c2.238-3.652,5.5-6.328,8.835-6.328a6.143,6.143,0,0,1,3.012.572l-2.575,6.9a6.361,6.361,0,0,0-2.861-.454c-2.558,0-4.948,1.767-7.22,5.84L133.31,36.848h-7.96Z" transform="translate(85.606 4.954)" fill="#73e6d3"/>
      <path id="Path_125" data-name="Path 125" d="M139,7.66h7.876V21.628c0,2.811-.252,5.638-.353,8.516h.236c1.06-2.878,2.07-5.756,3.282-8.516L155.947,7.66h6.934l.488,13.968v8.516h.236c1.06-2.878,1.919-5.705,3.012-8.516L172.036,7.66h7.354l-12.319,28.9h-9.357l-.2-12.134c0-2.676,0-5.419.1-8.415h-.236c-1.111,3.029-2,5.772-3.046,8.415L149.4,36.556H140.33Z" transform="translate(94.928 5.246)" fill="#73e6d3"/>
      <path id="Path_126" data-name="Path 126" d="M161.43,27c0-11.006,7.455-19.707,15.416-19.707a7.052,7.052,0,0,1,6.294,3.8h.135L184.52,8H190.9l-5.772,28.9h-6.5l.135-3.787h-.135a13.464,13.464,0,0,1-9.054,4.477C164.493,37.5,161.43,33.729,161.43,27Zm17.789-.269,2.07-10.249a4.493,4.493,0,0,0-3.888-2.76c-4.005,0-7.725,5.284-7.725,12.168,0,3.551,1.313,5.049,3.366,5.049S177.367,30.01,179.219,26.728Z" transform="translate(110.246 4.993)" fill="#73e6d3"/>
      <path id="Path_127" data-name="Path 127" d="M183.874,7.952h6.479L190,13.573h.236c2.238-3.652,5.5-6.328,8.835-6.328a6.143,6.143,0,0,1,3.012.572l-2.609,6.9a6.412,6.412,0,0,0-2.878-.454c-2.541,0-4.931,1.767-7.2,5.84L186.23,36.848h-7.96Z" transform="translate(121.747 4.954)" fill="#73e6d3"/>
      <path id="Path_128" data-name="Path 128" d="M212.167,9.8l1.8-9.222h7.994l-8.246,40.811h-6.5l.135-3.787h-.135a13.463,13.463,0,0,1-9.054,4.477c-5.049,0-8.145-3.77-8.145-10.586,0-11.006,7.455-19.707,15.416-19.707a6.563,6.563,0,0,1,5.907,3.517h.135ZM207.809,31.31l2.07-10.249a4.493,4.493,0,0,0-3.888-2.76c-4.005,0-7.725,5.284-7.725,12.168,0,3.551,1.313,5.049,3.366,5.049S205.856,34.592,207.809,31.31Z" transform="translate(129.771 0.41)" fill="#73e6d3"/>
    </g>
  </g>
</svg>
