<svg xmlns="http://www.w3.org/2000/svg" width="48" height="48" viewBox="0 0 48 48">
  <path id="iconmonstr-behance-2" d="M36.006,24.666H29.97A3.029,3.029,0,0,1,36.006,24.666ZM16.522,26H12v4.02h4.456C20.528,30.02,20.278,26,16.522,26Zm-.16-8H12v4h4.778C20.124,22,20.654,18,16.362,18ZM48,0V48H0V0ZM28,16H38V14H28Zm-7.1,7.236c3.814-1.948,3.674-9.1-3.626-9.208H8V33.984h8.622C25.666,33.984,25.512,24.916,20.9,23.236Zm18.974,1.2c-.548-3.526-3.058-5.9-7.166-5.9-4.19,0-6.7,2.68-6.7,7.894C26,31.7,28.736,34,32.834,34s6.212-2.27,6.8-4H35.41a3.287,3.287,0,0,1-5.534-2.706H39.994A18.024,18.024,0,0,0,39.87,24.44Z" fill="#fff"/>
</svg>
