<svg xmlns="http://www.w3.org/2000/svg" width="48" height="48" viewBox="0 0 48 48">
  <path id="dribbble-ball-mark" d="M24,0A24,24,0,1,0,48,24,24.007,24.007,0,0,0,24,0ZM39.852,11.063a20.406,20.406,0,0,1,4.633,12.755,48.4,48.4,0,0,0-14.265-.651c-.156-.338-.286-.7-.443-1.067-.416-.989-.885-2-1.354-2.967C35.974,16.061,39.41,11.636,39.852,11.063ZM24,3.54A20.453,20.453,0,0,1,37.588,8.694c-.364.521-3.462,4.659-10.751,7.393a110.671,110.671,0,0,0-7.653-12A20.847,20.847,0,0,1,24,3.54ZM15.28,5.466a129.357,129.357,0,0,1,7.6,11.844,76.878,76.878,0,0,1-18.95,2.5A20.6,20.6,0,0,1,15.28,5.466ZM3.488,24.026V23.4a74.9,74.9,0,0,0,21.059-2.915c.6,1.145,1.145,2.317,1.666,3.488-.26.078-.547.156-.807.234C14.837,27.618,9.215,36.937,8.746,37.718A20.452,20.452,0,0,1,3.488,24.026ZM24,44.512a20.357,20.357,0,0,1-12.573-4.321c.364-.755,4.529-8.772,16.087-12.807.052-.026.078-.026.13-.052a84.741,84.741,0,0,1,4.373,15.54A20.162,20.162,0,0,1,24,44.512ZM35.427,41a88.2,88.2,0,0,0-3.983-14.6A29.936,29.936,0,0,1,44.2,27.28,20.324,20.324,0,0,1,35.427,41Z" fill="#fff" fill-rule="evenodd"/>
</svg>
