<svg xmlns="http://www.w3.org/2000/svg" width="48" height="47.985" viewBox="0 0 48 47.985">
  <path id="linked_in_logo" data-name="linked in logo" d="M23.953,47.98c-6.783,0-13.566-.022-20.348.015A3.524,3.524,0,0,1,.034,45.049,4.238,4.238,0,0,1,0,44.514V3.506A3.4,3.4,0,0,1,3.451.025c2.171-.015,4.342,0,6.513,0Q27.191.021,44.418.01a3.488,3.488,0,0,1,3.425,2.441,4.05,4.05,0,0,1,.15,1.011Q48,23.989,48,44.518a3.394,3.394,0,0,1-3.425,3.459c-2.56.019-5.121,0-7.681,0Zm1.643-26.9c0-.962-.019-1.786.007-2.605.011-.4-.109-.543-.532-.539-1.961.022-3.923.026-5.884,0-.472-.007-.569.153-.569.591q.017,10.938,0,21.872c0,.449.124.6.58.591q3.055-.034,6.109,0c.46,0,.576-.142.573-.591q-.028-5.5,0-11.005a13.17,13.17,0,0,1,.187-2.272A3.579,3.579,0,0,1,28.715,23.9a6.324,6.324,0,0,1,1.553-.146,2.947,2.947,0,0,1,3.171,2.523,13.208,13.208,0,0,1,.292,2.8c.03,3.773.019,7.546,0,11.32,0,.442.12.6.584.6,2.036-.022,4.073-.019,6.109,0,.438,0,.55-.142.55-.569q-.022-6.087,0-12.173a21.267,21.267,0,0,0-.464-4.941A7.175,7.175,0,0,0,37.493,18.6a7.986,7.986,0,0,0-3.5-1.149,9.456,9.456,0,0,0-4.507.382A7.734,7.734,0,0,0,25.6,21.085Zm-18.563,8.4c0,3.653.007,7.3-.011,10.957,0,.442.142.558.565.554,2.051-.019,4.1-.015,6.15,0,.4,0,.547-.1.547-.532q-.017-11,0-22c0-.434-.157-.52-.55-.517-2.021.015-4.039.007-6.06.007-.64,0-.64,0-.64.625Q7.034,24.023,7.034,29.481Zm3.6-14.61a4.166,4.166,0,1,0-4.14-4.163A4.144,4.144,0,0,0,10.631,14.871Z" transform="translate(0 -0.01)" fill="#fff"/>
</svg>
