<svg xmlns="http://www.w3.org/2000/svg" viewBox="0 0 252.5 459.2">
  <defs>
    <style>
      .cls-1, .cls-10, .cls-11, .cls-12, .cls-13, .cls-14, .cls-15, .cls-16, .cls-17, .cls-18, .cls-19, .cls-2, .cls-20, .cls-21, .cls-22, .cls-23, .cls-24, .cls-25, .cls-26, .cls-27, .cls-28, .cls-29, .cls-3, .cls-4, .cls-5, .cls-6, .cls-7, .cls-8, .cls-9 {
        fill: none;
      }

      .cls-1, .cls-10, .cls-11, .cls-12, .cls-13, .cls-14, .cls-15, .cls-16, .cls-17, .cls-18, .cls-19, .cls-2, .cls-20, .cls-21, .cls-22, .cls-23, .cls-24, .cls-25, .cls-26, .cls-27, .cls-28, .cls-29, .cls-3, .cls-4, .cls-6, .cls-7, .cls-8, .cls-9 {
        stroke: #000;
      }

      .cls-1, .cls-10, .cls-11, .cls-12, .cls-13, .cls-14, .cls-15, .cls-16, .cls-17, .cls-18, .cls-19, .cls-2, .cls-20, .cls-21, .cls-22, .cls-23, .cls-24, .cls-25, .cls-26, .cls-27, .cls-3, .cls-4, .cls-5, .cls-6, .cls-7, .cls-8, .cls-9 {
        stroke-linecap: round;
        stroke-linejoin: round;
      }

      .cls-1 {
        stroke-width: 0.75px;
      }

      .cls-2 {
        stroke-width: 0.5px;
      }

      .cls-3 {
        stroke-width: 0.4px;
      }

      .cls-4 {
        stroke-width: 0.2px;
      }

      .cls-5 {
        stroke: #333;
      }

      .cls-10, .cls-11, .cls-12, .cls-13, .cls-14, .cls-15, .cls-16, .cls-17, .cls-18, .cls-19, .cls-20, .cls-21, .cls-22, .cls-23, .cls-24, .cls-25, .cls-26, .cls-28, .cls-5, .cls-6, .cls-7, .cls-8, .cls-9 {
        stroke-width: 0.15px;
      }

      .cls-7 {
        stroke-dasharray: 1.08 1.08;
      }

      .cls-8 {
        stroke-dasharray: 1.08 1.08;
      }

      .cls-9 {
        stroke-dasharray: 1.079 1.079;
      }

      .cls-10 {
        stroke-dasharray: 1.079 1.079;
      }

      .cls-11 {
        stroke-dasharray: 1.08 1.08;
      }

      .cls-12 {
        stroke-dasharray: 0.872 0.872;
      }

      .cls-13 {
        stroke-dasharray: 0.792 0.792;
      }

      .cls-14 {
        stroke-dasharray: 1.013 1.013;
      }

      .cls-15 {
        stroke-dasharray: 1.013 1.013;
      }

      .cls-16 {
        stroke-dasharray: 2.074 2.074;
      }

      .cls-17 {
        stroke-dasharray: 1.962 1.962;
      }

      .cls-18 {
        stroke-dasharray: 0.563;
      }

      .cls-19 {
        stroke-dasharray: 1.952 1.952;
      }

      .cls-20 {
        stroke-dasharray: 1.952 1.952;
      }

      .cls-21 {
        stroke-dasharray: 1.866 1.866;
      }

      .cls-22 {
        stroke-dasharray: 2.132 2.132;
      }

      .cls-23 {
        stroke-dasharray: 2.002 2.002;
      }

      .cls-24 {
        stroke-dasharray: 2.003 2.003;
      }

      .cls-25 {
        stroke-dasharray: 1.976 1.976;
      }

      .cls-26 {
        stroke-dasharray: 1.96 1.96;
      }

      .cls-27 {
        stroke-width: 0.25px;
      }

      .cls-28 {
        stroke-miterlimit: 10;
      }

      .cls-29 {
        stroke-linecap: square;
      }
    </style>
  </defs>
  <title>plan3</title>
  <g id="Drawings::Outline">
    <line class="cls-1" x1="169.059" y1="368.888" x2="129.079" y2="368.93"/>
    <line class="cls-1" x1="199.374" y1="89.721" x2="169.043" y2="89.721"/>
  </g>
  <g id="Drawings::over_1" data-name="Drawings::over 1">
    <line class="cls-2" x1="252.25" y1="121.484" x2="210.625" y2="121.439"/>
    <line class="cls-2" x1="210.625" y1="48.356" x2="252.25" y2="48.356"/>
    <line class="cls-2" x1="252.25" y1="369.223" x2="252.25" y2="245.644"/>
    <line class="cls-2" x1="0.25" y1="368.884" x2="0.25" y2="148.376"/>
    <line class="cls-2" x1="41.879" y1="148.376" x2="0.25" y2="148.376"/>
    <line class="cls-2" x1="0.25" y1="368.884" x2="41.875" y2="368.93"/>
    <line class="cls-2" x1="210.625" y1="245.644" x2="252.25" y2="245.644"/>
    <line class="cls-2" x1="252.25" y1="369.223" x2="210.625" y2="368.93"/>
    <line class="cls-2" x1="210.625" y1="89.721" x2="210.625" y2="48.356"/>
    <line class="cls-2" x1="199.374" y1="104.387" x2="175.413" y2="135.625"/>
    <line class="cls-2" x1="175.413" y1="135.625" x2="174.994" y2="127.822"/>
    <line class="cls-2" x1="175.632" y1="206.955" x2="169.211" y2="229.271"/>
    <line class="cls-2" x1="168.115" y1="273.714" x2="175.632" y2="206.955"/>
    <line class="cls-2" x1="210.624" y1="89.721" x2="210.624" y2="89.721"/>
    <line class="cls-2" x1="252.25" y1="121.484" x2="252.25" y2="48.356"/>
  </g>
  <g id="Drawings::over_2" data-name="Drawings::over 2">
    <line class="cls-3" x1="148.913" y1="356.207" x2="160.261" y2="348.947"/>
    <line class="cls-3" x1="43.711" y1="348.993" x2="129.047" y2="349.023"/>
    <line class="cls-3" x1="168.532" y1="270.006" x2="183.742" y2="270.006"/>
    <line class="cls-3" x1="168.95" y1="266.297" x2="185.159" y2="266.297"/>
    <line class="cls-3" x1="169.367" y1="262.588" x2="186.577" y2="262.588"/>
    <line class="cls-3" x1="169.785" y1="258.879" x2="187.995" y2="258.879"/>
    <line class="cls-3" x1="170.203" y1="255.17" x2="189.413" y2="255.17"/>
    <line class="cls-3" x1="170.62" y1="251.461" x2="190.831" y2="251.461"/>
    <line class="cls-3" x1="171.038" y1="247.753" x2="192.249" y2="247.753"/>
    <line class="cls-3" x1="171.455" y1="244.044" x2="193.666" y2="244.044"/>
    <line class="cls-3" x1="171.873" y1="240.335" x2="195.084" y2="240.335"/>
    <line class="cls-3" x1="172.291" y1="236.626" x2="196.502" y2="236.626"/>
    <line class="cls-3" x1="172.708" y1="232.917" x2="197.92" y2="232.917"/>
    <line class="cls-3" x1="173.126" y1="229.208" x2="199.338" y2="229.208"/>
    <line class="cls-3" x1="173.544" y1="225.5" x2="199.393" y2="225.5"/>
    <line class="cls-3" x1="173.961" y1="221.791" x2="199.393" y2="221.791"/>
    <line class="cls-3" x1="174.379" y1="218.082" x2="199.392" y2="218.082"/>
    <line class="cls-3" x1="174.796" y1="214.373" x2="199.392" y2="214.373"/>
    <line class="cls-3" x1="175.214" y1="210.664" x2="199.391" y2="210.664"/>
    <line class="cls-3" x1="175.632" y1="206.955" x2="199.39" y2="206.952"/>
    <line class="cls-3" x1="122.393" y1="152.761" x2="93.76" y2="152.762"/>
    <line class="cls-3" x1="122.393" y1="154.146" x2="95.627" y2="154.146"/>
    <line class="cls-3" x1="122.393" y1="155.531" x2="97.493" y2="155.531"/>
    <line class="cls-3" x1="122.393" y1="151.377" x2="91.893" y2="151.377"/>
    <line class="cls-3" x1="93.76" y1="277.965" x2="93.76" y2="213.146"/>
    <line class="cls-3" x1="95.627" y1="274.607" x2="95.627" y2="213.146"/>
    <line class="cls-3" x1="97.493" y1="271.25" x2="97.493" y2="213.146"/>
    <line class="cls-3" x1="91.893" y1="281.323" x2="91.893" y2="213.146"/>
    <line class="cls-3" x1="131.462" y1="271.25" x2="97.493" y2="271.25"/>
    <line class="cls-3" x1="131.464" y1="274.607" x2="95.627" y2="274.607"/>
    <line class="cls-3" x1="131.467" y1="277.965" x2="93.76" y2="277.965"/>
    <line class="cls-3" x1="131.469" y1="281.323" x2="91.893" y2="281.323"/>
    <line class="cls-3" x1="93.76" y1="165.331" x2="93.76" y2="152.762"/>
    <line class="cls-3" x1="95.627" y1="165.331" x2="95.627" y2="154.146"/>
    <line class="cls-3" x1="97.493" y1="165.331" x2="97.493" y2="155.531"/>
    <line class="cls-3" x1="91.893" y1="165.331" x2="91.893" y2="151.377"/>
    <line class="cls-3" x1="93.76" y1="281.323" x2="93.76" y2="281.323"/>
    <line class="cls-3" x1="93.76" y1="277.965" x2="93.76" y2="277.965"/>
    <line class="cls-3" x1="95.627" y1="277.965" x2="95.627" y2="277.965"/>
    <line class="cls-3" x1="95.627" y1="274.607" x2="95.627" y2="274.607"/>
    <line class="cls-3" x1="97.493" y1="271.25" x2="97.493" y2="271.25"/>
    <line class="cls-3" x1="91.893" y1="151.377" x2="91.893" y2="151.377"/>
    <line class="cls-3" x1="93.76" y1="152.762" x2="93.76" y2="152.762"/>
    <line class="cls-3" x1="95.627" y1="154.146" x2="95.627" y2="154.146"/>
    <line class="cls-3" x1="97.493" y1="155.531" x2="97.493" y2="155.531"/>
    <line class="cls-3" x1="55.435" y1="152.964" x2="60.797" y2="152.964"/>
    <line class="cls-3" x1="55.435" y1="143.225" x2="66.173" y2="143.219"/>
    <line class="cls-3" x1="43.732" y1="146.474" x2="54.591" y2="146.474"/>
    <line class="cls-3" x1="43.729" y1="149.716" x2="54.591" y2="149.716"/>
    <line class="cls-3" x1="43.726" y1="152.958" x2="54.591" y2="152.958"/>
    <line class="cls-3" x1="43.723" y1="156.201" x2="54.591" y2="156.201"/>
    <line class="cls-3" x1="43.721" y1="159.443" x2="54.591" y2="159.443"/>
    <line class="cls-3" x1="43.718" y1="162.686" x2="54.591" y2="162.686"/>
    <line class="cls-3" x1="43.715" y1="165.928" x2="54.591" y2="165.928"/>
    <line class="cls-3" x1="43.735" y1="143.231" x2="54.591" y2="143.225"/>
    <line class="cls-3" x1="54.591" y1="169.177" x2="43.712" y2="169.171"/>
    <line class="cls-3" x1="55.435" y1="149.721" x2="66.159" y2="149.721"/>
    <line class="cls-3" x1="55.435" y1="146.479" x2="66.161" y2="146.479"/>
    <line class="cls-3" x1="175.522" y1="160.156" x2="174.979" y2="164.134"/>
    <line class="cls-3" x1="170.225" y1="149.99" x2="172.962" y2="152.522"/>
    <line class="cls-3" x1="175.413" y1="135.625" x2="167.337" y2="131.529"/>
    <path class="cls-3" d="M237.8,256.071q0,5.907,0,11.813" transform="translate(-108.675 -94.151)"/>
    <path class="cls-3" d="M237.8,268.447q0,5.907,0,11.813" transform="translate(-108.675 -94.151)"/>
    <line class="cls-3" x1="122.4" y1="198.484" x2="122.39" y2="186.671"/>
    <polyline class="cls-3" points="122.39 186.109 122.381 175.42 122.381 174.296"/>
    <line class="cls-3" x1="122.382" y1="173.733" x2="122.389" y2="161.92"/>
    <path class="cls-3" d="M237.8,280.822q0,5.906-.006,11.813" transform="translate(-108.675 -94.151)"/>
  </g>
  <g id="Drawings::concave">
    <line class="cls-4" x1="252.25" y1="48.356" x2="252.25" y2="0.1"/>
    <line class="cls-4" x1="252.25" y1="245.644" x2="252.25" y2="121.484"/>
    <line class="cls-4" x1="252.25" y1="459.1" x2="252.25" y2="369.223"/>
    <line class="cls-4" x1="0.25" y1="148.376" x2="0.25" y2="0.1"/>
    <line class="cls-4" x1="0.25" y1="459.1" x2="0.25" y2="368.884"/>
    <polyline class="cls-4" points="41.875 89.722 41.875 0.1 0.25 0.1"/>
    <line class="cls-4" x1="0.25" y1="405.559" x2="252.25" y2="405.559"/>
    <line class="cls-4" x1="0.25" y1="459.1" x2="252.25" y2="459.1"/>
    <polyline class="cls-4" points="210.625 48.356 210.625 0.1 252.25 0.1"/>
    <line class="cls-4" x1="210.784" y1="0.1" x2="41.875" y2="0.1"/>
    <line class="cls-4" x1="175.522" y1="160.156" x2="172.962" y2="152.522"/>
    <line class="cls-4" x1="55.435" y1="156.206" x2="66.159" y2="149.721"/>
    <line class="cls-4" x1="60.797" y1="152.964" x2="60.803" y2="138.176"/>
    <line class="cls-4" x1="49.135" y1="138.171" x2="60.803" y2="138.176"/>
    <line class="cls-4" x1="49.152" y1="169.174" x2="49.135" y2="138.171"/>
    <line class="cls-4" x1="60.797" y1="152.964" x2="58.925" y2="149.721"/>
    <line class="cls-4" x1="60.797" y1="152.964" x2="62.669" y2="149.721"/>
    <line class="cls-4" x1="81.594" y1="195.592" x2="70.428" y2="188.005"/>
    <line class="cls-4" x1="70.902" y1="187.307" x2="82.068" y2="194.894"/>
    <line class="cls-4" x1="76.485" y1="191.101" x2="76.011" y2="191.798"/>
    <line class="cls-4" x1="70.428" y1="188.005" x2="70.902" y2="187.307"/>
    <line class="cls-4" x1="81.594" y1="195.592" x2="82.068" y2="194.894"/>
    <polyline class="cls-4" points="153.81 333.418 136.955 292.782 157.681 342.737 160.261 348.947"/>
    <line class="cls-4" x1="129.131" y1="90.143" x2="129.131" y2="90.143"/>
    <line class="cls-4" x1="129.131" y1="160.233" x2="172.823" y2="160.231"/>
    <path class="cls-4" d="M240.141,372.116q-1.218,1.68-2.44,3.358" transform="translate(-108.675 -94.151)"/>
    <path class="cls-4" d="M240.139,368.758q-1.218,1.68-2.438,3.358" transform="translate(-108.675 -94.151)"/>
    <path class="cls-4" d="M240.137,365.4q-1.173,1.618-2.347,3.235" transform="translate(-108.675 -94.151)"/>
    <line class="cls-4" x1="175.632" y1="206.955" x2="129.026" y2="271.25"/>
    <line class="cls-4" x1="148.854" y1="269.369" x2="167.205" y2="269.369"/>
    <line class="cls-4" x1="167.205" y1="269.369" x2="168.123" y2="273.713"/>
    <line class="cls-4" x1="151.067" y1="265.013" x2="165.039" y2="265.013"/>
    <line class="cls-4" x1="165.039" y1="265.013" x2="165.959" y2="269.368"/>
    <line class="cls-4" x1="153.279" y1="260.658" x2="162.872" y2="260.658"/>
    <line class="cls-4" x1="162.872" y1="260.658" x2="163.793" y2="265.012"/>
    <line class="cls-4" x1="155.49" y1="256.302" x2="160.706" y2="256.302"/>
    <line class="cls-4" x1="160.706" y1="256.302" x2="161.626" y2="260.657"/>
    <line class="cls-4" x1="157.702" y1="251.946" x2="158.539" y2="251.946"/>
    <line class="cls-4" x1="158.539" y1="251.946" x2="159.46" y2="256.301"/>
    <line class="cls-4" x1="199.37" y1="89.718" x2="169.026" y2="129.276"/>
    <line class="cls-4" x1="199.374" y1="90.636" x2="169.904" y2="129.056"/>
    <line class="cls-4" x1="181.163" y1="113.453" x2="181.61" y2="113.795"/>
    <line class="cls-4" x1="187.232" y1="105.541" x2="187.678" y2="105.883"/>
    <line class="cls-4" x1="193.301" y1="97.629" x2="193.747" y2="97.972"/>
    <line class="cls-4" x1="175.095" y1="121.365" x2="175.541" y2="121.707"/>
    <line class="cls-4" x1="112.023" y1="368.978" x2="112.024" y2="368.133"/>
    <line class="cls-4" x1="94.945" y1="368.966" x2="94.945" y2="368.121"/>
    <line class="cls-4" x1="77.867" y1="368.954" x2="77.867" y2="368.109"/>
    <line class="cls-4" x1="60.789" y1="368.942" x2="60.789" y2="368.097"/>
    <line class="cls-4" x1="43.712" y1="368.087" x2="129.095" y2="368.14"/>
    <polyline class="cls-4" points="129.101 368.989 129.053 368.99 128.957 368.989 43.711 368.93"/>
    <line class="cls-4" x1="160.261" y1="348.947" x2="169.066" y2="343.313"/>
    <line class="cls-4" x1="129.131" y1="89.722" x2="129.131" y2="89.722"/>
    <polyline class="cls-4" points="169.066 343.313 168.612 342.602 169.067 342.309"/>
    <polyline class="cls-4" points="149.246 355.993 148.792 355.282 148.592 355.433"/>
    <line class="cls-4" x1="148.944" y1="355.52" x2="168.763" y2="342.839"/>
    <line class="cls-4" x1="112.137" y1="89.722" x2="112.137" y2="90.143"/>
    <line class="cls-4" x1="95.143" y1="89.722" x2="95.143" y2="90.143"/>
    <line class="cls-4" x1="78.149" y1="89.722" x2="78.149" y2="90.143"/>
    <line class="cls-4" x1="61.155" y1="89.722" x2="61.155" y2="90.143"/>
    <line class="cls-4" x1="129.131" y1="89.722" x2="44.16" y2="89.722"/>
    <line class="cls-4" x1="44.16" y1="89.721" x2="44.16" y2="90.143"/>
    <line class="cls-4" x1="41.875" y1="90.143" x2="129.131" y2="90.143"/>
    <line class="cls-4" x1="44.16" y1="89.722" x2="41.875" y2="89.722"/>
    <line class="cls-4" x1="41.875" y1="89.722" x2="41.875" y2="90.143"/>
  </g>
  <g id="Drawings::furniture">
    <line class="cls-5" x1="173.778" y1="126.618" x2="174.375" y2="126.021"/>
    <line class="cls-5" x1="173.778" y1="126.319" x2="174.077" y2="126.021"/>
    <line class="cls-5" x1="174.077" y1="126.618" x2="174.375" y2="126.319"/>
    <line class="cls-5" x1="197.828" y1="104.107" x2="198.425" y2="103.511"/>
    <line class="cls-5" x1="197.828" y1="103.809" x2="198.127" y2="103.511"/>
    <line class="cls-5" x1="198.127" y1="104.107" x2="198.425" y2="103.809"/>
    <path class="cls-5" d="M269.279,206.5H267.7c-.239,0-.338-.1-.338-.337v-3.847c0-.239.1-.338.338-.338h1.579" transform="translate(-108.675 -94.151)"/>
    <rect class="cls-5" x="160.605" y="104.766" width="6.75" height="10.125"/>
    <rect class="cls-5" x="273.996" y="200.675" width="0.336" height="6.188" transform="translate(-109.882 -92.516) rotate(-0.341)"/>
    <rect class="cls-5" x="274.332" y="203.367" width="0.603" height="0.798" transform="translate(-109.886 -92.509) rotate(-0.342)"/>
    <polyline class="cls-5" points="165.327 110.539 165.15 110.54 165.139 108.7 165.316 108.699"/>
    <polyline class="cls-5" points="165.652 108.697 166.382 108.692 166.393 110.533 165.663 110.537"/>
    <polyline class="cls-5" points="165.652 98.572 166.382 98.567 166.393 100.408 165.663 100.412"/>
    <polyline class="cls-5" points="165.327 100.414 165.15 100.415 165.139 98.575 165.316 98.574"/>
    <rect class="cls-5" x="274.332" y="193.242" width="0.603" height="0.798" transform="translate(-109.825 -92.509) rotate(-0.342)"/>
    <rect class="cls-5" x="273.996" y="190.55" width="0.336" height="6.188" transform="translate(-109.822 -92.516) rotate(-0.341)"/>
    <rect class="cls-5" x="160.605" y="94.641" width="6.75" height="10.125"/>
    <path class="cls-5" d="M269.279,196.376H267.7c-.239,0-.338-.1-.338-.338v-3.847c0-.239.1-.338.338-.338h1.579" transform="translate(-108.675 -94.151)"/>
    <polyline class="cls-5" points="165.643 118.822 166.373 118.817 166.384 120.658 165.654 120.662"/>
    <polyline class="cls-5" points="165.318 120.664 165.141 120.665 165.13 118.825 165.307 118.824"/>
    <rect class="cls-5" x="274.324" y="213.492" width="0.603" height="0.798" transform="translate(-109.946 -92.509) rotate(-0.342)"/>
    <rect class="cls-5" x="273.988" y="210.8" width="0.336" height="6.188" transform="translate(-109.943 -92.516) rotate(-0.341)"/>
    <rect class="cls-5" x="160.596" y="114.891" width="6.75" height="10.125"/>
    <path class="cls-5" d="M269.271,216.626h-1.579c-.239,0-.338-.1-.338-.338v-3.847c0-.239.1-.338.338-.338h1.579" transform="translate(-108.675 -94.151)"/>
    <path class="cls-5" d="M246.221,237.12H247.8c.239,0,.338-.1.338-.338v-3.847c0-.239-.1-.337-.338-.337h-1.579" transform="translate(-108.675 -94.151)"/>
    <rect class="cls-5" x="130.796" y="135.385" width="6.75" height="10.125"/>
    <rect class="cls-5" x="238.243" y="234.22" width="6.188" height="0.336" transform="translate(-103.158 380.174) rotate(-89.659)"/>
    <rect class="cls-5" x="240.467" y="234.083" width="0.799" height="0.603" transform="translate(-103.626 379.698) rotate(-89.658)"/>
    <polyline class="cls-5" points="132.824 141.158 133.001 141.159 133.012 139.319 132.835 139.317"/>
    <polyline class="cls-5" points="132.499 139.315 131.769 139.311 131.758 141.151 132.488 141.156"/>
    <polyline class="cls-5" points="132.499 129.19 131.769 129.186 131.758 131.026 132.488 131.031"/>
    <polyline class="cls-5" points="132.824 131.033 133.001 131.034 133.012 129.194 132.835 129.192"/>
    <rect class="cls-5" x="240.467" y="223.958" width="0.799" height="0.603" transform="translate(-93.501 369.633) rotate(-89.658)"/>
    <rect class="cls-5" x="238.243" y="224.095" width="6.188" height="0.336" transform="translate(-93.033 370.109) rotate(-89.659)"/>
    <rect class="cls-5" x="130.796" y="125.26" width="6.75" height="10.125"/>
    <path class="cls-5" d="M246.221,227H247.8c.239,0,.338-.1.338-.338v-3.847c0-.239-.1-.338-.338-.338h-1.579" transform="translate(-108.675 -94.151)"/>
    <polyline class="cls-5" points="132.499 119.065 131.769 119.061 131.758 120.901 132.488 120.906"/>
    <polyline class="cls-5" points="132.824 120.908 133.001 120.909 133.012 119.069 132.835 119.067"/>
    <rect class="cls-5" x="240.467" y="213.833" width="0.799" height="0.603" transform="translate(-83.376 359.569) rotate(-89.658)"/>
    <rect class="cls-5" x="238.243" y="213.97" width="6.188" height="0.336" transform="translate(-82.908 360.045) rotate(-89.659)"/>
    <rect class="cls-5" x="130.796" y="115.135" width="6.75" height="10.125"/>
    <path class="cls-5" d="M246.221,216.87H247.8c.239,0,.338-.1.338-.338v-3.847c0-.239-.1-.337-.338-.337h-1.579" transform="translate(-108.675 -94.151)"/>
    <polyline class="cls-5" points="132.499 108.94 131.769 108.936 131.758 110.776 132.488 110.781"/>
    <polyline class="cls-5" points="132.824 110.783 133.001 110.784 133.012 108.944 132.835 108.942"/>
    <rect class="cls-5" x="240.467" y="203.708" width="0.799" height="0.603" transform="translate(-73.252 349.504) rotate(-89.658)"/>
    <rect class="cls-5" x="238.243" y="203.845" width="6.188" height="0.336" transform="translate(-72.784 349.98) rotate(-89.659)"/>
    <rect class="cls-5" x="130.796" y="105.01" width="6.75" height="10.125"/>
    <path class="cls-5" d="M246.221,206.745H247.8c.239,0,.338-.1.338-.338v-3.847c0-.239-.1-.338-.338-.338h-1.579" transform="translate(-108.675 -94.151)"/>
    <path class="cls-5" d="M246.221,196.62H247.8c.239,0,.338-.1.338-.338v-3.847c0-.239-.1-.338-.338-.338h-1.579" transform="translate(-108.675 -94.151)"/>
    <rect class="cls-5" x="130.796" y="94.885" width="6.75" height="10.125"/>
    <rect class="cls-5" x="238.243" y="193.72" width="6.188" height="0.336" transform="translate(-62.659 339.915) rotate(-89.659)"/>
    <rect class="cls-5" x="240.467" y="193.583" width="0.799" height="0.603" transform="translate(-63.127 339.439) rotate(-89.658)"/>
    <polyline class="cls-5" points="132.824 100.658 133.001 100.659 133.012 98.819 132.835 98.817"/>
    <polyline class="cls-5" points="132.499 98.815 131.769 98.811 131.758 100.651 132.488 100.656"/>
    <rect class="cls-5" x="106.841" y="249.064" width="10.414" height="13.5"/>
    <path class="cls-5" d="M227.765,354.792c.191,0,.337-.023.336-.253" transform="translate(-108.675 -94.151)"/>
    <path class="cls-5" d="M228.089,351.668c0-.231-.148-.251-.339-.25" transform="translate(-108.675 -94.151)"/>
    <line class="cls-5" x1="119.426" y1="260.388" x2="119.414" y2="257.517"/>
    <line class="cls-5" x1="118.518" y1="260.644" x2="118.503" y2="257.269"/>
    <line class="cls-5" x1="119.075" y1="257.266" x2="117.256" y2="257.274"/>
    <line class="cls-5" x1="117.256" y1="260.649" x2="119.09" y2="260.641"/>
    <path class="cls-5" d="M227.765,348.6c.191,0,.337-.023.336-.253" transform="translate(-108.675 -94.151)"/>
    <path class="cls-5" d="M228.089,345.48c0-.231-.148-.251-.339-.25" transform="translate(-108.675 -94.151)"/>
    <line class="cls-5" x1="119.426" y1="254.2" x2="119.414" y2="251.329"/>
    <line class="cls-5" x1="118.518" y1="254.456" x2="118.503" y2="251.081"/>
    <line class="cls-5" x1="119.075" y1="251.079" x2="117.256" y2="251.086"/>
    <line class="cls-5" x1="117.256" y1="254.461" x2="119.09" y2="254.454"/>
    <line class="cls-5" x1="106.841" y1="254.461" x2="105.007" y2="254.454"/>
    <line class="cls-5" x1="105.021" y1="251.079" x2="106.841" y2="251.086"/>
    <line class="cls-5" x1="105.579" y1="254.456" x2="105.593" y2="251.081"/>
    <line class="cls-5" x1="104.67" y1="254.2" x2="104.683" y2="251.329"/>
    <path class="cls-5" d="M213.358,345.48c0-.231.148-.251.339-.25" transform="translate(-108.675 -94.151)"/>
    <path class="cls-5" d="M213.682,348.6c-.191,0-.337-.023-.336-.253" transform="translate(-108.675 -94.151)"/>
    <line class="cls-5" x1="106.841" y1="260.649" x2="105.007" y2="260.641"/>
    <line class="cls-5" x1="105.021" y1="257.266" x2="106.841" y2="257.274"/>
    <line class="cls-5" x1="105.579" y1="260.644" x2="105.593" y2="257.269"/>
    <line class="cls-5" x1="104.67" y1="260.388" x2="104.683" y2="257.517"/>
    <path class="cls-5" d="M213.358,351.668c0-.231.148-.251.339-.25" transform="translate(-108.675 -94.151)"/>
    <path class="cls-5" d="M213.682,354.792c-.191,0-.337-.023-.336-.253" transform="translate(-108.675 -94.151)"/>
    <path class="cls-5" d="M213.682,331.515c-.191,0-.337-.023-.336-.253" transform="translate(-108.675 -94.151)"/>
    <path class="cls-5" d="M213.358,328.391c0-.231.148-.251.339-.25" transform="translate(-108.675 -94.151)"/>
    <line class="cls-5" x1="104.67" y1="237.111" x2="104.683" y2="234.24"/>
    <line class="cls-5" x1="105.579" y1="237.367" x2="105.593" y2="233.992"/>
    <line class="cls-5" x1="105.021" y1="233.989" x2="106.841" y2="233.997"/>
    <line class="cls-5" x1="106.841" y1="237.372" x2="105.007" y2="237.364"/>
    <path class="cls-5" d="M213.682,325.328c-.191,0-.337-.023-.336-.253" transform="translate(-108.675 -94.151)"/>
    <path class="cls-5" d="M213.358,322.2c0-.231.148-.251.339-.25" transform="translate(-108.675 -94.151)"/>
    <line class="cls-5" x1="104.67" y1="230.923" x2="104.683" y2="228.052"/>
    <line class="cls-5" x1="105.579" y1="231.179" x2="105.593" y2="227.804"/>
    <line class="cls-5" x1="105.021" y1="227.802" x2="106.841" y2="227.81"/>
    <line class="cls-5" x1="106.841" y1="231.185" x2="105.007" y2="231.177"/>
    <line class="cls-5" x1="117.256" y1="231.185" x2="119.09" y2="231.177"/>
    <line class="cls-5" x1="119.075" y1="227.802" x2="117.256" y2="227.81"/>
    <line class="cls-5" x1="118.518" y1="231.179" x2="118.503" y2="227.804"/>
    <line class="cls-5" x1="119.426" y1="230.923" x2="119.414" y2="228.052"/>
    <path class="cls-5" d="M228.089,322.2c0-.231-.148-.251-.339-.25" transform="translate(-108.675 -94.151)"/>
    <path class="cls-5" d="M227.765,325.328c.191,0,.337-.023.336-.253" transform="translate(-108.675 -94.151)"/>
    <line class="cls-5" x1="117.256" y1="237.372" x2="119.09" y2="237.364"/>
    <line class="cls-5" x1="119.075" y1="233.989" x2="117.256" y2="233.997"/>
    <line class="cls-5" x1="118.518" y1="237.367" x2="118.503" y2="233.992"/>
    <line class="cls-5" x1="119.426" y1="237.111" x2="119.414" y2="234.24"/>
    <path class="cls-5" d="M228.089,328.391c0-.231-.148-.251-.339-.25" transform="translate(-108.675 -94.151)"/>
    <path class="cls-5" d="M227.765,331.515c.191,0,.337-.023.336-.253" transform="translate(-108.675 -94.151)"/>
    <rect class="cls-5" x="106.841" y="225.787" width="10.414" height="13.5"/>
    <path class="cls-5" d="M245.822,259.233c0,.119.049.169.169.169" transform="translate(-108.675 -94.151)"/>
    <path class="cls-5" d="M245.822,259.233c0,.119-.049.169-.169.169" transform="translate(-108.675 -94.151)"/>
    <line class="cls-5" x1="132.686" y1="165.251" x2="136.979" y2="165.251"/>
    <path class="cls-5" d="M241.192,259.233c0,.119.049.169.169.169" transform="translate(-108.675 -94.151)"/>
    <path class="cls-5" d="M241.192,259.233c0,.119-.049.169-.169.169" transform="translate(-108.675 -94.151)"/>
    <line class="cls-5" x1="131.251" y1="165.251" x2="132.348" y2="165.251"/>
    <path class="cls-5" d="M239.926,259.4c-.119,0-.169-.049-.169-.169" transform="translate(-108.675 -94.151)"/>
    <line class="cls-5" x1="137.316" y1="165.251" x2="138.621" y2="165.251"/>
    <path class="cls-5" d="M247.3,259.4c.119,0,.169-.049.169-.169" transform="translate(-108.675 -94.151)"/>
    <line class="cls-5" x1="137.147" y1="165.082" x2="137.147" y2="162.163"/>
    <path class="cls-5" d="M245.822,256.314c0-.477-.2-.675-.675-.675" transform="translate(-108.675 -94.151)"/>
    <line class="cls-5" x1="136.472" y1="161.488" x2="133.192" y2="161.488"/>
    <line class="cls-5" x1="132.517" y1="162.163" x2="132.517" y2="165.082"/>
    <path class="cls-5" d="M241.867,255.639c-.477,0-.675.2-.675.675" transform="translate(-108.675 -94.151)"/>
    <line class="cls-5" x1="138.79" y1="165.082" x2="138.79" y2="160.908"/>
    <path class="cls-5" d="M247.465,255.059c0-.477-.2-.675-.675-.675" transform="translate(-108.675 -94.151)"/>
    <line class="cls-5" x1="131.082" y1="160.908" x2="131.082" y2="165.082"/>
    <line class="cls-5" x1="138.115" y1="160.233" x2="131.757" y2="160.233"/>
    <path class="cls-5" d="M239.757,255.059c0-.477.2-.675.675-.675" transform="translate(-108.675 -94.151)"/>
    <path class="cls-5" d="M260.287,259.233c0,.119.049.169.169.169" transform="translate(-108.675 -94.151)"/>
    <path class="cls-5" d="M260.287,259.233c0,.119-.049.169-.169.169" transform="translate(-108.675 -94.151)"/>
    <line class="cls-5" x1="147.151" y1="165.251" x2="151.444" y2="165.251"/>
    <path class="cls-5" d="M255.657,259.233c0,.119.049.169.169.169" transform="translate(-108.675 -94.151)"/>
    <path class="cls-5" d="M255.657,259.233c0,.119-.049.169-.169.169" transform="translate(-108.675 -94.151)"/>
    <line class="cls-5" x1="145.716" y1="165.251" x2="146.813" y2="165.251"/>
    <path class="cls-5" d="M254.391,259.4c-.119,0-.169-.049-.169-.169" transform="translate(-108.675 -94.151)"/>
    <line class="cls-5" x1="151.781" y1="165.251" x2="153.086" y2="165.251"/>
    <path class="cls-5" d="M261.761,259.4c.119,0,.169-.049.169-.169" transform="translate(-108.675 -94.151)"/>
    <line class="cls-5" x1="151.612" y1="165.082" x2="151.612" y2="162.163"/>
    <path class="cls-5" d="M260.287,256.314c0-.477-.2-.675-.675-.675" transform="translate(-108.675 -94.151)"/>
    <line class="cls-5" x1="150.937" y1="161.488" x2="147.657" y2="161.488"/>
    <line class="cls-5" x1="146.982" y1="162.163" x2="146.982" y2="165.082"/>
    <path class="cls-5" d="M256.332,255.639c-.477,0-.675.2-.675.675" transform="translate(-108.675 -94.151)"/>
    <line class="cls-5" x1="153.255" y1="165.082" x2="153.255" y2="160.908"/>
    <path class="cls-5" d="M261.93,255.059c0-.477-.2-.675-.675-.675" transform="translate(-108.675 -94.151)"/>
    <line class="cls-5" x1="145.547" y1="160.908" x2="145.547" y2="165.082"/>
    <line class="cls-5" x1="152.58" y1="160.233" x2="146.222" y2="160.233"/>
    <path class="cls-5" d="M254.222,255.059c0-.477.2-.675.675-.675" transform="translate(-108.675 -94.151)"/>
    <path class="cls-5" d="M268.742,255.059c0-.477.2-.675.675-.675" transform="translate(-108.675 -94.151)"/>
    <line class="cls-5" x1="167.1" y1="160.233" x2="160.742" y2="160.233"/>
    <line class="cls-5" x1="160.067" y1="160.908" x2="160.067" y2="165.082"/>
    <path class="cls-5" d="M276.45,255.059c0-.477-.2-.675-.675-.675" transform="translate(-108.675 -94.151)"/>
    <line class="cls-5" x1="167.775" y1="165.082" x2="167.775" y2="160.908"/>
    <path class="cls-5" d="M270.852,255.639c-.477,0-.675.2-.675.675" transform="translate(-108.675 -94.151)"/>
    <line class="cls-5" x1="161.502" y1="162.163" x2="161.502" y2="165.082"/>
    <line class="cls-5" x1="165.457" y1="161.488" x2="162.177" y2="161.488"/>
    <path class="cls-5" d="M274.807,256.314c0-.477-.2-.675-.675-.675" transform="translate(-108.675 -94.151)"/>
    <line class="cls-5" x1="166.132" y1="165.082" x2="166.132" y2="162.163"/>
    <path class="cls-5" d="M276.281,259.4c.119,0,.169-.049.169-.169" transform="translate(-108.675 -94.151)"/>
    <line class="cls-5" x1="166.301" y1="165.251" x2="167.606" y2="165.251"/>
    <path class="cls-5" d="M268.911,259.4c-.119,0-.169-.049-.169-.169" transform="translate(-108.675 -94.151)"/>
    <line class="cls-5" x1="160.236" y1="165.251" x2="161.333" y2="165.251"/>
    <path class="cls-5" d="M270.177,259.233c0,.119-.049.169-.169.169" transform="translate(-108.675 -94.151)"/>
    <path class="cls-5" d="M270.177,259.233c0,.119.049.169.169.169" transform="translate(-108.675 -94.151)"/>
    <line class="cls-5" x1="161.671" y1="165.251" x2="165.963" y2="165.251"/>
    <path class="cls-5" d="M274.807,259.233c0,.119-.049.169-.169.169" transform="translate(-108.675 -94.151)"/>
    <path class="cls-5" d="M274.807,259.233c0,.119.049.169.169.169" transform="translate(-108.675 -94.151)"/>
    <circle class="cls-5" cx="156.65" cy="162.764" r="2.531"/>
    <circle class="cls-5" cx="142.212" cy="162.764" r="2.531"/>
  </g>
  <g id="Drawings::dash_under" data-name="Drawings::dash under">
    <g>
      <line class="cls-6" x1="55.435" y1="156.206" x2="55.935" y2="156.206"/>
      <line class="cls-7" x1="57.015" y1="156.206" x2="65.113" y2="156.206"/>
      <line class="cls-6" x1="65.653" y1="156.206" x2="66.153" y2="156.206"/>
    </g>
    <g>
      <line class="cls-6" x1="55.435" y1="159.449" x2="55.935" y2="159.449"/>
      <line class="cls-8" x1="57.014" y1="159.449" x2="65.111" y2="159.449"/>
      <line class="cls-6" x1="65.65" y1="159.449" x2="66.15" y2="159.449"/>
    </g>
    <g>
      <line class="cls-6" x1="55.435" y1="162.691" x2="55.935" y2="162.691"/>
      <line class="cls-9" x1="57.014" y1="162.691" x2="65.108" y2="162.691"/>
      <line class="cls-6" x1="65.648" y1="162.691" x2="66.148" y2="162.691"/>
    </g>
    <g>
      <line class="cls-6" x1="55.435" y1="165.934" x2="55.935" y2="165.934"/>
      <line class="cls-10" x1="57.014" y1="165.934" x2="65.105" y2="165.934"/>
      <line class="cls-6" x1="65.645" y1="165.934" x2="66.145" y2="165.934"/>
    </g>
    <g>
      <line class="cls-6" x1="66.151" y1="169.183" x2="65.651" y2="169.183"/>
      <line class="cls-11" x1="64.572" y1="169.182" x2="56.475" y2="169.178"/>
      <line class="cls-6" x1="55.935" y1="169.177" x2="55.435" y2="169.177"/>
    </g>
    <g>
      <line class="cls-6" x1="60.797" y1="152.964" x2="61.297" y2="152.964"/>
      <line class="cls-12" x1="62.168" y1="152.964" x2="65.22" y2="152.964"/>
      <line class="cls-6" x1="65.656" y1="152.964" x2="66.156" y2="152.964"/>
    </g>
    <g>
      <line class="cls-6" x1="54.454" y1="349.008" x2="54.454" y2="349.508"/>
      <line class="cls-13" x1="54.454" y1="350.3" x2="54.454" y2="351.487"/>
      <polyline class="cls-6" points="54.454 351.883 54.454 352.383 54.954 352.383"/>
      <line class="cls-14" x1="55.967" y1="352.383" x2="63.565" y2="352.383"/>
      <polyline class="cls-6" points="64.071 352.383 64.571 352.383 64.571 351.883"/>
      <line class="cls-13" x1="64.571" y1="351.091" x2="64.571" y2="349.904"/>
      <line class="cls-6" x1="64.571" y1="349.508" x2="64.571" y2="349.008"/>
    </g>
    <g>
      <line class="cls-6" x1="65.197" y1="349.023" x2="65.197" y2="349.523"/>
      <line class="cls-13" x1="65.197" y1="350.315" x2="65.197" y2="351.503"/>
      <polyline class="cls-6" points="65.197 351.898 65.197 352.398 65.697 352.398"/>
      <line class="cls-14" x1="66.71" y1="352.398" x2="74.308" y2="352.398"/>
      <polyline class="cls-6" points="74.814 352.398 75.314 352.398 75.314 351.898"/>
      <line class="cls-13" x1="75.314" y1="351.107" x2="75.314" y2="349.919"/>
      <line class="cls-6" x1="75.314" y1="349.523" x2="75.314" y2="349.023"/>
    </g>
    <g>
      <line class="cls-6" x1="75.939" y1="349.039" x2="75.939" y2="349.539"/>
      <line class="cls-13" x1="75.939" y1="350.33" x2="75.939" y2="351.518"/>
      <polyline class="cls-6" points="75.939 351.914 75.939 352.414 76.439 352.414"/>
      <line class="cls-14" x1="77.452" y1="352.414" x2="85.05" y2="352.414"/>
      <polyline class="cls-6" points="85.557 352.414 86.057 352.414 86.057 351.914"/>
      <line class="cls-13" x1="86.057" y1="351.122" x2="86.057" y2="349.935"/>
      <line class="cls-6" x1="86.057" y1="349.539" x2="86.057" y2="349.039"/>
    </g>
    <g>
      <line class="cls-6" x1="86.682" y1="349.054" x2="86.682" y2="349.554"/>
      <line class="cls-13" x1="86.682" y1="350.346" x2="86.682" y2="351.533"/>
      <polyline class="cls-6" points="86.682 351.929 86.682 352.429 87.182 352.429"/>
      <line class="cls-14" x1="88.195" y1="352.429" x2="95.793" y2="352.429"/>
      <polyline class="cls-6" points="96.3 352.429 96.8 352.429 96.8 351.929"/>
      <line class="cls-13" x1="96.8" y1="351.138" x2="96.8" y2="349.95"/>
      <line class="cls-6" x1="96.8" y1="349.554" x2="96.8" y2="349.054"/>
    </g>
    <g>
      <line class="cls-6" x1="97.425" y1="349.07" x2="97.425" y2="349.57"/>
      <line class="cls-13" x1="97.425" y1="350.361" x2="97.425" y2="351.549"/>
      <polyline class="cls-6" points="97.425 351.945 97.425 352.445 97.925 352.445"/>
      <line class="cls-15" x1="98.938" y1="352.445" x2="106.536" y2="352.445"/>
      <polyline class="cls-6" points="107.043 352.445 107.543 352.445 107.543 351.945"/>
      <line class="cls-13" x1="107.543" y1="351.153" x2="107.543" y2="349.965"/>
      <line class="cls-6" x1="107.543" y1="349.57" x2="107.543" y2="349.07"/>
    </g>
    <g>
      <line class="cls-6" x1="108.168" y1="349.085" x2="108.168" y2="349.585"/>
      <line class="cls-13" x1="108.168" y1="350.377" x2="108.168" y2="351.564"/>
      <polyline class="cls-6" points="108.168 351.96 108.168 352.46 108.668 352.46"/>
      <line class="cls-15" x1="109.681" y1="352.46" x2="117.279" y2="352.46"/>
      <polyline class="cls-6" points="117.785 352.46 118.285 352.46 118.285 351.96"/>
      <line class="cls-13" x1="118.285" y1="351.168" x2="118.285" y2="349.981"/>
      <line class="cls-6" x1="118.285" y1="349.585" x2="118.285" y2="349.085"/>
    </g>
    <g>
      <line class="cls-6" x1="43.711" y1="352.368" x2="44.211" y2="352.368"/>
      <line class="cls-14" x1="45.224" y1="352.368" x2="52.822" y2="352.368"/>
      <line class="cls-6" x1="53.329" y1="352.368" x2="53.829" y2="352.368"/>
    </g>
    <g>
      <line class="cls-6" x1="53.829" y1="352.368" x2="53.829" y2="351.868"/>
      <line class="cls-13" x1="53.829" y1="351.076" x2="53.829" y2="349.889"/>
      <line class="cls-6" x1="53.829" y1="349.493" x2="53.829" y2="348.993"/>
    </g>
    <g>
      <line class="cls-6" x1="118.911" y1="349.1" x2="118.911" y2="349.6"/>
      <line class="cls-13" x1="118.911" y1="350.392" x2="118.911" y2="351.579"/>
      <line class="cls-6" x1="118.911" y1="351.975" x2="118.911" y2="352.475"/>
    </g>
    <g>
      <line class="cls-6" x1="118.911" y1="352.475" x2="119.411" y2="352.475"/>
      <line class="cls-15" x1="120.424" y1="352.475" x2="128.022" y2="352.475"/>
      <line class="cls-6" x1="128.528" y1="352.475" x2="129.028" y2="352.475"/>
    </g>
  </g>
  <g id="Drawings::dash_over" data-name="Drawings::dash over">
    <g>
      <line class="cls-6" x1="125.214" y1="202.637" x2="125.214" y2="203.637"/>
      <line class="cls-16" x1="125.214" y1="205.711" x2="125.214" y2="208.822"/>
      <polyline class="cls-6" points="125.214 209.859 125.214 210.859 124.214 210.859"/>
      <line class="cls-6" x1="123.405" y1="210.86" x2="122.405" y2="210.86"/>
    </g>
    <g>
      <line class="cls-6" x1="122.411" y1="211.422" x2="123.411" y2="211.422"/>
      <polyline class="cls-6" points="124.224 211.422 125.224 211.422 125.224 212.422"/>
      <line class="cls-17" x1="125.224" y1="214.385" x2="125.224" y2="221.253"/>
      <polyline class="cls-6" points="125.224 222.235 125.224 223.235 124.224 223.235"/>
      <line class="cls-6" x1="123.415" y1="223.235" x2="122.415" y2="223.235"/>
    </g>
    <g>
      <line class="cls-6" x1="122.421" y1="223.798" x2="123.421" y2="223.798"/>
      <polyline class="cls-6" points="124.234 223.798 125.234 223.798 125.234 224.798"/>
      <line class="cls-17" x1="125.234" y1="226.76" x2="125.234" y2="233.629"/>
      <polyline class="cls-6" points="125.234 234.61 125.234 235.61 124.234 235.61"/>
      <line class="cls-6" x1="123.425" y1="235.611" x2="122.425" y2="235.611"/>
    </g>
    <g>
      <line class="cls-6" x1="122.431" y1="236.173" x2="123.431" y2="236.173"/>
      <polyline class="cls-6" points="124.243 236.173 125.243 236.173 125.243 237.173"/>
      <line class="cls-17" x1="125.243" y1="239.136" x2="125.243" y2="246.004"/>
      <polyline class="cls-6" points="125.243 246.986 125.243 247.986 124.243 247.986"/>
      <line class="cls-6" x1="123.434" y1="247.986" x2="122.434" y2="247.986"/>
    </g>
    <g>
      <line class="cls-6" x1="122.441" y1="248.549" x2="123.441" y2="248.549"/>
      <polyline class="cls-6" points="124.253 248.549 125.253 248.549 125.253 249.549"/>
      <line class="cls-17" x1="125.253" y1="251.511" x2="125.253" y2="258.38"/>
      <polyline class="cls-6" points="125.253 259.361 125.253 260.361 124.253 260.361"/>
      <line class="cls-6" x1="123.444" y1="260.362" x2="122.444" y2="260.362"/>
    </g>
    <g>
      <line class="cls-6" x1="122.45" y1="260.924" x2="123.45" y2="260.924"/>
      <polyline class="cls-6" points="124.263 260.924 125.263 260.924 125.263 261.924"/>
      <line class="cls-17" x1="125.263" y1="263.887" x2="125.263" y2="270.755"/>
      <polyline class="cls-6" points="125.263 271.737 125.263 272.737 124.263 272.737"/>
      <line class="cls-6" x1="123.454" y1="272.737" x2="122.454" y2="272.737"/>
    </g>
    <g>
      <line class="cls-6" x1="129.069" y1="260.924" x2="128.069" y2="260.924"/>
      <polyline class="cls-6" points="127.256 260.924 126.256 260.924 126.256 261.924"/>
      <line class="cls-17" x1="126.256" y1="263.887" x2="126.256" y2="270.755"/>
      <polyline class="cls-6" points="126.256 271.737 126.256 272.737 127.256 272.737"/>
      <line class="cls-6" x1="128.065" y1="272.737" x2="129.065" y2="272.737"/>
    </g>
    <g>
      <line class="cls-6" x1="129.079" y1="248.549" x2="128.079" y2="248.549"/>
      <polyline class="cls-6" points="127.266 248.549 126.266 248.549 126.266 249.549"/>
      <line class="cls-17" x1="126.266" y1="251.511" x2="126.266" y2="258.38"/>
      <polyline class="cls-6" points="126.266 259.361 126.266 260.361 127.266 260.361"/>
      <line class="cls-6" x1="128.075" y1="260.362" x2="129.075" y2="260.362"/>
    </g>
    <g>
      <line class="cls-6" x1="129.088" y1="236.173" x2="128.088" y2="236.173"/>
      <polyline class="cls-6" points="127.276 236.173 126.276 236.173 126.276 237.173"/>
      <line class="cls-17" x1="126.276" y1="239.136" x2="126.276" y2="246.004"/>
      <polyline class="cls-6" points="126.276 246.986 126.276 247.986 127.276 247.986"/>
      <line class="cls-6" x1="128.085" y1="247.986" x2="129.085" y2="247.986"/>
    </g>
    <g>
      <line class="cls-6" x1="129.098" y1="223.798" x2="128.098" y2="223.798"/>
      <polyline class="cls-6" points="127.286 223.798 126.286 223.798 126.286 224.798"/>
      <line class="cls-17" x1="126.286" y1="226.76" x2="126.286" y2="233.629"/>
      <polyline class="cls-6" points="126.286 234.61 126.286 235.61 127.286 235.61"/>
      <line class="cls-6" x1="128.095" y1="235.611" x2="129.095" y2="235.611"/>
    </g>
    <g>
      <line class="cls-6" x1="129.108" y1="211.422" x2="128.108" y2="211.422"/>
      <polyline class="cls-6" points="127.296 211.422 126.296 211.422 126.296 212.422"/>
      <line class="cls-17" x1="126.296" y1="214.385" x2="126.296" y2="221.253"/>
      <polyline class="cls-6" points="126.296 222.235 126.296 223.235 127.296 223.235"/>
      <line class="cls-6" x1="128.104" y1="223.235" x2="129.104" y2="223.235"/>
    </g>
    <g>
      <line class="cls-6" x1="126.305" y1="202.637" x2="126.305" y2="203.637"/>
      <line class="cls-16" x1="126.305" y1="205.711" x2="126.305" y2="208.822"/>
      <polyline class="cls-6" points="126.305 209.859 126.305 210.859 127.305 210.859"/>
      <line class="cls-6" x1="128.114" y1="210.86" x2="129.114" y2="210.86"/>
    </g>
    <line class="cls-18" x1="129.118" y1="198.484" x2="129.118" y2="199.047"/>
    <g>
      <line class="cls-6" x1="122.404" y1="202.637" x2="122.404" y2="203.637"/>
      <line class="cls-19" x1="122.404" y1="205.589" x2="122.404" y2="282.704"/>
      <line class="cls-6" x1="122.404" y1="283.68" x2="122.404" y2="284.68"/>
    </g>
    <g>
      <line class="cls-6" x1="129.116" y1="202.637" x2="129.114" y2="203.637"/>
      <line class="cls-20" x1="129.112" y1="205.589" x2="129.022" y2="282.704"/>
      <line class="cls-6" x1="129.02" y1="283.68" x2="129.019" y2="284.68"/>
    </g>
    <line class="cls-6" x1="54.954" y1="169.177" x2="54.948" y2="169.177"/>
    <g>
      <line class="cls-6" x1="75.944" y1="213.081" x2="75.639" y2="212.128"/>
      <line class="cls-21" x1="75.07" y1="210.351" x2="67.393" y2="186.362"/>
      <line class="cls-6" x1="67.108" y1="185.474" x2="66.804" y2="184.522"/>
    </g>
    <g>
      <line class="cls-6" x1="56.555" y1="199.905" x2="57.552" y2="199.831"/>
      <line class="cls-22" x1="59.678" y1="199.672" x2="84.132" y2="197.851"/>
      <line class="cls-6" x1="85.195" y1="197.771" x2="86.193" y2="197.697"/>
    </g>
    <g>
      <line class="cls-6" x1="43.712" y1="368.088" x2="44.531" y2="367.514"/>
      <line class="cls-23" x1="46.171" y1="366.366" x2="127.376" y2="309.527"/>
      <line class="cls-6" x1="128.196" y1="308.953" x2="129.016" y2="308.38"/>
    </g>
    <g>
      <line class="cls-6" x1="85.584" y1="221.698" x2="85.309" y2="222.66"/>
      <line class="cls-24" x1="84.758" y1="224.586" x2="44.262" y2="366.163"/>
      <line class="cls-6" x1="43.987" y1="367.126" x2="43.712" y2="368.088"/>
    </g>
    <g>
      <line class="cls-6" x1="85.584" y1="308.42" x2="85.243" y2="307.48"/>
      <line class="cls-25" x1="84.567" y1="305.623" x2="44.396" y2="195.112"/>
      <line class="cls-6" x1="44.058" y1="194.183" x2="43.716" y2="193.243"/>
    </g>
    <g>
      <line class="cls-6" x1="129.079" y1="368.93" x2="128.495" y2="368.118"/>
      <line class="cls-26" x1="127.351" y1="366.527" x2="86.74" y2="310.028"/>
      <line class="cls-6" x1="86.168" y1="309.232" x2="85.584" y2="308.42"/>
    </g>
  </g>
  <g id="Drawings::wall_hatch" data-name="Drawings::wall hatch">
    <line class="cls-27" x1="145.297" y1="358.52" x2="148.531" y2="355.285"/>
    <line class="cls-27" x1="136.433" y1="364.202" x2="147.598" y2="353.036"/>
    <line class="cls-27" x1="129.077" y1="368.375" x2="146.665" y2="350.787"/>
    <line class="cls-27" x1="129.07" y1="365.2" x2="145.732" y2="348.539"/>
    <line class="cls-27" x1="129.064" y1="362.025" x2="144.799" y2="346.29"/>
    <line class="cls-27" x1="129.058" y1="358.849" x2="143.865" y2="344.041"/>
    <line class="cls-27" x1="129.052" y1="355.673" x2="142.932" y2="341.793"/>
    <line class="cls-27" x1="129.047" y1="352.496" x2="141.998" y2="339.545"/>
    <line class="cls-27" x1="129.043" y1="349.318" x2="141.064" y2="337.297"/>
    <line class="cls-27" x1="129.038" y1="346.14" x2="140.13" y2="335.049"/>
    <line class="cls-27" x1="129.035" y1="342.962" x2="139.195" y2="332.802"/>
    <line class="cls-27" x1="129.031" y1="339.783" x2="138.26" y2="330.554"/>
    <line class="cls-27" x1="129.029" y1="336.604" x2="137.325" y2="328.307"/>
    <line class="cls-27" x1="129.026" y1="333.425" x2="136.39" y2="326.061"/>
    <line class="cls-27" x1="129.024" y1="330.245" x2="135.455" y2="323.814"/>
    <line class="cls-27" x1="129.022" y1="327.065" x2="134.519" y2="321.568"/>
    <line class="cls-27" x1="129.021" y1="323.884" x2="133.583" y2="319.322"/>
    <line class="cls-27" x1="129.019" y1="320.704" x2="132.647" y2="317.076"/>
    <line class="cls-27" x1="129.018" y1="317.523" x2="131.71" y2="314.831"/>
    <line class="cls-27" x1="129.017" y1="314.342" x2="130.773" y2="312.586"/>
    <line class="cls-27" x1="129.016" y1="311.161" x2="129.835" y2="310.342"/>
    <line class="cls-27" x1="208.073" y1="368.929" x2="210.625" y2="366.377"/>
    <line class="cls-27" x1="204.892" y1="368.928" x2="210.625" y2="363.195"/>
    <line class="cls-27" x1="201.712" y1="368.926" x2="210.625" y2="360.013"/>
    <line class="cls-27" x1="198.531" y1="368.925" x2="210.625" y2="356.831"/>
    <line class="cls-27" x1="195.351" y1="368.923" x2="210.625" y2="353.649"/>
    <line class="cls-27" x1="192.171" y1="368.922" x2="210.625" y2="350.467"/>
    <line class="cls-27" x1="188.99" y1="368.92" x2="210.625" y2="347.285"/>
    <line class="cls-27" x1="185.81" y1="368.919" x2="210.625" y2="344.103"/>
    <line class="cls-27" x1="182.629" y1="368.917" x2="210.625" y2="340.921"/>
    <line class="cls-27" x1="179.449" y1="368.916" x2="210.625" y2="337.739"/>
    <line class="cls-27" x1="176.268" y1="368.914" x2="210.625" y2="334.557"/>
    <line class="cls-27" x1="173.088" y1="368.913" x2="210.625" y2="331.375"/>
    <line class="cls-27" x1="169.907" y1="368.911" x2="210.625" y2="328.193"/>
    <line class="cls-27" x1="169.072" y1="366.565" x2="210.625" y2="325.011"/>
    <line class="cls-27" x1="169.07" y1="363.384" x2="210.625" y2="321.829"/>
    <line class="cls-27" x1="169.069" y1="360.203" x2="210.625" y2="318.647"/>
    <line class="cls-27" x1="169.068" y1="357.022" x2="210.625" y2="315.465"/>
    <line class="cls-27" x1="169.068" y1="353.841" x2="210.625" y2="312.283"/>
    <line class="cls-27" x1="169.067" y1="350.659" x2="210.625" y2="309.101"/>
    <line class="cls-27" x1="169.067" y1="347.478" x2="210.625" y2="305.919"/>
    <line class="cls-27" x1="169.067" y1="344.296" x2="210.625" y2="302.737"/>
    <line class="cls-27" x1="169.066" y1="341.114" x2="210.625" y2="299.555"/>
    <line class="cls-27" x1="169.067" y1="337.932" x2="210.625" y2="296.374"/>
    <line class="cls-27" x1="169.067" y1="334.75" x2="210.625" y2="293.192"/>
    <line class="cls-27" x1="169.067" y1="331.568" x2="210.625" y2="290.01"/>
    <line class="cls-27" x1="169.067" y1="328.385" x2="210.625" y2="286.828"/>
    <line class="cls-27" x1="169.068" y1="325.203" x2="210.625" y2="283.646"/>
    <line class="cls-27" x1="169.068" y1="322.02" x2="210.625" y2="280.464"/>
    <line class="cls-27" x1="169.069" y1="318.838" x2="210.625" y2="277.282"/>
    <line class="cls-27" x1="169.069" y1="315.655" x2="210.625" y2="274.1"/>
    <line class="cls-27" x1="169.07" y1="312.473" x2="210.625" y2="270.918"/>
    <line class="cls-27" x1="169.071" y1="309.29" x2="210.625" y2="267.736"/>
    <line class="cls-27" x1="170.479" y1="304.7" x2="210.625" y2="264.554"/>
    <line class="cls-27" x1="172.448" y1="299.549" x2="210.625" y2="261.372"/>
    <line class="cls-27" x1="174.417" y1="294.398" x2="210.625" y2="258.19"/>
    <line class="cls-27" x1="176.386" y1="289.247" x2="210.625" y2="255.008"/>
    <line class="cls-27" x1="178.355" y1="284.095" x2="210.625" y2="251.826"/>
    <line class="cls-27" x1="180.325" y1="278.944" x2="210.625" y2="248.644"/>
    <line class="cls-27" x1="182.294" y1="273.793" x2="210.625" y2="245.462"/>
    <line class="cls-27" x1="184.263" y1="268.642" x2="210.625" y2="242.28"/>
    <line class="cls-27" x1="186.232" y1="263.491" x2="210.625" y2="239.098"/>
    <line class="cls-27" x1="188.201" y1="258.34" x2="210.625" y2="235.916"/>
    <line class="cls-27" x1="190.171" y1="253.188" x2="210.625" y2="232.734"/>
    <line class="cls-27" x1="192.14" y1="248.037" x2="210.625" y2="229.552"/>
    <line class="cls-27" x1="194.109" y1="242.886" x2="210.625" y2="226.37"/>
    <line class="cls-27" x1="196.078" y1="237.735" x2="210.625" y2="223.188"/>
    <line class="cls-27" x1="198.047" y1="232.584" x2="210.625" y2="220.006"/>
    <line class="cls-27" x1="199.393" y1="228.056" x2="210.625" y2="216.824"/>
    <line class="cls-27" x1="199.393" y1="224.874" x2="210.625" y2="213.642"/>
    <line class="cls-27" x1="199.393" y1="221.692" x2="210.625" y2="210.46"/>
    <line class="cls-27" x1="199.392" y1="218.511" x2="210.625" y2="207.278"/>
    <line class="cls-27" x1="199.392" y1="215.329" x2="210.625" y2="204.096"/>
    <line class="cls-27" x1="199.391" y1="212.148" x2="210.625" y2="200.914"/>
    <line class="cls-27" x1="199.391" y1="208.966" x2="210.625" y2="197.732"/>
    <line class="cls-27" x1="199.39" y1="205.785" x2="210.625" y2="194.55"/>
    <line class="cls-27" x1="199.39" y1="202.603" x2="210.625" y2="191.368"/>
    <line class="cls-27" x1="199.389" y1="199.422" x2="210.625" y2="188.187"/>
    <line class="cls-27" x1="199.389" y1="196.24" x2="210.625" y2="185.005"/>
    <line class="cls-27" x1="199.388" y1="193.059" x2="210.625" y2="181.823"/>
    <line class="cls-27" x1="199.388" y1="189.877" x2="210.625" y2="178.641"/>
    <line class="cls-27" x1="199.388" y1="186.696" x2="210.625" y2="175.459"/>
    <line class="cls-27" x1="199.387" y1="183.514" x2="210.625" y2="172.277"/>
    <line class="cls-27" x1="199.387" y1="180.333" x2="210.625" y2="169.095"/>
    <line class="cls-27" x1="199.386" y1="177.151" x2="210.625" y2="165.913"/>
    <line class="cls-27" x1="199.386" y1="173.97" x2="210.625" y2="162.731"/>
    <line class="cls-27" x1="199.385" y1="170.788" x2="210.625" y2="159.549"/>
    <line class="cls-27" x1="199.385" y1="167.606" x2="210.625" y2="156.367"/>
    <line class="cls-27" x1="199.384" y1="164.425" x2="210.625" y2="153.185"/>
    <line class="cls-27" x1="199.384" y1="161.243" x2="210.625" y2="150.003"/>
    <line class="cls-27" x1="199.383" y1="158.062" x2="210.624" y2="146.821"/>
    <line class="cls-27" x1="199.383" y1="154.88" x2="210.624" y2="143.639"/>
    <line class="cls-27" x1="199.383" y1="151.699" x2="210.624" y2="140.457"/>
    <line class="cls-27" x1="199.382" y1="148.517" x2="210.624" y2="137.275"/>
    <line class="cls-27" x1="199.382" y1="145.336" x2="210.624" y2="134.093"/>
    <line class="cls-27" x1="199.381" y1="142.155" x2="210.624" y2="130.911"/>
    <line class="cls-27" x1="199.381" y1="138.973" x2="210.624" y2="127.729"/>
    <line class="cls-27" x1="199.38" y1="135.792" x2="210.624" y2="124.547"/>
    <line class="cls-27" x1="199.379" y1="132.61" x2="210.624" y2="121.365"/>
    <line class="cls-27" x1="199.379" y1="129.429" x2="210.624" y2="118.183"/>
    <line class="cls-27" x1="199.378" y1="126.247" x2="210.624" y2="115.001"/>
    <line class="cls-27" x1="199.378" y1="123.066" x2="210.624" y2="111.819"/>
    <line class="cls-27" x1="199.377" y1="119.884" x2="210.624" y2="108.637"/>
    <line class="cls-27" x1="199.377" y1="116.703" x2="210.624" y2="105.455"/>
    <line class="cls-27" x1="199.376" y1="113.522" x2="210.624" y2="102.273"/>
    <line class="cls-27" x1="199.376" y1="110.34" x2="210.624" y2="99.091"/>
    <line class="cls-27" x1="199.375" y1="107.159" x2="210.624" y2="95.909"/>
    <line class="cls-27" x1="199.374" y1="103.977" x2="210.624" y2="92.727"/>
    <line class="cls-27" x1="199.374" y1="100.796" x2="210.449" y2="89.721"/>
    <line class="cls-27" x1="199.373" y1="97.614" x2="207.267" y2="89.721"/>
    <line class="cls-27" x1="199.373" y1="94.432" x2="204.085" y2="89.721"/>
    <line class="cls-27" x1="199.374" y1="91.25" x2="200.903" y2="89.721"/>
    <line class="cls-27" x1="128.615" y1="308.38" x2="129.431" y2="307.564"/>
    <line class="cls-27" x1="125.43" y1="308.383" x2="132.727" y2="301.086"/>
    <line class="cls-27" x1="122.245" y1="308.385" x2="136.022" y2="294.609"/>
    <line class="cls-27" x1="119.06" y1="308.389" x2="139.315" y2="288.134"/>
    <line class="cls-27" x1="115.875" y1="308.392" x2="142.606" y2="281.661"/>
    <line class="cls-27" x1="112.689" y1="308.396" x2="145.896" y2="275.189"/>
    <line class="cls-27" x1="109.503" y1="308.4" x2="149.183" y2="268.72"/>
    <line class="cls-27" x1="106.318" y1="308.403" x2="152.469" y2="262.252"/>
    <line class="cls-27" x1="42.609" y1="368.93" x2="43.711" y2="367.828"/>
    <line class="cls-27" x1="103.132" y1="308.407" x2="126.859" y2="284.68"/>
    <line class="cls-27" x1="134.774" y1="276.765" x2="155.753" y2="255.786"/>
    <line class="cls-27" x1="41.875" y1="366.482" x2="43.711" y2="364.646"/>
    <line class="cls-27" x1="99.947" y1="308.41" x2="123.677" y2="284.68"/>
    <line class="cls-27" x1="143.173" y1="265.184" x2="159.035" y2="249.322"/>
    <line class="cls-27" x1="41.875" y1="363.3" x2="43.711" y2="361.464"/>
    <line class="cls-27" x1="96.762" y1="308.413" x2="120.495" y2="284.68"/>
    <line class="cls-27" x1="151.569" y1="253.606" x2="162.315" y2="242.86"/>
    <line class="cls-27" x1="41.875" y1="360.118" x2="43.712" y2="358.282"/>
    <line class="cls-27" x1="93.577" y1="308.416" x2="117.313" y2="284.68"/>
    <line class="cls-27" x1="159.959" y1="242.034" x2="165.594" y2="236.399"/>
    <line class="cls-27" x1="41.875" y1="356.936" x2="43.712" y2="355.099"/>
    <line class="cls-27" x1="90.393" y1="308.418" x2="114.131" y2="284.68"/>
    <line class="cls-27" x1="168.343" y1="230.468" x2="168.871" y2="229.94"/>
    <line class="cls-27" x1="41.875" y1="353.754" x2="43.712" y2="351.917"/>
    <line class="cls-27" x1="87.209" y1="308.42" x2="110.949" y2="284.68"/>
    <line class="cls-27" x1="41.875" y1="350.572" x2="43.712" y2="348.735"/>
    <line class="cls-27" x1="85.584" y1="306.863" x2="107.767" y2="284.68"/>
    <line class="cls-27" x1="41.875" y1="347.39" x2="43.713" y2="345.553"/>
    <line class="cls-27" x1="85.584" y1="303.681" x2="104.585" y2="284.68"/>
    <line class="cls-27" x1="41.875" y1="344.208" x2="43.713" y2="342.37"/>
    <line class="cls-27" x1="85.584" y1="300.499" x2="101.403" y2="284.68"/>
    <line class="cls-27" x1="41.875" y1="341.026" x2="43.713" y2="339.188"/>
    <line class="cls-27" x1="85.584" y1="297.317" x2="98.221" y2="284.68"/>
    <line class="cls-27" x1="41.875" y1="337.844" x2="43.713" y2="336.006"/>
    <line class="cls-27" x1="85.584" y1="294.136" x2="95.039" y2="284.68"/>
    <line class="cls-27" x1="41.875" y1="334.662" x2="43.713" y2="332.824"/>
    <line class="cls-27" x1="85.584" y1="290.954" x2="91.857" y2="284.68"/>
    <line class="cls-27" x1="41.875" y1="331.48" x2="43.714" y2="329.642"/>
    <line class="cls-27" x1="85.584" y1="287.772" x2="90.026" y2="283.329"/>
    <line class="cls-27" x1="41.875" y1="328.298" x2="43.714" y2="326.46"/>
    <line class="cls-27" x1="85.584" y1="284.59" x2="90.027" y2="280.147"/>
    <line class="cls-27" x1="41.875" y1="325.116" x2="43.714" y2="323.277"/>
    <line class="cls-27" x1="85.584" y1="281.408" x2="90.027" y2="276.964"/>
    <line class="cls-27" x1="41.875" y1="321.934" x2="43.714" y2="320.095"/>
    <line class="cls-27" x1="85.584" y1="278.226" x2="90.027" y2="273.782"/>
    <line class="cls-27" x1="41.875" y1="318.752" x2="43.714" y2="316.913"/>
    <line class="cls-27" x1="85.584" y1="275.044" x2="90.028" y2="270.6"/>
    <line class="cls-27" x1="41.875" y1="315.57" x2="43.714" y2="313.731"/>
    <line class="cls-27" x1="85.584" y1="271.862" x2="90.028" y2="267.417"/>
    <line class="cls-27" x1="41.875" y1="312.388" x2="43.715" y2="310.549"/>
    <line class="cls-27" x1="85.584" y1="268.68" x2="90.028" y2="264.235"/>
    <line class="cls-27" x1="41.875" y1="309.206" x2="43.715" y2="307.367"/>
    <line class="cls-27" x1="85.584" y1="265.498" x2="90.029" y2="261.053"/>
    <line class="cls-27" x1="41.875" y1="306.024" x2="43.715" y2="304.185"/>
    <line class="cls-27" x1="85.584" y1="262.316" x2="90.029" y2="257.87"/>
    <line class="cls-27" x1="41.875" y1="302.842" x2="43.715" y2="301.003"/>
    <line class="cls-27" x1="85.584" y1="259.134" x2="90.029" y2="254.688"/>
    <line class="cls-27" x1="41.875" y1="299.66" x2="43.715" y2="297.821"/>
    <line class="cls-27" x1="85.584" y1="255.952" x2="90.03" y2="251.506"/>
    <line class="cls-27" x1="41.875" y1="296.478" x2="43.715" y2="294.638"/>
    <line class="cls-27" x1="85.584" y1="252.77" x2="90.03" y2="248.323"/>
    <line class="cls-27" x1="174.709" y1="163.645" x2="174.784" y2="163.57"/>
    <line class="cls-27" x1="41.875" y1="293.296" x2="43.715" y2="291.456"/>
    <line class="cls-27" x1="85.584" y1="249.588" x2="90.03" y2="245.141"/>
    <line class="cls-27" x1="173.577" y1="161.595" x2="173.984" y2="161.188"/>
    <line class="cls-27" x1="41.875" y1="290.114" x2="43.715" y2="288.274"/>
    <line class="cls-27" x1="85.584" y1="246.406" x2="90.031" y2="241.959"/>
    <line class="cls-27" x1="172.444" y1="159.545" x2="173.184" y2="158.805"/>
    <line class="cls-27" x1="41.875" y1="286.932" x2="43.715" y2="285.092"/>
    <line class="cls-27" x1="85.584" y1="243.224" x2="90.031" y2="238.776"/>
    <line class="cls-27" x1="126.17" y1="202.637" x2="129.118" y2="199.689"/>
    <line class="cls-27" x1="171.312" y1="157.496" x2="172.384" y2="156.423"/>
    <line class="cls-27" x1="41.875" y1="283.75" x2="43.715" y2="281.91"/>
    <line class="cls-27" x1="85.584" y1="240.042" x2="90.031" y2="235.594"/>
    <line class="cls-27" x1="122.988" y1="202.637" x2="127.142" y2="198.484"/>
    <line class="cls-27" x1="170.179" y1="155.446" x2="171.585" y2="154.041"/>
    <line class="cls-27" x1="41.875" y1="280.568" x2="43.715" y2="278.728"/>
    <line class="cls-27" x1="85.584" y1="236.859" x2="90.032" y2="232.412"/>
    <line class="cls-27" x1="122.4" y1="200.044" x2="123.96" y2="198.484"/>
    <line class="cls-27" x1="125.204" y1="197.239" x2="126.315" y2="196.129"/>
    <line class="cls-27" x1="168.911" y1="153.533" x2="170.785" y2="151.659"/>
    <line class="cls-27" x1="41.875" y1="277.386" x2="43.715" y2="275.546"/>
    <line class="cls-27" x1="85.584" y1="233.677" x2="90.032" y2="229.23"/>
    <line class="cls-27" x1="125.204" y1="194.057" x2="126.315" y2="192.947"/>
    <line class="cls-27" x1="165.728" y1="153.533" x2="169.272" y2="149.99"/>
    <line class="cls-27" x1="41.875" y1="274.204" x2="43.716" y2="272.364"/>
    <line class="cls-27" x1="85.584" y1="230.495" x2="90.032" y2="226.047"/>
    <line class="cls-27" x1="125.204" y1="190.876" x2="126.315" y2="189.765"/>
    <line class="cls-27" x1="162.546" y1="153.534" x2="166.09" y2="149.99"/>
    <line class="cls-27" x1="41.875" y1="271.022" x2="43.716" y2="269.182"/>
    <line class="cls-27" x1="85.584" y1="227.313" x2="90.033" y2="222.865"/>
    <line class="cls-27" x1="125.204" y1="187.694" x2="126.789" y2="186.108"/>
    <line class="cls-27" x1="159.364" y1="153.534" x2="162.907" y2="149.99"/>
    <line class="cls-27" x1="41.875" y1="267.84" x2="43.716" y2="266"/>
    <line class="cls-27" x1="85.584" y1="224.131" x2="90.033" y2="219.683"/>
    <line class="cls-27" x1="96.569" y1="213.146" x2="97.5" y2="212.215"/>
    <line class="cls-27" x1="123.044" y1="186.671" x2="123.607" y2="186.109"/>
    <line class="cls-27" x1="125.202" y1="184.513" x2="126.317" y2="183.399"/>
    <line class="cls-27" x1="156.182" y1="153.534" x2="159.725" y2="149.99"/>
    <line class="cls-27" x1="41.875" y1="264.658" x2="43.716" y2="262.818"/>
    <line class="cls-27" x1="85.14" y1="221.394" x2="90.034" y2="216.5"/>
    <line class="cls-27" x1="93.387" y1="213.147" x2="97.498" y2="209.036"/>
    <line class="cls-27" x1="125.202" y1="181.331" x2="126.317" y2="180.217"/>
    <line class="cls-27" x1="153" y1="153.534" x2="156.543" y2="149.99"/>
    <line class="cls-27" x1="41.875" y1="261.476" x2="43.716" y2="259.636"/>
    <line class="cls-27" x1="83.246" y1="220.106" x2="90.034" y2="213.318"/>
    <line class="cls-27" x1="90.206" y1="213.146" x2="97.495" y2="205.857"/>
    <line class="cls-27" x1="125.202" y1="178.149" x2="126.317" y2="177.035"/>
    <line class="cls-27" x1="129.056" y1="174.296" x2="129.128" y2="174.224"/>
    <line class="cls-27" x1="149.817" y1="153.534" x2="153.361" y2="149.991"/>
    <line class="cls-27" x1="41.875" y1="258.295" x2="43.716" y2="256.454"/>
    <line class="cls-27" x1="81.351" y1="218.818" x2="97.079" y2="203.091"/>
    <line class="cls-27" x1="125.202" y1="174.967" x2="126.437" y2="173.733"/>
    <line class="cls-27" x1="146.635" y1="153.534" x2="150.179" y2="149.991"/>
    <line class="cls-27" x1="169.863" y1="130.306" x2="171.512" y2="128.658"/>
    <line class="cls-27" x1="41.875" y1="255.113" x2="43.716" y2="253.272"/>
    <line class="cls-27" x1="79.457" y1="217.531" x2="95.186" y2="201.802"/>
    <line class="cls-27" x1="122.692" y1="174.296" x2="123.255" y2="173.733"/>
    <line class="cls-27" x1="125.201" y1="171.787" x2="126.318" y2="170.669"/>
    <line class="cls-27" x1="143.453" y1="153.534" x2="146.997" y2="149.991"/>
    <line class="cls-27" x1="167.338" y1="129.65" x2="169.026" y2="127.961"/>
    <line class="cls-27" x1="41.875" y1="251.931" x2="43.716" y2="250.09"/>
    <line class="cls-27" x1="77.563" y1="216.243" x2="93.293" y2="200.513"/>
    <line class="cls-27" x1="125.201" y1="168.605" x2="126.318" y2="167.487"/>
    <line class="cls-27" x1="140.271" y1="153.535" x2="143.815" y2="149.991"/>
    <line class="cls-27" x1="167.34" y1="126.466" x2="169.028" y2="124.778"/>
    <line class="cls-27" x1="41.875" y1="248.749" x2="43.716" y2="246.908"/>
    <line class="cls-27" x1="75.669" y1="214.955" x2="91.4" y2="199.224"/>
    <line class="cls-27" x1="125.201" y1="165.423" x2="126.318" y2="164.305"/>
    <line class="cls-27" x1="128.704" y1="161.92" x2="129.13" y2="161.494"/>
    <line class="cls-27" x1="137.089" y1="153.535" x2="140.633" y2="149.991"/>
    <line class="cls-27" x1="167.341" y1="123.283" x2="169.029" y2="121.595"/>
    <line class="cls-27" x1="41.875" y1="245.567" x2="43.716" y2="243.726"/>
    <line class="cls-27" x1="73.774" y1="213.667" x2="75.001" y2="212.44"/>
    <line class="cls-27" x1="79.102" y1="208.34" x2="89.507" y2="197.935"/>
    <line class="cls-27" x1="125.201" y1="162.241" x2="129.129" y2="158.313"/>
    <line class="cls-27" x1="133.907" y1="153.535" x2="137.451" y2="149.991"/>
    <line class="cls-27" x1="167.342" y1="120.1" x2="169.031" y2="118.411"/>
    <line class="cls-27" x1="41.875" y1="242.385" x2="43.716" y2="240.544"/>
    <line class="cls-27" x1="71.88" y1="212.38" x2="73.107" y2="211.153"/>
    <line class="cls-27" x1="85.453" y1="198.806" x2="87.614" y2="196.646"/>
    <line class="cls-27" x1="122.389" y1="161.871" x2="129.129" y2="155.131"/>
    <line class="cls-27" x1="130.725" y1="153.535" x2="134.269" y2="149.991"/>
    <line class="cls-27" x1="167.344" y1="116.916" x2="169.032" y2="115.228"/>
    <line class="cls-27" x1="41.875" y1="239.203" x2="43.716" y2="237.362"/>
    <line class="cls-27" x1="69.986" y1="211.092" x2="71.212" y2="209.866"/>
    <line class="cls-27" x1="84.518" y1="196.559" x2="85.721" y2="195.357"/>
    <line class="cls-27" x1="122.391" y1="158.687" x2="131.086" y2="149.991"/>
    <line class="cls-27" x1="167.345" y1="113.733" x2="169.033" y2="112.045"/>
    <line class="cls-27" x1="41.875" y1="236.021" x2="43.716" y2="234.18"/>
    <line class="cls-27" x1="68.091" y1="209.805" x2="69.318" y2="208.578"/>
    <line class="cls-27" x1="82.624" y1="195.272" x2="83.828" y2="194.068"/>
    <line class="cls-27" x1="122.393" y1="155.503" x2="130.748" y2="147.147"/>
    <line class="cls-27" x1="167.346" y1="110.55" x2="169.035" y2="108.861"/>
    <line class="cls-27" x1="41.875" y1="232.839" x2="43.716" y2="230.998"/>
    <line class="cls-27" x1="66.197" y1="208.517" x2="67.423" y2="207.291"/>
    <line class="cls-27" x1="122.393" y1="152.321" x2="130.751" y2="143.963"/>
    <line class="cls-27" x1="167.348" y1="107.366" x2="169.036" y2="105.678"/>
    <line class="cls-27" x1="41.875" y1="229.657" x2="43.716" y2="227.816"/>
    <line class="cls-27" x1="64.302" y1="207.23" x2="65.529" y2="206.003"/>
    <line class="cls-27" x1="121.54" y1="149.992" x2="130.754" y2="140.778"/>
    <line class="cls-27" x1="167.349" y1="104.183" x2="169.037" y2="102.495"/>
    <line class="cls-27" x1="41.875" y1="226.475" x2="43.716" y2="224.634"/>
    <line class="cls-27" x1="62.408" y1="205.942" x2="63.634" y2="204.716"/>
    <line class="cls-27" x1="118.358" y1="149.992" x2="130.757" y2="137.593"/>
    <line class="cls-27" x1="167.35" y1="100.999" x2="169.039" y2="99.311"/>
    <line class="cls-27" x1="41.875" y1="223.293" x2="43.716" y2="221.452"/>
    <line class="cls-27" x1="60.513" y1="204.655" x2="61.74" y2="203.428"/>
    <line class="cls-27" x1="95.985" y1="169.183" x2="97.493" y2="167.675"/>
    <line class="cls-27" x1="115.176" y1="149.992" x2="130.759" y2="134.409"/>
    <line class="cls-27" x1="167.352" y1="97.816" x2="169.04" y2="96.128"/>
    <line class="cls-27" x1="41.875" y1="220.111" x2="43.716" y2="218.271"/>
    <line class="cls-27" x1="58.618" y1="203.368" x2="59.845" y2="202.141"/>
    <line class="cls-27" x1="92.803" y1="169.183" x2="96.655" y2="165.331"/>
    <line class="cls-27" x1="111.994" y1="149.992" x2="130.762" y2="131.224"/>
    <line class="cls-27" x1="167.353" y1="94.633" x2="169.041" y2="92.945"/>
    <line class="cls-27" x1="41.875" y1="216.929" x2="43.715" y2="215.089"/>
    <line class="cls-27" x1="56.724" y1="202.08" x2="57.951" y2="200.854"/>
    <line class="cls-27" x1="89.621" y1="169.183" x2="93.473" y2="165.331"/>
    <line class="cls-27" x1="108.812" y1="149.992" x2="130.765" y2="128.039"/>
    <line class="cls-27" x1="167.355" y1="91.449" x2="169.043" y2="89.761"/>
    <line class="cls-27" x1="41.875" y1="213.747" x2="43.715" y2="211.907"/>
    <line class="cls-27" x1="54.829" y1="200.793" x2="58.227" y2="197.395"/>
    <line class="cls-27" x1="69.362" y1="186.26" x2="70.578" y2="185.044"/>
    <line class="cls-27" x1="86.439" y1="169.183" x2="90.291" y2="165.332"/>
    <line class="cls-27" x1="105.63" y1="149.992" x2="126.368" y2="129.254"/>
    <line class="cls-27" x1="129.079" y1="126.543" x2="130.768" y2="124.854"/>
    <line class="cls-27" x1="164.215" y1="91.407" x2="165.902" y2="89.72"/>
    <line class="cls-27" x1="41.875" y1="210.565" x2="43.715" y2="208.725"/>
    <line class="cls-27" x1="52.934" y1="199.506" x2="64.578" y2="187.862"/>
    <line class="cls-27" x1="67.467" y1="184.973" x2="68.685" y2="183.755"/>
    <line class="cls-27" x1="83.257" y1="169.183" x2="85.526" y2="166.914"/>
    <line class="cls-27" x1="85.558" y1="166.882" x2="90.026" y2="162.414"/>
    <line class="cls-27" x1="102.448" y1="149.992" x2="123.19" y2="129.25"/>
    <line class="cls-27" x1="129.081" y1="123.359" x2="130.77" y2="121.67"/>
    <line class="cls-27" x1="161.034" y1="91.406" x2="162.721" y2="89.719"/>
    <line class="cls-27" x1="41.875" y1="207.383" x2="43.715" y2="205.543"/>
    <line class="cls-27" x1="51.04" y1="198.218" x2="66.792" y2="182.466"/>
    <line class="cls-27" x1="80.075" y1="169.183" x2="84.378" y2="164.88"/>
    <line class="cls-27" x1="85.56" y1="163.698" x2="90.026" y2="159.232"/>
    <line class="cls-27" x1="99.266" y1="149.992" x2="120.011" y2="129.247"/>
    <line class="cls-27" x1="129.084" y1="120.174" x2="130.773" y2="118.485"/>
    <line class="cls-27" x1="157.853" y1="91.405" x2="159.54" y2="89.718"/>
    <line class="cls-27" x1="41.875" y1="204.201" x2="43.715" y2="202.361"/>
    <line class="cls-27" x1="49.145" y1="196.931" x2="64.899" y2="181.177"/>
    <line class="cls-27" x1="76.893" y1="169.183" x2="83.23" y2="162.846"/>
    <line class="cls-27" x1="85.562" y1="160.514" x2="90.026" y2="156.05"/>
    <line class="cls-27" x1="96.084" y1="149.992" x2="116.831" y2="129.245"/>
    <line class="cls-27" x1="129.087" y1="116.989" x2="130.776" y2="115.3"/>
    <line class="cls-27" x1="154.671" y1="91.405" x2="156.359" y2="89.717"/>
    <line class="cls-27" x1="41.875" y1="201.019" x2="43.715" y2="199.179"/>
    <line class="cls-27" x1="47.25" y1="195.644" x2="63.006" y2="179.888"/>
    <line class="cls-27" x1="73.711" y1="169.183" x2="82.082" y2="160.812"/>
    <line class="cls-27" x1="85.563" y1="157.331" x2="90.026" y2="152.868"/>
    <line class="cls-27" x1="92.902" y1="149.992" x2="113.651" y2="129.243"/>
    <line class="cls-27" x1="129.09" y1="113.804" x2="130.779" y2="112.115"/>
    <line class="cls-27" x1="151.49" y1="91.404" x2="153.177" y2="89.717"/>
    <line class="cls-27" x1="41.875" y1="197.837" x2="43.715" y2="195.997"/>
    <line class="cls-27" x1="45.355" y1="194.357" x2="60.593" y2="179.119"/>
    <line class="cls-27" x1="70.529" y1="169.183" x2="80.934" y2="158.778"/>
    <line class="cls-27" x1="85.564" y1="154.148" x2="110.471" y2="129.241"/>
    <line class="cls-27" x1="129.092" y1="110.62" x2="130.781" y2="108.931"/>
    <line class="cls-27" x1="148.308" y1="91.404" x2="149.995" y2="89.717"/>
    <line class="cls-27" x1="41.875" y1="194.655" x2="57.41" y2="179.12"/>
    <line class="cls-27" x1="67.347" y1="169.183" x2="79.786" y2="156.744"/>
    <line class="cls-27" x1="85.565" y1="150.965" x2="107.29" y2="129.24"/>
    <line class="cls-27" x1="129.095" y1="107.435" x2="130.784" y2="105.746"/>
    <line class="cls-27" x1="145.126" y1="91.405" x2="146.813" y2="89.717"/>
    <line class="cls-27" x1="41.875" y1="191.473" x2="54.226" y2="179.122"/>
    <line class="cls-27" x1="66.152" y1="167.196" x2="78.638" y2="154.71"/>
    <line class="cls-27" x1="85.565" y1="147.783" x2="104.109" y2="129.239"/>
    <line class="cls-27" x1="129.098" y1="104.25" x2="130.787" y2="102.561"/>
    <line class="cls-27" x1="141.943" y1="91.405" x2="143.631" y2="89.717"/>
    <line class="cls-27" x1="41.875" y1="188.291" x2="51.043" y2="179.123"/>
    <line class="cls-27" x1="66.154" y1="164.013" x2="77.49" y2="152.676"/>
    <line class="cls-27" x1="85.566" y1="144.6" x2="100.928" y2="129.238"/>
    <line class="cls-27" x1="129.101" y1="101.066" x2="130.79" y2="99.377"/>
    <line class="cls-27" x1="138.761" y1="91.406" x2="140.448" y2="89.718"/>
    <line class="cls-27" x1="41.875" y1="185.109" x2="47.859" y2="179.125"/>
    <line class="cls-27" x1="66.155" y1="160.829" x2="76.342" y2="150.642"/>
    <line class="cls-27" x1="85.567" y1="141.418" x2="97.747" y2="129.238"/>
    <line class="cls-27" x1="129.103" y1="97.881" x2="130.792" y2="96.192"/>
    <line class="cls-27" x1="135.578" y1="91.407" x2="137.266" y2="89.719"/>
    <line class="cls-27" x1="41.875" y1="181.927" x2="44.676" y2="179.126"/>
    <line class="cls-27" x1="66.156" y1="157.646" x2="75.194" y2="148.608"/>
    <line class="cls-27" x1="85.567" y1="138.235" x2="94.565" y2="129.237"/>
    <line class="cls-27" x1="129.106" y1="94.696" x2="130.795" y2="93.007"/>
    <line class="cls-27" x1="132.395" y1="91.408" x2="134.083" y2="89.72"/>
    <line class="cls-27" x1="41.875" y1="178.745" x2="43.709" y2="176.912"/>
    <line class="cls-27" x1="66.158" y1="154.462" x2="74.046" y2="146.574"/>
    <line class="cls-27" x1="85.568" y1="135.052" x2="91.383" y2="129.237"/>
    <line class="cls-27" x1="129.109" y1="91.511" x2="130.899" y2="89.721"/>
    <line class="cls-27" x1="41.875" y1="175.563" x2="43.71" y2="173.728"/>
    <line class="cls-27" x1="66.159" y1="151.279" x2="72.898" y2="144.54"/>
    <line class="cls-27" x1="85.569" y1="131.869" x2="88.201" y2="129.237"/>
    <line class="cls-27" x1="41.875" y1="172.381" x2="43.712" y2="170.545"/>
    <line class="cls-27" x1="66.161" y1="148.096" x2="71.75" y2="142.506"/>
    <line class="cls-27" x1="41.875" y1="169.199" x2="43.713" y2="167.361"/>
    <line class="cls-27" x1="66.162" y1="144.912" x2="70.602" y2="140.472"/>
    <line class="cls-27" x1="41.875" y1="166.017" x2="43.715" y2="164.178"/>
    <line class="cls-27" x1="66.164" y1="141.729" x2="69.454" y2="138.438"/>
    <line class="cls-27" x1="41.875" y1="162.835" x2="43.716" y2="160.994"/>
    <line class="cls-27" x1="66.165" y1="138.545" x2="68.306" y2="136.405"/>
    <line class="cls-27" x1="41.875" y1="159.653" x2="43.718" y2="157.811"/>
    <line class="cls-27" x1="65.719" y1="135.81" x2="67.158" y2="134.371"/>
    <line class="cls-27" x1="41.875" y1="156.471" x2="43.719" y2="154.627"/>
    <line class="cls-27" x1="64.557" y1="133.79" x2="66.01" y2="132.337"/>
    <line class="cls-27" x1="41.875" y1="153.289" x2="43.721" y2="151.444"/>
    <line class="cls-27" x1="62.068" y1="133.096" x2="64.862" y2="130.303"/>
    <line class="cls-27" x1="41.875" y1="150.107" x2="43.722" y2="148.26"/>
    <line class="cls-27" x1="58.885" y1="133.098" x2="63.714" y2="128.269"/>
    <line class="cls-27" x1="41.875" y1="146.925" x2="43.724" y2="145.077"/>
    <line class="cls-27" x1="55.701" y1="133.1" x2="62.566" y2="126.235"/>
    <line class="cls-27" x1="41.875" y1="143.743" x2="43.725" y2="141.893"/>
    <line class="cls-27" x1="52.517" y1="133.101" x2="61.418" y2="124.201"/>
    <line class="cls-27" x1="41.875" y1="140.561" x2="43.726" y2="138.71"/>
    <line class="cls-27" x1="49.333" y1="133.103" x2="60.27" y2="122.167"/>
    <line class="cls-27" x1="41.875" y1="137.379" x2="43.728" y2="135.527"/>
    <line class="cls-27" x1="46.15" y1="133.105" x2="59.122" y2="120.133"/>
    <line class="cls-27" x1="41.875" y1="134.197" x2="57.974" y2="118.099"/>
    <line class="cls-27" x1="41.875" y1="131.015" x2="56.826" y2="116.065"/>
    <line class="cls-27" x1="41.875" y1="127.833" x2="55.678" y2="114.031"/>
    <line class="cls-27" x1="41.875" y1="124.651" x2="54.53" y2="111.997"/>
    <line class="cls-27" x1="41.875" y1="121.469" x2="53.382" y2="109.963"/>
    <line class="cls-27" x1="41.875" y1="118.287" x2="52.234" y2="107.929"/>
    <line class="cls-27" x1="41.875" y1="115.105" x2="51.086" y2="105.895"/>
    <line class="cls-27" x1="41.875" y1="111.923" x2="49.938" y2="103.861"/>
    <line class="cls-27" x1="41.875" y1="108.741" x2="48.79" y2="101.827"/>
    <line class="cls-27" x1="41.875" y1="105.559" x2="47.642" y2="99.793"/>
    <line class="cls-27" x1="41.875" y1="102.377" x2="46.494" y2="97.759"/>
    <line class="cls-27" x1="41.875" y1="99.195" x2="45.346" y2="95.725"/>
    <line class="cls-27" x1="41.875" y1="96.013" x2="44.198" y2="93.691"/>
    <line class="cls-27" x1="41.875" y1="92.832" x2="43.05" y2="91.657"/>
  </g>
  <g id="Drawings::site_building_hatch" data-name="Drawings::site building hatch">
    <line class="cls-6" x1="0.25" y1="194.914" x2="41.875" y2="153.289"/>
    <line class="cls-6" x1="0.25" y1="201.278" x2="41.875" y2="159.653"/>
    <line class="cls-6" x1="0.25" y1="207.642" x2="41.875" y2="166.017"/>
    <line class="cls-6" x1="0.25" y1="214.006" x2="41.875" y2="172.381"/>
    <line class="cls-6" x1="251.872" y1="121.483" x2="252.25" y2="121.105"/>
    <line class="cls-6" x1="245.515" y1="121.476" x2="252.25" y2="114.741"/>
    <line class="cls-6" x1="239.158" y1="121.47" x2="252.25" y2="108.377"/>
    <line class="cls-6" x1="232.801" y1="121.463" x2="252.25" y2="102.014"/>
    <line class="cls-6" x1="226.443" y1="121.456" x2="252.25" y2="95.65"/>
    <line class="cls-6" x1="220.086" y1="121.449" x2="252.25" y2="89.286"/>
    <line class="cls-6" x1="213.729" y1="121.442" x2="252.25" y2="82.922"/>
    <line class="cls-6" x1="210.625" y1="118.183" x2="252.25" y2="76.558"/>
    <line class="cls-6" x1="210.624" y1="111.819" x2="252.25" y2="70.194"/>
    <line class="cls-6" x1="210.624" y1="105.455" x2="252.25" y2="63.83"/>
    <line class="cls-6" x1="210.624" y1="99.091" x2="252.25" y2="57.466"/>
    <line class="cls-6" x1="210.624" y1="92.727" x2="252.25" y2="51.102"/>
    <line class="cls-6" x1="210.625" y1="86.363" x2="248.631" y2="48.356"/>
    <line class="cls-6" x1="210.625" y1="79.999" x2="242.267" y2="48.356"/>
    <line class="cls-6" x1="210.625" y1="73.635" x2="235.903" y2="48.356"/>
    <line class="cls-6" x1="210.625" y1="67.271" x2="229.539" y2="48.356"/>
    <line class="cls-6" x1="210.625" y1="60.907" x2="223.175" y2="48.356"/>
    <line class="cls-6" x1="210.625" y1="54.543" x2="216.811" y2="48.356"/>
    <line class="cls-6" x1="246.007" y1="369.179" x2="252.25" y2="362.936"/>
    <line class="cls-6" x1="239.687" y1="369.134" x2="252.25" y2="356.572"/>
    <line class="cls-6" x1="233.368" y1="369.09" x2="252.25" y2="350.208"/>
    <line class="cls-6" x1="227.048" y1="369.046" x2="252.25" y2="343.844"/>
    <line class="cls-6" x1="220.729" y1="369.001" x2="252.25" y2="337.48"/>
    <line class="cls-6" x1="214.409" y1="368.957" x2="252.25" y2="331.116"/>
    <line class="cls-6" x1="210.625" y1="366.377" x2="252.25" y2="324.752"/>
    <line class="cls-6" x1="210.625" y1="360.013" x2="252.25" y2="318.388"/>
    <line class="cls-6" x1="210.625" y1="353.649" x2="252.25" y2="312.024"/>
    <line class="cls-6" x1="210.625" y1="347.285" x2="252.25" y2="305.66"/>
    <line class="cls-6" x1="210.625" y1="340.921" x2="252.25" y2="299.296"/>
    <line class="cls-6" x1="210.625" y1="334.557" x2="252.25" y2="292.932"/>
    <line class="cls-6" x1="210.625" y1="328.193" x2="252.25" y2="286.568"/>
    <line class="cls-6" x1="210.625" y1="321.829" x2="252.25" y2="280.204"/>
    <line class="cls-6" x1="210.625" y1="315.465" x2="252.25" y2="273.84"/>
    <line class="cls-6" x1="210.625" y1="309.101" x2="252.25" y2="267.476"/>
    <line class="cls-6" x1="210.625" y1="302.737" x2="252.25" y2="261.113"/>
    <line class="cls-6" x1="210.625" y1="296.374" x2="252.25" y2="254.749"/>
    <line class="cls-6" x1="210.625" y1="290.01" x2="252.25" y2="248.385"/>
    <line class="cls-6" x1="210.625" y1="283.646" x2="248.626" y2="245.644"/>
    <line class="cls-6" x1="210.625" y1="277.282" x2="242.262" y2="245.644"/>
    <line class="cls-6" x1="210.625" y1="270.918" x2="235.898" y2="245.644"/>
    <line class="cls-6" x1="210.625" y1="264.554" x2="229.535" y2="245.644"/>
    <line class="cls-6" x1="210.625" y1="258.19" x2="223.171" y2="245.644"/>
    <line class="cls-6" x1="210.625" y1="251.826" x2="216.807" y2="245.644"/>
    <line class="cls-6" x1="36.251" y1="368.924" x2="41.875" y2="363.3"/>
    <line class="cls-6" x1="29.894" y1="368.917" x2="41.875" y2="356.936"/>
    <line class="cls-6" x1="23.537" y1="368.91" x2="41.875" y2="350.572"/>
    <line class="cls-6" x1="17.18" y1="368.903" x2="41.875" y2="344.208"/>
    <line class="cls-6" x1="10.823" y1="368.896" x2="41.875" y2="337.844"/>
    <line class="cls-6" x1="4.466" y1="368.889" x2="41.875" y2="331.48"/>
    <line class="cls-6" x1="0.25" y1="366.741" x2="41.875" y2="325.116"/>
    <line class="cls-6" x1="0.25" y1="360.377" x2="41.875" y2="318.752"/>
    <line class="cls-6" x1="0.25" y1="354.014" x2="41.875" y2="312.388"/>
    <line class="cls-6" x1="0.25" y1="347.65" x2="41.875" y2="306.024"/>
    <line class="cls-6" x1="0.25" y1="341.286" x2="41.875" y2="299.66"/>
    <line class="cls-6" x1="0.25" y1="334.922" x2="41.875" y2="293.296"/>
    <line class="cls-6" x1="0.25" y1="328.558" x2="41.875" y2="286.932"/>
    <line class="cls-6" x1="0.25" y1="322.194" x2="41.875" y2="280.568"/>
    <line class="cls-6" x1="0.25" y1="315.83" x2="41.875" y2="274.204"/>
    <line class="cls-6" x1="0.25" y1="309.466" x2="41.875" y2="267.84"/>
    <line class="cls-6" x1="0.25" y1="303.102" x2="41.875" y2="261.477"/>
    <line class="cls-6" x1="0.25" y1="296.738" x2="41.875" y2="255.113"/>
    <line class="cls-6" x1="0.25" y1="290.374" x2="41.875" y2="248.749"/>
    <line class="cls-6" x1="0.25" y1="284.01" x2="41.875" y2="242.385"/>
    <line class="cls-6" x1="0.25" y1="277.646" x2="41.875" y2="236.021"/>
    <line class="cls-6" x1="0.25" y1="271.282" x2="41.875" y2="229.657"/>
    <line class="cls-6" x1="0.25" y1="264.918" x2="41.875" y2="223.293"/>
    <line class="cls-6" x1="0.25" y1="258.554" x2="41.875" y2="216.929"/>
    <line class="cls-6" x1="0.25" y1="252.19" x2="41.875" y2="210.565"/>
    <line class="cls-6" x1="0.25" y1="245.826" x2="41.875" y2="204.201"/>
    <line class="cls-6" x1="0.25" y1="239.462" x2="41.875" y2="197.837"/>
    <line class="cls-6" x1="0.25" y1="233.098" x2="41.875" y2="191.473"/>
    <line class="cls-6" x1="0.25" y1="220.37" x2="41.875" y2="178.745"/>
    <line class="cls-6" x1="0.25" y1="188.551" x2="40.424" y2="148.376"/>
    <line class="cls-6" x1="0.25" y1="182.187" x2="34.06" y2="148.376"/>
    <line class="cls-6" x1="0.25" y1="175.823" x2="27.696" y2="148.376"/>
    <line class="cls-6" x1="0.25" y1="169.459" x2="21.332" y2="148.376"/>
    <line class="cls-6" x1="0.25" y1="163.095" x2="14.968" y2="148.376"/>
    <line class="cls-6" x1="0.25" y1="156.731" x2="8.604" y2="148.376"/>
    <line class="cls-6" x1="0.25" y1="150.367" x2="2.24" y2="148.376"/>
    <line class="cls-6" x1="0.25" y1="226.734" x2="41.875" y2="185.109"/>
  </g>
  <g id="Drawings::book_hatch" data-name="Drawings::book hatch">
    <line class="cls-28" x1="126.315" y1="198.118" x2="129.118" y2="198.118"/>
    <line class="cls-28" x1="126.315" y1="197.275" x2="129.119" y2="197.275"/>
    <line class="cls-28" x1="126.315" y1="196.431" x2="129.119" y2="196.431"/>
    <line class="cls-28" x1="126.315" y1="195.587" x2="129.12" y2="195.587"/>
    <line class="cls-28" x1="126.315" y1="194.743" x2="129.12" y2="194.743"/>
    <line class="cls-28" x1="126.315" y1="193.9" x2="129.12" y2="193.9"/>
    <line class="cls-28" x1="126.315" y1="193.056" x2="129.121" y2="193.056"/>
    <line class="cls-28" x1="126.315" y1="192.212" x2="129.121" y2="192.212"/>
    <line class="cls-28" x1="126.315" y1="191.368" x2="129.122" y2="191.368"/>
    <line class="cls-28" x1="126.315" y1="190.525" x2="129.122" y2="190.525"/>
    <line class="cls-28" x1="126.315" y1="189.681" x2="129.122" y2="189.681"/>
    <line class="cls-28" x1="126.315" y1="188.837" x2="129.123" y2="188.837"/>
    <line class="cls-28" x1="126.315" y1="187.993" x2="129.123" y2="187.993"/>
    <line class="cls-28" x1="126.315" y1="187.15" x2="129.123" y2="187.15"/>
    <line class="cls-28" x1="126.317" y1="185.462" x2="129.124" y2="185.462"/>
    <line class="cls-28" x1="126.317" y1="184.618" x2="129.124" y2="184.618"/>
    <line class="cls-28" x1="126.317" y1="183.775" x2="129.125" y2="183.775"/>
    <line class="cls-28" x1="126.317" y1="182.931" x2="129.125" y2="182.931"/>
    <line class="cls-28" x1="126.317" y1="182.087" x2="129.125" y2="182.087"/>
    <line class="cls-28" x1="126.317" y1="181.243" x2="129.125" y2="181.243"/>
    <line class="cls-28" x1="126.317" y1="180.4" x2="129.126" y2="180.4"/>
    <line class="cls-28" x1="126.317" y1="179.556" x2="129.126" y2="179.556"/>
    <line class="cls-28" x1="126.317" y1="178.712" x2="129.126" y2="178.712"/>
    <line class="cls-28" x1="126.317" y1="177.868" x2="129.126" y2="177.868"/>
    <line class="cls-28" x1="126.317" y1="177.025" x2="129.127" y2="177.025"/>
    <line class="cls-28" x1="126.317" y1="176.181" x2="129.127" y2="176.181"/>
    <line class="cls-28" x1="126.317" y1="175.337" x2="129.127" y2="175.337"/>
    <line class="cls-28" x1="126.317" y1="174.493" x2="129.127" y2="174.493"/>
    <line class="cls-28" x1="126.318" y1="173.65" x2="129.127" y2="173.65"/>
    <line class="cls-28" x1="126.318" y1="172.806" x2="129.127" y2="172.806"/>
    <line class="cls-28" x1="126.318" y1="171.962" x2="129.128" y2="171.962"/>
    <line class="cls-28" x1="126.318" y1="171.118" x2="129.128" y2="171.118"/>
    <line class="cls-28" x1="126.318" y1="170.275" x2="129.128" y2="170.275"/>
    <line class="cls-28" x1="126.318" y1="169.431" x2="129.128" y2="169.431"/>
    <line class="cls-28" x1="126.318" y1="168.587" x2="129.128" y2="168.587"/>
    <line class="cls-28" x1="126.318" y1="167.743" x2="129.128" y2="167.743"/>
    <line class="cls-28" x1="126.318" y1="166.9" x2="129.128" y2="166.9"/>
    <line class="cls-28" x1="126.318" y1="166.056" x2="129.128" y2="166.056"/>
    <line class="cls-28" x1="126.318" y1="165.212" x2="129.129" y2="165.212"/>
    <line class="cls-28" x1="126.318" y1="164.368" x2="129.129" y2="164.368"/>
    <line class="cls-28" x1="126.318" y1="163.525" x2="129.129" y2="163.525"/>
    <line class="cls-28" x1="126.318" y1="162.681" x2="129.129" y2="162.681"/>
    <line class="cls-28" x1="122.387" y1="173.65" x2="125.201" y2="173.65"/>
    <line class="cls-28" x1="122.387" y1="172.806" x2="125.201" y2="172.806"/>
    <line class="cls-28" x1="122.387" y1="171.962" x2="125.201" y2="171.962"/>
    <line class="cls-28" x1="122.387" y1="171.118" x2="125.201" y2="171.118"/>
    <line class="cls-28" x1="122.388" y1="170.275" x2="125.201" y2="170.275"/>
    <line class="cls-28" x1="122.388" y1="169.431" x2="125.201" y2="169.431"/>
    <line class="cls-28" x1="122.388" y1="168.587" x2="125.201" y2="168.587"/>
    <line class="cls-28" x1="122.388" y1="167.743" x2="125.201" y2="167.743"/>
    <line class="cls-28" x1="122.388" y1="166.9" x2="125.201" y2="166.9"/>
    <line class="cls-28" x1="122.388" y1="166.056" x2="125.201" y2="166.056"/>
    <line class="cls-28" x1="122.388" y1="165.212" x2="125.201" y2="165.212"/>
    <line class="cls-28" x1="122.389" y1="164.368" x2="125.201" y2="164.368"/>
    <line class="cls-28" x1="122.389" y1="163.525" x2="125.201" y2="163.525"/>
    <line class="cls-28" x1="122.389" y1="162.681" x2="125.201" y2="162.681"/>
    <line class="cls-28" x1="122.391" y1="185.462" x2="125.202" y2="185.462"/>
    <line class="cls-28" x1="122.39" y1="184.618" x2="125.202" y2="184.618"/>
    <line class="cls-28" x1="122.389" y1="183.775" x2="125.202" y2="183.775"/>
    <line class="cls-28" x1="122.388" y1="182.931" x2="125.202" y2="182.931"/>
    <line class="cls-28" x1="122.388" y1="182.087" x2="125.202" y2="182.087"/>
    <line class="cls-28" x1="122.387" y1="181.243" x2="125.202" y2="181.243"/>
    <line class="cls-28" x1="122.386" y1="180.4" x2="125.202" y2="180.4"/>
    <line class="cls-28" x1="122.385" y1="179.556" x2="125.202" y2="179.556"/>
    <line class="cls-28" x1="122.384" y1="178.712" x2="125.202" y2="178.712"/>
    <line class="cls-28" x1="122.383" y1="177.868" x2="125.202" y2="177.868"/>
    <line class="cls-28" x1="122.382" y1="177.025" x2="125.202" y2="177.025"/>
    <line class="cls-28" x1="122.382" y1="176.181" x2="125.202" y2="176.181"/>
    <line class="cls-28" x1="122.381" y1="175.337" x2="125.202" y2="175.337"/>
    <line class="cls-28" x1="122.385" y1="174.493" x2="125.202" y2="174.493"/>
    <line class="cls-28" x1="122.4" y1="198.118" x2="125.204" y2="198.118"/>
    <line class="cls-28" x1="122.399" y1="197.275" x2="125.204" y2="197.275"/>
    <line class="cls-28" x1="122.399" y1="196.431" x2="125.204" y2="196.431"/>
    <line class="cls-28" x1="122.398" y1="195.587" x2="125.204" y2="195.587"/>
    <line class="cls-28" x1="122.397" y1="194.743" x2="125.204" y2="194.743"/>
    <line class="cls-28" x1="122.397" y1="193.9" x2="125.204" y2="193.9"/>
    <line class="cls-28" x1="122.396" y1="193.056" x2="125.204" y2="193.056"/>
    <line class="cls-28" x1="122.395" y1="192.212" x2="125.204" y2="192.212"/>
    <line class="cls-28" x1="122.395" y1="191.368" x2="125.204" y2="191.368"/>
    <line class="cls-28" x1="122.394" y1="190.525" x2="125.204" y2="190.525"/>
    <line class="cls-28" x1="122.393" y1="189.681" x2="125.204" y2="189.681"/>
    <line class="cls-28" x1="122.393" y1="188.837" x2="125.204" y2="188.837"/>
    <line class="cls-28" x1="122.392" y1="187.993" x2="125.204" y2="187.993"/>
    <line class="cls-28" x1="122.391" y1="187.15" x2="125.204" y2="187.15"/>
  </g>
  <g id="Drawings::Cutline">
    <path class="cls-29" d="M257.588,450.358q-9.922-23.925-19.9-47.827,0,2.9,0,5.793.009,27.379.062,54.757Q247.66,456.7,257.588,450.358Z" transform="translate(-108.675 -94.151)"/>
    <polygon class="cls-29" points="55.435 169.177 55.435 156.206 55.435 143.225 54.591 143.225 54.591 169.177 55.435 169.177"/>
    <polyline class="cls-29" points="66.804 184.521 70.902 187.307 66.804 184.521 56.555 199.905 75.944 213.081 86.193 197.697 82.068 194.894"/>
    <path class="cls-29" d="M194.867,291.848l-4.124-2.8.941-1.385,14.484,9.863q0,4.887.008,9.773h-7.467q0,35.767-.008,71.534h38.993c13.553-18.358,26.8-36.934,40.192-55.409q-20.073,39.567-40.2,79.109-21.716.015-43.432.041,0-43.362,0-86.724-20.931-14.232-41.869-28.453,0,87.844,0,175.687H150.55V184.294h.32l43.363,76.828q.012-18.867.012-37.734,21.753,0,43.506.02.017-19.768.034-39.536c13.312.173,26.622-.006,39.932,0q-.009,19.777-.017,39.555,2.978-.752,5.968-1.454l-7.656,3.707q.009-20.061.017-40.121-18.279-.007-36.558,0l-.05,58.583H278.9l4.738,14.115q-2.92-5.286-5.842-10.572l-39.992,0q0,4.193,0,8.386h-2.811v11.812H237.8c0,.188,0,.375,0,.563h-2.811v11.812H237.8c0,.188,0,.375,0,.563H234.99v11.812H237.8q-.006,2.076-.006,4.153h-6.712q0-2.076-.006-4.153h2.806V280.822h-2.813v-.562h2.811V268.447h-2.817q0-.281,0-.562h2.814V256.071h-2.812l0-6.389v-4.154q0-.692,0-1.385H198.7v15.34h7.467v3.852H174.826l.009-19.462.006-13.134-2.009-3.493-20.428.011q-.01,23.01-.021,46.021l18.168-.009,9.975,6.793-.948,1.4" transform="translate(-108.675 -94.151)"/>
    <path class="cls-29" d="M319.3,463.081q0-139.6,0-279.209h-11.25q-.027,69.67.019,139.341l-30.323,79.321q-.006,30.264,0,60.528Z" transform="translate(-108.675 -94.151)"/>
    <path class="cls-29" d="M237.784,185.56h-.02" transform="translate(-108.675 -94.151)"/>
  </g>
</svg>
