<svg id="calendar" xmlns="http://www.w3.org/2000/svg" width="128.49" height="128.49" viewBox="0 0 128.49 128.49">
  <g id="title">
    <path id="Path_2642" data-name="Path 2642" d="M88.42,0H40.07A40.11,40.11,0,0,0,0,40.07V88.42a40.11,40.11,0,0,0,40.07,40.07H88.42a40.11,40.11,0,0,0,40.07-40.07V40.07A40.11,40.11,0,0,0,88.42,0Zm0,119.53H40.07A31.14,31.14,0,0,1,9,88.42V46.23H119.53V88.42A31.14,31.14,0,0,1,88.42,119.53Z" fill="#e8aa94"/>
    <path id="Path_2643" data-name="Path 2643" d="M41.83,94.55H57.22a5.57,5.57,0,0,1,3.5.94,3.06,3.06,0,0,1,1.21,2.56,3.4,3.4,0,0,1-1,2.45,3.82,3.82,0,0,1-2.9,1H36.38a4.73,4.73,0,0,1-3.45-1.22,3.94,3.94,0,0,1-1.24-2.88,7.37,7.37,0,0,1,.8-2.81,10.1,10.1,0,0,1,1.74-2.76q3.92-4.06,7.07-7a47.211,47.211,0,0,1,4.51-3.81,26,26,0,0,0,4-3.44,13.64,13.64,0,0,0,2.45-3.53,8.41,8.41,0,0,0,.84-3.55,6.4,6.4,0,0,0-.9-3.38,6.19,6.19,0,0,0-2.45-2.31A7,7,0,0,0,46.4,64a6.89,6.89,0,0,0-6.07,3.39,14.29,14.29,0,0,0-1,2.42,9.87,9.87,0,0,1-1.56,3,3.1,3.1,0,0,1-2.55,1.07,3.33,3.33,0,0,1-2.45-1,3.57,3.57,0,0,1-1-2.65,11,11,0,0,1,.91-4.24,12.12,12.12,0,0,1,2.73-4,13.36,13.36,0,0,1,4.6-2.9A17.54,17.54,0,0,1,46.58,58a18.93,18.93,0,0,1,7.69,1.41A11.64,11.64,0,0,1,57.89,62a12.06,12.06,0,0,1,2.44,3.81,12.2,12.2,0,0,1,.86,4.5A12.58,12.58,0,0,1,59.38,77a20.69,20.69,0,0,1-3.7,4.68q-1.87,1.7-6.32,5.32a46.911,46.911,0,0,0-6.08,5.63,15.46,15.46,0,0,0-1.45,1.92Z" fill="#e8aa94"/>
    <path id="Path_2644" data-name="Path 2644" d="M88.81,82.14a13.31,13.31,0,0,1-4.35,3.46,12,12,0,0,1-5.32,1.17,12.48,12.48,0,0,1-9.33-4.09,13.63,13.63,0,0,1-2.69-4.51,15.53,15.53,0,0,1-.94-5.4A15.72,15.72,0,0,1,67.24,67a13.85,13.85,0,0,1,3-4.73A14.2,14.2,0,0,1,75,59.15a17,17,0,0,1,12.81.27,13.38,13.38,0,0,1,5,4,18.86,18.86,0,0,1,3.12,6.64A34.56,34.56,0,0,1,97,79.16a38.84,38.84,0,0,1-1.15,10,21,21,0,0,1-3.34,7.25,13.93,13.93,0,0,1-5.26,4.36,16.34,16.34,0,0,1-7,1.43,14.4,14.4,0,0,1-6.66-1.46,11.36,11.36,0,0,1-4.3-3.62,7.51,7.51,0,0,1-1.48-4.17,3.16,3.16,0,0,1,.92-2.22,3.08,3.08,0,0,1,2.33-1,4,4,0,0,1,2.33.72A4.54,4.54,0,0,1,75,92.63a5.87,5.87,0,0,0,2.15,2.84,5.66,5.66,0,0,0,3.39,1.08,6.32,6.32,0,0,0,3.18-.85,7.78,7.78,0,0,0,2.57-2.42Q88.4,90.13,88.81,82.14Zm-.68-9a12.12,12.12,0,0,0-.54-3.7,9.18,9.18,0,0,0-1.54-2.93,7.1,7.1,0,0,0-2.35-1.95,6.45,6.45,0,0,0-3-.7A5.91,5.91,0,0,0,76,66.24a9.77,9.77,0,0,0-2,6.35,9.43,9.43,0,0,0,2,6.25,6.16,6.16,0,0,0,4.92,2.33,6.88,6.88,0,0,0,3.49-1,7.37,7.37,0,0,0,2.72-2.79,8.58,8.58,0,0,0,1-4.26Z" fill="#e8aa94"/>
  </g>
</svg>
