<svg xmlns="http://www.w3.org/2000/svg" width="144.296" height="121.49" viewBox="0 0 144.296 121.49">
  <g id="dish" transform="translate(0 0.032)">
    <g id="title" transform="translate(0 -0.033)">
      <path id="Path_2645" data-name="Path 2645" d="M133.608,48.821a.143.143,0,0,1-.143-.117A35.008,35.008,0,0,0,99.5,21.959H97.792a.13.13,0,0,1-.143-.117,27.123,27.123,0,0,0-53.295.391L44,22.454,41.59,24.226a3.167,3.167,0,0,1-3.754,0l-2.046-1.5a11.287,11.287,0,0,0-12.8-.56,10.714,10.714,0,0,0-4.744,10.244l.326,2.985A3.193,3.193,0,0,1,16.7,38.655l-2.75,1.212a10.818,10.818,0,0,0-6.413,8.824.143.143,0,0,1-.143.13H.156A.156.156,0,0,0,0,48.977V60.069c0,23.109,24.972,61.389,54.025,61.389h35.36c32.78,0,54.546-38.254,54.546-61.258l.365-11.248a.143.143,0,0,0-.143-.156ZM79.062,22.754h1.955a2.607,2.607,0,0,1,0,5.213H79.062a2.607,2.607,0,0,1,0-5.213ZM15.419,48.821a2.92,2.92,0,0,1,1.655-1.812l2.854-1.3a10.792,10.792,0,0,0,6.4-11.092l-.339-3.1a2.972,2.972,0,0,1,1.5-2.828,2.92,2.92,0,0,1,3.3.182L33.3,30.7a10.818,10.818,0,0,0,12.812,0l2.515-1.838a3.258,3.258,0,0,1,.9-.456,1.864,1.864,0,0,1,.365-.091h.274a3.31,3.31,0,0,1,.508,0h.482a3.258,3.258,0,0,1,.717.287l.117.065a2.92,2.92,0,0,1,1.447,2.893l-.339,3.1a10.8,10.8,0,0,0,6.413,11.092l2.841,1.3A2.867,2.867,0,0,1,64,48.847h0Zm46.7-20.854H60.163a2.607,2.607,0,0,1,0-5.213h1.955a2.607,2.607,0,0,1,0,5.213ZM73.2,35.136a2.607,2.607,0,1,1-5.213,0V33.9a2.607,2.607,0,1,1,5.213,0Zm0-18.247a2.607,2.607,0,1,1-5.213,0V7.83a2.607,2.607,0,1,1,5.213,0Zm.417,31.893a27.254,27.254,0,0,1,4.875-9.045,1.9,1.9,0,0,1,.209-.248c.469-.56.951-1.108,1.46-1.616l.248-.261a27.149,27.149,0,0,1,3.91-3.167l.235-.156c.652-.43,1.3-.834,1.981-1.212l.169-.091a27.123,27.123,0,0,1,38.7,15.836Z" transform="translate(0 0.033)" fill="#e8aa94"/>
    </g>
  </g>
</svg>
