<svg xmlns="http://www.w3.org/2000/svg" width="141.034" height="121.49" viewBox="0 0 141.034 121.49">
  <g id="title" transform="translate(-0.053)">
    <path id="Path_2646" data-name="Path 2646" d="M98.743,114.734A33.2,33.2,0,1,1,131.934,81.54a33.2,33.2,0,0,1-33.191,33.194Zm0-59.554A26.363,26.363,0,1,0,125.1,81.54,26.363,26.363,0,0,0,98.743,55.18Z" transform="translate(9.153 6.756)" fill="#e8aa94"/>
    <path id="Path_2647" data-name="Path 2647" d="M42.689,112.315a9.962,9.962,0,0,1-5.893-1.96l-3.134-2.28a3.134,3.134,0,0,0-3.727,0l-3.134,2.28a10,10,0,0,1-15.843-9.118l.433-3.887a3.157,3.157,0,0,0-1.869-3.237L5.954,92.551a10,10,0,0,1,0-18.237L9.51,72.741a3.146,3.146,0,0,0,1.881-3.283l-.422-3.864a10,10,0,0,1,15.843-9.118l3.134,2.28a3.134,3.134,0,0,0,3.727,0h0l3.134-2.28a10,10,0,0,1,15.843,9.118l-.422,3.864A3.146,3.146,0,0,0,54.1,72.684l3.556,1.573a10,10,0,0,1,0,18.237L54.1,94.055a3.157,3.157,0,0,0-1.869,3.237l.422,3.864a9.882,9.882,0,0,1-4.947,9.757,10.042,10.042,0,0,1-5.015,1.4Zm-10.9-11.66a9.9,9.9,0,0,1,5.9,1.949l3.146,2.28A3.146,3.146,0,0,0,45.835,102l-.41-3.864a9.95,9.95,0,0,1,5.9-10.258l3.556-1.562a3.157,3.157,0,0,0,0-5.779L51.283,79a9.939,9.939,0,0,1-5.9-10.258l.41-3.864A3.146,3.146,0,0,0,40.8,61.993l-3.146,2.28a9.95,9.95,0,0,1-11.808,0l-3.134-2.28a3.157,3.157,0,0,0-5,2.884l.524,3.864A9.939,9.939,0,0,1,12.325,79L8.712,80.515a3.157,3.157,0,0,0,0,5.779l3.556,1.562a9.95,9.95,0,0,1,5.9,10.258l-.422,3.864a3.157,3.157,0,0,0,5.038,2.861l3.134-2.28a9.962,9.962,0,0,1,5.87-1.9Z" transform="translate(0 7.625)" fill="#e8aa94"/>
    <path id="Path_2648" data-name="Path 2648" d="M63.137,0A28.677,28.677,0,1,0,91.814,28.677,28.677,28.677,0,0,0,63.137,0ZM55.592,30.774h-11.4a2.28,2.28,0,0,1,0-4.559h11.4a2.28,2.28,0,0,1,0,4.559Zm9.825,16.641a2.28,2.28,0,1,1-4.559,0v-11.4a2.28,2.28,0,1,1,4.559,0Zm0-26.523a2.28,2.28,0,1,1-4.559,0V9.46a2.28,2.28,0,1,1,4.559,0Zm16.7,9.882h-11.4a2.28,2.28,0,0,1,0-4.559h11.4a2.28,2.28,0,1,1,0,4.559Z" transform="translate(4.81)" fill="#e8aa94"/>
  </g>
</svg>
