<svg xmlns="http://www.w3.org/2000/svg" width="123.737" height="106.59" viewBox="0 0 123.737 106.59">
  <g id="ingredients" transform="translate(-0.053)">
    <g id="title">
      <path id="Path_2646" data-name="Path 2646" d="M94.67,106.59a29.13,29.13,0,1,1,29.12-29.123A29.13,29.13,0,0,1,94.67,106.59Zm0-52.25a23.13,23.13,0,1,0,23.12,23.127A23.13,23.13,0,0,0,94.67,54.34Z" fill="#e8aa94"/>
      <path id="Path_2647" data-name="Path 2647" d="M37.46,105.23a8.74,8.74,0,0,1-5.17-1.72l-2.75-2a2.75,2.75,0,0,0-3.27,0l-2.75,2a8.77,8.77,0,0,1-13.9-8L10,92.1a2.77,2.77,0,0,0-1.64-2.84L5.23,87.89a8.77,8.77,0,0,1,0-16l3.12-1.38A2.76,2.76,0,0,0,10,67.63l-.37-3.39a8.77,8.77,0,0,1,13.9-8l2.75,2a2.75,2.75,0,0,0,3.27,0h0l2.75-2a8.77,8.77,0,0,1,13.9,8l-.37,3.39a2.76,2.76,0,0,0,1.64,2.83l3.12,1.38a8.77,8.77,0,0,1,0,16l-3.12,1.37a2.77,2.77,0,0,0-1.64,2.84l.37,3.39A8.67,8.67,0,0,1,41.86,104a8.81,8.81,0,0,1-4.4,1.23ZM27.9,95a8.69,8.69,0,0,1,5.18,1.71l2.76,2a2.76,2.76,0,0,0,4.38-2.53l-.36-3.39a8.73,8.73,0,0,1,5.18-9l3.12-1.37a2.77,2.77,0,0,0,0-5.07L45,76a8.72,8.72,0,0,1-5.18-9l.36-3.39a2.76,2.76,0,0,0-4.38-2.53l-2.76,2a8.73,8.73,0,0,1-10.36,0l-2.75-2a2.77,2.77,0,0,0-4.39,2.53L16,67a8.72,8.72,0,0,1-5.18,9L7.65,77.33a2.77,2.77,0,0,0,0,5.07l3.12,1.37a8.73,8.73,0,0,1,5.18,9l-.37,3.39A2.77,2.77,0,0,0,20,98.67l2.75-2A8.74,8.74,0,0,1,27.9,95Z" fill="#e8aa94"/>
      <path id="Path_2648" data-name="Path 2648" d="M59.62,0A25.16,25.16,0,1,0,84.78,25.16,25.16,25.16,0,0,0,59.62,0ZM53,27H43a2,2,0,0,1,0-4H53a2,2,0,0,1,0,4Zm8.62,14.6a2,2,0,0,1-4,0v-10a2,2,0,1,1,4,0Zm0-23.27a2,2,0,0,1-4,0V8.3a2,2,0,1,1,4,0ZM76.27,27h-10a2,2,0,0,1,0-4h10a2,2,0,0,1,0,4Z" fill="#e8aa94"/>
    </g>
  </g>
</svg>
