<svg xmlns="http://www.w3.org/2000/svg" xmlns:xlink="http://www.w3.org/1999/xlink" width="471.26" height="958.85" viewBox="0 0 471.26 958.85">
  <defs>
    <filter id="Path_3077" x="0" y="0" width="471.26" height="958.85" filterUnits="userSpaceOnUse">
      <feOffset dy="3" input="SourceAlpha"/>
      <feGaussianBlur stdDeviation="3" result="blur"/>
      <feFlood flood-opacity="0.161"/>
      <feComposite operator="in" in2="blur"/>
      <feComposite in="SourceGraphic"/>
    </filter>
  </defs>
  <g id="Asset_28" data-name="Asset 28" transform="translate(9 6)">
    <g id="Layer_2" data-name="Layer 2">
      <g transform="matrix(1, 0, 0, 1, -9, -6)" filter="url(#Path_3077)">
        <path id="Path_3077-2" data-name="Path 3077" d="M391.05,940.85H62.22A62.22,62.22,0,0,1,0,878.63V62.14A62.14,62.14,0,0,1,62.14,0H388a65.21,65.21,0,0,1,65.26,65.16V878.63a62.228,62.228,0,0,1-62.2,62.22Z" transform="translate(9 6)" fill="#e5e5e5"/>
      </g>
      <rect id="Rectangle_188" data-name="Rectangle 188" width="437.71" height="925.6" rx="59.72" transform="translate(7.78 7.46)" fill="#b2b2b2"/>
      <rect id="Rectangle_189" data-name="Rectangle 189" width="437.71" height="925.6" rx="59.74" transform="translate(7.78 7.46)" fill="#b2b2b2"/>
      <rect id="Rectangle_190" data-name="Rectangle 190" width="409.51" height="727.58" transform="translate(22.37 107)" fill="#e5e5e5"/>
      <circle id="Ellipse_37" data-name="Ellipse 37" cx="8.63" cy="8.63" r="8.63" transform="translate(69.31 47.18)" fill="#e5e5e5"/>
      <line id="Line_37" data-name="Line 37" x2="173.39" transform="translate(138.85 55.81)" fill="none" stroke="#e5e5e5" stroke-linecap="round" stroke-miterlimit="10" stroke-width="9"/>
      <line id="Line_38" data-name="Line 38" x2="173.39" transform="translate(138.85 891.15)" fill="none" stroke="#e5e5e5" stroke-linecap="round" stroke-miterlimit="10" stroke-width="9"/>
    </g>
  </g>
</svg>
