<svg id="CG" xmlns="http://www.w3.org/2000/svg" xmlns:xlink="http://www.w3.org/1999/xlink" width="325" height="325" viewBox="0 0 325 325">
  <defs>
    <linearGradient id="linear-gradient" y1="1" x2="1" gradientUnits="objectBoundingBox">
      <stop offset="0" stop-color="#05a8aa"/>
      <stop offset="0.27" stop-color="#b8d5b8"/>
      <stop offset="0.5" stop-color="#eaefbd"/>
      <stop offset="0.72" stop-color="#db6a3d"/>
      <stop offset="1" stop-color="#bc412b"/>
    </linearGradient>
  </defs>
  <g id="title_slide" data-name="title slide">
    <path id="Path_72" data-name="Path 72" d="M0,0H325V325H0Z" fill="url(#linear-gradient)"/>
    <rect id="Rectangle_31" data-name="Rectangle 31" width="287.071" height="287.071" transform="translate(18.965 18.965)" fill="#b8d5b8"/>
    <path id="Path_20" data-name="Path 20" d="M335.508,335.508H41V41H335.508ZM48.437,328.071H328.071V48.437H48.437Z" transform="translate(-25.754 -25.754)" fill="#fff"/>
    <path id="Path_21" data-name="Path 21" d="M108.308,134.26a11.263,11.263,0,0,1,1.116-5.035,8.214,8.214,0,0,1,3.064-3.455,8.371,8.371,0,0,1,4.485-1.212,8.049,8.049,0,0,1,6.3,2.692,10.321,10.321,0,0,1,2.4,7.169v.227a11.356,11.356,0,0,1-1.063,4.994,8.062,8.062,0,0,1-3.049,3.443,8.434,8.434,0,0,1-4.551,1.235,8,8,0,0,1-6.277-2.7,10.359,10.359,0,0,1-2.406-7.132Zm3.276.372a8.158,8.158,0,0,0,1.469,5.091,4.983,4.983,0,0,0,7.883-.026,8.924,8.924,0,0,0,1.461-5.451,8.135,8.135,0,0,0-1.487-5.08,4.73,4.73,0,0,0-3.953-1.949,4.682,4.682,0,0,0-3.893,1.922,8.938,8.938,0,0,0-1.48,5.507Z" transform="translate(-68.033 -78.24)" fill="#fff"/>
    <path id="Path_22" data-name="Path 22" d="M165.172,130.424V113.888H162.16v-2.521h3.012v-1.952a6.49,6.49,0,0,1,1.64-4.741,6.188,6.188,0,0,1,4.63-1.673,8.515,8.515,0,0,1,2.231.3l-.178,2.625a9.15,9.15,0,0,0-1.759-.16,3.179,3.179,0,0,0-2.451.93,3.743,3.743,0,0,0-.863,2.659v2.012h4.09v2.521h-4.09V130.42Z" transform="translate(-101.86 -64.699)" fill="#fff"/>
    <path id="Path_23" data-name="Path 23" d="M229.875,141.673a4.689,4.689,0,0,0,3.045-1.06,3.719,3.719,0,0,0,1.443-2.64h3.083a5.913,5.913,0,0,1-1.116,3.116,7.437,7.437,0,0,1-2.774,2.361,8,8,0,0,1-3.67.881,7.843,7.843,0,0,1-6.191-2.6,10.359,10.359,0,0,1-2.3-7.106v-.547a11.486,11.486,0,0,1,1.019-4.949,7.757,7.757,0,0,1,2.934-3.347,8.311,8.311,0,0,1,4.518-1.2A7.657,7.657,0,0,1,235.2,126.5a6.861,6.861,0,0,1,2.261,4.983h-3.083a4.5,4.5,0,0,0-1.4-3.038,4.365,4.365,0,0,0-3.109-1.19,4.57,4.57,0,0,0-3.849,1.789,8.365,8.365,0,0,0-1.365,5.169v.617a8.209,8.209,0,0,0,1.357,5.072A4.568,4.568,0,0,0,229.875,141.673Z" transform="translate(-139.068 -78.254)" fill="#fff"/>
    <path id="Path_24" data-name="Path 24" d="M272.088,134.26a11.264,11.264,0,0,1,1.116-5.035,8.24,8.24,0,0,1,3.064-3.455,8.371,8.371,0,0,1,4.485-1.212,8.035,8.035,0,0,1,6.3,2.692,10.382,10.382,0,0,1,2.406,7.169v.227a11.358,11.358,0,0,1-1.067,4.994,8.077,8.077,0,0,1-3.046,3.443,8.456,8.456,0,0,1-4.555,1.235,8.016,8.016,0,0,1-6.277-2.7,10.311,10.311,0,0,1-2.406-7.132Zm3.276.372a8.086,8.086,0,0,0,1.487,5.091,4.979,4.979,0,0,0,7.88-.026,8.924,8.924,0,0,0,1.461-5.451,8.135,8.135,0,0,0-1.487-5.08,4.73,4.73,0,0,0-3.953-1.949,4.681,4.681,0,0,0-3.893,1.922,8.873,8.873,0,0,0-1.495,5.507Z" transform="translate(-170.911 -78.24)" fill="#fff"/>
    <path id="Path_25" data-name="Path 25" d="M341.382,142.672A6.926,6.926,0,0,1,335.8,144.9a5.925,5.925,0,0,1-4.641-1.77,7.689,7.689,0,0,1-1.614-5.239V125.5h3.261v12.312q0,4.332,3.521,4.332,3.719,0,4.968-2.781V125.5h3.257v19.057h-3.1Z" transform="translate(-207.006 -78.832)" fill="#fff"/>
    <path id="Path_26" data-name="Path 26" d="M392.441,127.828a9.439,9.439,0,0,0-1.6-.126,4.294,4.294,0,0,0-4.351,2.733v13.524H383.23V124.9H386.4l.052,2.2a5.079,5.079,0,0,1,4.544-2.551,3.347,3.347,0,0,1,1.447.245Z" transform="translate(-240.725 -78.234)" fill="#fff"/>
    <path id="Path_27" data-name="Path 27" d="M425.788,138.914a2.4,2.4,0,0,0-1-2.053,9.257,9.257,0,0,0-3.469-1.261,16.168,16.168,0,0,1-3.927-1.268,5.577,5.577,0,0,1-2.149-1.759,4.213,4.213,0,0,1-.7-2.432,4.949,4.949,0,0,1,1.989-3.964,7.741,7.741,0,0,1,5.065-1.618,7.945,7.945,0,0,1,5.254,1.673,5.306,5.306,0,0,1,2.019,4.276H425.6a2.945,2.945,0,0,0-1.138-2.306,4.243,4.243,0,0,0-2.86-.971,4.462,4.462,0,0,0-2.785.777,2.439,2.439,0,0,0-1,2.027,1.978,1.978,0,0,0,.933,1.777,11.7,11.7,0,0,0,3.373,1.145,17.759,17.759,0,0,1,3.957,1.3,5.853,5.853,0,0,1,2.231,1.822,4.521,4.521,0,0,1,.744,2.6,4.875,4.875,0,0,1-2.041,4.09,8.57,8.57,0,0,1-5.3,1.543,9.59,9.59,0,0,1-4.053-.811,6.585,6.585,0,0,1-2.759-2.265,5.455,5.455,0,0,1-1-3.135h3.257a3.369,3.369,0,0,0,1.313,2.6,5.065,5.065,0,0,0,3.231.963,5.206,5.206,0,0,0,2.975-.744A2.294,2.294,0,0,0,425.788,138.914Z" transform="translate(-259.99 -78.242)" fill="#fff"/>
    <path id="Path_28" data-name="Path 28" d="M472.552,144.32a8.308,8.308,0,0,1-6.3-2.547,9.487,9.487,0,0,1-2.432-6.8v-.6A11.439,11.439,0,0,1,464.9,129.3a8.464,8.464,0,0,1,3.031-3.488,7.638,7.638,0,0,1,4.217-1.257,7.14,7.14,0,0,1,5.779,2.447q2.06,2.447,2.06,7.013v1.357H467.074a6.767,6.767,0,0,0,1.647,4.551,5.176,5.176,0,0,0,4.009,1.737,5.689,5.689,0,0,0,2.923-.707,7.377,7.377,0,0,0,2.094-1.859l1.989,1.551A8.007,8.007,0,0,1,472.552,144.32Zm-.405-17.087a4.336,4.336,0,0,0-3.31,1.439,6.956,6.956,0,0,0-1.655,4.023h9.545v-.249a6.221,6.221,0,0,0-1.339-3.845A4.09,4.09,0,0,0,472.146,127.234Z" transform="translate(-291.344 -78.242)" fill="#fff"/>
    <path id="Path_29" data-name="Path 29" d="M546.864,133.408H543.48V107.75h3.384Z" transform="translate(-341.385 -67.683)" fill="#fff"/>
    <path id="Path_30" data-name="Path 30" d="M565.3,112.631l-1.859-1.268a8.49,8.49,0,0,0,1.692-4.834V104h3.224v2.291a8.224,8.224,0,0,1-.874,3.514A8.123,8.123,0,0,1,565.3,112.631Z" transform="translate(-353.923 -65.327)" fill="#fff"/>
    <path id="Path_31" data-name="Path 31" d="M590.233,124.886l.089,2.116a7.033,7.033,0,0,1,5.652-2.465q4,0,5.444,3.064a7.156,7.156,0,0,1,2.473-2.231,7.292,7.292,0,0,1,3.6-.844q6.27,0,6.374,6.638v12.769H610.61V131.368a4.382,4.382,0,0,0-.933-3.057,4.084,4.084,0,0,0-3.135-1.008,4.328,4.328,0,0,0-3.012,1.082,4.387,4.387,0,0,0-1.391,2.915v12.643h-3.276V131.457q0-4.154-4.068-4.157a4.364,4.364,0,0,0-4.388,2.729v13.915H587.15V124.886Z" transform="translate(-368.816 -78.219)" fill="#fff"/>
    <path id="Path_32" data-name="Path 32" d="M108.308,244.26a11.263,11.263,0,0,1,1.116-5.035,8.214,8.214,0,0,1,3.064-3.454,8.37,8.37,0,0,1,4.485-1.212,8.049,8.049,0,0,1,6.3,2.692,10.321,10.321,0,0,1,2.4,7.169v.227a11.356,11.356,0,0,1-1.063,4.994,8.062,8.062,0,0,1-3.049,3.443,8.434,8.434,0,0,1-4.551,1.235,8,8,0,0,1-6.277-2.7,10.359,10.359,0,0,1-2.406-7.132Zm3.276.372a8.149,8.149,0,0,0,1.469,5.091,4.983,4.983,0,0,0,7.883-.026,8.924,8.924,0,0,0,1.461-5.451,8.135,8.135,0,0,0-1.487-5.08,4.73,4.73,0,0,0-3.953-1.948,4.682,4.682,0,0,0-3.893,1.922,8.938,8.938,0,0,0-1.48,5.507Z" transform="translate(-68.033 -147.336)" fill="#fff"/>
    <path id="Path_33" data-name="Path 33" d="M169.064,234.906l.1,2.395a6.95,6.95,0,0,1,5.708-2.744q6.039,0,6.095,6.816v12.591h-3.257v-12.61a4.331,4.331,0,0,0-.945-3.049,3.774,3.774,0,0,0-2.878-.985,4.7,4.7,0,0,0-2.785.848,5.749,5.749,0,0,0-1.859,2.231v13.58H166V234.906Z" transform="translate(-104.272 -147.334)" fill="#fff"/>
    <path id="Path_34" data-name="Path 34" d="M261.97,234.3a9.076,9.076,0,0,1-3.057,6.515,10.75,10.75,0,0,1-7.266,2.38,9.646,9.646,0,0,1-7.757-3.321q-2.826-3.321-2.826-9.114v-1.584a15.4,15.4,0,0,1,1.3-6.515,9.788,9.788,0,0,1,3.719-4.325,11.69,11.69,0,0,1,12.777.892A9.765,9.765,0,0,1,262,225.9h-5.28a5.365,5.365,0,0,0-1.383-3.6,5.115,5.115,0,0,0-3.622-1.116,4.489,4.489,0,0,0-3.953,1.893q-1.313,1.893-1.346,5.875v1.937q0,4.157,1.257,6.076a4.4,4.4,0,0,0,3.971,1.919,5.223,5.223,0,0,0,3.655-1.116,5.058,5.058,0,0,0,1.383-3.462Z" transform="translate(-151.422 -136.208)" fill="#fff"/>
    <path id="Path_35" data-name="Path 35" d="M316.429,239.684a14.059,14.059,0,0,0-1.833-.141q-2.889,0-3.785,1.956v12.468H305.72V234.909h4.808l.141,2.272a4.721,4.721,0,0,1,4.243-2.622,5.355,5.355,0,0,1,1.588.227Z" transform="translate(-192.037 -147.338)" fill="#fff"/>
    <path id="Path_36" data-name="Path 36" d="M348.707,254.3a9.354,9.354,0,0,1-6.827-2.573,9.142,9.142,0,0,1-2.633-6.85v-.506a11.5,11.5,0,0,1,1.116-5.132,8.122,8.122,0,0,1,3.142-3.488,8.809,8.809,0,0,1,4.641-1.223,7.92,7.92,0,0,1,6.158,2.465q2.25,2.465,2.231,6.991v2.079H344.409a4.73,4.73,0,0,0,1.487,2.993,4.507,4.507,0,0,0,3.146,1.116,5.492,5.492,0,0,0,4.6-2.131l2.5,2.8a7.638,7.638,0,0,1-3.1,2.529A10.211,10.211,0,0,1,348.707,254.3Zm-.584-15.659a3.179,3.179,0,0,0-2.454,1.026,5.329,5.329,0,0,0-1.208,2.938h7.065V242.2a3.778,3.778,0,0,0-.915-2.625A3.276,3.276,0,0,0,348.124,238.64Z" transform="translate(-213.096 -147.317)" fill="#fff"/>
    <path id="Path_37" data-name="Path 37" d="M403.3,253.965a5.716,5.716,0,0,1-.513-1.707,6.158,6.158,0,0,1-4.808,2.06,6.757,6.757,0,0,1-4.641-1.621,5.206,5.206,0,0,1-1.837-4.09,5.4,5.4,0,0,1,2.231-4.648q2.231-1.621,6.507-1.636h2.343v-1.089a3.138,3.138,0,0,0-.68-2.116,2.657,2.657,0,0,0-2.138-.792,3.016,3.016,0,0,0-2.015.617,2.082,2.082,0,0,0-.744,1.692h-5.083a5.128,5.128,0,0,1,1.023-3.068,6.768,6.768,0,0,1,2.889-2.209,10.491,10.491,0,0,1,4.191-.8,8.272,8.272,0,0,1,5.578,1.77,6.246,6.246,0,0,1,2.075,4.975v8.259a8.859,8.859,0,0,0,.744,4.09v.3Zm-4.209-3.54a4.392,4.392,0,0,0,2.079-.5,3.317,3.317,0,0,0,1.409-1.346V245.3h-1.9q-3.823,0-4.068,2.64l-.019.3a2.034,2.034,0,0,0,.669,1.566,2.6,2.6,0,0,0,1.833.617Z" transform="translate(-245.917 -147.336)" fill="#fff"/>
    <path id="Path_38" data-name="Path 38" d="M448.6,222.9v4.685h3.261V231.3H448.6v9.512a2.284,2.284,0,0,0,.405,1.513,2.045,2.045,0,0,0,1.551.457,8.18,8.18,0,0,0,1.487-.123v3.86a10.51,10.51,0,0,1-3.083.457q-5.355,0-5.459-5.407V231.319H440.72V227.6h2.785v-4.7Z" transform="translate(-276.837 -140.014)" fill="#fff"/>
    <path id="Path_39" data-name="Path 39" d="M478.218,217.8a2.5,2.5,0,0,1,.766-1.885,3.3,3.3,0,0,1,4.165,0,2.7,2.7,0,0,1,0,3.789,3.265,3.265,0,0,1-4.139,0,2.5,2.5,0,0,1-.792-1.9Zm5.407,23.988h-5.117V222.735h5.109Z" transform="translate(-300.39 -135.164)" fill="#fff"/>
    <path id="Path_40" data-name="Path 40" d="M508.248,248.31l3.54-12.84h5.306l-6.429,19.058h-4.845l-6.429-19.046h5.318Z" transform="translate(-313.69 -147.91)" fill="#fff"/>
    <path id="Path_41" data-name="Path 41" d="M560.664,254.3a9.341,9.341,0,0,1-6.823-2.573,9.161,9.161,0,0,1-2.633-6.85v-.506a11.5,11.5,0,0,1,1.116-5.132,8.143,8.143,0,0,1,3.142-3.488,8.809,8.809,0,0,1,4.641-1.223,7.92,7.92,0,0,1,6.158,2.465q2.25,2.465,2.231,6.991v2.079h-12.13a4.73,4.73,0,0,0,1.487,2.993A4.507,4.507,0,0,0,561,250.171a5.5,5.5,0,0,0,4.6-2.131l2.5,2.8a7.675,7.675,0,0,1-3.1,2.529,10.2,10.2,0,0,1-4.332.93Zm-.58-15.659a3.179,3.179,0,0,0-2.458,1.026,5.329,5.329,0,0,0-1.208,2.938h7.065V242.2a3.778,3.778,0,0,0-.915-2.625A3.272,3.272,0,0,0,560.084,238.64Z" transform="translate(-346.238 -147.317)" fill="#fff"/>
    <path id="Path_42" data-name="Path 42" d="M129.367,349.6a9.174,9.174,0,0,1-4.035,2.648,16.875,16.875,0,0,1-5.775.944,11.46,11.46,0,0,1-5.838-1.454,9.7,9.7,0,0,1-3.875-4.217,14.874,14.874,0,0,1-1.4-6.474V339.3a15.782,15.782,0,0,1,1.294-6.649,9.579,9.579,0,0,1,3.719-4.3,12.3,12.3,0,0,1,12.851.688,9.27,9.27,0,0,1,3.045,6.322h-5.128a5.089,5.089,0,0,0-1.558-3.224,4.988,4.988,0,0,0-3.321-1.023,4.649,4.649,0,0,0-4.09,2.027,10.919,10.919,0,0,0-1.439,6.043v1.636q0,4.031,1.532,6.095a5.236,5.236,0,0,0,4.492,2.06q2.975,0,4.243-1.268v-4.432h-4.808v-3.9h10.092Z" transform="translate(-68.115 -205.318)" fill="#fff"/>
    <path id="Path_43" data-name="Path 43" d="M186.527,362.62a6.375,6.375,0,0,1-5.206,2.291,6.01,6.01,0,0,1-4.674-1.763A7.53,7.53,0,0,1,175,357.987V345.5h5.091v12.327q0,2.975,2.711,2.975a3.659,3.659,0,0,0,3.559-1.8V345.5h5.106v19.057h-4.789Z" transform="translate(-109.926 -217.025)" fill="#fff"/>
    <path id="Path_44" data-name="Path 44" d="M229.508,327.8a2.517,2.517,0,0,1,.766-1.885,3.3,3.3,0,0,1,4.165,0,2.688,2.688,0,0,1,0,3.789,3.265,3.265,0,0,1-4.139,0,2.5,2.5,0,0,1-.792-1.9Zm5.407,23.988h-5.106V332.735h5.106Z" transform="translate(-144.164 -204.26)" fill="#fff"/>
    <path id="Path_45" data-name="Path 45" d="M261.12,351.052H256V324h5.106Z" transform="translate(-160.805 -203.52)" fill="#fff"/>
    <path id="Path_46" data-name="Path 46" d="M278.91,341.384a11.465,11.465,0,0,1,2-7.1,6.474,6.474,0,0,1,5.466-2.64,5.849,5.849,0,0,1,4.6,2.075V324h5.106v27.052h-4.6l-.245-2.027a5.987,5.987,0,0,1-4.9,2.38,6.474,6.474,0,0,1-5.4-2.651Q278.914,346.107,278.91,341.384Zm5.091.372a7.53,7.53,0,0,0,.933,4.109,3.042,3.042,0,0,0,2.711,1.428,3.436,3.436,0,0,0,3.347-1.993v-7.523a3.356,3.356,0,0,0-3.295-1.993q-3.7,0-3.7,5.979Z" transform="translate(-175.196 -203.52)" fill="#fff"/>
    <path id="Path_47" data-name="Path 47" d="M333.649,395.345l-1.859-1.268a8.508,8.508,0,0,0,1.725-4.756V386.38H336.7v2.555a8.036,8.036,0,0,1-.87,3.555A8.378,8.378,0,0,1,333.649,395.345Z" transform="translate(-208.413 -242.703)" fill="#fff"/>
    <path id="Path_48" data-name="Path 48" d="M385.544,353.408H382.16V327.75h3.384Z" transform="translate(-240.052 -205.875)" fill="#fff"/>
    <path id="Path_49" data-name="Path 49" d="M403.989,332.631l-1.859-1.268a8.489,8.489,0,0,0,1.692-4.834V324h3.224v2.291a8.72,8.72,0,0,1-3.064,6.322Z" transform="translate(-252.597 -203.52)" fill="#fff"/>
    <path id="Path_50" data-name="Path 50" d="M428.925,344.886l.089,2.116a7.039,7.039,0,0,1,5.652-2.465q4,0,5.444,3.064a7.154,7.154,0,0,1,2.473-2.231,7.293,7.293,0,0,1,3.6-.844q6.269,0,6.374,6.638v12.769H449.3V351.368a4.383,4.383,0,0,0-.933-3.057,4.073,4.073,0,0,0-3.127-1.008,4.328,4.328,0,0,0-3.012,1.082,4.4,4.4,0,0,0-1.391,2.915v12.643h-3.276V351.457q0-4.157-4.068-4.157a4.357,4.357,0,0,0-4.384,2.729v13.915H425.85V344.886Z" transform="translate(-267.496 -216.411)" fill="#fff"/>
    <path id="Path_51" data-name="Path 51" d="M545.744,363.985a6.717,6.717,0,0,1-.457-2.008,7.274,7.274,0,0,1-5.425,2.361,6.718,6.718,0,0,1-4.622-1.6,5.154,5.154,0,0,1-1.807-4.042,5.385,5.385,0,0,1,2.265-4.622,10.705,10.705,0,0,1,6.366-1.647h3.172v-1.487a3.655,3.655,0,0,0-1.023-2.718,4.094,4.094,0,0,0-3.012-1.015,4.745,4.745,0,0,0-2.923.881,2.6,2.6,0,0,0-1.182,2.131h-3.272a4.462,4.462,0,0,1,1.011-2.755,6.917,6.917,0,0,1,2.748-2.1,9.237,9.237,0,0,1,3.812-.773,7.543,7.543,0,0,1,5.161,1.644,5.936,5.936,0,0,1,1.938,4.537v8.772a10.72,10.72,0,0,0,.669,4.172V364Zm-5.411-2.484a5.742,5.742,0,0,0,2.908-.792,4.812,4.812,0,0,0,1.989-2.06v-3.912h-2.555q-5.99,0-5.987,3.507a2.975,2.975,0,0,0,1.019,2.395A3.927,3.927,0,0,0,540.333,361.5Z" transform="translate(-335.07 -216.452)" fill="#fff"/>
    <path id="Path_52" data-name="Path 52" d="M114.017,444.073a6.351,6.351,0,0,1,5.091-2.428q6.2,0,6.288,7.2v12.2H120.3V448.989a3.553,3.553,0,0,0-.7-2.424,3.029,3.029,0,0,0-2.343-.781,3.477,3.477,0,0,0-3.243,1.725v13.543H108.93V434h5.087Z" transform="translate(-68.424 -272.616)" fill="#fff"/>
    <path id="Path_53" data-name="Path 53" d="M163.438,437.8a2.517,2.517,0,0,1,.766-1.885,3.3,3.3,0,0,1,4.165,0,2.688,2.688,0,0,1,0,3.789,3.265,3.265,0,0,1-4.139,0A2.5,2.5,0,0,1,163.438,437.8Zm5.414,23.988h-5.113V442.735h5.113Z" transform="translate(-102.662 -273.356)" fill="#fff"/>
    <path id="Path_54" data-name="Path 54" d="M199.959,459.684a13.957,13.957,0,0,0-1.83-.141q-2.889,0-3.789,1.956v12.468H189.25V454.909h4.808l.141,2.272a4.769,4.769,0,0,1,4.247-2.622,5.354,5.354,0,0,1,1.584.227Z" transform="translate(-118.877 -285.53)" fill="#fff"/>
    <path id="Path_55" data-name="Path 55" d="M224.538,437.8a2.517,2.517,0,0,1,.766-1.885,3.3,3.3,0,0,1,4.165,0,2.688,2.688,0,0,1,0,3.789,3.265,3.265,0,0,1-4.139,0A2.5,2.5,0,0,1,224.538,437.8Zm5.407,23.988h-5.109V442.735h5.109Z" transform="translate(-141.042 -273.356)" fill="#fff"/>
    <path id="Path_56" data-name="Path 56" d="M254.878,454.9l.16,2.2a6.656,6.656,0,0,1,5.477-2.551,5.53,5.53,0,0,1,4.507,1.777,8.3,8.3,0,0,1,1.517,5.318V473.96H261.43V461.782a3.3,3.3,0,0,0-.707-2.35,3.186,3.186,0,0,0-2.343-.744,3.5,3.5,0,0,0-3.22,1.83v13.439H250.07V454.9Z" transform="translate(-157.081 -285.523)" fill="#fff"/>
    <path id="Path_57" data-name="Path 57" d="M302.677,464.292a11.167,11.167,0,0,1,2.086-7.065,6.768,6.768,0,0,1,5.626-2.674,5.935,5.935,0,0,1,4.879,2.146l.212-1.8H320.1v18.407a8.158,8.158,0,0,1-1.116,4.351,7.314,7.314,0,0,1-3.2,2.819,11.214,11.214,0,0,1-4.834.971,10.449,10.449,0,0,1-4.09-.837,7.322,7.322,0,0,1-3.012-2.157l2.257-3.1a5.949,5.949,0,0,0,4.615,2.131,4.361,4.361,0,0,0,3.15-1.082,4.031,4.031,0,0,0,1.116-3.075v-1.019a5.9,5.9,0,0,1-4.633,1.989,6.738,6.738,0,0,1-5.556-2.688,11.125,11.125,0,0,1-2.123-7.121Zm5.091.372a6.927,6.927,0,0,0,1.037,4.064,3.3,3.3,0,0,0,2.852,1.487A3.57,3.57,0,0,0,315,468.468v-8.032a3.535,3.535,0,0,0-3.295-1.744,3.317,3.317,0,0,0-2.878,1.487,7.814,7.814,0,0,0-1.063,4.492Z" transform="translate(-190.121 -285.523)" fill="#fff"/>
    <path id="Path_58" data-name="Path 58" d="M388.96,454.91l.156,2.131a6.682,6.682,0,0,1,5.477-2.48q3.681,0,5.057,2.9a6.544,6.544,0,0,1,5.723-2.9,5.685,5.685,0,0,1,4.615,1.8,8.34,8.34,0,0,1,1.528,5.425V473.96h-5.106V461.815a3.643,3.643,0,0,0-.636-2.369,2.769,2.769,0,0,0-2.231-.744,3.179,3.179,0,0,0-3.172,2.183l.019,13.086h-5.109V461.833a3.579,3.579,0,0,0-.651-2.395,2.88,2.88,0,0,0-2.231-.744,3.3,3.3,0,0,0-3.135,1.8v13.472H384.2V454.91Z" transform="translate(-241.334 -285.53)" fill="#fff"/>
    <path id="Path_59" data-name="Path 59" d="M477.937,473.959a5.614,5.614,0,0,1-.509-1.707,6.169,6.169,0,0,1-4.808,2.06,6.756,6.756,0,0,1-4.641-1.621,5.206,5.206,0,0,1-1.841-4.09,5.4,5.4,0,0,1,2.231-4.648q2.231-1.621,6.489-1.64H477.2v-1.09a3.158,3.158,0,0,0-.677-2.116,2.676,2.676,0,0,0-2.142-.792,3.023,3.023,0,0,0-2.016.617,2.1,2.1,0,0,0-.744,1.692h-5.061a5.125,5.125,0,0,1,1.02-3.069,6.768,6.768,0,0,1,2.889-2.208,10.517,10.517,0,0,1,4.191-.8,8.255,8.255,0,0,1,5.578,1.77,6.268,6.268,0,0,1,2.071,4.975v8.259a8.859,8.859,0,0,0,.744,4.09v.3Zm-4.209-3.54a4.382,4.382,0,0,0,2.079-.5,3.3,3.3,0,0,0,1.409-1.346v-3.276h-1.9q-3.826,0-4.068,2.64l-.019.3a2.034,2.034,0,0,0,.669,1.566A2.6,2.6,0,0,0,473.727,470.419Z" transform="translate(-292.802 -285.522)" fill="#fff"/>
    <path id="Path_60" data-name="Path 60" d="M524.69,454.9l.16,2.2a6.656,6.656,0,0,1,5.477-2.551,5.53,5.53,0,0,1,4.507,1.777,8.285,8.285,0,0,1,1.513,5.318V473.96H531.26V461.782a3.313,3.313,0,0,0-.706-2.35,3.136,3.136,0,0,0-2.343-.744,3.507,3.507,0,0,0-3.224,1.83v13.439H519.9V454.9Z" transform="translate(-326.573 -285.523)" fill="#fff"/>
    <path id="Path_61" data-name="Path 61" d="M584.267,473.965a5.719,5.719,0,0,1-.509-1.707,6.158,6.158,0,0,1-4.808,2.06,6.757,6.757,0,0,1-4.641-1.621,5.206,5.206,0,0,1-1.841-4.09,5.4,5.4,0,0,1,2.231-4.648q2.231-1.621,6.519-1.636h2.343v-1.09a3.157,3.157,0,0,0-.677-2.116,2.675,2.675,0,0,0-2.142-.792,3.024,3.024,0,0,0-2.016.617,2.1,2.1,0,0,0-.744,1.692h-5.091a5.126,5.126,0,0,1,1.02-3.069,6.794,6.794,0,0,1,2.889-2.208,10.516,10.516,0,0,1,4.191-.8,8.254,8.254,0,0,1,5.578,1.77,6.309,6.309,0,0,1,2.086,4.975v8.259a8.859,8.859,0,0,0,.744,4.09v.3Zm-4.209-3.54a4.381,4.381,0,0,0,2.079-.5,3.294,3.294,0,0,0,1.409-1.346V465.3h-1.9q-3.826,0-4.068,2.64l-.019.3a2.034,2.034,0,0,0,.669,1.565A2.6,2.6,0,0,0,580.057,470.425Z" transform="translate(-359.593 -285.528)" fill="#fff"/>
    <path id="Path_62" data-name="Path 62" d="M624.476,464.292a11.154,11.154,0,0,1,2.09-7.065,6.764,6.764,0,0,1,5.626-2.674,5.935,5.935,0,0,1,4.879,2.146l.212-1.8H641.9v18.407a8.125,8.125,0,0,1-1.138,4.351,7.292,7.292,0,0,1-3.2,2.819,11.211,11.211,0,0,1-4.834.971,10.448,10.448,0,0,1-4.09-.837,7.27,7.27,0,0,1-3.012-2.157l2.253-3.1a5.949,5.949,0,0,0,4.615,2.131,4.366,4.366,0,0,0,3.153-1.082,4.031,4.031,0,0,0,1.116-3.075v-1.019a5.9,5.9,0,0,1-4.633,1.989,6.745,6.745,0,0,1-5.555-2.688,11.123,11.123,0,0,1-2.123-7.121Zm5.091.372a6.927,6.927,0,0,0,1.037,4.064,3.313,3.313,0,0,0,2.856,1.487,3.571,3.571,0,0,0,3.347-1.748v-8.032a3.53,3.53,0,0,0-3.295-1.744,3.324,3.324,0,0,0-2.878,1.487,7.792,7.792,0,0,0-1.067,4.492Z" transform="translate(-392.246 -285.523)" fill="#fff"/>
    <path id="Path_63" data-name="Path 63" d="M689.468,474.316a9.354,9.354,0,0,1-6.827-2.573,9.178,9.178,0,0,1-2.644-6.85v-.506a11.5,11.5,0,0,1,1.116-5.132,8.12,8.12,0,0,1,3.142-3.488,8.809,8.809,0,0,1,4.667-1.212,7.908,7.908,0,0,1,6.154,2.465q2.246,2.465,2.231,6.991v2.079H685.17a4.73,4.73,0,0,0,1.487,2.993A4.506,4.506,0,0,0,689.8,470.2a5.5,5.5,0,0,0,4.6-2.131l2.5,2.8a7.675,7.675,0,0,1-3.1,2.529A10.21,10.21,0,0,1,689.468,474.316Zm-.584-15.659a3.18,3.18,0,0,0-2.454,1.026,5.329,5.329,0,0,0-1.208,2.938h7.065v-.409a3.779,3.779,0,0,0-.915-2.625A3.276,3.276,0,0,0,688.885,458.658Z" transform="translate(-427.137 -285.526)" fill="#fff"/>
    <path id="Path_64" data-name="Path 64" d="M745.019,459.684a14.011,14.011,0,0,0-1.833-.141q-2.889,0-3.786,1.956v12.468H734.31V454.909h4.808l.141,2.272a4.769,4.769,0,0,1,4.247-2.622,5.354,5.354,0,0,1,1.584.227Z" transform="translate(-461.254 -285.53)" fill="#fff"/>
  </g>
</svg>
