<svg xmlns="http://www.w3.org/2000/svg" width="325" height="325" viewBox="0 0 325 325">
  <g id="Group_34" data-name="Group 34" transform="translate(-798 -1665)">
    <rect id="Rectangle_22" data-name="Rectangle 22" width="325" height="325" transform="translate(798 1665)" fill="#73e6d3"/>
    <g id="feeling_forward" data-name="feeling forward" transform="translate(880 1775.89)">
      <g id="Layer_2" data-name="Layer 2">
        <path id="Path_65" data-name="Path 65" d="M79.214,13.995a13.222,13.222,0,0,1,6.21,1.9L91.07,3.447A29.475,29.475,0,0,0,77.253,0C62.575,0,55.088,10.548,52.5,23.77l-.832,4.219H30.485l.713-3.566c1.486-7.1,4.457-9.122,9.181-9.122a13.638,13.638,0,0,1,6.448,1.9L52.473,4.724A30.337,30.337,0,0,0,38.627,1.307c-14.856,0-22.344,10.518-24.959,23.77l-.624,2.971H4.695L1.9,41.747h8.26L0,92.11H17.828l9.894-50.363H48.967L38.8,92.11H56.454l10.073-50.3H77.788l2.674-13.787H69.29l.981-4.873C71.608,16.045,74.46,13.995,79.214,13.995Z" fill="#fff"/>
        <path id="Path_66" data-name="Path 66" d="M100.859,32.4,74.623,9.725a4.784,4.784,0,0,0-7.933,3.625V32.485h0l-26.3-22.76a4.784,4.784,0,0,0-7.9,3.625V58.692a4.784,4.784,0,0,0,7.9,3.625l26.3-22.7h0V58.751a4.784,4.784,0,0,0,7.933,3.625l26.236-22.76a4.813,4.813,0,0,0,0-7.22Z" transform="translate(64.047 16.838)" fill="#fff"/>
      </g>
    </g>
  </g>
</svg>
