<?xml version="1.0" encoding="utf-8"?>
<!-- Generator: Adobe Illustrator 23.0.2, SVG Export Plug-In . SVG Version: 6.00 Build 0)  -->
<svg version="1.1" id="Layer_1" xmlns="http://www.w3.org/2000/svg" xmlns:xlink="http://www.w3.org/1999/xlink" x="0px" y="0px"
	 viewBox="0 0 325 324.7" style="enable-background:new 0 0 325 324.7;" xml:space="preserve">
<style type="text/css">
	.st0{fill:#9E3A3A;}
	.st1{enable-background:new    ;}
	.st2{fill:#FFFFFF;}
</style>
<g id="fxf" transform="translate(-789 -1244)">
	<g>
		<defs>
			<rect id="SVGID_1_" x="789" y="1244" width="325" height="229"/>
		</defs>
		<clipPath id="SVGID_2_">
			<use xlink:href="#SVGID_1_"  style="overflow:visible;"/>
		</clipPath>
		<g style="clip-path:url(#SVGID_2_);">
			
				<image style="overflow:visible;" width="345" height="243" xlink:href="421AF3E.jpg"  transform="matrix(0.9448 0 0 0.9448 788.5034 1243.6973)">
			</image>
		</g>
	</g>
	<path class="st0" d="M789,1244v228.3v86.6v9.8h325v-9.8v-86.6V1244H789z M798,1472.3V1253h307v219.3H798z"/>
	<g id="Asset_12" transform="translate(848.963 1408.308)">
		<g transform="translate(0.037 6.298)">
			<path id="Path_73" class="st0" d="M184.2,57.7l-14.8-20.1h14.5l7.6,11.8l7.4-11.8H213l-14.8,20.1"/>
			<g class="st1">
				<path class="st2" d="M4.5,83l0.1,24.7l-4,0l-4,0l-0.1-24.7l-4.4,0l0-5.6l4.4,0l0-2.5c0-2.9,0.7-5.1,2.3-6.5
					c1.5-1.4,3.9-2.2,7-2.2c1.4,0,2.7,0,3.8,0.2l0,6.4l-2.5,0C6,72.8,5.3,73,5,73.4c-0.3,0.4-0.5,1.3-0.5,2.6l0,1.4l5.1,0l0,5.6
					L4.5,83z"/>
				<path class="st2" d="M14.1,77.4l3.8,0l3.8,0l0,5.4c0.3-0.6,0.6-1.2,0.9-1.7c1.9-3,4.3-4.5,7.2-4.5l1.8,0l0,8.2
					c-0.7-0.1-1.5-0.1-2.4-0.1c-2.4,0-4.2,0.6-5.4,1.8c-1.2,1.2-1.8,3-1.8,5.5l0.1,15.7l-4,0l-4,0L14.1,77.4z"/>
				<path class="st2" d="M43.8,108.3c-2.8,0-5.1-0.8-6.8-2.4s-2.6-3.7-2.6-6.3c0-2.8,0.7-5,2.3-6.6c1.5-1.7,3.8-2.7,6.7-3.2l5.3-0.8
					c1.4-0.2,2.5-0.5,3.4-1c0.4-0.2,0.7-0.5,0.9-1s0.3-1,0.2-1.5c-0.1-0.9-0.6-1.5-1.3-2C51,83,49.7,82.7,48,82.7
					c-1.5,0-2.7,0.4-3.6,1.1c-0.8,0.7-1.3,1.8-1.3,3.2l-7.7,0c0.1-3.5,1.3-6.2,3.6-8c2.2-1.8,5.5-2.7,9.9-2.7c3.8,0,6.7,0.8,8.9,2.3
					c2.2,1.6,3.3,3.7,3.3,6.5l0.1,16.9c0,1.4,0.1,2.3,0.3,2.9c0.2,0.5,0.7,1,1.3,1.3v0l0,1.1l-4.3,0l-4.3,0v0
					c-0.4-1.2-0.6-2.4-0.7-3.6l0-0.1C51,106.8,47.8,108.3,43.8,108.3z M53.3,96.3l0-3.5c-0.9,0.5-2.1,0.9-3.7,1.3l-2.9,0.6
					c-1.4,0.3-2.4,0.8-3.2,1.4s-1.1,1.6-1.1,2.6c0,1.2,0.3,2.2,1,2.8c0.7,0.7,1.6,1,2.7,1c2.6,0,4.6-0.9,6.1-2.7
					c0.3-0.4,0.5-0.9,0.7-1.6C53.2,97.6,53.3,96.9,53.3,96.3z"/>
				<path class="st2" d="M68,77.1l3.8,0l3.8,0l0,4.9c0.3-0.9,0.8-1.6,1.3-2.3c1.7-2.3,4.3-3.4,7.7-3.4c2.7,0,4.9,0.9,6.6,2.7
					c0.7,0.7,1.2,1.4,1.6,2.3l1-1.6c1.6-2.3,4-3.4,7.2-3.4c3.3,0,5.9,0.9,7.7,2.9c1.9,1.9,2.8,4.6,2.8,8.1l0.1,20.1l-4,0l-4,0
					l-0.1-17.8c0-2.3-0.4-3.9-1.1-5c-0.8-1.1-1.9-1.6-3.5-1.6c-1.7,0-3,0.5-3.8,1.6c-0.9,1-1.3,2.5-1.3,4.4l0.1,18.5l-4,0l-4,0
					l-0.1-19.1c0-1.8-0.4-3.2-1.2-4c-0.8-0.9-2-1.3-3.6-1.3c-1.6,0-2.8,0.5-3.7,1.6S76,87,76,88.9l0.1,18.5l-4,0l-4,0L68,77.1z"/>
				<path class="st2" d="M130.9,107.9c-4.6,0-8.2-1.4-10.7-4.2c-2.5-2.8-3.8-6.9-3.8-12.1c0-4.8,1.2-8.6,3.8-11.4
					c2.5-2.7,6-4.1,10.6-4.2c4.6,0,8.2,1.4,10.7,4.1c2.5,2.8,3.8,6.7,3.8,11.9c0,0.6,0,1.2-0.1,1.8l-20.6,0.1
					c0.2,2.4,0.7,4.2,1.6,5.4c1.1,1.5,3,2.2,5.6,2.2c1.2,0,2.3-0.4,3.3-1s1.6-1.5,1.8-2.5l8.1,0c-0.7,3.1-2.3,5.5-4.7,7.3
					C137.8,106.9,134.6,107.8,130.9,107.9z M136.9,88.8c-0.2-1.8-0.7-3.2-1.5-4.3c-1-1.3-2.6-2-4.8-2c-2.1,0-3.6,0.8-4.7,2.4
					c-0.7,1-1.1,2.3-1.4,3.9L136.9,88.8z"/>
			</g>
			<g class="st1">
				<path class="st0" d="M4.5,12.4l0.1,24.7l-4,0l-4,0l-0.1-24.7l-4.4,0l0-5.6l4.4,0l0-2.5c0-2.9,0.7-5.1,2.3-6.5
					c1.5-1.4,3.9-2.2,7-2.2c1.4,0,2.7,0,3.8,0.2l0,6.4l-2.5,0C6,2.1,5.3,2.4,5,2.8C4.6,3.2,4.4,4.1,4.5,5.4l0,1.4l5.1,0l0,5.6
					L4.5,12.4z"/>
				<path class="st0" d="M14.1,6.7l3.8,0l3.8,0l0,5.4c0.3-0.6,0.6-1.2,0.9-1.7c1.9-3,4.3-4.5,7.2-4.5l1.8,0l0,8.2
					c-0.7-0.1-1.5-0.1-2.4-0.1c-2.4,0-4.2,0.6-5.4,1.8c-1.2,1.2-1.8,3-1.8,5.5L22.3,37l-4,0l-4,0L14.1,6.7z"/>
				<path class="st0" d="M43.8,37.6c-2.8,0-5.1-0.8-6.8-2.4s-2.6-3.7-2.6-6.3c0-2.8,0.7-5,2.3-6.6c1.5-1.7,3.8-2.7,6.7-3.2l5.3-0.8
					c1.4-0.2,2.5-0.5,3.4-1c0.4-0.2,0.7-0.5,0.9-1c0.2-0.5,0.3-1,0.2-1.5c-0.1-0.9-0.6-1.5-1.3-2c-0.9-0.6-2.2-0.9-3.9-0.8
					c-1.5,0-2.7,0.4-3.6,1.1c-0.8,0.7-1.3,1.8-1.3,3.2l-7.7,0c0.1-3.5,1.3-6.2,3.6-8c2.2-1.8,5.5-2.7,9.9-2.7c3.8,0,6.7,0.8,8.9,2.3
					c2.2,1.6,3.3,3.7,3.3,6.5l0.1,16.9c0,1.4,0.1,2.3,0.3,2.9c0.2,0.5,0.7,1,1.3,1.3v0l0,1.1l-4.3,0l-4.3,0v0
					c-0.4-1.2-0.6-2.4-0.7-3.6l0-0.1C51,36.1,47.8,37.6,43.8,37.6z M53.3,25.6l0-3.5c-0.9,0.5-2.1,0.9-3.7,1.3L46.7,24
					c-1.4,0.3-2.4,0.8-3.2,1.4s-1.1,1.6-1.1,2.6c0,1.2,0.3,2.2,1,2.8c0.7,0.7,1.6,1,2.7,1c2.6,0,4.6-0.9,6.1-2.7
					c0.3-0.4,0.5-0.9,0.7-1.6C53.2,26.9,53.3,26.3,53.3,25.6z"/>
				<path class="st0" d="M68,6.5l3.8,0l3.8,0l0,4.9c0.3-0.9,0.8-1.6,1.3-2.3c1.7-2.3,4.3-3.4,7.7-3.4c2.7,0,4.9,0.9,6.6,2.7
					c0.7,0.7,1.2,1.4,1.6,2.3l1-1.6c1.6-2.3,4-3.4,7.2-3.4c3.3,0,5.9,0.9,7.7,2.9c1.9,1.9,2.8,4.6,2.8,8.1l0.1,20.1l-4,0l-4,0
					l-0.1-17.8c0-2.3-0.4-3.9-1.1-5c-0.8-1.1-1.9-1.6-3.5-1.6c-1.7,0-3,0.5-3.8,1.6c-0.9,1-1.3,2.5-1.3,4.4l0.1,18.5l-4,0l-4,0
					l-0.1-19.1c0-1.8-0.4-3.2-1.2-4c-0.8-0.9-2-1.3-3.6-1.3c-1.6,0-2.8,0.5-3.7,1.6S76,16.3,76,18.2l0.1,18.5l-4,0l-4,0L68,6.5z"/>
				<path class="st0" d="M130.9,37.2c-4.6,0-8.2-1.4-10.7-4.2c-2.5-2.8-3.8-6.9-3.8-12.1c0-4.8,1.2-8.6,3.8-11.4
					c2.5-2.7,6-4.1,10.6-4.2c4.6,0,8.2,1.4,10.7,4.1c2.5,2.8,3.8,6.7,3.8,11.9c0,0.6,0,1.2-0.1,1.8l-20.6,0.1
					c0.2,2.4,0.7,4.2,1.6,5.4c1.1,1.5,3,2.2,5.6,2.2c1.2,0,2.3-0.4,3.3-1s1.6-1.5,1.8-2.5l8.1,0c-0.7,3.1-2.3,5.5-4.7,7.3
					C137.8,36.3,134.6,37.2,130.9,37.2z M136.9,18.1c-0.2-1.8-0.7-3.2-1.5-4.2c-1-1.3-2.6-2-4.8-2c-2.1,0-3.6,0.8-4.7,2.4
					c-0.7,1-1.1,2.3-1.4,3.9L136.9,18.1z"/>
			</g>
			<path id="Path_74" class="st2" d="M198.3,57.7l15.4,20.7h-14.8L191,66.1l-7.9,12.3h-14.4l15.5-20.7"/>
		</g>
	</g>
</g>
</svg>
