<svg xmlns="http://www.w3.org/2000/svg" viewBox="0 0 72.75 34.75"><defs><style>.cls-1,.cls-2{fill:none;stroke:#707070;stroke-miterlimit:10;}.cls-1{stroke-width:0.75px;}.cls-2{stroke-width:0.5px;}</style></defs><title>linework-logo</title><g id="Layer_2" data-name="Layer 2"><g id="Layer_1-2" data-name="Layer 1"><rect class="cls-1" x="0.38" y="0.38" width="72" height="34"/><rect class="cls-2" x="61.04" y="7.8" width="2.62" height="15.89"/><path class="cls-2" d="M36.86,13.29a3.56,3.56,0,0,0-1.81.47,5,5,0,0,0-1.53,1.45V13.63H30.94V23.69h2.63V18.86a6.76,6.76,0,0,1,.11-1.4,2.42,2.42,0,0,1,.35-.82,2.09,2.09,0,0,1,.76-.72,2.12,2.12,0,0,1,1-.25,1.46,1.46,0,0,1,1.33.6,5.06,5.06,0,0,1,.38,2.45v5h2.64V17.5a11,11,0,0,0-.09-1.66,3.78,3.78,0,0,0-.29-.95,2.8,2.8,0,0,0-1.13-1.2A3.68,3.68,0,0,0,36.86,13.29Z"/><path class="cls-2" d="M12.39,24.09a3.59,3.59,0,0,0,1.83-.44,3.65,3.65,0,0,0,1.28-1.4l0,1.44H18V7.8h-2.5v5.73q0,.57,0,1a6.61,6.61,0,0,0,.07.82,4.87,4.87,0,0,0-1.41-1.59,3,3,0,0,0-1.73-.51,3.59,3.59,0,0,0-3,1.43,6.47,6.47,0,0,0-1.08,4,6.51,6.51,0,0,0,1.1,3.93A3.46,3.46,0,0,0,12.39,24.09ZM15,16.5a3.41,3.41,0,0,1,.62,2.15,3.34,3.34,0,0,1-.6,2.12,2,2,0,0,1-1.69.76,2,2,0,0,1-1.68-.77,3.37,3.37,0,0,1-.6-2.13,3.36,3.36,0,0,1,.61-2.14,2,2,0,0,1,1.69-.78A2,2,0,0,1,15,16.5Z"/><rect class="cls-2" x="20.88" y="13.97" width="5.99" height="9.17"/><line class="cls-2" x1="20.88" y1="23.08" x2="26.87" y2="13.97"/><line class="cls-2" x1="20.88" y1="13.97" x2="26.87" y2="23.14"/><rect class="cls-2" x="42.88" y="13.97" width="5.99" height="9.17"/><line class="cls-2" x1="42.88" y1="23.08" x2="48.87" y2="13.97"/><line class="cls-2" x1="42.88" y1="13.97" x2="48.87" y2="23.14"/><rect class="cls-2" x="51.88" y="13.97" width="5.99" height="9.17"/><line class="cls-2" x1="51.88" y1="23.08" x2="57.87" y2="13.97"/><line class="cls-2" x1="51.88" y1="13.97" x2="57.87" y2="23.14"/></g></g></svg>