<?xml version="1.0" encoding="utf-8"?>
<!-- Generator: Adobe Illustrator 23.1.0, SVG Export Plug-In . SVG Version: 6.00 Build 0)  -->
<svg version="1.1" id="logo" xmlns="http://www.w3.org/2000/svg" xmlns:xlink="http://www.w3.org/1999/xlink" x="0px" y="0px"
	 viewBox="0 0 167 80" style="enable-background:new 0 0 167 80;" xml:space="preserve">
<style type="text/css">
	.st0{fill:#9E9986;}
</style>
<g id="Layer_1">
	<path id="Path_3" class="st0" d="M99.5,52.4h11.9l-6-8.9L99.5,52.4z"/>
	<path id="Path_4" class="st0" d="M48.1,33.7V51l5.8-8.6L48.1,33.7z"/>
	<path id="Path_5" class="st0" d="M99.1,33.7V51l5.8-8.6L99.1,33.7z"/>
	<path id="Path_6" class="st0" d="M111.9,51V33.7l-5.8,8.6L111.9,51z"/>
	<path id="Path_7" class="st0" d="M60.5,32.4H48.6l6,9L60.5,32.4z"/>
	<path id="Path_8" class="st0" d="M30.6,35.8c-1.5-0.1-3,0.6-4,1.8c-1,1.5-1.6,3.2-1.5,5c-0.1,1.8,0.4,3.6,1.4,5
		c1,1.2,2.4,1.9,4,1.8c1.5,0.1,3-0.6,4-1.8c1-1.5,1.5-3.2,1.4-5c0.1-1.8-0.5-3.5-1.6-5C33.5,36.5,32.1,35.8,30.6,35.8z"/>
	<path id="Path_9" class="st0" d="M48.6,52.4h11.9l-6-8.9L48.6,52.4z"/>
	<path id="Path_10" class="st0" d="M60.9,51V33.7l-5.8,8.6L60.9,51z"/>
	<path id="Path_11" class="st0" d="M111.5,32.4H99.5l6,9L111.5,32.4z"/>
	<path id="Path_12" class="st0" d="M120,33.7V51l5.8-8.6L120,33.7z"/>
	<path id="Path_13" class="st0" d="M0,0v80h167V0H0z M40.9,54.6H35v-3.4c-0.7,1.3-1.7,2.5-3,3.3c-1.3,0.7-2.8,1.1-4.2,1.1
		c-2.7,0-5.2-1.3-6.7-3.5c-1.8-2.7-2.7-6-2.5-9.3c-0.2-3.3,0.7-6.6,2.5-9.4c1.6-2.2,4.2-3.5,7-3.3c1.4,0,2.8,0.4,4,1.2
		c1.3,1,2.5,2.3,3.3,3.7c0-0.6-0.1-1.2-0.2-1.9s0-1.5,0-2.4V17.2h5.8L40.9,54.6z M62,53.6H47V31.2H62V53.6z M92.2,40.7v13.8h-6.1
		V42.8c0.2-2-0.1-3.9-0.9-5.8c-0.7-1-1.9-1.5-3.1-1.4c-0.8,0-1.6,0.2-2.3,0.6c-0.7,0.4-1.3,1-1.8,1.7c-0.4,0.6-0.7,1.2-0.8,1.9
		C77,41,77,42.1,77,43.2v11.4h-6.1V30.9h6v3.7c0.9-1.4,2.1-2.5,3.5-3.4c1.3-0.7,2.7-1.1,4.2-1.1c1.4,0,2.8,0.3,4.1,0.9
		c1.1,0.7,2.1,1.7,2.6,2.8c0.3,0.7,0.6,1.5,0.7,2.2c0.2,1.3,0.2,2.6,0.2,3.9L92.2,40.7z M113.1,53.6H98V31.2h15.1V53.6z M133.9,53.6
		h-15.1V31.2h15.1L133.9,53.6z M146.8,54.6h-6.1V17.2h6.1V54.6z"/>
	<path id="Path_14" class="st0" d="M120.4,52.4h11.9l-6-8.9L120.4,52.4z"/>
	<path id="Path_15" class="st0" d="M132.8,51V33.7l-5.8,8.6L132.8,51z"/>
	<path id="Path_16" class="st0" d="M132.3,32.4h-11.9l6,9L132.3,32.4z"/>
</g>
</svg>
