<svg xmlns="http://www.w3.org/2000/svg" viewBox="0 0 72 34"><defs><style>.cls-1{fill:#fac9b8;}</style></defs><title>Asset 4</title><g id="Layer_2" data-name="Layer 2"><g id="Layer_1-2" data-name="Layer 1"><polygon class="cls-1" points="42.97 22.25 48.03 22.25 45.5 18.45 42.97 22.25"/><polygon class="cls-1" points="20.75 14.33 20.75 21.67 23.2 18 20.75 14.33"/><polygon class="cls-1" points="42.75 14.33 42.75 21.67 45.2 18 42.75 14.33"/><polygon class="cls-1" points="48.25 21.67 48.25 14.33 45.8 18 48.25 21.67"/><polygon class="cls-1" points="26.03 13.75 20.97 13.75 23.5 17.55 26.03 13.75"/><path class="cls-1" d="M13,15.21a2,2,0,0,0-1.68.77,3.36,3.36,0,0,0-.62,2.14,3.31,3.31,0,0,0,.61,2.13A2,2,0,0,0,13,21a2,2,0,0,0,1.69-.76,3.32,3.32,0,0,0,.6-2.12A3.38,3.38,0,0,0,14.63,16,2,2,0,0,0,13,15.21Z"/><polygon class="cls-1" points="20.97 22.25 26.03 22.25 23.5 18.45 20.97 22.25"/><polygon class="cls-1" points="26.25 21.67 26.25 14.33 23.8 18 26.25 21.67"/><polygon class="cls-1" points="48.03 13.75 42.97 13.75 45.5 17.55 48.03 13.75"/><polygon class="cls-1" points="51.75 14.33 51.75 21.67 54.2 18 51.75 14.33"/><path class="cls-1" d="M0,0V34H72V0ZM17.64,23.19H15.09l0-1.45a3.67,3.67,0,0,1-1.29,1.4,3.5,3.5,0,0,1-1.83.45,3.44,3.44,0,0,1-2.9-1.49A6.4,6.4,0,0,1,8,18.17a6.47,6.47,0,0,1,1.08-4,3.57,3.57,0,0,1,3-1.42,3.09,3.09,0,0,1,1.74.5,4.85,4.85,0,0,1,1.4,1.59c0-.25-.05-.52-.07-.82s0-.63,0-1V7.29h2.49Zm9.11-.44h-6.5v-9.5h6.5Zm13-5.44v5.88H37.13v-5a5.09,5.09,0,0,0-.39-2.45,1.48,1.48,0,0,0-1.33-.59,2,2,0,0,0-1,.25,2.15,2.15,0,0,0-.76.71,2.64,2.64,0,0,0-.35.82,7,7,0,0,0-.1,1.41v4.83H30.57V13.13h2.57v1.58a5.22,5.22,0,0,1,1.53-1.46,3.58,3.58,0,0,1,1.81-.46,3.68,3.68,0,0,1,1.77.39,2.82,2.82,0,0,1,1.13,1.21,3.31,3.31,0,0,1,.29.95A10.8,10.8,0,0,1,39.76,17Zm9,5.44h-6.5v-9.5h6.5Zm9,0h-6.5v-9.5h6.5Zm5.54.44H60.67V7.29h2.62Z"/><polygon class="cls-1" points="51.97 22.25 57.03 22.25 54.5 18.45 51.97 22.25"/><polygon class="cls-1" points="57.25 21.67 57.25 14.33 54.8 18 57.25 21.67"/><polygon class="cls-1" points="57.03 13.75 51.97 13.75 54.5 17.55 57.03 13.75"/></g></g></svg>