<svg id="logo" xmlns="http://www.w3.org/2000/svg" width="166.99" height="80.039" viewBox="0 0 166.99 80.039">
  <g id="Layer_1" data-name="Layer 1">
    <path id="Path_3" data-name="Path 3" d="M42.97,27.4H54.882L48.926,18.45Z" transform="translate(56.578 24.983)" fill="#cec9bc"/>
    <path id="Path_4" data-name="Path 4" d="M20.75,14.33V31.609l5.768-8.64Z" transform="translate(27.35 19.404)" fill="#cec9bc"/>
    <path id="Path_5" data-name="Path 5" d="M42.75,14.33V31.609l5.768-8.64Z" transform="translate(56.348 19.404)" fill="#cec9bc"/>
    <path id="Path_6" data-name="Path 6" d="M51.568,31.609V14.33L45.8,22.97Z" transform="translate(60.368 19.404)" fill="#cec9bc"/>
    <path id="Path_7" data-name="Path 7" d="M32.882,13.75H20.97L26.926,22.7Z" transform="translate(27.611 18.619)" fill="#cec9bc"/>
    <path id="Path_8" data-name="Path 8" d="M16.123,15.213a4.708,4.708,0,0,0-3.955,1.813,7.91,7.91,0,0,0-1.46,5.038,7.792,7.792,0,0,0,1.436,5.014,4.708,4.708,0,0,0,3.978,1.766A4.708,4.708,0,0,0,20.1,27.055a7.816,7.816,0,0,0,1.412-4.991,7.957,7.957,0,0,0-1.554-4.991A4.708,4.708,0,0,0,16.123,15.213Z" transform="translate(14.48 20.592)" fill="#cec9bc"/>
    <path id="Path_9" data-name="Path 9" d="M20.97,27.4H32.882L26.926,18.45Z" transform="translate(27.611 24.983)" fill="#cec9bc"/>
    <path id="Path_10" data-name="Path 10" d="M29.568,31.609V14.33L23.8,22.97Z" transform="translate(31.37 19.404)" fill="#cec9bc"/>
    <path id="Path_11" data-name="Path 11" d="M54.882,13.75H42.97L48.926,22.7Z" transform="translate(56.578 18.619)" fill="#cec9bc"/>
    <path id="Path_12" data-name="Path 12" d="M51.75,14.33V31.609l5.768-8.64Z" transform="translate(68.211 19.404)" fill="#cec9bc"/>
    <path id="Path_13" data-name="Path 13" d="M0,0V80.039H166.99V0ZM40.913,54.591H35V51.178a8.592,8.592,0,0,1-2.992,3.3,8.022,8.022,0,0,1-4.244,1.059,7.943,7.943,0,0,1-6.726-3.508,15.236,15.236,0,0,1-2.482-9.252,15.4,15.4,0,0,1,2.5-9.416,8.234,8.234,0,0,1,6.958-3.343,7.089,7.089,0,0,1,4.036,1.177A11.366,11.366,0,0,1,35.3,34.935c0-.589-.116-1.224-.162-1.93s0-1.483,0-2.354V17.161h5.775Zm21.129-1.036H46.966V31.192H62.042ZM92.193,40.749V54.591H86.116V42.821a12.144,12.144,0,0,0-.9-5.768,3.412,3.412,0,0,0-3.085-1.389,4.584,4.584,0,0,0-2.319.589,5.017,5.017,0,0,0-1.763,1.671,6.264,6.264,0,0,0-.812,1.93A16.721,16.721,0,0,0,77,43.174v11.37H70.9V30.909h5.961v3.719a12.186,12.186,0,0,1,3.549-3.437,8.207,8.207,0,0,1,4.2-1.083,8.43,8.43,0,0,1,4.105.918,6.6,6.6,0,0,1,2.621,2.848,7.878,7.878,0,0,1,.673,2.236,25.8,25.8,0,0,1,.209,3.908Zm20.874,12.806H97.991V31.192h15.076Zm20.874,0H118.865V31.192H133.94Zm12.849,1.036h-6.077V17.161h6.077Z" fill="#cec9bc"/>
    <path id="Path_14" data-name="Path 14" d="M51.97,27.4H63.882L57.926,18.45Z" transform="translate(68.428 24.983)" fill="#cec9bc"/>
    <path id="Path_15" data-name="Path 15" d="M60.568,31.609V14.33L54.8,22.97Z" transform="translate(72.231 19.404)" fill="#cec9bc"/>
    <path id="Path_16" data-name="Path 16" d="M63.882,13.75H51.97L57.926,22.7Z" transform="translate(68.428 18.619)" fill="#cec9bc"/>
  </g>
</svg>
