<svg xmlns="http://www.w3.org/2000/svg" width="325.624" height="325.624" viewBox="0 0 325.624 325.624"><g transform="translate(-1212.942 -1664.942)"><g transform="translate(1213 1665)" fill="none" stroke="#fff" stroke-width="6"><rect width="149.05" height="149.05" stroke="none"/><rect x="3" y="3" width="143.05" height="143.05" fill="none"/></g><g transform="translate(1213 1841)" fill="none" stroke="#fff" stroke-width="6"><rect width="149.05" height="149.05" stroke="none"/><rect x="3" y="3" width="143.05" height="143.05" fill="none"/></g><g transform="translate(1389 1665)" fill="none" stroke="#fff" stroke-width="6"><rect width="149.05" height="149.05" stroke="none"/><rect x="3" y="3" width="143.05" height="143.05" fill="none"/></g><g transform="translate(1389 1841)" fill="none" stroke="#fff" stroke-width="6"><rect width="149.05" height="149.05" stroke="none"/><rect x="3" y="3" width="143.05" height="143.05" fill="none"/></g><line y1="145.381" x2="145.381" transform="translate(1215.064 1667.064)" fill="none" stroke="#fff" stroke-width="6"/><line y1="145.381" x2="145.381" transform="translate(1215.064 1843.064)" fill="none" stroke="#fff" stroke-width="6"/><line y1="145.381" x2="145.381" transform="translate(1391.064 1667.064)" fill="none" stroke="#fff" stroke-width="6"/><line y1="145.381" x2="145.381" transform="translate(1391.064 1843.064)" fill="none" stroke="#fff" stroke-width="6"/><line x1="144.923" y1="144.923" transform="translate(1215.064 1667.064)" fill="none" stroke="#fff" stroke-width="6"/><line x1="144.923" y1="144.923" transform="translate(1215.064 1843.064)" fill="none" stroke="#fff" stroke-width="6"/><line x1="144.923" y1="144.923" transform="translate(1391.064 1667.064)" fill="none" stroke="#fff" stroke-width="6"/><line x1="144.923" y1="144.923" transform="translate(1391.064 1843.064)" fill="none" stroke="#fff" stroke-width="6"/></g></svg>